<?xml version="1.0" encoding="utf-8" standalone="no"?>
<!DOCTYPE svg PUBLIC "-//W3C//DTD SVG 1.1//EN"
  "http://www.w3.org/Graphics/SVG/1.1/DTD/svg11.dtd">
<svg xmlns:xlink="http://www.w3.org/1999/xlink" width="360pt" height="311.04pt" viewBox="0 0 360 311.04" xmlns="http://www.w3.org/2000/svg" version="1.1">
 <metadata>
  <rdf:RDF xmlns:dc="http://purl.org/dc/elements/1.1/" xmlns:cc="http://creativecommons.org/ns#" xmlns:rdf="http://www.w3.org/1999/02/22-rdf-syntax-ns#">
   <cc:Work>
    <dc:type rdf:resource="http://purl.org/dc/dcmitype/StillImage"/>
    <dc:date>2025-12-04T10:15:51.546768</dc:date>
    <dc:format>image/svg+xml</dc:format>
    <dc:creator>
     <cc:Agent>
      <dc:title>Matplotlib v3.10.7, https://matplotlib.org/</dc:title>
     </cc:Agent>
    </dc:creator>
   </cc:Work>
  </rdf:RDF>
 </metadata>
 <defs>
  <style type="text/css">*{stroke-linejoin: round; stroke-linecap: butt}</style>
 </defs>
 <g id="figure_1">
  <g id="patch_1">
   <path d="M 0 311.04 
L 360 311.04 
L 360 0 
L 0 0 
z
" style="fill: #ffffff"/>
  </g>
  <g id="axes_1">
   <g id="table_1">
    <g id="patch_2">
     <path d="M 46.349063 59.41763 
L 241.407188 59.41763 
L 241.407188 46.534834 
L 46.349063 46.534834 
z
" style="fill: #f2f2f2; stroke: #6c6c6c; stroke-linejoin: miter"/>
    </g>
    <g id="text_1">
     <!-- Fase -->
     <g style="fill: #6c6c6c" transform="translate(65.854875 55.735607) scale(0.1 -0.1)">
      <defs>
       <path id="DejaVuSansMono-Bold-46" d="M 3475 3853 
L 1491 3853 
L 1491 2847 
L 3297 2847 
L 3297 2034 
L 1491 2034 
L 1491 0 
L 569 0 
L 569 4666 
L 3475 4666 
L 3475 3853 
z
" transform="scale(0.015625)"/>
       <path id="DejaVuSansMono-Bold-61" d="M 2188 1644 
Q 1675 1644 1472 1512 
Q 1269 1381 1269 1063 
Q 1269 825 1409 684 
Q 1550 544 1791 544 
Q 2153 544 2353 817 
Q 2553 1091 2553 1581 
L 2553 1644 
L 2188 1644 
z
M 3463 1997 
L 3463 0 
L 2553 0 
L 2553 391 
Q 2388 159 2128 34 
Q 1869 -91 1556 -91 
Q 959 -91 626 225 
Q 294 541 294 1106 
Q 294 1719 691 2011 
Q 1088 2303 1919 2303 
L 2553 2303 
L 2553 2456 
Q 2553 2678 2392 2792 
Q 2231 2906 1919 2906 
Q 1591 2906 1283 2823 
Q 975 2741 641 2559 
L 641 3341 
Q 944 3466 1256 3525 
Q 1569 3584 1919 3584 
Q 2772 3584 3117 3237 
Q 3463 2891 3463 1997 
z
" transform="scale(0.015625)"/>
       <path id="DejaVuSansMono-Bold-73" d="M 3097 3391 
L 3097 2591 
Q 2844 2753 2570 2836 
Q 2297 2919 2022 2919 
Q 1716 2919 1559 2830 
Q 1403 2741 1403 2566 
Q 1403 2316 2072 2159 
L 2106 2150 
L 2369 2088 
Q 2869 1969 3101 1705 
Q 3334 1441 3334 991 
Q 3334 450 2979 179 
Q 2625 -91 1913 -91 
Q 1597 -91 1265 -36 
Q 934 19 594 128 
L 594 928 
Q 897 756 1211 665 
Q 1525 575 1819 575 
Q 2141 575 2306 669 
Q 2472 763 2472 941 
Q 2472 1116 2355 1209 
Q 2238 1303 1797 1409 
L 1544 1466 
Q 1019 1584 778 1837 
Q 538 2091 538 2516 
Q 538 3022 903 3303 
Q 1269 3584 1931 3584 
Q 2228 3584 2523 3536 
Q 2819 3488 3097 3391 
z
" transform="scale(0.015625)"/>
       <path id="DejaVuSansMono-Bold-65" d="M 3444 172 
Q 3125 41 2794 -25 
Q 2463 -91 2094 -91 
Q 1216 -91 752 379 
Q 288 850 288 1734 
Q 288 2591 734 3087 
Q 1181 3584 1953 3584 
Q 2731 3584 3161 3123 
Q 3591 2663 3591 1825 
L 3591 1453 
L 1219 1453 
Q 1222 1041 1462 837 
Q 1703 634 2181 634 
Q 2497 634 2803 725 
Q 3109 816 3444 1013 
L 3444 172 
z
M 2669 2141 
Q 2663 2503 2483 2689 
Q 2303 2875 1953 2875 
Q 1638 2875 1450 2683 
Q 1263 2491 1228 2138 
L 2669 2141 
z
" transform="scale(0.015625)"/>
      </defs>
      <use xlink:href="#DejaVuSansMono-Bold-46"/>
      <use xlink:href="#DejaVuSansMono-Bold-61" transform="translate(60.205078 0)"/>
      <use xlink:href="#DejaVuSansMono-Bold-73" transform="translate(120.410156 0)"/>
      <use xlink:href="#DejaVuSansMono-Bold-65" transform="translate(180.615234 0)"/>
     </g>
    </g>
    <g id="patch_3">
     <path d="M 241.407188 59.41763 
L 313.650937 59.41763 
L 313.650937 46.534834 
L 241.407188 46.534834 
z
" style="fill: #f2f2f2; stroke: #6c6c6c; stroke-linejoin: miter"/>
    </g>
    <g id="text_2">
     <!-- Date -->
     <g style="fill: #6c6c6c" transform="translate(248.631563 55.735607) scale(0.1 -0.1)">
      <defs>
       <path id="DejaVuSansMono-Bold-44" d="M 1350 3834 
L 1350 831 
L 1600 831 
Q 2144 831 2375 1173 
Q 2606 1516 2606 2338 
Q 2606 3153 2375 3493 
Q 2144 3834 1600 3834 
L 1350 3834 
z
M 428 4666 
L 1416 4666 
Q 2559 4666 3062 4120 
Q 3566 3575 3566 2338 
Q 3566 1097 3062 548 
Q 2559 0 1416 0 
L 428 0 
L 428 4666 
z
" transform="scale(0.015625)"/>
       <path id="DejaVuSansMono-Bold-74" d="M 2156 4494 
L 2156 3500 
L 3353 3500 
L 3353 2797 
L 2156 2797 
L 2156 1141 
Q 2156 906 2270 804 
Q 2384 703 2650 703 
L 3353 703 
L 3353 0 
L 2584 0 
Q 1797 0 1519 251 
Q 1241 503 1241 1184 
L 1241 2797 
L 347 2797 
L 347 3500 
L 1241 3500 
L 1241 4494 
L 2156 4494 
z
" transform="scale(0.015625)"/>
      </defs>
      <use xlink:href="#DejaVuSansMono-Bold-44"/>
      <use xlink:href="#DejaVuSansMono-Bold-61" transform="translate(60.205078 0)"/>
      <use xlink:href="#DejaVuSansMono-Bold-74" transform="translate(120.410156 0)"/>
      <use xlink:href="#DejaVuSansMono-Bold-65" transform="translate(180.615234 0)"/>
     </g>
    </g>
    <g id="patch_4">
     <path d="M 46.349063 72.300426 
L 241.407188 72.300426 
L 241.407188 59.41763 
L 46.349063 59.41763 
z
" style="fill: #1f77b4; fill-opacity: 0.2; stroke: #6c6c6c; stroke-linejoin: miter"/>
    </g>
    <g id="text_3">
     <!-- Kick-off &amp; Project Setup -->
     <g style="fill: #6c6c6c" transform="translate(65.854875 68.884028) scale(0.1 -0.1)">
      <defs>
       <path id="DejaVuSansMono-Bold-4b" d="M 366 4666 
L 1288 4666 
L 1288 2822 
L 2731 4666 
L 3775 4666 
L 2303 2828 
L 3828 0 
L 2803 0 
L 1697 2100 
L 1288 1581 
L 1288 0 
L 366 0 
L 366 4666 
z
" transform="scale(0.015625)"/>
       <path id="DejaVuSansMono-Bold-69" d="M 691 3500 
L 2503 3500 
L 2503 703 
L 3641 703 
L 3641 0 
L 447 0 
L 447 703 
L 1588 703 
L 1588 2797 
L 691 2797 
L 691 3500 
z
M 1588 5203 
L 2503 5203 
L 2503 4134 
L 1588 4134 
L 1588 5203 
z
" transform="scale(0.015625)"/>
       <path id="DejaVuSansMono-Bold-63" d="M 3316 178 
Q 3084 44 2818 -23 
Q 2553 -91 2247 -91 
Q 1438 -91 981 396 
Q 525 884 525 1747 
Q 525 2613 984 3102 
Q 1444 3591 2253 3591 
Q 2534 3591 2795 3525 
Q 3056 3459 3316 3322 
L 3316 2484 
Q 3116 2656 2877 2748 
Q 2638 2841 2381 2841 
Q 1934 2841 1693 2556 
Q 1453 2272 1453 1747 
Q 1453 1222 1693 940 
Q 1934 659 2381 659 
Q 2647 659 2878 748 
Q 3109 838 3316 1019 
L 3316 178 
z
" transform="scale(0.015625)"/>
       <path id="DejaVuSansMono-Bold-6b" d="M 544 4863 
L 1459 4863 
L 1459 2309 
L 2559 3500 
L 3669 3500 
L 2344 2194 
L 3744 0 
L 2731 0 
L 1772 1638 
L 1459 1338 
L 1459 0 
L 544 0 
L 544 4863 
z
" transform="scale(0.015625)"/>
       <path id="DejaVuSansMono-Bold-2d" d="M 941 2297 
L 2913 2297 
L 2913 1388 
L 941 1388 
L 941 2297 
z
" transform="scale(0.015625)"/>
       <path id="DejaVuSansMono-Bold-6f" d="M 1925 2841 
Q 1597 2841 1409 2552 
Q 1222 2263 1222 1747 
Q 1222 1231 1409 942 
Q 1597 653 1925 653 
Q 2256 653 2443 942 
Q 2631 1231 2631 1747 
Q 2631 2263 2443 2552 
Q 2256 2841 1925 2841 
z
M 306 1747 
Q 306 2594 745 3089 
Q 1184 3584 1925 3584 
Q 2669 3584 3108 3089 
Q 3547 2594 3547 1747 
Q 3547 900 3108 404 
Q 2669 -91 1925 -91 
Q 1184 -91 745 404 
Q 306 900 306 1747 
z
" transform="scale(0.015625)"/>
       <path id="DejaVuSansMono-Bold-66" d="M 2309 3806 
L 2309 3500 
L 3384 3500 
L 3384 2797 
L 2309 2797 
L 2309 0 
L 1394 0 
L 1394 2797 
L 544 2797 
L 544 3500 
L 1394 3500 
L 1394 3744 
Q 1394 4375 1656 4619 
Q 1919 4863 2631 4863 
L 3384 4863 
L 3384 4159 
L 2669 4159 
Q 2463 4159 2389 4084 
Q 2316 4009 2309 3806 
z
" transform="scale(0.015625)"/>
       <path id="DejaVuSansMono-Bold-20" transform="scale(0.015625)"/>
       <path id="DejaVuSansMono-Bold-26" d="M 2719 225 
Q 2484 69 2220 -11 
Q 1956 -91 1684 -91 
Q 984 -91 550 318 
Q 116 728 116 1381 
Q 116 1834 336 2206 
Q 556 2578 991 2853 
Q 834 3097 759 3305 
Q 684 3513 684 3700 
Q 684 4206 1025 4478 
Q 1366 4750 2009 4750 
Q 2238 4750 2456 4715 
Q 2675 4681 2888 4616 
L 2888 3816 
Q 2688 3928 2483 3986 
Q 2278 4044 2075 4044 
Q 1825 4044 1697 3956 
Q 1569 3869 1569 3700 
Q 1569 3588 1664 3391 
Q 1759 3194 1972 2875 
L 2950 1375 
Q 3016 1494 3050 1647 
Q 3084 1800 3084 1978 
Q 3084 2072 3078 2161 
Q 3072 2250 3059 2328 
L 3794 2328 
L 3794 2169 
Q 3794 1716 3687 1377 
Q 3581 1038 3353 769 
L 3859 0 
L 2869 0 
L 2719 225 
z
M 1375 2284 
Q 1169 2150 1064 1964 
Q 959 1778 959 1550 
Q 959 1169 1204 908 
Q 1450 647 1806 647 
Q 1894 647 1986 667 
Q 2078 688 2166 725 
Q 2172 728 2191 738 
Q 2281 781 2338 819 
L 1375 2284 
z
" transform="scale(0.015625)"/>
       <path id="DejaVuSansMono-Bold-50" d="M 1428 3891 
L 1428 2522 
L 1806 2522 
Q 2259 2522 2442 2675 
Q 2625 2828 2625 3206 
Q 2625 3584 2442 3737 
Q 2259 3891 1806 3891 
L 1428 3891 
z
M 506 4666 
L 1772 4666 
Q 2738 4666 3161 4322 
Q 3584 3978 3584 3206 
Q 3584 2434 3161 2090 
Q 2738 1747 1772 1747 
L 1428 1747 
L 1428 0 
L 506 0 
L 506 4666 
z
" transform="scale(0.015625)"/>
       <path id="DejaVuSansMono-Bold-72" d="M 3597 2534 
Q 3447 2672 3245 2740 
Q 3044 2809 2803 2809 
Q 2513 2809 2295 2707 
Q 2078 2606 1959 2413 
Q 1884 2294 1854 2125 
Q 1825 1956 1825 1613 
L 1825 0 
L 909 0 
L 909 3500 
L 1825 3500 
L 1825 2956 
Q 1959 3256 2237 3420 
Q 2516 3584 2888 3584 
Q 3075 3584 3254 3539 
Q 3434 3494 3597 3406 
L 3597 2534 
z
" transform="scale(0.015625)"/>
       <path id="DejaVuSansMono-Bold-6a" d="M 2656 134 
Q 2656 -653 2373 -989 
Q 2091 -1325 1434 -1325 
L 447 -1325 
L 447 -622 
L 1178 -622 
Q 1484 -622 1612 -450 
Q 1741 -278 1741 134 
L 1741 2797 
L 813 2797 
L 813 3500 
L 2656 3500 
L 2656 134 
z
M 2656 4134 
L 1741 4134 
L 1741 5203 
L 2656 5203 
L 2656 4134 
z
" transform="scale(0.015625)"/>
       <path id="DejaVuSansMono-Bold-53" d="M 1594 2047 
Q 897 2313 650 2605 
Q 403 2897 403 3391 
Q 403 4025 809 4387 
Q 1216 4750 1925 4750 
Q 2247 4750 2569 4676 
Q 2891 4603 3206 4459 
L 3206 3559 
Q 2909 3769 2603 3878 
Q 2297 3988 1997 3988 
Q 1663 3988 1484 3853 
Q 1306 3719 1306 3469 
Q 1306 3275 1436 3148 
Q 1566 3022 1978 2869 
L 2375 2719 
Q 2938 2513 3203 2172 
Q 3469 1831 3469 1313 
Q 3469 606 3051 257 
Q 2634 -91 1791 -91 
Q 1444 -91 1095 -8 
Q 747 75 422 238 
L 422 1191 
Q 791 928 1136 800 
Q 1481 672 1819 672 
Q 2159 672 2346 826 
Q 2534 981 2534 1259 
Q 2534 1469 2409 1626 
Q 2284 1784 2047 1875 
L 1594 2047 
z
" transform="scale(0.015625)"/>
       <path id="DejaVuSansMono-Bold-75" d="M 500 1222 
L 500 3500 
L 1416 3500 
L 1416 1363 
Q 1416 984 1522 821 
Q 1628 659 1875 659 
Q 2122 659 2261 878 
Q 2400 1097 2400 1491 
L 2400 3500 
L 3316 3500 
L 3316 0 
L 2400 0 
L 2400 519 
Q 2303 228 2070 68 
Q 1838 -91 1509 -91 
Q 1009 -91 754 240 
Q 500 572 500 1222 
z
" transform="scale(0.015625)"/>
       <path id="DejaVuSansMono-Bold-70" d="M 1381 494 
L 1381 -1331 
L 469 -1331 
L 469 3500 
L 1381 3500 
L 1381 2975 
Q 1525 3278 1759 3431 
Q 1994 3584 2309 3584 
Q 2909 3584 3240 3103 
Q 3572 2622 3572 1747 
Q 3572 859 3236 384 
Q 2900 -91 2278 -91 
Q 1997 -91 1773 54 
Q 1550 200 1381 494 
z
M 2656 1753 
Q 2656 2259 2487 2546 
Q 2319 2834 2022 2834 
Q 1725 2834 1553 2546 
Q 1381 2259 1381 1753 
Q 1381 1247 1553 959 
Q 1725 672 2022 672 
Q 2319 672 2487 959 
Q 2656 1247 2656 1753 
z
" transform="scale(0.015625)"/>
      </defs>
      <use xlink:href="#DejaVuSansMono-Bold-4b"/>
      <use xlink:href="#DejaVuSansMono-Bold-69" transform="translate(60.205078 0)"/>
      <use xlink:href="#DejaVuSansMono-Bold-63" transform="translate(120.410156 0)"/>
      <use xlink:href="#DejaVuSansMono-Bold-6b" transform="translate(180.615234 0)"/>
      <use xlink:href="#DejaVuSansMono-Bold-2d" transform="translate(240.820312 0)"/>
      <use xlink:href="#DejaVuSansMono-Bold-6f" transform="translate(301.025391 0)"/>
      <use xlink:href="#DejaVuSansMono-Bold-66" transform="translate(361.230469 0)"/>
      <use xlink:href="#DejaVuSansMono-Bold-66" transform="translate(421.435547 0)"/>
      <use xlink:href="#DejaVuSansMono-Bold-20" transform="translate(481.640625 0)"/>
      <use xlink:href="#DejaVuSansMono-Bold-26" transform="translate(541.845703 0)"/>
      <use xlink:href="#DejaVuSansMono-Bold-20" transform="translate(602.050781 0)"/>
      <use xlink:href="#DejaVuSansMono-Bold-50" transform="translate(662.255859 0)"/>
      <use xlink:href="#DejaVuSansMono-Bold-72" transform="translate(722.460938 0)"/>
      <use xlink:href="#DejaVuSansMono-Bold-6f" transform="translate(782.666016 0)"/>
      <use xlink:href="#DejaVuSansMono-Bold-6a" transform="translate(842.871094 0)"/>
      <use xlink:href="#DejaVuSansMono-Bold-65" transform="translate(903.076172 0)"/>
      <use xlink:href="#DejaVuSansMono-Bold-63" transform="translate(963.28125 0)"/>
      <use xlink:href="#DejaVuSansMono-Bold-74" transform="translate(1023.486328 0)"/>
      <use xlink:href="#DejaVuSansMono-Bold-20" transform="translate(1083.691406 0)"/>
      <use xlink:href="#DejaVuSansMono-Bold-53" transform="translate(1143.896484 0)"/>
      <use xlink:href="#DejaVuSansMono-Bold-65" transform="translate(1204.101562 0)"/>
      <use xlink:href="#DejaVuSansMono-Bold-74" transform="translate(1264.306641 0)"/>
      <use xlink:href="#DejaVuSansMono-Bold-75" transform="translate(1324.511719 0)"/>
      <use xlink:href="#DejaVuSansMono-Bold-70" transform="translate(1384.716797 0)"/>
     </g>
    </g>
    <g id="patch_5">
     <path d="M 241.407188 72.300426 
L 313.650937 72.300426 
L 313.650937 59.41763 
L 241.407188 59.41763 
z
" style="fill: #1f77b4; fill-opacity: 0.2; stroke: #6c6c6c; stroke-linejoin: miter"/>
    </g>
    <g id="text_4">
     <!-- 2024-06-05 -->
     <g style="fill: #6c6c6c" transform="translate(248.631563 68.618403) scale(0.1 -0.1)">
      <defs>
       <path id="DejaVuSansMono-Bold-32" d="M 1356 813 
L 3322 813 
L 3322 0 
L 359 0 
L 359 788 
L 859 1319 
Q 1750 2266 1941 2484 
Q 2175 2753 2278 2961 
Q 2381 3169 2381 3372 
Q 2381 3684 2192 3854 
Q 2003 4025 1656 4025 
Q 1409 4025 1101 3926 
Q 794 3828 459 3641 
L 459 4500 
Q 794 4622 1114 4686 
Q 1434 4750 1728 4750 
Q 2469 4750 2892 4404 
Q 3316 4059 3316 3463 
Q 3316 3188 3223 2947 
Q 3131 2706 2906 2413 
Q 2741 2200 1997 1456 
Q 1594 1053 1356 813 
z
" transform="scale(0.015625)"/>
       <path id="DejaVuSansMono-Bold-30" d="M 1538 2328 
Q 1538 2494 1650 2606 
Q 1763 2719 1925 2719 
Q 2091 2719 2203 2606 
Q 2316 2494 2316 2328 
Q 2316 2166 2203 2053 
Q 2091 1941 1925 1941 
Q 1763 1941 1650 2052 
Q 1538 2163 1538 2328 
z
M 1925 3969 
Q 1606 3969 1459 3578 
Q 1313 3188 1313 2328 
Q 1313 1472 1459 1081 
Q 1606 691 1925 691 
Q 2247 691 2394 1081 
Q 2541 1472 2541 2328 
Q 2541 3188 2394 3578 
Q 2247 3969 1925 3969 
z
M 384 2328 
Q 384 3541 768 4145 
Q 1153 4750 1925 4750 
Q 2700 4750 3084 4147 
Q 3469 3544 3469 2328 
Q 3469 1116 3084 512 
Q 2700 -91 1925 -91 
Q 1153 -91 768 514 
Q 384 1119 384 2328 
z
" transform="scale(0.015625)"/>
       <path id="DejaVuSansMono-Bold-34" d="M 2169 3641 
L 991 1797 
L 2169 1797 
L 2169 3641 
z
M 2088 4666 
L 3053 4666 
L 3053 1797 
L 3566 1797 
L 3566 1006 
L 3053 1006 
L 3053 0 
L 2169 0 
L 2169 1006 
L 319 1006 
L 319 1900 
L 2088 4666 
z
" transform="scale(0.015625)"/>
       <path id="DejaVuSansMono-Bold-36" d="M 2009 2338 
Q 1709 2338 1551 2120 
Q 1394 1903 1394 1491 
Q 1394 1081 1551 864 
Q 1709 647 2009 647 
Q 2309 647 2470 864 
Q 2631 1081 2631 1491 
Q 2631 1900 2470 2119 
Q 2309 2338 2009 2338 
z
M 3219 4556 
L 3219 3719 
Q 2972 3859 2745 3929 
Q 2519 4000 2309 4000 
Q 1809 4000 1548 3664 
Q 1288 3328 1275 2672 
Q 1422 2875 1650 2976 
Q 1878 3078 2188 3078 
Q 2819 3078 3162 2679 
Q 3506 2281 3506 1550 
Q 3506 766 3120 334 
Q 2734 -97 2034 -97 
Q 1181 -97 795 475 
Q 409 1047 409 2322 
Q 409 3534 881 4139 
Q 1353 4744 2297 4744 
Q 2516 4744 2748 4697 
Q 2981 4650 3219 4556 
z
" transform="scale(0.015625)"/>
       <path id="DejaVuSansMono-Bold-35" d="M 603 4666 
L 3138 4666 
L 3138 3853 
L 1350 3853 
L 1350 2988 
Q 1463 3031 1591 3051 
Q 1719 3072 1863 3072 
Q 2556 3072 2987 2634 
Q 3419 2197 3419 1497 
Q 3419 763 2951 336 
Q 2484 -91 1678 -91 
Q 1378 -91 1072 -41 
Q 766 9 447 109 
L 447 941 
Q 706 813 979 748 
Q 1253 684 1528 684 
Q 2016 684 2269 892 
Q 2522 1100 2522 1497 
Q 2522 1863 2270 2083 
Q 2019 2303 1600 2303 
Q 1353 2303 1104 2242 
Q 856 2181 603 2059 
L 603 4666 
z
" transform="scale(0.015625)"/>
      </defs>
      <use xlink:href="#DejaVuSansMono-Bold-32"/>
      <use xlink:href="#DejaVuSansMono-Bold-30" transform="translate(60.205078 0)"/>
      <use xlink:href="#DejaVuSansMono-Bold-32" transform="translate(120.410156 0)"/>
      <use xlink:href="#DejaVuSansMono-Bold-34" transform="translate(180.615234 0)"/>
      <use xlink:href="#DejaVuSansMono-Bold-2d" transform="translate(240.820312 0)"/>
      <use xlink:href="#DejaVuSansMono-Bold-30" transform="translate(301.025391 0)"/>
      <use xlink:href="#DejaVuSansMono-Bold-36" transform="translate(361.230469 0)"/>
      <use xlink:href="#DejaVuSansMono-Bold-2d" transform="translate(421.435547 0)"/>
      <use xlink:href="#DejaVuSansMono-Bold-30" transform="translate(481.640625 0)"/>
      <use xlink:href="#DejaVuSansMono-Bold-35" transform="translate(541.845703 0)"/>
     </g>
    </g>
    <g id="patch_6">
     <path d="M 46.349063 85.183223 
L 241.407188 85.183223 
L 241.407188 72.300426 
L 46.349063 72.300426 
z
" style="fill: #1f77b4; fill-opacity: 0.2; stroke: #6c6c6c; stroke-linejoin: miter"/>
    </g>
    <g id="text_5">
     <!-- Process &amp; Workflow Analysis -->
     <g style="fill: #6c6c6c" transform="translate(65.854875 81.762137) scale(0.1 -0.1)">
      <defs>
       <path id="DejaVuSansMono-Bold-57" d="M 0 4666 
L 806 4666 
L 1141 1241 
L 1544 3456 
L 2309 3456 
L 2778 1241 
L 3041 4666 
L 3853 4666 
L 3316 0 
L 2456 0 
L 1925 2450 
L 1428 0 
L 575 0 
L 0 4666 
z
" transform="scale(0.015625)"/>
       <path id="DejaVuSansMono-Bold-6c" d="M 1209 1459 
L 1209 4159 
L 281 4159 
L 281 4863 
L 2125 4863 
L 2125 1459 
Q 2125 1047 2253 875 
Q 2381 703 2688 703 
L 3419 703 
L 3419 0 
L 2431 0 
Q 1778 0 1493 337 
Q 1209 675 1209 1459 
z
" transform="scale(0.015625)"/>
       <path id="DejaVuSansMono-Bold-77" d="M 0 3500 
L 763 3500 
L 1178 819 
L 1556 2584 
L 2297 2584 
L 2669 819 
L 3091 3500 
L 3853 3500 
L 3219 0 
L 2350 0 
L 1925 1819 
L 1503 0 
L 634 0 
L 0 3500 
z
" transform="scale(0.015625)"/>
       <path id="DejaVuSansMono-Bold-41" d="M 1925 3822 
L 1491 1913 
L 2363 1913 
L 1925 3822 
z
M 1363 4666 
L 2491 4666 
L 3750 0 
L 2828 0 
L 2541 1153 
L 1306 1153 
L 1025 0 
L 103 0 
L 1363 4666 
z
" transform="scale(0.015625)"/>
       <path id="DejaVuSansMono-Bold-6e" d="M 3347 2272 
L 3347 0 
L 2438 0 
L 2438 2131 
Q 2438 2513 2330 2677 
Q 2222 2841 1978 2841 
Q 1731 2841 1589 2619 
Q 1447 2397 1447 2003 
L 1447 0 
L 538 0 
L 538 3500 
L 1447 3500 
L 1447 2975 
Q 1544 3266 1778 3425 
Q 2013 3584 2344 3584 
Q 2841 3584 3094 3254 
Q 3347 2925 3347 2272 
z
" transform="scale(0.015625)"/>
       <path id="DejaVuSansMono-Bold-79" d="M 2222 -378 
Q 2038 -872 1780 -1098 
Q 1522 -1325 1153 -1325 
L 397 -1325 
L 397 -628 
L 769 -628 
Q 1050 -628 1181 -533 
Q 1313 -438 1447 -91 
L 1516 97 
L 184 3500 
L 1147 3500 
L 1947 1228 
L 2713 3500 
L 3675 3500 
L 2222 -378 
z
" transform="scale(0.015625)"/>
      </defs>
      <use xlink:href="#DejaVuSansMono-Bold-50"/>
      <use xlink:href="#DejaVuSansMono-Bold-72" transform="translate(60.205078 0)"/>
      <use xlink:href="#DejaVuSansMono-Bold-6f" transform="translate(120.410156 0)"/>
      <use xlink:href="#DejaVuSansMono-Bold-63" transform="translate(180.615234 0)"/>
      <use xlink:href="#DejaVuSansMono-Bold-65" transform="translate(240.820312 0)"/>
      <use xlink:href="#DejaVuSansMono-Bold-73" transform="translate(301.025391 0)"/>
      <use xlink:href="#DejaVuSansMono-Bold-73" transform="translate(361.230469 0)"/>
      <use xlink:href="#DejaVuSansMono-Bold-20" transform="translate(421.435547 0)"/>
      <use xlink:href="#DejaVuSansMono-Bold-26" transform="translate(481.640625 0)"/>
      <use xlink:href="#DejaVuSansMono-Bold-20" transform="translate(541.845703 0)"/>
      <use xlink:href="#DejaVuSansMono-Bold-57" transform="translate(602.050781 0)"/>
      <use xlink:href="#DejaVuSansMono-Bold-6f" transform="translate(662.255859 0)"/>
      <use xlink:href="#DejaVuSansMono-Bold-72" transform="translate(722.460938 0)"/>
      <use xlink:href="#DejaVuSansMono-Bold-6b" transform="translate(782.666016 0)"/>
      <use xlink:href="#DejaVuSansMono-Bold-66" transform="translate(842.871094 0)"/>
      <use xlink:href="#DejaVuSansMono-Bold-6c" transform="translate(903.076172 0)"/>
      <use xlink:href="#DejaVuSansMono-Bold-6f" transform="translate(963.28125 0)"/>
      <use xlink:href="#DejaVuSansMono-Bold-77" transform="translate(1023.486328 0)"/>
      <use xlink:href="#DejaVuSansMono-Bold-20" transform="translate(1083.691406 0)"/>
      <use xlink:href="#DejaVuSansMono-Bold-41" transform="translate(1143.896484 0)"/>
      <use xlink:href="#DejaVuSansMono-Bold-6e" transform="translate(1204.101562 0)"/>
      <use xlink:href="#DejaVuSansMono-Bold-61" transform="translate(1264.306641 0)"/>
      <use xlink:href="#DejaVuSansMono-Bold-6c" transform="translate(1324.511719 0)"/>
      <use xlink:href="#DejaVuSansMono-Bold-79" transform="translate(1384.716797 0)"/>
      <use xlink:href="#DejaVuSansMono-Bold-73" transform="translate(1444.921875 0)"/>
      <use xlink:href="#DejaVuSansMono-Bold-69" transform="translate(1505.126953 0)"/>
      <use xlink:href="#DejaVuSansMono-Bold-73" transform="translate(1565.332031 0)"/>
     </g>
    </g>
    <g id="patch_7">
     <path d="M 241.407188 85.183223 
L 313.650937 85.183223 
L 313.650937 72.300426 
L 241.407188 72.300426 
z
" style="fill: #1f77b4; fill-opacity: 0.2; stroke: #6c6c6c; stroke-linejoin: miter"/>
    </g>
    <g id="text_6">
     <!-- 2024-06-10 -->
     <g style="fill: #6c6c6c" transform="translate(248.631563 81.5012) scale(0.1 -0.1)">
      <defs>
       <path id="DejaVuSansMono-Bold-31" d="M 588 813 
L 1619 813 
L 1619 3841 
L 659 3603 
L 659 4434 
L 1625 4666 
L 2516 4666 
L 2516 813 
L 3547 813 
L 3547 0 
L 588 0 
L 588 813 
z
" transform="scale(0.015625)"/>
      </defs>
      <use xlink:href="#DejaVuSansMono-Bold-32"/>
      <use xlink:href="#DejaVuSansMono-Bold-30" transform="translate(60.205078 0)"/>
      <use xlink:href="#DejaVuSansMono-Bold-32" transform="translate(120.410156 0)"/>
      <use xlink:href="#DejaVuSansMono-Bold-34" transform="translate(180.615234 0)"/>
      <use xlink:href="#DejaVuSansMono-Bold-2d" transform="translate(240.820312 0)"/>
      <use xlink:href="#DejaVuSansMono-Bold-30" transform="translate(301.025391 0)"/>
      <use xlink:href="#DejaVuSansMono-Bold-36" transform="translate(361.230469 0)"/>
      <use xlink:href="#DejaVuSansMono-Bold-2d" transform="translate(421.435547 0)"/>
      <use xlink:href="#DejaVuSansMono-Bold-31" transform="translate(481.640625 0)"/>
      <use xlink:href="#DejaVuSansMono-Bold-30" transform="translate(541.845703 0)"/>
     </g>
    </g>
    <g id="patch_8">
     <path d="M 46.349063 98.066019 
L 241.407188 98.066019 
L 241.407188 85.183223 
L 46.349063 85.183223 
z
" style="fill: #1f77b4; fill-opacity: 0.2; stroke: #6c6c6c; stroke-linejoin: miter"/>
    </g>
    <g id="text_7">
     <!-- Requirements Definition -->
     <g style="fill: #6c6c6c" transform="translate(65.854875 94.649621) scale(0.1 -0.1)">
      <defs>
       <path id="DejaVuSansMono-Bold-52" d="M 2522 2203 
Q 2659 2175 2761 2073 
Q 2863 1972 3009 1678 
L 3853 0 
L 2841 0 
L 2278 1178 
Q 2253 1228 2213 1316 
Q 1966 1844 1631 1844 
L 1338 1844 
L 1338 0 
L 416 0 
L 416 4666 
L 1747 4666 
Q 2647 4666 3039 4347 
Q 3431 4028 3431 3309 
Q 3431 2828 3197 2543 
Q 2963 2259 2522 2203 
z
M 1338 3891 
L 1338 2619 
L 1772 2619 
Q 2150 2619 2314 2767 
Q 2478 2916 2478 3256 
Q 2478 3597 2315 3744 
Q 2153 3891 1772 3891 
L 1338 3891 
z
" transform="scale(0.015625)"/>
       <path id="DejaVuSansMono-Bold-71" d="M 1197 1753 
Q 1197 1247 1365 959 
Q 1534 672 1831 672 
Q 2128 672 2300 959 
Q 2472 1247 2472 1753 
Q 2472 2259 2300 2546 
Q 2128 2834 1831 2834 
Q 1534 2834 1365 2546 
Q 1197 2259 1197 1753 
z
M 2472 494 
Q 2303 200 2079 54 
Q 1856 -91 1575 -91 
Q 953 -91 617 384 
Q 281 859 281 1747 
Q 281 2622 612 3103 
Q 944 3584 1544 3584 
Q 1859 3584 2092 3431 
Q 2325 3278 2472 2975 
L 2472 3500 
L 3384 3500 
L 3384 -1331 
L 2472 -1331 
L 2472 494 
z
" transform="scale(0.015625)"/>
       <path id="DejaVuSansMono-Bold-6d" d="M 2156 3150 
Q 2259 3372 2418 3478 
Q 2578 3584 2809 3584 
Q 3263 3584 3436 3271 
Q 3609 2959 3609 1972 
L 3609 0 
L 2859 0 
L 2859 2247 
Q 2859 2638 2800 2769 
Q 2741 2900 2584 2900 
Q 2428 2900 2365 2765 
Q 2303 2631 2303 2247 
L 2303 0 
L 1563 0 
L 1563 2247 
Q 1563 2631 1500 2765 
Q 1438 2900 1281 2900 
Q 1125 2900 1065 2769 
Q 1006 2638 1006 2247 
L 1006 0 
L 256 0 
L 256 3500 
L 922 3500 
L 922 3138 
Q 1000 3344 1172 3464 
Q 1344 3584 1556 3584 
Q 1769 3584 1944 3457 
Q 2119 3331 2156 3150 
z
" transform="scale(0.015625)"/>
      </defs>
      <use xlink:href="#DejaVuSansMono-Bold-52"/>
      <use xlink:href="#DejaVuSansMono-Bold-65" transform="translate(60.205078 0)"/>
      <use xlink:href="#DejaVuSansMono-Bold-71" transform="translate(120.410156 0)"/>
      <use xlink:href="#DejaVuSansMono-Bold-75" transform="translate(180.615234 0)"/>
      <use xlink:href="#DejaVuSansMono-Bold-69" transform="translate(240.820312 0)"/>
      <use xlink:href="#DejaVuSansMono-Bold-72" transform="translate(301.025391 0)"/>
      <use xlink:href="#DejaVuSansMono-Bold-65" transform="translate(361.230469 0)"/>
      <use xlink:href="#DejaVuSansMono-Bold-6d" transform="translate(421.435547 0)"/>
      <use xlink:href="#DejaVuSansMono-Bold-65" transform="translate(481.640625 0)"/>
      <use xlink:href="#DejaVuSansMono-Bold-6e" transform="translate(541.845703 0)"/>
      <use xlink:href="#DejaVuSansMono-Bold-74" transform="translate(602.050781 0)"/>
      <use xlink:href="#DejaVuSansMono-Bold-73" transform="translate(662.255859 0)"/>
      <use xlink:href="#DejaVuSansMono-Bold-20" transform="translate(722.460938 0)"/>
      <use xlink:href="#DejaVuSansMono-Bold-44" transform="translate(782.666016 0)"/>
      <use xlink:href="#DejaVuSansMono-Bold-65" transform="translate(842.871094 0)"/>
      <use xlink:href="#DejaVuSansMono-Bold-66" transform="translate(903.076172 0)"/>
      <use xlink:href="#DejaVuSansMono-Bold-69" transform="translate(963.28125 0)"/>
      <use xlink:href="#DejaVuSansMono-Bold-6e" transform="translate(1023.486328 0)"/>
      <use xlink:href="#DejaVuSansMono-Bold-69" transform="translate(1083.691406 0)"/>
      <use xlink:href="#DejaVuSansMono-Bold-74" transform="translate(1143.896484 0)"/>
      <use xlink:href="#DejaVuSansMono-Bold-69" transform="translate(1204.101562 0)"/>
      <use xlink:href="#DejaVuSansMono-Bold-6f" transform="translate(1264.306641 0)"/>
      <use xlink:href="#DejaVuSansMono-Bold-6e" transform="translate(1324.511719 0)"/>
     </g>
    </g>
    <g id="patch_9">
     <path d="M 241.407188 98.066019 
L 313.650937 98.066019 
L 313.650937 85.183223 
L 241.407188 85.183223 
z
" style="fill: #1f77b4; fill-opacity: 0.2; stroke: #6c6c6c; stroke-linejoin: miter"/>
    </g>
    <g id="text_8">
     <!-- 2024-06-15 -->
     <g style="fill: #6c6c6c" transform="translate(248.631563 94.383996) scale(0.1 -0.1)">
      <use xlink:href="#DejaVuSansMono-Bold-32"/>
      <use xlink:href="#DejaVuSansMono-Bold-30" transform="translate(60.205078 0)"/>
      <use xlink:href="#DejaVuSansMono-Bold-32" transform="translate(120.410156 0)"/>
      <use xlink:href="#DejaVuSansMono-Bold-34" transform="translate(180.615234 0)"/>
      <use xlink:href="#DejaVuSansMono-Bold-2d" transform="translate(240.820312 0)"/>
      <use xlink:href="#DejaVuSansMono-Bold-30" transform="translate(301.025391 0)"/>
      <use xlink:href="#DejaVuSansMono-Bold-36" transform="translate(361.230469 0)"/>
      <use xlink:href="#DejaVuSansMono-Bold-2d" transform="translate(421.435547 0)"/>
      <use xlink:href="#DejaVuSansMono-Bold-31" transform="translate(481.640625 0)"/>
      <use xlink:href="#DejaVuSansMono-Bold-35" transform="translate(541.845703 0)"/>
     </g>
    </g>
    <g id="patch_10">
     <path d="M 46.349063 110.948815 
L 241.407188 110.948815 
L 241.407188 98.066019 
L 46.349063 98.066019 
z
" style="fill: #1f77b4; fill-opacity: 0.2; stroke: #6c6c6c; stroke-linejoin: miter"/>
    </g>
    <g id="text_9">
     <!-- Risk &amp; Cost Analysis -->
     <g style="fill: #6c6c6c" transform="translate(65.854875 107.52773) scale(0.1 -0.1)">
      <defs>
       <path id="DejaVuSansMono-Bold-43" d="M 3378 134 
Q 3159 22 2918 -34 
Q 2678 -91 2413 -91 
Q 1469 -91 972 531 
Q 475 1153 475 2328 
Q 475 3506 972 4128 
Q 1469 4750 2413 4750 
Q 2678 4750 2922 4694 
Q 3166 4638 3378 4525 
L 3378 3500 
Q 3141 3719 2917 3820 
Q 2694 3922 2456 3922 
Q 1950 3922 1692 3520 
Q 1434 3119 1434 2328 
Q 1434 1541 1692 1139 
Q 1950 738 2456 738 
Q 2694 738 2917 839 
Q 3141 941 3378 1159 
L 3378 134 
z
" transform="scale(0.015625)"/>
      </defs>
      <use xlink:href="#DejaVuSansMono-Bold-52"/>
      <use xlink:href="#DejaVuSansMono-Bold-69" transform="translate(60.205078 0)"/>
      <use xlink:href="#DejaVuSansMono-Bold-73" transform="translate(120.410156 0)"/>
      <use xlink:href="#DejaVuSansMono-Bold-6b" transform="translate(180.615234 0)"/>
      <use xlink:href="#DejaVuSansMono-Bold-20" transform="translate(240.820312 0)"/>
      <use xlink:href="#DejaVuSansMono-Bold-26" transform="translate(301.025391 0)"/>
      <use xlink:href="#DejaVuSansMono-Bold-20" transform="translate(361.230469 0)"/>
      <use xlink:href="#DejaVuSansMono-Bold-43" transform="translate(421.435547 0)"/>
      <use xlink:href="#DejaVuSansMono-Bold-6f" transform="translate(481.640625 0)"/>
      <use xlink:href="#DejaVuSansMono-Bold-73" transform="translate(541.845703 0)"/>
      <use xlink:href="#DejaVuSansMono-Bold-74" transform="translate(602.050781 0)"/>
      <use xlink:href="#DejaVuSansMono-Bold-20" transform="translate(662.255859 0)"/>
      <use xlink:href="#DejaVuSansMono-Bold-41" transform="translate(722.460938 0)"/>
      <use xlink:href="#DejaVuSansMono-Bold-6e" transform="translate(782.666016 0)"/>
      <use xlink:href="#DejaVuSansMono-Bold-61" transform="translate(842.871094 0)"/>
      <use xlink:href="#DejaVuSansMono-Bold-6c" transform="translate(903.076172 0)"/>
      <use xlink:href="#DejaVuSansMono-Bold-79" transform="translate(963.28125 0)"/>
      <use xlink:href="#DejaVuSansMono-Bold-73" transform="translate(1023.486328 0)"/>
      <use xlink:href="#DejaVuSansMono-Bold-69" transform="translate(1083.691406 0)"/>
      <use xlink:href="#DejaVuSansMono-Bold-73" transform="translate(1143.896484 0)"/>
     </g>
    </g>
    <g id="patch_11">
     <path d="M 241.407188 110.948815 
L 313.650937 110.948815 
L 313.650937 98.066019 
L 241.407188 98.066019 
z
" style="fill: #1f77b4; fill-opacity: 0.2; stroke: #6c6c6c; stroke-linejoin: miter"/>
    </g>
    <g id="text_10">
     <!-- 2024-06-20 -->
     <g style="fill: #6c6c6c" transform="translate(248.631563 107.266792) scale(0.1 -0.1)">
      <use xlink:href="#DejaVuSansMono-Bold-32"/>
      <use xlink:href="#DejaVuSansMono-Bold-30" transform="translate(60.205078 0)"/>
      <use xlink:href="#DejaVuSansMono-Bold-32" transform="translate(120.410156 0)"/>
      <use xlink:href="#DejaVuSansMono-Bold-34" transform="translate(180.615234 0)"/>
      <use xlink:href="#DejaVuSansMono-Bold-2d" transform="translate(240.820312 0)"/>
      <use xlink:href="#DejaVuSansMono-Bold-30" transform="translate(301.025391 0)"/>
      <use xlink:href="#DejaVuSansMono-Bold-36" transform="translate(361.230469 0)"/>
      <use xlink:href="#DejaVuSansMono-Bold-2d" transform="translate(421.435547 0)"/>
      <use xlink:href="#DejaVuSansMono-Bold-32" transform="translate(481.640625 0)"/>
      <use xlink:href="#DejaVuSansMono-Bold-30" transform="translate(541.845703 0)"/>
     </g>
    </g>
    <g id="patch_12">
     <path d="M 46.349063 123.831611 
L 241.407188 123.831611 
L 241.407188 110.948815 
L 46.349063 110.948815 
z
" style="fill: #aec7e8; fill-opacity: 0.2; stroke: #6c6c6c; stroke-linejoin: miter"/>
    </g>
    <g id="text_11">
     <!-- System Architecture Design -->
     <g style="fill: #6c6c6c" transform="translate(65.854875 120.410526) scale(0.1 -0.1)">
      <defs>
       <path id="DejaVuSansMono-Bold-68" d="M 3347 2272 
L 3347 0 
L 2438 0 
L 2438 2131 
Q 2438 2509 2330 2671 
Q 2222 2834 1978 2834 
Q 1728 2834 1587 2614 
Q 1447 2394 1447 2003 
L 1447 0 
L 538 0 
L 538 4863 
L 1447 4863 
L 1447 2975 
Q 1544 3266 1778 3425 
Q 2013 3584 2344 3584 
Q 2841 3584 3094 3254 
Q 3347 2925 3347 2272 
z
" transform="scale(0.015625)"/>
       <path id="DejaVuSansMono-Bold-67" d="M 2509 1806 
Q 2509 2275 2331 2558 
Q 2153 2841 1863 2841 
Q 1575 2841 1398 2559 
Q 1222 2278 1222 1806 
Q 1222 1331 1398 1050 
Q 1575 769 1863 769 
Q 2153 769 2331 1051 
Q 2509 1334 2509 1806 
z
M 3425 263 
Q 3425 -578 3045 -951 
Q 2666 -1325 1813 -1325 
Q 1525 -1325 1244 -1283 
Q 963 -1241 672 -1153 
L 672 -313 
Q 931 -456 1200 -525 
Q 1469 -594 1753 -594 
Q 2141 -594 2325 -411 
Q 2509 -228 2509 159 
L 2509 538 
Q 2375 288 2153 166 
Q 1931 44 1613 44 
Q 1013 44 659 512 
Q 306 981 306 1784 
Q 306 2616 659 3103 
Q 1013 3591 1606 3591 
Q 1906 3591 2140 3450 
Q 2375 3309 2509 3053 
L 2509 3500 
L 3425 3500 
L 3425 263 
z
" transform="scale(0.015625)"/>
      </defs>
      <use xlink:href="#DejaVuSansMono-Bold-53"/>
      <use xlink:href="#DejaVuSansMono-Bold-79" transform="translate(60.205078 0)"/>
      <use xlink:href="#DejaVuSansMono-Bold-73" transform="translate(120.410156 0)"/>
      <use xlink:href="#DejaVuSansMono-Bold-74" transform="translate(180.615234 0)"/>
      <use xlink:href="#DejaVuSansMono-Bold-65" transform="translate(240.820312 0)"/>
      <use xlink:href="#DejaVuSansMono-Bold-6d" transform="translate(301.025391 0)"/>
      <use xlink:href="#DejaVuSansMono-Bold-20" transform="translate(361.230469 0)"/>
      <use xlink:href="#DejaVuSansMono-Bold-41" transform="translate(421.435547 0)"/>
      <use xlink:href="#DejaVuSansMono-Bold-72" transform="translate(481.640625 0)"/>
      <use xlink:href="#DejaVuSansMono-Bold-63" transform="translate(541.845703 0)"/>
      <use xlink:href="#DejaVuSansMono-Bold-68" transform="translate(602.050781 0)"/>
      <use xlink:href="#DejaVuSansMono-Bold-69" transform="translate(662.255859 0)"/>
      <use xlink:href="#DejaVuSansMono-Bold-74" transform="translate(722.460938 0)"/>
      <use xlink:href="#DejaVuSansMono-Bold-65" transform="translate(782.666016 0)"/>
      <use xlink:href="#DejaVuSansMono-Bold-63" transform="translate(842.871094 0)"/>
      <use xlink:href="#DejaVuSansMono-Bold-74" transform="translate(903.076172 0)"/>
      <use xlink:href="#DejaVuSansMono-Bold-75" transform="translate(963.28125 0)"/>
      <use xlink:href="#DejaVuSansMono-Bold-72" transform="translate(1023.486328 0)"/>
      <use xlink:href="#DejaVuSansMono-Bold-65" transform="translate(1083.691406 0)"/>
      <use xlink:href="#DejaVuSansMono-Bold-20" transform="translate(1143.896484 0)"/>
      <use xlink:href="#DejaVuSansMono-Bold-44" transform="translate(1204.101562 0)"/>
      <use xlink:href="#DejaVuSansMono-Bold-65" transform="translate(1264.306641 0)"/>
      <use xlink:href="#DejaVuSansMono-Bold-73" transform="translate(1324.511719 0)"/>
      <use xlink:href="#DejaVuSansMono-Bold-69" transform="translate(1384.716797 0)"/>
      <use xlink:href="#DejaVuSansMono-Bold-67" transform="translate(1444.921875 0)"/>
      <use xlink:href="#DejaVuSansMono-Bold-6e" transform="translate(1505.126953 0)"/>
     </g>
    </g>
    <g id="patch_13">
     <path d="M 241.407188 123.831611 
L 313.650937 123.831611 
L 313.650937 110.948815 
L 241.407188 110.948815 
z
" style="fill: #aec7e8; fill-opacity: 0.2; stroke: #6c6c6c; stroke-linejoin: miter"/>
    </g>
    <g id="text_12">
     <!-- 2024-06-30 -->
     <g style="fill: #6c6c6c" transform="translate(248.631563 120.149588) scale(0.1 -0.1)">
      <defs>
       <path id="DejaVuSansMono-Bold-33" d="M 1716 2088 
L 1222 2088 
L 1222 2900 
L 1716 2900 
Q 2059 2900 2248 3036 
Q 2438 3172 2438 3419 
Q 2438 3678 2248 3823 
Q 2059 3969 1716 3969 
Q 1453 3969 1153 3903 
Q 853 3838 531 3713 
L 531 4550 
Q 853 4647 1165 4698 
Q 1478 4750 1766 4750 
Q 2503 4750 2915 4428 
Q 3328 4106 3328 3541 
Q 3328 3125 3090 2861 
Q 2853 2597 2413 2516 
Q 2913 2428 3175 2117 
Q 3438 1806 3438 1300 
Q 3438 622 3003 265 
Q 2569 -91 1741 -91 
Q 1388 -91 1045 -31 
Q 703 28 391 141 
L 391 997 
Q 684 850 1025 773 
Q 1366 697 1741 697 
Q 2116 697 2334 870 
Q 2553 1044 2553 1338 
Q 2553 1697 2334 1892 
Q 2116 2088 1716 2088 
z
" transform="scale(0.015625)"/>
      </defs>
      <use xlink:href="#DejaVuSansMono-Bold-32"/>
      <use xlink:href="#DejaVuSansMono-Bold-30" transform="translate(60.205078 0)"/>
      <use xlink:href="#DejaVuSansMono-Bold-32" transform="translate(120.410156 0)"/>
      <use xlink:href="#DejaVuSansMono-Bold-34" transform="translate(180.615234 0)"/>
      <use xlink:href="#DejaVuSansMono-Bold-2d" transform="translate(240.820312 0)"/>
      <use xlink:href="#DejaVuSansMono-Bold-30" transform="translate(301.025391 0)"/>
      <use xlink:href="#DejaVuSansMono-Bold-36" transform="translate(361.230469 0)"/>
      <use xlink:href="#DejaVuSansMono-Bold-2d" transform="translate(421.435547 0)"/>
      <use xlink:href="#DejaVuSansMono-Bold-33" transform="translate(481.640625 0)"/>
      <use xlink:href="#DejaVuSansMono-Bold-30" transform="translate(541.845703 0)"/>
     </g>
    </g>
    <g id="patch_14">
     <path d="M 46.349063 136.714408 
L 241.407188 136.714408 
L 241.407188 123.831611 
L 46.349063 123.831611 
z
" style="fill: #aec7e8; fill-opacity: 0.2; stroke: #6c6c6c; stroke-linejoin: miter"/>
    </g>
    <g id="text_13">
     <!-- Simulation &amp; Digital Twin -->
     <g style="fill: #6c6c6c" transform="translate(65.854875 133.293322) scale(0.1 -0.1)">
      <defs>
       <path id="DejaVuSansMono-Bold-54" d="M 2388 0 
L 1466 0 
L 1466 3859 
L 281 3859 
L 281 4666 
L 3572 4666 
L 3572 3859 
L 2388 3859 
L 2388 0 
z
" transform="scale(0.015625)"/>
      </defs>
      <use xlink:href="#DejaVuSansMono-Bold-53"/>
      <use xlink:href="#DejaVuSansMono-Bold-69" transform="translate(60.205078 0)"/>
      <use xlink:href="#DejaVuSansMono-Bold-6d" transform="translate(120.410156 0)"/>
      <use xlink:href="#DejaVuSansMono-Bold-75" transform="translate(180.615234 0)"/>
      <use xlink:href="#DejaVuSansMono-Bold-6c" transform="translate(240.820312 0)"/>
      <use xlink:href="#DejaVuSansMono-Bold-61" transform="translate(301.025391 0)"/>
      <use xlink:href="#DejaVuSansMono-Bold-74" transform="translate(361.230469 0)"/>
      <use xlink:href="#DejaVuSansMono-Bold-69" transform="translate(421.435547 0)"/>
      <use xlink:href="#DejaVuSansMono-Bold-6f" transform="translate(481.640625 0)"/>
      <use xlink:href="#DejaVuSansMono-Bold-6e" transform="translate(541.845703 0)"/>
      <use xlink:href="#DejaVuSansMono-Bold-20" transform="translate(602.050781 0)"/>
      <use xlink:href="#DejaVuSansMono-Bold-26" transform="translate(662.255859 0)"/>
      <use xlink:href="#DejaVuSansMono-Bold-20" transform="translate(722.460938 0)"/>
      <use xlink:href="#DejaVuSansMono-Bold-44" transform="translate(782.666016 0)"/>
      <use xlink:href="#DejaVuSansMono-Bold-69" transform="translate(842.871094 0)"/>
      <use xlink:href="#DejaVuSansMono-Bold-67" transform="translate(903.076172 0)"/>
      <use xlink:href="#DejaVuSansMono-Bold-69" transform="translate(963.28125 0)"/>
      <use xlink:href="#DejaVuSansMono-Bold-74" transform="translate(1023.486328 0)"/>
      <use xlink:href="#DejaVuSansMono-Bold-61" transform="translate(1083.691406 0)"/>
      <use xlink:href="#DejaVuSansMono-Bold-6c" transform="translate(1143.896484 0)"/>
      <use xlink:href="#DejaVuSansMono-Bold-20" transform="translate(1204.101562 0)"/>
      <use xlink:href="#DejaVuSansMono-Bold-54" transform="translate(1264.306641 0)"/>
      <use xlink:href="#DejaVuSansMono-Bold-77" transform="translate(1324.511719 0)"/>
      <use xlink:href="#DejaVuSansMono-Bold-69" transform="translate(1384.716797 0)"/>
      <use xlink:href="#DejaVuSansMono-Bold-6e" transform="translate(1444.921875 0)"/>
     </g>
    </g>
    <g id="patch_15">
     <path d="M 241.407188 136.714408 
L 313.650937 136.714408 
L 313.650937 123.831611 
L 241.407188 123.831611 
z
" style="fill: #aec7e8; fill-opacity: 0.2; stroke: #6c6c6c; stroke-linejoin: miter"/>
    </g>
    <g id="text_14">
     <!-- 2024-07-10 -->
     <g style="fill: #6c6c6c" transform="translate(248.631563 133.032384) scale(0.1 -0.1)">
      <defs>
       <path id="DejaVuSansMono-Bold-37" d="M 422 4666 
L 3372 4666 
L 3372 4013 
L 1791 0 
L 850 0 
L 2369 3853 
L 422 3853 
L 422 4666 
z
" transform="scale(0.015625)"/>
      </defs>
      <use xlink:href="#DejaVuSansMono-Bold-32"/>
      <use xlink:href="#DejaVuSansMono-Bold-30" transform="translate(60.205078 0)"/>
      <use xlink:href="#DejaVuSansMono-Bold-32" transform="translate(120.410156 0)"/>
      <use xlink:href="#DejaVuSansMono-Bold-34" transform="translate(180.615234 0)"/>
      <use xlink:href="#DejaVuSansMono-Bold-2d" transform="translate(240.820312 0)"/>
      <use xlink:href="#DejaVuSansMono-Bold-30" transform="translate(301.025391 0)"/>
      <use xlink:href="#DejaVuSansMono-Bold-37" transform="translate(361.230469 0)"/>
      <use xlink:href="#DejaVuSansMono-Bold-2d" transform="translate(421.435547 0)"/>
      <use xlink:href="#DejaVuSansMono-Bold-31" transform="translate(481.640625 0)"/>
      <use xlink:href="#DejaVuSansMono-Bold-30" transform="translate(541.845703 0)"/>
     </g>
    </g>
    <g id="patch_16">
     <path d="M 46.349063 149.597204 
L 241.407188 149.597204 
L 241.407188 136.714408 
L 46.349063 136.714408 
z
" style="fill: #aec7e8; fill-opacity: 0.2; stroke: #6c6c6c; stroke-linejoin: miter"/>
    </g>
    <g id="text_15">
     <!-- Planning &amp; Scheduling -->
     <g style="fill: #6c6c6c" transform="translate(65.854875 146.176118) scale(0.1 -0.1)">
      <defs>
       <path id="DejaVuSansMono-Bold-64" d="M 2472 3003 
L 2472 4863 
L 3384 4863 
L 3384 0 
L 2472 0 
L 2472 519 
Q 2325 216 2092 62 
Q 1859 -91 1544 -91 
Q 944 -91 612 390 
Q 281 872 281 1747 
Q 281 2634 617 3109 
Q 953 3584 1575 3584 
Q 1856 3584 2079 3439 
Q 2303 3294 2472 3003 
z
M 1197 1741 
Q 1197 1234 1365 946 
Q 1534 659 1831 659 
Q 2128 659 2300 946 
Q 2472 1234 2472 1741 
Q 2472 2247 2300 2534 
Q 2128 2822 1831 2822 
Q 1534 2822 1365 2534 
Q 1197 2247 1197 1741 
z
" transform="scale(0.015625)"/>
      </defs>
      <use xlink:href="#DejaVuSansMono-Bold-50"/>
      <use xlink:href="#DejaVuSansMono-Bold-6c" transform="translate(60.205078 0)"/>
      <use xlink:href="#DejaVuSansMono-Bold-61" transform="translate(120.410156 0)"/>
      <use xlink:href="#DejaVuSansMono-Bold-6e" transform="translate(180.615234 0)"/>
      <use xlink:href="#DejaVuSansMono-Bold-6e" transform="translate(240.820312 0)"/>
      <use xlink:href="#DejaVuSansMono-Bold-69" transform="translate(301.025391 0)"/>
      <use xlink:href="#DejaVuSansMono-Bold-6e" transform="translate(361.230469 0)"/>
      <use xlink:href="#DejaVuSansMono-Bold-67" transform="translate(421.435547 0)"/>
      <use xlink:href="#DejaVuSansMono-Bold-20" transform="translate(481.640625 0)"/>
      <use xlink:href="#DejaVuSansMono-Bold-26" transform="translate(541.845703 0)"/>
      <use xlink:href="#DejaVuSansMono-Bold-20" transform="translate(602.050781 0)"/>
      <use xlink:href="#DejaVuSansMono-Bold-53" transform="translate(662.255859 0)"/>
      <use xlink:href="#DejaVuSansMono-Bold-63" transform="translate(722.460938 0)"/>
      <use xlink:href="#DejaVuSansMono-Bold-68" transform="translate(782.666016 0)"/>
      <use xlink:href="#DejaVuSansMono-Bold-65" transform="translate(842.871094 0)"/>
      <use xlink:href="#DejaVuSansMono-Bold-64" transform="translate(903.076172 0)"/>
      <use xlink:href="#DejaVuSansMono-Bold-75" transform="translate(963.28125 0)"/>
      <use xlink:href="#DejaVuSansMono-Bold-6c" transform="translate(1023.486328 0)"/>
      <use xlink:href="#DejaVuSansMono-Bold-69" transform="translate(1083.691406 0)"/>
      <use xlink:href="#DejaVuSansMono-Bold-6e" transform="translate(1143.896484 0)"/>
      <use xlink:href="#DejaVuSansMono-Bold-67" transform="translate(1204.101562 0)"/>
     </g>
    </g>
    <g id="patch_17">
     <path d="M 241.407188 149.597204 
L 313.650937 149.597204 
L 313.650937 136.714408 
L 241.407188 136.714408 
z
" style="fill: #aec7e8; fill-opacity: 0.2; stroke: #6c6c6c; stroke-linejoin: miter"/>
    </g>
    <g id="text_16">
     <!-- 2024-07-05 -->
     <g style="fill: #6c6c6c" transform="translate(248.631563 145.915181) scale(0.1 -0.1)">
      <use xlink:href="#DejaVuSansMono-Bold-32"/>
      <use xlink:href="#DejaVuSansMono-Bold-30" transform="translate(60.205078 0)"/>
      <use xlink:href="#DejaVuSansMono-Bold-32" transform="translate(120.410156 0)"/>
      <use xlink:href="#DejaVuSansMono-Bold-34" transform="translate(180.615234 0)"/>
      <use xlink:href="#DejaVuSansMono-Bold-2d" transform="translate(240.820312 0)"/>
      <use xlink:href="#DejaVuSansMono-Bold-30" transform="translate(301.025391 0)"/>
      <use xlink:href="#DejaVuSansMono-Bold-37" transform="translate(361.230469 0)"/>
      <use xlink:href="#DejaVuSansMono-Bold-2d" transform="translate(421.435547 0)"/>
      <use xlink:href="#DejaVuSansMono-Bold-30" transform="translate(481.640625 0)"/>
      <use xlink:href="#DejaVuSansMono-Bold-35" transform="translate(541.845703 0)"/>
     </g>
    </g>
    <g id="patch_18">
     <path d="M 46.349063 162.48 
L 241.407188 162.48 
L 241.407188 149.597204 
L 46.349063 149.597204 
z
" style="fill: #aec7e8; fill-opacity: 0.2; stroke: #6c6c6c; stroke-linejoin: miter"/>
    </g>
    <g id="text_17">
     <!-- Design Review -->
     <g style="fill: #6c6c6c" transform="translate(65.854875 159.058914) scale(0.1 -0.1)">
      <defs>
       <path id="DejaVuSansMono-Bold-76" d="M 3603 3500 
L 2491 0 
L 1363 0 
L 250 3500 
L 1178 3500 
L 1925 769 
L 2675 3500 
L 3603 3500 
z
" transform="scale(0.015625)"/>
      </defs>
      <use xlink:href="#DejaVuSansMono-Bold-44"/>
      <use xlink:href="#DejaVuSansMono-Bold-65" transform="translate(60.205078 0)"/>
      <use xlink:href="#DejaVuSansMono-Bold-73" transform="translate(120.410156 0)"/>
      <use xlink:href="#DejaVuSansMono-Bold-69" transform="translate(180.615234 0)"/>
      <use xlink:href="#DejaVuSansMono-Bold-67" transform="translate(240.820312 0)"/>
      <use xlink:href="#DejaVuSansMono-Bold-6e" transform="translate(301.025391 0)"/>
      <use xlink:href="#DejaVuSansMono-Bold-20" transform="translate(361.230469 0)"/>
      <use xlink:href="#DejaVuSansMono-Bold-52" transform="translate(421.435547 0)"/>
      <use xlink:href="#DejaVuSansMono-Bold-65" transform="translate(481.640625 0)"/>
      <use xlink:href="#DejaVuSansMono-Bold-76" transform="translate(541.845703 0)"/>
      <use xlink:href="#DejaVuSansMono-Bold-69" transform="translate(602.050781 0)"/>
      <use xlink:href="#DejaVuSansMono-Bold-65" transform="translate(662.255859 0)"/>
      <use xlink:href="#DejaVuSansMono-Bold-77" transform="translate(722.460938 0)"/>
     </g>
    </g>
    <g id="patch_19">
     <path d="M 241.407188 162.48 
L 313.650937 162.48 
L 313.650937 149.597204 
L 241.407188 149.597204 
z
" style="fill: #aec7e8; fill-opacity: 0.2; stroke: #6c6c6c; stroke-linejoin: miter"/>
    </g>
    <g id="text_18">
     <!-- 2024-07-10 -->
     <g style="fill: #6c6c6c" transform="translate(248.631563 158.797977) scale(0.1 -0.1)">
      <use xlink:href="#DejaVuSansMono-Bold-32"/>
      <use xlink:href="#DejaVuSansMono-Bold-30" transform="translate(60.205078 0)"/>
      <use xlink:href="#DejaVuSansMono-Bold-32" transform="translate(120.410156 0)"/>
      <use xlink:href="#DejaVuSansMono-Bold-34" transform="translate(180.615234 0)"/>
      <use xlink:href="#DejaVuSansMono-Bold-2d" transform="translate(240.820312 0)"/>
      <use xlink:href="#DejaVuSansMono-Bold-30" transform="translate(301.025391 0)"/>
      <use xlink:href="#DejaVuSansMono-Bold-37" transform="translate(361.230469 0)"/>
      <use xlink:href="#DejaVuSansMono-Bold-2d" transform="translate(421.435547 0)"/>
      <use xlink:href="#DejaVuSansMono-Bold-31" transform="translate(481.640625 0)"/>
      <use xlink:href="#DejaVuSansMono-Bold-30" transform="translate(541.845703 0)"/>
     </g>
    </g>
    <g id="patch_20">
     <path d="M 46.349063 175.362796 
L 241.407188 175.362796 
L 241.407188 162.48 
L 46.349063 162.48 
z
" style="fill: #ff7f0e; fill-opacity: 0.2; stroke: #6c6c6c; stroke-linejoin: miter"/>
    </g>
    <g id="text_19">
     <!-- Prototype Build -->
     <g style="fill: #6c6c6c" transform="translate(65.854875 171.946398) scale(0.1 -0.1)">
      <defs>
       <path id="DejaVuSansMono-Bold-42" d="M 1281 2119 
L 1281 738 
L 1894 738 
Q 2334 738 2511 888 
Q 2688 1038 2688 1409 
Q 2688 1788 2503 1953 
Q 2319 2119 1894 2119 
L 1281 2119 
z
M 1281 3938 
L 1281 2853 
L 1894 2853 
Q 2244 2853 2392 2978 
Q 2541 3103 2541 3391 
Q 2541 3678 2389 3808 
Q 2238 3938 1894 3938 
L 1281 3938 
z
M 391 4672 
L 1894 4672 
Q 2672 4672 3064 4376 
Q 3456 4081 3456 3494 
Q 3456 3044 3225 2791 
Q 2994 2538 2547 2497 
Q 3081 2444 3351 2137 
Q 3622 1831 3622 1281 
Q 3622 606 3215 303 
Q 2809 0 1894 0 
L 391 0 
L 391 4672 
z
" transform="scale(0.015625)"/>
      </defs>
      <use xlink:href="#DejaVuSansMono-Bold-50"/>
      <use xlink:href="#DejaVuSansMono-Bold-72" transform="translate(60.205078 0)"/>
      <use xlink:href="#DejaVuSansMono-Bold-6f" transform="translate(120.410156 0)"/>
      <use xlink:href="#DejaVuSansMono-Bold-74" transform="translate(180.615234 0)"/>
      <use xlink:href="#DejaVuSansMono-Bold-6f" transform="translate(240.820312 0)"/>
      <use xlink:href="#DejaVuSansMono-Bold-74" transform="translate(301.025391 0)"/>
      <use xlink:href="#DejaVuSansMono-Bold-79" transform="translate(361.230469 0)"/>
      <use xlink:href="#DejaVuSansMono-Bold-70" transform="translate(421.435547 0)"/>
      <use xlink:href="#DejaVuSansMono-Bold-65" transform="translate(481.640625 0)"/>
      <use xlink:href="#DejaVuSansMono-Bold-20" transform="translate(541.845703 0)"/>
      <use xlink:href="#DejaVuSansMono-Bold-42" transform="translate(602.050781 0)"/>
      <use xlink:href="#DejaVuSansMono-Bold-75" transform="translate(662.255859 0)"/>
      <use xlink:href="#DejaVuSansMono-Bold-69" transform="translate(722.460938 0)"/>
      <use xlink:href="#DejaVuSansMono-Bold-6c" transform="translate(782.666016 0)"/>
      <use xlink:href="#DejaVuSansMono-Bold-64" transform="translate(842.871094 0)"/>
     </g>
    </g>
    <g id="patch_21">
     <path d="M 241.407188 175.362796 
L 313.650937 175.362796 
L 313.650937 162.48 
L 241.407188 162.48 
z
" style="fill: #ff7f0e; fill-opacity: 0.2; stroke: #6c6c6c; stroke-linejoin: miter"/>
    </g>
    <g id="text_20">
     <!-- 2024-07-25 -->
     <g style="fill: #6c6c6c" transform="translate(248.631563 171.680773) scale(0.1 -0.1)">
      <use xlink:href="#DejaVuSansMono-Bold-32"/>
      <use xlink:href="#DejaVuSansMono-Bold-30" transform="translate(60.205078 0)"/>
      <use xlink:href="#DejaVuSansMono-Bold-32" transform="translate(120.410156 0)"/>
      <use xlink:href="#DejaVuSansMono-Bold-34" transform="translate(180.615234 0)"/>
      <use xlink:href="#DejaVuSansMono-Bold-2d" transform="translate(240.820312 0)"/>
      <use xlink:href="#DejaVuSansMono-Bold-30" transform="translate(301.025391 0)"/>
      <use xlink:href="#DejaVuSansMono-Bold-37" transform="translate(361.230469 0)"/>
      <use xlink:href="#DejaVuSansMono-Bold-2d" transform="translate(421.435547 0)"/>
      <use xlink:href="#DejaVuSansMono-Bold-32" transform="translate(481.640625 0)"/>
      <use xlink:href="#DejaVuSansMono-Bold-35" transform="translate(541.845703 0)"/>
     </g>
    </g>
    <g id="patch_22">
     <path d="M 46.349063 188.245592 
L 241.407188 188.245592 
L 241.407188 175.362796 
L 46.349063 175.362796 
z
" style="fill: #ff7f0e; fill-opacity: 0.2; stroke: #6c6c6c; stroke-linejoin: miter"/>
    </g>
    <g id="text_21">
     <!-- Testing &amp; Validation -->
     <g style="fill: #6c6c6c" transform="translate(65.854875 184.824507) scale(0.1 -0.1)">
      <defs>
       <path id="DejaVuSansMono-Bold-56" d="M 1925 769 
L 2747 4666 
L 3675 4666 
L 2566 0 
L 1288 0 
L 178 4666 
L 1106 4666 
L 1925 769 
z
" transform="scale(0.015625)"/>
      </defs>
      <use xlink:href="#DejaVuSansMono-Bold-54"/>
      <use xlink:href="#DejaVuSansMono-Bold-65" transform="translate(60.205078 0)"/>
      <use xlink:href="#DejaVuSansMono-Bold-73" transform="translate(120.410156 0)"/>
      <use xlink:href="#DejaVuSansMono-Bold-74" transform="translate(180.615234 0)"/>
      <use xlink:href="#DejaVuSansMono-Bold-69" transform="translate(240.820312 0)"/>
      <use xlink:href="#DejaVuSansMono-Bold-6e" transform="translate(301.025391 0)"/>
      <use xlink:href="#DejaVuSansMono-Bold-67" transform="translate(361.230469 0)"/>
      <use xlink:href="#DejaVuSansMono-Bold-20" transform="translate(421.435547 0)"/>
      <use xlink:href="#DejaVuSansMono-Bold-26" transform="translate(481.640625 0)"/>
      <use xlink:href="#DejaVuSansMono-Bold-20" transform="translate(541.845703 0)"/>
      <use xlink:href="#DejaVuSansMono-Bold-56" transform="translate(602.050781 0)"/>
      <use xlink:href="#DejaVuSansMono-Bold-61" transform="translate(662.255859 0)"/>
      <use xlink:href="#DejaVuSansMono-Bold-6c" transform="translate(722.460938 0)"/>
      <use xlink:href="#DejaVuSansMono-Bold-69" transform="translate(782.666016 0)"/>
      <use xlink:href="#DejaVuSansMono-Bold-64" transform="translate(842.871094 0)"/>
      <use xlink:href="#DejaVuSansMono-Bold-61" transform="translate(903.076172 0)"/>
      <use xlink:href="#DejaVuSansMono-Bold-74" transform="translate(963.28125 0)"/>
      <use xlink:href="#DejaVuSansMono-Bold-69" transform="translate(1023.486328 0)"/>
      <use xlink:href="#DejaVuSansMono-Bold-6f" transform="translate(1083.691406 0)"/>
      <use xlink:href="#DejaVuSansMono-Bold-6e" transform="translate(1143.896484 0)"/>
     </g>
    </g>
    <g id="patch_23">
     <path d="M 241.407188 188.245592 
L 313.650937 188.245592 
L 313.650937 175.362796 
L 241.407188 175.362796 
z
" style="fill: #ff7f0e; fill-opacity: 0.2; stroke: #6c6c6c; stroke-linejoin: miter"/>
    </g>
    <g id="text_22">
     <!-- 2024-08-05 -->
     <g style="fill: #6c6c6c" transform="translate(248.631563 184.563569) scale(0.1 -0.1)">
      <defs>
       <path id="DejaVuSansMono-Bold-38" d="M 1925 2081 
Q 1616 2081 1425 1886 
Q 1234 1691 1234 1369 
Q 1234 1047 1425 850 
Q 1616 653 1925 653 
Q 2234 653 2426 853 
Q 2619 1053 2619 1369 
Q 2619 1691 2428 1886 
Q 2238 2081 1925 2081 
z
M 1241 2472 
Q 888 2594 703 2855 
Q 519 3116 519 3494 
Q 519 4075 897 4412 
Q 1275 4750 1925 4750 
Q 2578 4750 2956 4412 
Q 3334 4075 3334 3494 
Q 3334 3119 3153 2858 
Q 2972 2597 2625 2472 
Q 3013 2353 3231 2047 
Q 3450 1741 3450 1313 
Q 3450 641 3053 275 
Q 2656 -91 1925 -91 
Q 1197 -91 800 275 
Q 403 641 403 1313 
Q 403 1744 625 2050 
Q 847 2356 1241 2472 
z
M 1338 3419 
Q 1338 3144 1495 2983 
Q 1653 2822 1925 2822 
Q 2200 2822 2358 2983 
Q 2516 3144 2516 3419 
Q 2516 3691 2358 3848 
Q 2200 4006 1925 4006 
Q 1656 4006 1497 3847 
Q 1338 3688 1338 3419 
z
" transform="scale(0.015625)"/>
      </defs>
      <use xlink:href="#DejaVuSansMono-Bold-32"/>
      <use xlink:href="#DejaVuSansMono-Bold-30" transform="translate(60.205078 0)"/>
      <use xlink:href="#DejaVuSansMono-Bold-32" transform="translate(120.410156 0)"/>
      <use xlink:href="#DejaVuSansMono-Bold-34" transform="translate(180.615234 0)"/>
      <use xlink:href="#DejaVuSansMono-Bold-2d" transform="translate(240.820312 0)"/>
      <use xlink:href="#DejaVuSansMono-Bold-30" transform="translate(301.025391 0)"/>
      <use xlink:href="#DejaVuSansMono-Bold-38" transform="translate(361.230469 0)"/>
      <use xlink:href="#DejaVuSansMono-Bold-2d" transform="translate(421.435547 0)"/>
      <use xlink:href="#DejaVuSansMono-Bold-30" transform="translate(481.640625 0)"/>
      <use xlink:href="#DejaVuSansMono-Bold-35" transform="translate(541.845703 0)"/>
     </g>
    </g>
    <g id="patch_24">
     <path d="M 46.349063 201.128389 
L 241.407188 201.128389 
L 241.407188 188.245592 
L 46.349063 188.245592 
z
" style="fill: #ff7f0e; fill-opacity: 0.2; stroke: #6c6c6c; stroke-linejoin: miter"/>
    </g>
    <g id="text_23">
     <!-- Operator Training -->
     <g style="fill: #6c6c6c" transform="translate(65.854875 197.711991) scale(0.1 -0.1)">
      <defs>
       <path id="DejaVuSansMono-Bold-4f" d="M 1925 3922 
Q 1572 3922 1409 3545 
Q 1247 3169 1247 2328 
Q 1247 1491 1409 1114 
Q 1572 738 1925 738 
Q 2281 738 2443 1114 
Q 2606 1491 2606 2328 
Q 2606 3169 2443 3545 
Q 2281 3922 1925 3922 
z
M 288 2328 
Q 288 3525 702 4137 
Q 1116 4750 1925 4750 
Q 2738 4750 3152 4137 
Q 3566 3525 3566 2328 
Q 3566 1134 3152 521 
Q 2738 -91 1925 -91 
Q 1116 -91 702 521 
Q 288 1134 288 2328 
z
" transform="scale(0.015625)"/>
      </defs>
      <use xlink:href="#DejaVuSansMono-Bold-4f"/>
      <use xlink:href="#DejaVuSansMono-Bold-70" transform="translate(60.205078 0)"/>
      <use xlink:href="#DejaVuSansMono-Bold-65" transform="translate(120.410156 0)"/>
      <use xlink:href="#DejaVuSansMono-Bold-72" transform="translate(180.615234 0)"/>
      <use xlink:href="#DejaVuSansMono-Bold-61" transform="translate(240.820312 0)"/>
      <use xlink:href="#DejaVuSansMono-Bold-74" transform="translate(301.025391 0)"/>
      <use xlink:href="#DejaVuSansMono-Bold-6f" transform="translate(361.230469 0)"/>
      <use xlink:href="#DejaVuSansMono-Bold-72" transform="translate(421.435547 0)"/>
      <use xlink:href="#DejaVuSansMono-Bold-20" transform="translate(481.640625 0)"/>
      <use xlink:href="#DejaVuSansMono-Bold-54" transform="translate(541.845703 0)"/>
      <use xlink:href="#DejaVuSansMono-Bold-72" transform="translate(602.050781 0)"/>
      <use xlink:href="#DejaVuSansMono-Bold-61" transform="translate(662.255859 0)"/>
      <use xlink:href="#DejaVuSansMono-Bold-69" transform="translate(722.460938 0)"/>
      <use xlink:href="#DejaVuSansMono-Bold-6e" transform="translate(782.666016 0)"/>
      <use xlink:href="#DejaVuSansMono-Bold-69" transform="translate(842.871094 0)"/>
      <use xlink:href="#DejaVuSansMono-Bold-6e" transform="translate(903.076172 0)"/>
      <use xlink:href="#DejaVuSansMono-Bold-67" transform="translate(963.28125 0)"/>
     </g>
    </g>
    <g id="patch_25">
     <path d="M 241.407188 201.128389 
L 313.650937 201.128389 
L 313.650937 188.245592 
L 241.407188 188.245592 
z
" style="fill: #ff7f0e; fill-opacity: 0.2; stroke: #6c6c6c; stroke-linejoin: miter"/>
    </g>
    <g id="text_24">
     <!-- 2024-08-10 -->
     <g style="fill: #6c6c6c" transform="translate(248.631563 197.446366) scale(0.1 -0.1)">
      <use xlink:href="#DejaVuSansMono-Bold-32"/>
      <use xlink:href="#DejaVuSansMono-Bold-30" transform="translate(60.205078 0)"/>
      <use xlink:href="#DejaVuSansMono-Bold-32" transform="translate(120.410156 0)"/>
      <use xlink:href="#DejaVuSansMono-Bold-34" transform="translate(180.615234 0)"/>
      <use xlink:href="#DejaVuSansMono-Bold-2d" transform="translate(240.820312 0)"/>
      <use xlink:href="#DejaVuSansMono-Bold-30" transform="translate(301.025391 0)"/>
      <use xlink:href="#DejaVuSansMono-Bold-38" transform="translate(361.230469 0)"/>
      <use xlink:href="#DejaVuSansMono-Bold-2d" transform="translate(421.435547 0)"/>
      <use xlink:href="#DejaVuSansMono-Bold-31" transform="translate(481.640625 0)"/>
      <use xlink:href="#DejaVuSansMono-Bold-30" transform="translate(541.845703 0)"/>
     </g>
    </g>
    <g id="patch_26">
     <path d="M 46.349063 214.011185 
L 241.407188 214.011185 
L 241.407188 201.128389 
L 46.349063 201.128389 
z
" style="fill: #ffbb78; fill-opacity: 0.2; stroke: #6c6c6c; stroke-linejoin: miter"/>
    </g>
    <g id="text_25">
     <!-- Integration Preparation -->
     <g style="fill: #6c6c6c" transform="translate(65.854875 210.594787) scale(0.1 -0.1)">
      <defs>
       <path id="DejaVuSansMono-Bold-49" d="M 538 3853 
L 538 4666 
L 3316 4666 
L 3316 3853 
L 2388 3853 
L 2388 813 
L 3316 813 
L 3316 0 
L 538 0 
L 538 813 
L 1466 813 
L 1466 3853 
L 538 3853 
z
" transform="scale(0.015625)"/>
      </defs>
      <use xlink:href="#DejaVuSansMono-Bold-49"/>
      <use xlink:href="#DejaVuSansMono-Bold-6e" transform="translate(60.205078 0)"/>
      <use xlink:href="#DejaVuSansMono-Bold-74" transform="translate(120.410156 0)"/>
      <use xlink:href="#DejaVuSansMono-Bold-65" transform="translate(180.615234 0)"/>
      <use xlink:href="#DejaVuSansMono-Bold-67" transform="translate(240.820312 0)"/>
      <use xlink:href="#DejaVuSansMono-Bold-72" transform="translate(301.025391 0)"/>
      <use xlink:href="#DejaVuSansMono-Bold-61" transform="translate(361.230469 0)"/>
      <use xlink:href="#DejaVuSansMono-Bold-74" transform="translate(421.435547 0)"/>
      <use xlink:href="#DejaVuSansMono-Bold-69" transform="translate(481.640625 0)"/>
      <use xlink:href="#DejaVuSansMono-Bold-6f" transform="translate(541.845703 0)"/>
      <use xlink:href="#DejaVuSansMono-Bold-6e" transform="translate(602.050781 0)"/>
      <use xlink:href="#DejaVuSansMono-Bold-20" transform="translate(662.255859 0)"/>
      <use xlink:href="#DejaVuSansMono-Bold-50" transform="translate(722.460938 0)"/>
      <use xlink:href="#DejaVuSansMono-Bold-72" transform="translate(782.666016 0)"/>
      <use xlink:href="#DejaVuSansMono-Bold-65" transform="translate(842.871094 0)"/>
      <use xlink:href="#DejaVuSansMono-Bold-70" transform="translate(903.076172 0)"/>
      <use xlink:href="#DejaVuSansMono-Bold-61" transform="translate(963.28125 0)"/>
      <use xlink:href="#DejaVuSansMono-Bold-72" transform="translate(1023.486328 0)"/>
      <use xlink:href="#DejaVuSansMono-Bold-61" transform="translate(1083.691406 0)"/>
      <use xlink:href="#DejaVuSansMono-Bold-74" transform="translate(1143.896484 0)"/>
      <use xlink:href="#DejaVuSansMono-Bold-69" transform="translate(1204.101562 0)"/>
      <use xlink:href="#DejaVuSansMono-Bold-6f" transform="translate(1264.306641 0)"/>
      <use xlink:href="#DejaVuSansMono-Bold-6e" transform="translate(1324.511719 0)"/>
     </g>
    </g>
    <g id="patch_27">
     <path d="M 241.407188 214.011185 
L 313.650937 214.011185 
L 313.650937 201.128389 
L 241.407188 201.128389 
z
" style="fill: #ffbb78; fill-opacity: 0.2; stroke: #6c6c6c; stroke-linejoin: miter"/>
    </g>
    <g id="text_26">
     <!-- 2024-08-14 -->
     <g style="fill: #6c6c6c" transform="translate(248.631563 210.329162) scale(0.1 -0.1)">
      <use xlink:href="#DejaVuSansMono-Bold-32"/>
      <use xlink:href="#DejaVuSansMono-Bold-30" transform="translate(60.205078 0)"/>
      <use xlink:href="#DejaVuSansMono-Bold-32" transform="translate(120.410156 0)"/>
      <use xlink:href="#DejaVuSansMono-Bold-34" transform="translate(180.615234 0)"/>
      <use xlink:href="#DejaVuSansMono-Bold-2d" transform="translate(240.820312 0)"/>
      <use xlink:href="#DejaVuSansMono-Bold-30" transform="translate(301.025391 0)"/>
      <use xlink:href="#DejaVuSansMono-Bold-38" transform="translate(361.230469 0)"/>
      <use xlink:href="#DejaVuSansMono-Bold-2d" transform="translate(421.435547 0)"/>
      <use xlink:href="#DejaVuSansMono-Bold-31" transform="translate(481.640625 0)"/>
      <use xlink:href="#DejaVuSansMono-Bold-34" transform="translate(541.845703 0)"/>
     </g>
    </g>
    <g id="patch_28">
     <path d="M 46.349063 226.893981 
L 241.407188 226.893981 
L 241.407188 214.011185 
L 46.349063 214.011185 
z
" style="fill: #ffbb78; fill-opacity: 0.2; stroke: #6c6c6c; stroke-linejoin: miter"/>
    </g>
    <g id="text_27">
     <!-- System Integration -->
     <g style="fill: #6c6c6c" transform="translate(65.854875 223.472895) scale(0.1 -0.1)">
      <use xlink:href="#DejaVuSansMono-Bold-53"/>
      <use xlink:href="#DejaVuSansMono-Bold-79" transform="translate(60.205078 0)"/>
      <use xlink:href="#DejaVuSansMono-Bold-73" transform="translate(120.410156 0)"/>
      <use xlink:href="#DejaVuSansMono-Bold-74" transform="translate(180.615234 0)"/>
      <use xlink:href="#DejaVuSansMono-Bold-65" transform="translate(240.820312 0)"/>
      <use xlink:href="#DejaVuSansMono-Bold-6d" transform="translate(301.025391 0)"/>
      <use xlink:href="#DejaVuSansMono-Bold-20" transform="translate(361.230469 0)"/>
      <use xlink:href="#DejaVuSansMono-Bold-49" transform="translate(421.435547 0)"/>
      <use xlink:href="#DejaVuSansMono-Bold-6e" transform="translate(481.640625 0)"/>
      <use xlink:href="#DejaVuSansMono-Bold-74" transform="translate(541.845703 0)"/>
      <use xlink:href="#DejaVuSansMono-Bold-65" transform="translate(602.050781 0)"/>
      <use xlink:href="#DejaVuSansMono-Bold-67" transform="translate(662.255859 0)"/>
      <use xlink:href="#DejaVuSansMono-Bold-72" transform="translate(722.460938 0)"/>
      <use xlink:href="#DejaVuSansMono-Bold-61" transform="translate(782.666016 0)"/>
      <use xlink:href="#DejaVuSansMono-Bold-74" transform="translate(842.871094 0)"/>
      <use xlink:href="#DejaVuSansMono-Bold-69" transform="translate(903.076172 0)"/>
      <use xlink:href="#DejaVuSansMono-Bold-6f" transform="translate(963.28125 0)"/>
      <use xlink:href="#DejaVuSansMono-Bold-6e" transform="translate(1023.486328 0)"/>
     </g>
    </g>
    <g id="patch_29">
     <path d="M 241.407188 226.893981 
L 313.650937 226.893981 
L 313.650937 214.011185 
L 241.407188 214.011185 
z
" style="fill: #ffbb78; fill-opacity: 0.2; stroke: #6c6c6c; stroke-linejoin: miter"/>
    </g>
    <g id="text_28">
     <!-- 2024-08-22 -->
     <g style="fill: #6c6c6c" transform="translate(248.631563 223.211958) scale(0.1 -0.1)">
      <use xlink:href="#DejaVuSansMono-Bold-32"/>
      <use xlink:href="#DejaVuSansMono-Bold-30" transform="translate(60.205078 0)"/>
      <use xlink:href="#DejaVuSansMono-Bold-32" transform="translate(120.410156 0)"/>
      <use xlink:href="#DejaVuSansMono-Bold-34" transform="translate(180.615234 0)"/>
      <use xlink:href="#DejaVuSansMono-Bold-2d" transform="translate(240.820312 0)"/>
      <use xlink:href="#DejaVuSansMono-Bold-30" transform="translate(301.025391 0)"/>
      <use xlink:href="#DejaVuSansMono-Bold-38" transform="translate(361.230469 0)"/>
      <use xlink:href="#DejaVuSansMono-Bold-2d" transform="translate(421.435547 0)"/>
      <use xlink:href="#DejaVuSansMono-Bold-32" transform="translate(481.640625 0)"/>
      <use xlink:href="#DejaVuSansMono-Bold-32" transform="translate(541.845703 0)"/>
     </g>
    </g>
    <g id="patch_30">
     <path d="M 46.349063 239.776777 
L 241.407188 239.776777 
L 241.407188 226.893981 
L 46.349063 226.893981 
z
" style="fill: #ffbb78; fill-opacity: 0.2; stroke: #6c6c6c; stroke-linejoin: miter"/>
    </g>
    <g id="text_29">
     <!-- Commissioning &amp; Validation -->
     <g style="fill: #6c6c6c" transform="translate(65.854875 236.355692) scale(0.1 -0.1)">
      <use xlink:href="#DejaVuSansMono-Bold-43"/>
      <use xlink:href="#DejaVuSansMono-Bold-6f" transform="translate(60.205078 0)"/>
      <use xlink:href="#DejaVuSansMono-Bold-6d" transform="translate(120.410156 0)"/>
      <use xlink:href="#DejaVuSansMono-Bold-6d" transform="translate(180.615234 0)"/>
      <use xlink:href="#DejaVuSansMono-Bold-69" transform="translate(240.820312 0)"/>
      <use xlink:href="#DejaVuSansMono-Bold-73" transform="translate(301.025391 0)"/>
      <use xlink:href="#DejaVuSansMono-Bold-73" transform="translate(361.230469 0)"/>
      <use xlink:href="#DejaVuSansMono-Bold-69" transform="translate(421.435547 0)"/>
      <use xlink:href="#DejaVuSansMono-Bold-6f" transform="translate(481.640625 0)"/>
      <use xlink:href="#DejaVuSansMono-Bold-6e" transform="translate(541.845703 0)"/>
      <use xlink:href="#DejaVuSansMono-Bold-69" transform="translate(602.050781 0)"/>
      <use xlink:href="#DejaVuSansMono-Bold-6e" transform="translate(662.255859 0)"/>
      <use xlink:href="#DejaVuSansMono-Bold-67" transform="translate(722.460938 0)"/>
      <use xlink:href="#DejaVuSansMono-Bold-20" transform="translate(782.666016 0)"/>
      <use xlink:href="#DejaVuSansMono-Bold-26" transform="translate(842.871094 0)"/>
      <use xlink:href="#DejaVuSansMono-Bold-20" transform="translate(903.076172 0)"/>
      <use xlink:href="#DejaVuSansMono-Bold-56" transform="translate(963.28125 0)"/>
      <use xlink:href="#DejaVuSansMono-Bold-61" transform="translate(1023.486328 0)"/>
      <use xlink:href="#DejaVuSansMono-Bold-6c" transform="translate(1083.691406 0)"/>
      <use xlink:href="#DejaVuSansMono-Bold-69" transform="translate(1143.896484 0)"/>
      <use xlink:href="#DejaVuSansMono-Bold-64" transform="translate(1204.101562 0)"/>
      <use xlink:href="#DejaVuSansMono-Bold-61" transform="translate(1264.306641 0)"/>
      <use xlink:href="#DejaVuSansMono-Bold-74" transform="translate(1324.511719 0)"/>
      <use xlink:href="#DejaVuSansMono-Bold-69" transform="translate(1384.716797 0)"/>
      <use xlink:href="#DejaVuSansMono-Bold-6f" transform="translate(1444.921875 0)"/>
      <use xlink:href="#DejaVuSansMono-Bold-6e" transform="translate(1505.126953 0)"/>
     </g>
    </g>
    <g id="patch_31">
     <path d="M 241.407188 239.776777 
L 313.650937 239.776777 
L 313.650937 226.893981 
L 241.407188 226.893981 
z
" style="fill: #ffbb78; fill-opacity: 0.2; stroke: #6c6c6c; stroke-linejoin: miter"/>
    </g>
    <g id="text_30">
     <!-- 2024-08-28 -->
     <g style="fill: #6c6c6c" transform="translate(248.631563 236.094754) scale(0.1 -0.1)">
      <use xlink:href="#DejaVuSansMono-Bold-32"/>
      <use xlink:href="#DejaVuSansMono-Bold-30" transform="translate(60.205078 0)"/>
      <use xlink:href="#DejaVuSansMono-Bold-32" transform="translate(120.410156 0)"/>
      <use xlink:href="#DejaVuSansMono-Bold-34" transform="translate(180.615234 0)"/>
      <use xlink:href="#DejaVuSansMono-Bold-2d" transform="translate(240.820312 0)"/>
      <use xlink:href="#DejaVuSansMono-Bold-30" transform="translate(301.025391 0)"/>
      <use xlink:href="#DejaVuSansMono-Bold-38" transform="translate(361.230469 0)"/>
      <use xlink:href="#DejaVuSansMono-Bold-2d" transform="translate(421.435547 0)"/>
      <use xlink:href="#DejaVuSansMono-Bold-32" transform="translate(481.640625 0)"/>
      <use xlink:href="#DejaVuSansMono-Bold-38" transform="translate(541.845703 0)"/>
     </g>
    </g>
    <g id="patch_32">
     <path d="M 46.349063 252.659574 
L 241.407188 252.659574 
L 241.407188 239.776777 
L 46.349063 239.776777 
z
" style="fill: #2ca02c; fill-opacity: 0.2; stroke: #6c6c6c; stroke-linejoin: miter"/>
    </g>
    <g id="text_31">
     <!-- Performance Evaluation -->
     <g style="fill: #6c6c6c" transform="translate(65.854875 248.97755) scale(0.1 -0.1)">
      <defs>
       <path id="DejaVuSansMono-Bold-45" d="M 3431 0 
L 525 0 
L 525 4666 
L 3431 4666 
L 3431 3853 
L 1447 3853 
L 1447 2847 
L 3244 2847 
L 3244 2034 
L 1447 2034 
L 1447 813 
L 3431 813 
L 3431 0 
z
" transform="scale(0.015625)"/>
      </defs>
      <use xlink:href="#DejaVuSansMono-Bold-50"/>
      <use xlink:href="#DejaVuSansMono-Bold-65" transform="translate(60.205078 0)"/>
      <use xlink:href="#DejaVuSansMono-Bold-72" transform="translate(120.410156 0)"/>
      <use xlink:href="#DejaVuSansMono-Bold-66" transform="translate(180.615234 0)"/>
      <use xlink:href="#DejaVuSansMono-Bold-6f" transform="translate(240.820312 0)"/>
      <use xlink:href="#DejaVuSansMono-Bold-72" transform="translate(301.025391 0)"/>
      <use xlink:href="#DejaVuSansMono-Bold-6d" transform="translate(361.230469 0)"/>
      <use xlink:href="#DejaVuSansMono-Bold-61" transform="translate(421.435547 0)"/>
      <use xlink:href="#DejaVuSansMono-Bold-6e" transform="translate(481.640625 0)"/>
      <use xlink:href="#DejaVuSansMono-Bold-63" transform="translate(541.845703 0)"/>
      <use xlink:href="#DejaVuSansMono-Bold-65" transform="translate(602.050781 0)"/>
      <use xlink:href="#DejaVuSansMono-Bold-20" transform="translate(662.255859 0)"/>
      <use xlink:href="#DejaVuSansMono-Bold-45" transform="translate(722.460938 0)"/>
      <use xlink:href="#DejaVuSansMono-Bold-76" transform="translate(782.666016 0)"/>
      <use xlink:href="#DejaVuSansMono-Bold-61" transform="translate(842.871094 0)"/>
      <use xlink:href="#DejaVuSansMono-Bold-6c" transform="translate(903.076172 0)"/>
      <use xlink:href="#DejaVuSansMono-Bold-75" transform="translate(963.28125 0)"/>
      <use xlink:href="#DejaVuSansMono-Bold-61" transform="translate(1023.486328 0)"/>
      <use xlink:href="#DejaVuSansMono-Bold-74" transform="translate(1083.691406 0)"/>
      <use xlink:href="#DejaVuSansMono-Bold-69" transform="translate(1143.896484 0)"/>
      <use xlink:href="#DejaVuSansMono-Bold-6f" transform="translate(1204.101562 0)"/>
      <use xlink:href="#DejaVuSansMono-Bold-6e" transform="translate(1264.306641 0)"/>
     </g>
    </g>
    <g id="patch_33">
     <path d="M 241.407188 252.659574 
L 313.650937 252.659574 
L 313.650937 239.776777 
L 241.407188 239.776777 
z
" style="fill: #2ca02c; fill-opacity: 0.2; stroke: #6c6c6c; stroke-linejoin: miter"/>
    </g>
    <g id="text_32">
     <!-- 2024-08-31 -->
     <g style="fill: #6c6c6c" transform="translate(248.631563 248.97755) scale(0.1 -0.1)">
      <use xlink:href="#DejaVuSansMono-Bold-32"/>
      <use xlink:href="#DejaVuSansMono-Bold-30" transform="translate(60.205078 0)"/>
      <use xlink:href="#DejaVuSansMono-Bold-32" transform="translate(120.410156 0)"/>
      <use xlink:href="#DejaVuSansMono-Bold-34" transform="translate(180.615234 0)"/>
      <use xlink:href="#DejaVuSansMono-Bold-2d" transform="translate(240.820312 0)"/>
      <use xlink:href="#DejaVuSansMono-Bold-30" transform="translate(301.025391 0)"/>
      <use xlink:href="#DejaVuSansMono-Bold-38" transform="translate(361.230469 0)"/>
      <use xlink:href="#DejaVuSansMono-Bold-2d" transform="translate(421.435547 0)"/>
      <use xlink:href="#DejaVuSansMono-Bold-33" transform="translate(481.640625 0)"/>
      <use xlink:href="#DejaVuSansMono-Bold-31" transform="translate(541.845703 0)"/>
     </g>
    </g>
    <g id="patch_34">
     <path d="M 46.349063 265.54237 
L 241.407188 265.54237 
L 241.407188 252.659574 
L 46.349063 252.659574 
z
" style="fill: #2ca02c; fill-opacity: 0.2; stroke: #6c6c6c; stroke-linejoin: miter"/>
    </g>
    <g id="text_33">
     <!-- ROI &amp; Feasibility Analysis -->
     <g style="fill: #6c6c6c" transform="translate(65.854875 262.121284) scale(0.1 -0.1)">
      <defs>
       <path id="DejaVuSansMono-Bold-62" d="M 2656 1741 
Q 2656 2247 2487 2534 
Q 2319 2822 2022 2822 
Q 1725 2822 1553 2534 
Q 1381 2247 1381 1741 
Q 1381 1234 1553 946 
Q 1725 659 2022 659 
Q 2319 659 2487 946 
Q 2656 1234 2656 1741 
z
M 1381 3003 
Q 1550 3294 1773 3439 
Q 1997 3584 2278 3584 
Q 2900 3584 3236 3109 
Q 3572 2634 3572 1747 
Q 3572 872 3240 390 
Q 2909 -91 2309 -91 
Q 1994 -91 1759 62 
Q 1525 216 1381 519 
L 1381 0 
L 469 0 
L 469 4863 
L 1381 4863 
L 1381 3003 
z
" transform="scale(0.015625)"/>
      </defs>
      <use xlink:href="#DejaVuSansMono-Bold-52"/>
      <use xlink:href="#DejaVuSansMono-Bold-4f" transform="translate(60.205078 0)"/>
      <use xlink:href="#DejaVuSansMono-Bold-49" transform="translate(120.410156 0)"/>
      <use xlink:href="#DejaVuSansMono-Bold-20" transform="translate(180.615234 0)"/>
      <use xlink:href="#DejaVuSansMono-Bold-26" transform="translate(240.820312 0)"/>
      <use xlink:href="#DejaVuSansMono-Bold-20" transform="translate(301.025391 0)"/>
      <use xlink:href="#DejaVuSansMono-Bold-46" transform="translate(361.230469 0)"/>
      <use xlink:href="#DejaVuSansMono-Bold-65" transform="translate(421.435547 0)"/>
      <use xlink:href="#DejaVuSansMono-Bold-61" transform="translate(481.640625 0)"/>
      <use xlink:href="#DejaVuSansMono-Bold-73" transform="translate(541.845703 0)"/>
      <use xlink:href="#DejaVuSansMono-Bold-69" transform="translate(602.050781 0)"/>
      <use xlink:href="#DejaVuSansMono-Bold-62" transform="translate(662.255859 0)"/>
      <use xlink:href="#DejaVuSansMono-Bold-69" transform="translate(722.460938 0)"/>
      <use xlink:href="#DejaVuSansMono-Bold-6c" transform="translate(782.666016 0)"/>
      <use xlink:href="#DejaVuSansMono-Bold-69" transform="translate(842.871094 0)"/>
      <use xlink:href="#DejaVuSansMono-Bold-74" transform="translate(903.076172 0)"/>
      <use xlink:href="#DejaVuSansMono-Bold-79" transform="translate(963.28125 0)"/>
      <use xlink:href="#DejaVuSansMono-Bold-20" transform="translate(1023.486328 0)"/>
      <use xlink:href="#DejaVuSansMono-Bold-41" transform="translate(1083.691406 0)"/>
      <use xlink:href="#DejaVuSansMono-Bold-6e" transform="translate(1143.896484 0)"/>
      <use xlink:href="#DejaVuSansMono-Bold-61" transform="translate(1204.101562 0)"/>
      <use xlink:href="#DejaVuSansMono-Bold-6c" transform="translate(1264.306641 0)"/>
      <use xlink:href="#DejaVuSansMono-Bold-79" transform="translate(1324.511719 0)"/>
      <use xlink:href="#DejaVuSansMono-Bold-73" transform="translate(1384.716797 0)"/>
      <use xlink:href="#DejaVuSansMono-Bold-69" transform="translate(1444.921875 0)"/>
      <use xlink:href="#DejaVuSansMono-Bold-73" transform="translate(1505.126953 0)"/>
     </g>
    </g>
    <g id="patch_35">
     <path d="M 241.407188 265.54237 
L 313.650937 265.54237 
L 313.650937 252.659574 
L 241.407188 252.659574 
z
" style="fill: #2ca02c; fill-opacity: 0.2; stroke: #6c6c6c; stroke-linejoin: miter"/>
    </g>
    <g id="text_34">
     <!-- 2024-08-31 -->
     <g style="fill: #6c6c6c" transform="translate(248.631563 261.860347) scale(0.1 -0.1)">
      <use xlink:href="#DejaVuSansMono-Bold-32"/>
      <use xlink:href="#DejaVuSansMono-Bold-30" transform="translate(60.205078 0)"/>
      <use xlink:href="#DejaVuSansMono-Bold-32" transform="translate(120.410156 0)"/>
      <use xlink:href="#DejaVuSansMono-Bold-34" transform="translate(180.615234 0)"/>
      <use xlink:href="#DejaVuSansMono-Bold-2d" transform="translate(240.820312 0)"/>
      <use xlink:href="#DejaVuSansMono-Bold-30" transform="translate(301.025391 0)"/>
      <use xlink:href="#DejaVuSansMono-Bold-38" transform="translate(361.230469 0)"/>
      <use xlink:href="#DejaVuSansMono-Bold-2d" transform="translate(421.435547 0)"/>
      <use xlink:href="#DejaVuSansMono-Bold-33" transform="translate(481.640625 0)"/>
      <use xlink:href="#DejaVuSansMono-Bold-31" transform="translate(541.845703 0)"/>
     </g>
    </g>
    <g id="patch_36">
     <path d="M 46.349063 278.425166 
L 241.407188 278.425166 
L 241.407188 265.54237 
L 46.349063 265.54237 
z
" style="fill: #2ca02c; fill-opacity: 0.2; stroke: #6c6c6c; stroke-linejoin: miter"/>
    </g>
    <g id="text_35">
     <!-- Final Reporting &amp; Closure -->
     <g style="fill: #6c6c6c" transform="translate(65.854875 275.008768) scale(0.1 -0.1)">
      <use xlink:href="#DejaVuSansMono-Bold-46"/>
      <use xlink:href="#DejaVuSansMono-Bold-69" transform="translate(60.205078 0)"/>
      <use xlink:href="#DejaVuSansMono-Bold-6e" transform="translate(120.410156 0)"/>
      <use xlink:href="#DejaVuSansMono-Bold-61" transform="translate(180.615234 0)"/>
      <use xlink:href="#DejaVuSansMono-Bold-6c" transform="translate(240.820312 0)"/>
      <use xlink:href="#DejaVuSansMono-Bold-20" transform="translate(301.025391 0)"/>
      <use xlink:href="#DejaVuSansMono-Bold-52" transform="translate(361.230469 0)"/>
      <use xlink:href="#DejaVuSansMono-Bold-65" transform="translate(421.435547 0)"/>
      <use xlink:href="#DejaVuSansMono-Bold-70" transform="translate(481.640625 0)"/>
      <use xlink:href="#DejaVuSansMono-Bold-6f" transform="translate(541.845703 0)"/>
      <use xlink:href="#DejaVuSansMono-Bold-72" transform="translate(602.050781 0)"/>
      <use xlink:href="#DejaVuSansMono-Bold-74" transform="translate(662.255859 0)"/>
      <use xlink:href="#DejaVuSansMono-Bold-69" transform="translate(722.460938 0)"/>
      <use xlink:href="#DejaVuSansMono-Bold-6e" transform="translate(782.666016 0)"/>
      <use xlink:href="#DejaVuSansMono-Bold-67" transform="translate(842.871094 0)"/>
      <use xlink:href="#DejaVuSansMono-Bold-20" transform="translate(903.076172 0)"/>
      <use xlink:href="#DejaVuSansMono-Bold-26" transform="translate(963.28125 0)"/>
      <use xlink:href="#DejaVuSansMono-Bold-20" transform="translate(1023.486328 0)"/>
      <use xlink:href="#DejaVuSansMono-Bold-43" transform="translate(1083.691406 0)"/>
      <use xlink:href="#DejaVuSansMono-Bold-6c" transform="translate(1143.896484 0)"/>
      <use xlink:href="#DejaVuSansMono-Bold-6f" transform="translate(1204.101562 0)"/>
      <use xlink:href="#DejaVuSansMono-Bold-73" transform="translate(1264.306641 0)"/>
      <use xlink:href="#DejaVuSansMono-Bold-75" transform="translate(1324.511719 0)"/>
      <use xlink:href="#DejaVuSansMono-Bold-72" transform="translate(1384.716797 0)"/>
      <use xlink:href="#DejaVuSansMono-Bold-65" transform="translate(1444.921875 0)"/>
     </g>
    </g>
    <g id="patch_37">
     <path d="M 241.407188 278.425166 
L 313.650937 278.425166 
L 313.650937 265.54237 
L 241.407188 265.54237 
z
" style="fill: #2ca02c; fill-opacity: 0.2; stroke: #6c6c6c; stroke-linejoin: miter"/>
    </g>
    <g id="text_36">
     <!-- 2024-08-31 -->
     <g style="fill: #6c6c6c" transform="translate(248.631563 274.743143) scale(0.1 -0.1)">
      <use xlink:href="#DejaVuSansMono-Bold-32"/>
      <use xlink:href="#DejaVuSansMono-Bold-30" transform="translate(60.205078 0)"/>
      <use xlink:href="#DejaVuSansMono-Bold-32" transform="translate(120.410156 0)"/>
      <use xlink:href="#DejaVuSansMono-Bold-34" transform="translate(180.615234 0)"/>
      <use xlink:href="#DejaVuSansMono-Bold-2d" transform="translate(240.820312 0)"/>
      <use xlink:href="#DejaVuSansMono-Bold-30" transform="translate(301.025391 0)"/>
      <use xlink:href="#DejaVuSansMono-Bold-38" transform="translate(361.230469 0)"/>
      <use xlink:href="#DejaVuSansMono-Bold-2d" transform="translate(421.435547 0)"/>
      <use xlink:href="#DejaVuSansMono-Bold-33" transform="translate(481.640625 0)"/>
      <use xlink:href="#DejaVuSansMono-Bold-31" transform="translate(541.845703 0)"/>
     </g>
    </g>
   </g>
   <g id="text_37">
    <!-- Stuurloos naar de toekomst v2.0 -->
    <g style="fill: #6c6c6c" transform="translate(86.685156 27.92) scale(0.1 -0.1)">
     <defs>
      <path id="DejaVuSansMono-Bold-2e" d="M 1403 1147 
L 2444 1147 
L 2444 0 
L 1403 0 
L 1403 1147 
z
" transform="scale(0.015625)"/>
     </defs>
     <use xlink:href="#DejaVuSansMono-Bold-53"/>
     <use xlink:href="#DejaVuSansMono-Bold-74" transform="translate(60.205078 0)"/>
     <use xlink:href="#DejaVuSansMono-Bold-75" transform="translate(120.410156 0)"/>
     <use xlink:href="#DejaVuSansMono-Bold-75" transform="translate(180.615234 0)"/>
     <use xlink:href="#DejaVuSansMono-Bold-72" transform="translate(240.820312 0)"/>
     <use xlink:href="#DejaVuSansMono-Bold-6c" transform="translate(301.025391 0)"/>
     <use xlink:href="#DejaVuSansMono-Bold-6f" transform="translate(361.230469 0)"/>
     <use xlink:href="#DejaVuSansMono-Bold-6f" transform="translate(421.435547 0)"/>
     <use xlink:href="#DejaVuSansMono-Bold-73" transform="translate(481.640625 0)"/>
     <use xlink:href="#DejaVuSansMono-Bold-20" transform="translate(541.845703 0)"/>
     <use xlink:href="#DejaVuSansMono-Bold-6e" transform="translate(602.050781 0)"/>
     <use xlink:href="#DejaVuSansMono-Bold-61" transform="translate(662.255859 0)"/>
     <use xlink:href="#DejaVuSansMono-Bold-61" transform="translate(722.460938 0)"/>
     <use xlink:href="#DejaVuSansMono-Bold-72" transform="translate(782.666016 0)"/>
     <use xlink:href="#DejaVuSansMono-Bold-20" transform="translate(842.871094 0)"/>
     <use xlink:href="#DejaVuSansMono-Bold-64" transform="translate(903.076172 0)"/>
     <use xlink:href="#DejaVuSansMono-Bold-65" transform="translate(963.28125 0)"/>
     <use xlink:href="#DejaVuSansMono-Bold-20" transform="translate(1023.486328 0)"/>
     <use xlink:href="#DejaVuSansMono-Bold-74" transform="translate(1083.691406 0)"/>
     <use xlink:href="#DejaVuSansMono-Bold-6f" transform="translate(1143.896484 0)"/>
     <use xlink:href="#DejaVuSansMono-Bold-65" transform="translate(1204.101562 0)"/>
     <use xlink:href="#DejaVuSansMono-Bold-6b" transform="translate(1264.306641 0)"/>
     <use xlink:href="#DejaVuSansMono-Bold-6f" transform="translate(1324.511719 0)"/>
     <use xlink:href="#DejaVuSansMono-Bold-6d" transform="translate(1384.716797 0)"/>
     <use xlink:href="#DejaVuSansMono-Bold-73" transform="translate(1444.921875 0)"/>
     <use xlink:href="#DejaVuSansMono-Bold-74" transform="translate(1505.126953 0)"/>
     <use xlink:href="#DejaVuSansMono-Bold-20" transform="translate(1565.332031 0)"/>
     <use xlink:href="#DejaVuSansMono-Bold-76" transform="translate(1625.537109 0)"/>
     <use xlink:href="#DejaVuSansMono-Bold-32" transform="translate(1685.742188 0)"/>
     <use xlink:href="#DejaVuSansMono-Bold-2e" transform="translate(1745.947266 0)"/>
     <use xlink:href="#DejaVuSansMono-Bold-30" transform="translate(1806.152344 0)"/>
    </g>
   </g>
  </g>
 </g>
</svg>
