<?xml version="1.0" encoding="utf-8" standalone="no"?>
<!DOCTYPE svg PUBLIC "-//W3C//DTD SVG 1.1//EN"
  "http://www.w3.org/Graphics/SVG/1.1/DTD/svg11.dtd">
<svg xmlns:xlink="http://www.w3.org/1999/xlink" width="1440pt" height="1440pt" viewBox="0 0 1440 1440" xmlns="http://www.w3.org/2000/svg" version="1.1">
 <metadata>
  <rdf:RDF xmlns:dc="http://purl.org/dc/elements/1.1/" xmlns:cc="http://creativecommons.org/ns#" xmlns:rdf="http://www.w3.org/1999/02/22-rdf-syntax-ns#">
   <cc:Work>
    <dc:type rdf:resource="http://purl.org/dc/dcmitype/StillImage"/>
    <dc:date>2025-11-26T08:56:31.702317</dc:date>
    <dc:format>image/svg+xml</dc:format>
    <dc:creator>
     <cc:Agent>
      <dc:title>Matplotlib v3.10.7, https://matplotlib.org/</dc:title>
     </cc:Agent>
    </dc:creator>
   </cc:Work>
  </rdf:RDF>
 </metadata>
 <defs>
  <style type="text/css">*{stroke-linejoin: round; stroke-linecap: butt}</style>
 </defs>
 <g id="figure_1">
  <g id="patch_1">
   <path d="M 0 1440 
L 1440 1440 
L 1440 0 
L 0 0 
z
" style="fill: #ffffff"/>
  </g>
  <g id="axes_1">
   <g id="patch_2">
    <path d="M 10.8 1429.2 
L 1429.2 1429.2 
L 1429.2 36 
L 10.8 36 
z
" style="fill: #d3d3d3"/>
   </g>
   <g id="patch_3">
    <path d="M 386.769836 793.024352 
Q 543.687856 577.014583 699.291671 362.813919 
" clip-path="url(#p2f73e77eb3)" style="fill: none; stroke: #000000; stroke-width: 2; stroke-linecap: round"/>
    <path d="M 691.353599 366.935449 
L 699.291671 362.813919 
L 697.826052 371.637295 
z
" clip-path="url(#p2f73e77eb3)" style="stroke: #000000; stroke-width: 2; stroke-linecap: round"/>
   </g>
   <g id="patch_4">
    <path d="M 387.319842 793.623981 
Q 543.690383 701.371358 698.135034 610.254935 
" clip-path="url(#p2f73e77eb3)" style="fill: none; stroke: #000000; stroke-width: 2; stroke-linecap: round"/>
    <path d="M 689.212267 610.874795 
L 698.135034 610.254935 
L 693.277262 617.765065 
z
" clip-path="url(#p2f73e77eb3)" style="stroke: #000000; stroke-width: 2; stroke-linecap: round"/>
   </g>
   <g id="patch_5">
    <path d="M 387.597258 794.641547 
Q 543.689623 794.641547 697.545919 794.641547 
" clip-path="url(#p2f73e77eb3)" style="fill: none; stroke: #000000; stroke-width: 2; stroke-linecap: round"/>
    <path d="M 689.545919 790.641547 
L 697.545919 794.641547 
L 689.545919 798.641547 
z
" clip-path="url(#p2f73e77eb3)" style="stroke: #000000; stroke-width: 2; stroke-linecap: round"/>
   </g>
   <g id="patch_6">
    <path d="M 387.392212 795.525098 
Q 543.688388 872.365724 697.977894 948.219802 
" clip-path="url(#p2f73e77eb3)" style="fill: none; stroke: #000000; stroke-width: 2; stroke-linecap: round"/>
    <path d="M 692.563406 941.100579 
L 697.977894 948.219802 
L 689.033824 948.279858 
z
" clip-path="url(#p2f73e77eb3)" style="stroke: #000000; stroke-width: 2; stroke-linecap: round"/>
   </g>
   <g id="patch_7">
    <path d="M 386.953171 796.110495 
Q 543.688592 965.634958 698.906019 1133.517563 
" clip-path="url(#p2f73e77eb3)" style="fill: none; stroke: #000000; stroke-width: 2; stroke-linecap: round"/>
    <path d="M 696.412121 1124.928007 
L 698.906019 1133.517563 
L 690.538035 1130.358948 
z
" clip-path="url(#p2f73e77eb3)" style="stroke: #000000; stroke-width: 2; stroke-linecap: round"/>
   </g>
   <g id="patch_8">
    <path d="M 898.639379 358.238987 
Q 985.799439 297.208132 1071.127825 237.459843 
" clip-path="url(#p2f73e77eb3)" style="fill: none; stroke: #000000; stroke-width: 2; stroke-linecap: round"/>
    <path d="M 1062.280311 238.771896 
L 1071.127825 237.459843 
L 1066.868959 245.325086 
z
" clip-path="url(#p2f73e77eb3)" style="stroke: #000000; stroke-width: 2; stroke-linecap: round"/>
   </g>
   <g id="patch_9">
    <path d="M 898.888696 358.725711 
Q 985.799245 328.297639 1070.599335 298.608456 
" clip-path="url(#p2f73e77eb3)" style="fill: none; stroke: #000000; stroke-width: 2; stroke-linecap: round"/>
    <path d="M 1061.726957 297.476679 
L 1070.599335 298.608456 
L 1064.370487 305.027291 
z
" clip-path="url(#p2f73e77eb3)" style="stroke: #000000; stroke-width: 2; stroke-linecap: round"/>
   </g>
   <g id="patch_10">
    <path d="M 899.002514 359.38701 
Q 985.800499 359.38701 1070.362416 359.38701 
" clip-path="url(#p2f73e77eb3)" style="fill: none; stroke: #000000; stroke-width: 2; stroke-linecap: round"/>
    <path d="M 1062.362416 355.38701 
L 1070.362416 359.38701 
L 1062.362416 363.38701 
z
" clip-path="url(#p2f73e77eb3)" style="stroke: #000000; stroke-width: 2; stroke-linecap: round"/>
   </g>
   <g id="patch_11">
    <path d="M 898.888696 360.04831 
Q 985.799245 390.476382 1070.599335 420.165565 
" clip-path="url(#p2f73e77eb3)" style="fill: none; stroke: #000000; stroke-width: 2; stroke-linecap: round"/>
    <path d="M 1064.370487 413.74673 
L 1070.599335 420.165565 
L 1061.726957 421.297342 
z
" clip-path="url(#p2f73e77eb3)" style="stroke: #000000; stroke-width: 2; stroke-linecap: round"/>
   </g>
   <g id="patch_12">
    <path d="M 898.639379 606.955865 
Q 985.799439 545.92501 1071.127825 486.176721 
" clip-path="url(#p2f73e77eb3)" style="fill: none; stroke: #000000; stroke-width: 2; stroke-linecap: round"/>
    <path d="M 1062.280311 487.488774 
L 1071.127825 486.176721 
L 1066.868959 494.041965 
z
" clip-path="url(#p2f73e77eb3)" style="stroke: #000000; stroke-width: 2; stroke-linecap: round"/>
   </g>
   <g id="patch_13">
    <path d="M 898.888696 607.442589 
Q 985.799245 577.014517 1070.599335 547.325334 
" clip-path="url(#p2f73e77eb3)" style="fill: none; stroke: #000000; stroke-width: 2; stroke-linecap: round"/>
    <path d="M 1061.726957 546.193557 
L 1070.599335 547.325334 
L 1064.370487 553.744169 
z
" clip-path="url(#p2f73e77eb3)" style="stroke: #000000; stroke-width: 2; stroke-linecap: round"/>
   </g>
   <g id="patch_14">
    <path d="M 899.002514 608.103889 
Q 985.800499 608.103889 1070.362416 608.103889 
" clip-path="url(#p2f73e77eb3)" style="fill: none; stroke: #000000; stroke-width: 2; stroke-linecap: round"/>
    <path d="M 1062.362416 604.103889 
L 1070.362416 608.103889 
L 1062.362416 612.103889 
z
" clip-path="url(#p2f73e77eb3)" style="stroke: #000000; stroke-width: 2; stroke-linecap: round"/>
   </g>
   <g id="patch_15">
    <path d="M 898.888696 608.765188 
Q 985.799245 639.19326 1070.599335 668.882443 
" clip-path="url(#p2f73e77eb3)" style="fill: none; stroke: #000000; stroke-width: 2; stroke-linecap: round"/>
    <path d="M 1064.370487 662.463608 
L 1070.599335 668.882443 
L 1061.726957 670.01422 
z
" clip-path="url(#p2f73e77eb3)" style="stroke: #000000; stroke-width: 2; stroke-linecap: round"/>
   </g>
   <g id="patch_16">
    <path d="M 912.334095 793.932809 
Q 992.532365 763.55165 1070.63958 733.962636 
" clip-path="url(#p2f73e77eb3)" style="fill: none; stroke: #000000; stroke-width: 2; stroke-linecap: round"/>
    <path d="M 1061.741367 733.056108 
L 1070.63958 733.962636 
L 1064.57543 740.53729 
z
" clip-path="url(#p2f73e77eb3)" style="stroke: #000000; stroke-width: 2; stroke-linecap: round"/>
   </g>
   <g id="patch_17">
    <path d="M 912.464331 794.641547 
Q 992.530198 794.641547 1070.359997 794.641547 
" clip-path="url(#p2f73e77eb3)" style="fill: none; stroke: #000000; stroke-width: 2; stroke-linecap: round"/>
    <path d="M 1062.359997 790.641547 
L 1070.359997 794.641547 
L 1062.359997 798.641547 
z
" clip-path="url(#p2f73e77eb3)" style="stroke: #000000; stroke-width: 2; stroke-linecap: round"/>
   </g>
   <g id="patch_18">
    <path d="M 912.334095 795.350285 
Q 992.532365 825.731444 1070.63958 855.320458 
" clip-path="url(#p2f73e77eb3)" style="fill: none; stroke: #000000; stroke-width: 2; stroke-linecap: round"/>
    <path d="M 1064.57543 848.745804 
L 1070.63958 855.320458 
L 1061.741367 856.226986 
z
" clip-path="url(#p2f73e77eb3)" style="stroke: #000000; stroke-width: 2; stroke-linecap: round"/>
   </g>
   <g id="patch_19">
    <path d="M 872.048616 949.789307 
Q 972.336833 934.54475 1070.414376 919.636232 
" clip-path="url(#p2f73e77eb3)" style="fill: none; stroke: #000000; stroke-width: 2; stroke-linecap: round"/>
    <path d="M 1061.904105 916.883908 
L 1070.414376 919.636232 
L 1063.106354 924.793055 
z
" clip-path="url(#p2f73e77eb3)" style="stroke: #000000; stroke-width: 2; stroke-linecap: round"/>
   </g>
   <g id="patch_20">
    <path d="M 872.048616 950.389885 
Q 972.336833 965.634442 1070.414376 980.54296 
" clip-path="url(#p2f73e77eb3)" style="fill: none; stroke: #000000; stroke-width: 2; stroke-linecap: round"/>
    <path d="M 1063.106354 975.386137 
L 1070.414376 980.54296 
L 1061.904105 983.295284 
z
" clip-path="url(#p2f73e77eb3)" style="stroke: #000000; stroke-width: 2; stroke-linecap: round"/>
   </g>
   <g id="patch_21">
    <path d="M 871.892574 950.919304 
Q 972.335378 996.723469 1070.743674 1041.599854 
" clip-path="url(#p2f73e77eb3)" style="fill: none; stroke: #000000; stroke-width: 2; stroke-linecap: round"/>
    <path d="M 1065.124463 1034.641085 
L 1070.743674 1041.599854 
L 1061.805132 1041.919962 
z
" clip-path="url(#p2f73e77eb3)" style="stroke: #000000; stroke-width: 2; stroke-linecap: round"/>
   </g>
   <g id="patch_22">
    <path d="M 851.856611 1136.353532 
Q 962.237557 1121.082655 1070.403532 1106.118214 
" clip-path="url(#p2f73e77eb3)" style="fill: none; stroke: #000000; stroke-width: 2; stroke-linecap: round"/>
    <path d="M 1061.930842 1103.252287 
L 1070.403532 1106.118214 
L 1063.027176 1111.176809 
z
" clip-path="url(#p2f73e77eb3)" style="stroke: #000000; stroke-width: 2; stroke-linecap: round"/>
   </g>
   <g id="patch_23">
    <path d="M 851.856611 1136.900977 
Q 962.237557 1152.171854 1070.403532 1167.136295 
" clip-path="url(#p2f73e77eb3)" style="fill: none; stroke: #000000; stroke-width: 2; stroke-linecap: round"/>
    <path d="M 1063.027176 1162.0777 
L 1070.403532 1167.136295 
L 1061.930842 1170.002222 
z
" clip-path="url(#p2f73e77eb3)" style="stroke: #000000; stroke-width: 2; stroke-linecap: round"/>
   </g>
   <g id="patch_24">
    <path d="M 851.726309 1137.394343 
Q 962.239842 1183.262001 1070.688122 1228.272494 
" clip-path="url(#p2f73e77eb3)" style="fill: none; stroke: #000000; stroke-width: 2; stroke-linecap: round"/>
    <path d="M 1064.832593 1221.511372 
L 1070.688122 1228.272494 
L 1061.765907 1228.900244 
z
" clip-path="url(#p2f73e77eb3)" style="stroke: #000000; stroke-width: 2; stroke-linecap: round"/>
   </g>
   <g id="matplotlib.axis_1">
    <g id="xtick_1"/>
    <g id="xtick_2"/>
    <g id="xtick_3"/>
    <g id="xtick_4"/>
    <g id="xtick_5"/>
    <g id="xtick_6"/>
    <g id="xtick_7"/>
   </g>
   <g id="matplotlib.axis_2">
    <g id="ytick_1"/>
    <g id="ytick_2"/>
    <g id="ytick_3"/>
    <g id="ytick_4"/>
    <g id="ytick_5"/>
    <g id="ytick_6"/>
   </g>
   <g id="PathCollection_1"/>
   <g id="patch_25">
    <path d="M 10.8 1429.2 
L 10.8 36 
" style="fill: none; stroke: #000000; stroke-width: 0.8; stroke-linejoin: miter; stroke-linecap: square"/>
   </g>
   <g id="patch_26">
    <path d="M 1429.2 1429.2 
L 1429.2 36 
" style="fill: none; stroke: #000000; stroke-width: 0.8; stroke-linejoin: miter; stroke-linecap: square"/>
   </g>
   <g id="patch_27">
    <path d="M 10.8 1429.2 
L 1429.2 1429.2 
" style="fill: none; stroke: #000000; stroke-width: 0.8; stroke-linejoin: miter; stroke-linecap: square"/>
   </g>
   <g id="patch_28">
    <path d="M 10.8 36 
L 1429.2 36 
" style="fill: none; stroke: #000000; stroke-width: 0.8; stroke-linejoin: miter; stroke-linecap: square"/>
   </g>
   <g id="text_1">
    <g id="patch_29">
     <path d="M 365.4 810.384047 
L 394.2975 810.384047 
Q 402.2975 810.384047 402.2975 802.384047 
L 402.2975 786.899047 
Q 402.2975 778.899047 394.2975 778.899047 
L 365.4 778.899047 
Q 357.4 778.899047 357.4 786.899047 
L 357.4 802.384047 
Q 357.4 810.384047 365.4 810.384047 
z
" style="fill: #ffffff; stroke: #000000; stroke-linejoin: miter"/>
    </g>
    <!-- wbs -->
    <g transform="translate(365.4 799.056547) scale(0.16 -0.16)">
     <defs>
      <path id="DejaVuSansMono-Bold-77" d="M 0 3500 
L 763 3500 
L 1178 819 
L 1556 2584 
L 2297 2584 
L 2669 819 
L 3091 3500 
L 3853 3500 
L 3219 0 
L 2350 0 
L 1925 1819 
L 1503 0 
L 634 0 
L 0 3500 
z
" transform="scale(0.015625)"/>
      <path id="DejaVuSansMono-Bold-62" d="M 2656 1741 
Q 2656 2247 2487 2534 
Q 2319 2822 2022 2822 
Q 1725 2822 1553 2534 
Q 1381 2247 1381 1741 
Q 1381 1234 1553 946 
Q 1725 659 2022 659 
Q 2319 659 2487 946 
Q 2656 1234 2656 1741 
z
M 1381 3003 
Q 1550 3294 1773 3439 
Q 1997 3584 2278 3584 
Q 2900 3584 3236 3109 
Q 3572 2634 3572 1747 
Q 3572 872 3240 390 
Q 2909 -91 2309 -91 
Q 1994 -91 1759 62 
Q 1525 216 1381 519 
L 1381 0 
L 469 0 
L 469 4863 
L 1381 4863 
L 1381 3003 
z
" transform="scale(0.015625)"/>
      <path id="DejaVuSansMono-Bold-73" d="M 3097 3391 
L 3097 2591 
Q 2844 2753 2570 2836 
Q 2297 2919 2022 2919 
Q 1716 2919 1559 2830 
Q 1403 2741 1403 2566 
Q 1403 2316 2072 2159 
L 2106 2150 
L 2369 2088 
Q 2869 1969 3101 1705 
Q 3334 1441 3334 991 
Q 3334 450 2979 179 
Q 2625 -91 1913 -91 
Q 1597 -91 1265 -36 
Q 934 19 594 128 
L 594 928 
Q 897 756 1211 665 
Q 1525 575 1819 575 
Q 2141 575 2306 669 
Q 2472 763 2472 941 
Q 2472 1116 2355 1209 
Q 2238 1303 1797 1409 
L 1544 1466 
Q 1019 1584 778 1837 
Q 538 2091 538 2516 
Q 538 3022 903 3303 
Q 1269 3584 1931 3584 
Q 2228 3584 2523 3536 
Q 2819 3488 3097 3391 
z
" transform="scale(0.015625)"/>
     </defs>
     <use xlink:href="#DejaVuSansMono-Bold-77"/>
     <use xlink:href="#DejaVuSansMono-Bold-62" transform="translate(60.205078 0)"/>
     <use xlink:href="#DejaVuSansMono-Bold-73" transform="translate(120.410156 0)"/>
    </g>
   </g>
   <g id="text_2">
    <g id="patch_30">
     <path d="M 701.781113 375.54701 
L 981.123613 375.54701 
Q 989.123613 375.54701 989.123613 367.54701 
L 989.123613 351.22701 
Q 989.123613 343.22701 981.123613 343.22701 
L 701.781113 343.22701 
Q 693.781113 343.22701 693.781113 351.22701 
L 693.781113 367.54701 
Q 693.781113 375.54701 701.781113 375.54701 
z
" style="fill: #ffffff; stroke: #000000; stroke-linejoin: miter"/>
    </g>
    <!-- Project Initiation &amp; Analysis -->
    <g transform="translate(701.781113 364.21951) scale(0.16 -0.16)">
     <defs>
      <path id="DejaVuSansMono-Bold-50" d="M 1428 3891 
L 1428 2522 
L 1806 2522 
Q 2259 2522 2442 2675 
Q 2625 2828 2625 3206 
Q 2625 3584 2442 3737 
Q 2259 3891 1806 3891 
L 1428 3891 
z
M 506 4666 
L 1772 4666 
Q 2738 4666 3161 4322 
Q 3584 3978 3584 3206 
Q 3584 2434 3161 2090 
Q 2738 1747 1772 1747 
L 1428 1747 
L 1428 0 
L 506 0 
L 506 4666 
z
" transform="scale(0.015625)"/>
      <path id="DejaVuSansMono-Bold-72" d="M 3597 2534 
Q 3447 2672 3245 2740 
Q 3044 2809 2803 2809 
Q 2513 2809 2295 2707 
Q 2078 2606 1959 2413 
Q 1884 2294 1854 2125 
Q 1825 1956 1825 1613 
L 1825 0 
L 909 0 
L 909 3500 
L 1825 3500 
L 1825 2956 
Q 1959 3256 2237 3420 
Q 2516 3584 2888 3584 
Q 3075 3584 3254 3539 
Q 3434 3494 3597 3406 
L 3597 2534 
z
" transform="scale(0.015625)"/>
      <path id="DejaVuSansMono-Bold-6f" d="M 1925 2841 
Q 1597 2841 1409 2552 
Q 1222 2263 1222 1747 
Q 1222 1231 1409 942 
Q 1597 653 1925 653 
Q 2256 653 2443 942 
Q 2631 1231 2631 1747 
Q 2631 2263 2443 2552 
Q 2256 2841 1925 2841 
z
M 306 1747 
Q 306 2594 745 3089 
Q 1184 3584 1925 3584 
Q 2669 3584 3108 3089 
Q 3547 2594 3547 1747 
Q 3547 900 3108 404 
Q 2669 -91 1925 -91 
Q 1184 -91 745 404 
Q 306 900 306 1747 
z
" transform="scale(0.015625)"/>
      <path id="DejaVuSansMono-Bold-6a" d="M 2656 134 
Q 2656 -653 2373 -989 
Q 2091 -1325 1434 -1325 
L 447 -1325 
L 447 -622 
L 1178 -622 
Q 1484 -622 1612 -450 
Q 1741 -278 1741 134 
L 1741 2797 
L 813 2797 
L 813 3500 
L 2656 3500 
L 2656 134 
z
M 2656 4134 
L 1741 4134 
L 1741 5203 
L 2656 5203 
L 2656 4134 
z
" transform="scale(0.015625)"/>
      <path id="DejaVuSansMono-Bold-65" d="M 3444 172 
Q 3125 41 2794 -25 
Q 2463 -91 2094 -91 
Q 1216 -91 752 379 
Q 288 850 288 1734 
Q 288 2591 734 3087 
Q 1181 3584 1953 3584 
Q 2731 3584 3161 3123 
Q 3591 2663 3591 1825 
L 3591 1453 
L 1219 1453 
Q 1222 1041 1462 837 
Q 1703 634 2181 634 
Q 2497 634 2803 725 
Q 3109 816 3444 1013 
L 3444 172 
z
M 2669 2141 
Q 2663 2503 2483 2689 
Q 2303 2875 1953 2875 
Q 1638 2875 1450 2683 
Q 1263 2491 1228 2138 
L 2669 2141 
z
" transform="scale(0.015625)"/>
      <path id="DejaVuSansMono-Bold-63" d="M 3316 178 
Q 3084 44 2818 -23 
Q 2553 -91 2247 -91 
Q 1438 -91 981 396 
Q 525 884 525 1747 
Q 525 2613 984 3102 
Q 1444 3591 2253 3591 
Q 2534 3591 2795 3525 
Q 3056 3459 3316 3322 
L 3316 2484 
Q 3116 2656 2877 2748 
Q 2638 2841 2381 2841 
Q 1934 2841 1693 2556 
Q 1453 2272 1453 1747 
Q 1453 1222 1693 940 
Q 1934 659 2381 659 
Q 2647 659 2878 748 
Q 3109 838 3316 1019 
L 3316 178 
z
" transform="scale(0.015625)"/>
      <path id="DejaVuSansMono-Bold-74" d="M 2156 4494 
L 2156 3500 
L 3353 3500 
L 3353 2797 
L 2156 2797 
L 2156 1141 
Q 2156 906 2270 804 
Q 2384 703 2650 703 
L 3353 703 
L 3353 0 
L 2584 0 
Q 1797 0 1519 251 
Q 1241 503 1241 1184 
L 1241 2797 
L 347 2797 
L 347 3500 
L 1241 3500 
L 1241 4494 
L 2156 4494 
z
" transform="scale(0.015625)"/>
      <path id="DejaVuSansMono-Bold-20" transform="scale(0.015625)"/>
      <path id="DejaVuSansMono-Bold-49" d="M 538 3853 
L 538 4666 
L 3316 4666 
L 3316 3853 
L 2388 3853 
L 2388 813 
L 3316 813 
L 3316 0 
L 538 0 
L 538 813 
L 1466 813 
L 1466 3853 
L 538 3853 
z
" transform="scale(0.015625)"/>
      <path id="DejaVuSansMono-Bold-6e" d="M 3347 2272 
L 3347 0 
L 2438 0 
L 2438 2131 
Q 2438 2513 2330 2677 
Q 2222 2841 1978 2841 
Q 1731 2841 1589 2619 
Q 1447 2397 1447 2003 
L 1447 0 
L 538 0 
L 538 3500 
L 1447 3500 
L 1447 2975 
Q 1544 3266 1778 3425 
Q 2013 3584 2344 3584 
Q 2841 3584 3094 3254 
Q 3347 2925 3347 2272 
z
" transform="scale(0.015625)"/>
      <path id="DejaVuSansMono-Bold-69" d="M 691 3500 
L 2503 3500 
L 2503 703 
L 3641 703 
L 3641 0 
L 447 0 
L 447 703 
L 1588 703 
L 1588 2797 
L 691 2797 
L 691 3500 
z
M 1588 5203 
L 2503 5203 
L 2503 4134 
L 1588 4134 
L 1588 5203 
z
" transform="scale(0.015625)"/>
      <path id="DejaVuSansMono-Bold-61" d="M 2188 1644 
Q 1675 1644 1472 1512 
Q 1269 1381 1269 1063 
Q 1269 825 1409 684 
Q 1550 544 1791 544 
Q 2153 544 2353 817 
Q 2553 1091 2553 1581 
L 2553 1644 
L 2188 1644 
z
M 3463 1997 
L 3463 0 
L 2553 0 
L 2553 391 
Q 2388 159 2128 34 
Q 1869 -91 1556 -91 
Q 959 -91 626 225 
Q 294 541 294 1106 
Q 294 1719 691 2011 
Q 1088 2303 1919 2303 
L 2553 2303 
L 2553 2456 
Q 2553 2678 2392 2792 
Q 2231 2906 1919 2906 
Q 1591 2906 1283 2823 
Q 975 2741 641 2559 
L 641 3341 
Q 944 3466 1256 3525 
Q 1569 3584 1919 3584 
Q 2772 3584 3117 3237 
Q 3463 2891 3463 1997 
z
" transform="scale(0.015625)"/>
      <path id="DejaVuSansMono-Bold-26" d="M 2719 225 
Q 2484 69 2220 -11 
Q 1956 -91 1684 -91 
Q 984 -91 550 318 
Q 116 728 116 1381 
Q 116 1834 336 2206 
Q 556 2578 991 2853 
Q 834 3097 759 3305 
Q 684 3513 684 3700 
Q 684 4206 1025 4478 
Q 1366 4750 2009 4750 
Q 2238 4750 2456 4715 
Q 2675 4681 2888 4616 
L 2888 3816 
Q 2688 3928 2483 3986 
Q 2278 4044 2075 4044 
Q 1825 4044 1697 3956 
Q 1569 3869 1569 3700 
Q 1569 3588 1664 3391 
Q 1759 3194 1972 2875 
L 2950 1375 
Q 3016 1494 3050 1647 
Q 3084 1800 3084 1978 
Q 3084 2072 3078 2161 
Q 3072 2250 3059 2328 
L 3794 2328 
L 3794 2169 
Q 3794 1716 3687 1377 
Q 3581 1038 3353 769 
L 3859 0 
L 2869 0 
L 2719 225 
z
M 1375 2284 
Q 1169 2150 1064 1964 
Q 959 1778 959 1550 
Q 959 1169 1204 908 
Q 1450 647 1806 647 
Q 1894 647 1986 667 
Q 2078 688 2166 725 
Q 2172 728 2191 738 
Q 2281 781 2338 819 
L 1375 2284 
z
" transform="scale(0.015625)"/>
      <path id="DejaVuSansMono-Bold-41" d="M 1925 3822 
L 1491 1913 
L 2363 1913 
L 1925 3822 
z
M 1363 4666 
L 2491 4666 
L 3750 0 
L 2828 0 
L 2541 1153 
L 1306 1153 
L 1025 0 
L 103 0 
L 1363 4666 
z
" transform="scale(0.015625)"/>
      <path id="DejaVuSansMono-Bold-6c" d="M 1209 1459 
L 1209 4159 
L 281 4159 
L 281 4863 
L 2125 4863 
L 2125 1459 
Q 2125 1047 2253 875 
Q 2381 703 2688 703 
L 3419 703 
L 3419 0 
L 2431 0 
Q 1778 0 1493 337 
Q 1209 675 1209 1459 
z
" transform="scale(0.015625)"/>
      <path id="DejaVuSansMono-Bold-79" d="M 2222 -378 
Q 2038 -872 1780 -1098 
Q 1522 -1325 1153 -1325 
L 397 -1325 
L 397 -628 
L 769 -628 
Q 1050 -628 1181 -533 
Q 1313 -438 1447 -91 
L 1516 97 
L 184 3500 
L 1147 3500 
L 1947 1228 
L 2713 3500 
L 3675 3500 
L 2222 -378 
z
" transform="scale(0.015625)"/>
     </defs>
     <use xlink:href="#DejaVuSansMono-Bold-50"/>
     <use xlink:href="#DejaVuSansMono-Bold-72" transform="translate(60.205078 0)"/>
     <use xlink:href="#DejaVuSansMono-Bold-6f" transform="translate(120.410156 0)"/>
     <use xlink:href="#DejaVuSansMono-Bold-6a" transform="translate(180.615234 0)"/>
     <use xlink:href="#DejaVuSansMono-Bold-65" transform="translate(240.820312 0)"/>
     <use xlink:href="#DejaVuSansMono-Bold-63" transform="translate(301.025391 0)"/>
     <use xlink:href="#DejaVuSansMono-Bold-74" transform="translate(361.230469 0)"/>
     <use xlink:href="#DejaVuSansMono-Bold-20" transform="translate(421.435547 0)"/>
     <use xlink:href="#DejaVuSansMono-Bold-49" transform="translate(481.640625 0)"/>
     <use xlink:href="#DejaVuSansMono-Bold-6e" transform="translate(541.845703 0)"/>
     <use xlink:href="#DejaVuSansMono-Bold-69" transform="translate(602.050781 0)"/>
     <use xlink:href="#DejaVuSansMono-Bold-74" transform="translate(662.255859 0)"/>
     <use xlink:href="#DejaVuSansMono-Bold-69" transform="translate(722.460938 0)"/>
     <use xlink:href="#DejaVuSansMono-Bold-61" transform="translate(782.666016 0)"/>
     <use xlink:href="#DejaVuSansMono-Bold-74" transform="translate(842.871094 0)"/>
     <use xlink:href="#DejaVuSansMono-Bold-69" transform="translate(903.076172 0)"/>
     <use xlink:href="#DejaVuSansMono-Bold-6f" transform="translate(963.28125 0)"/>
     <use xlink:href="#DejaVuSansMono-Bold-6e" transform="translate(1023.486328 0)"/>
     <use xlink:href="#DejaVuSansMono-Bold-20" transform="translate(1083.691406 0)"/>
     <use xlink:href="#DejaVuSansMono-Bold-26" transform="translate(1143.896484 0)"/>
     <use xlink:href="#DejaVuSansMono-Bold-20" transform="translate(1204.101562 0)"/>
     <use xlink:href="#DejaVuSansMono-Bold-41" transform="translate(1264.306641 0)"/>
     <use xlink:href="#DejaVuSansMono-Bold-6e" transform="translate(1324.511719 0)"/>
     <use xlink:href="#DejaVuSansMono-Bold-61" transform="translate(1384.716797 0)"/>
     <use xlink:href="#DejaVuSansMono-Bold-6c" transform="translate(1444.921875 0)"/>
     <use xlink:href="#DejaVuSansMono-Bold-79" transform="translate(1505.126953 0)"/>
     <use xlink:href="#DejaVuSansMono-Bold-73" transform="translate(1565.332031 0)"/>
     <use xlink:href="#DejaVuSansMono-Bold-69" transform="translate(1625.537109 0)"/>
     <use xlink:href="#DejaVuSansMono-Bold-73" transform="translate(1685.742188 0)"/>
    </g>
   </g>
   <g id="text_3">
    <g id="patch_31">
     <path d="M 1074.6 251.196071 
L 1305.78 251.196071 
Q 1313.78 251.196071 1313.78 243.196071 
L 1313.78 226.861071 
Q 1313.78 218.861071 1305.78 218.861071 
L 1074.6 218.861071 
Q 1066.6 218.861071 1066.6 226.861071 
L 1066.6 243.196071 
Q 1066.6 251.196071 1074.6 251.196071 
z
" style="fill: #ffffff; stroke: #000000; stroke-linejoin: miter"/>
    </g>
    <!-- Kick-off &amp; Project Setup -->
    <g transform="translate(1074.6 239.868571) scale(0.16 -0.16)">
     <defs>
      <path id="DejaVuSansMono-Bold-4b" d="M 366 4666 
L 1288 4666 
L 1288 2822 
L 2731 4666 
L 3775 4666 
L 2303 2828 
L 3828 0 
L 2803 0 
L 1697 2100 
L 1288 1581 
L 1288 0 
L 366 0 
L 366 4666 
z
" transform="scale(0.015625)"/>
      <path id="DejaVuSansMono-Bold-6b" d="M 544 4863 
L 1459 4863 
L 1459 2309 
L 2559 3500 
L 3669 3500 
L 2344 2194 
L 3744 0 
L 2731 0 
L 1772 1638 
L 1459 1338 
L 1459 0 
L 544 0 
L 544 4863 
z
" transform="scale(0.015625)"/>
      <path id="DejaVuSansMono-Bold-2d" d="M 941 2297 
L 2913 2297 
L 2913 1388 
L 941 1388 
L 941 2297 
z
" transform="scale(0.015625)"/>
      <path id="DejaVuSansMono-Bold-66" d="M 2309 3806 
L 2309 3500 
L 3384 3500 
L 3384 2797 
L 2309 2797 
L 2309 0 
L 1394 0 
L 1394 2797 
L 544 2797 
L 544 3500 
L 1394 3500 
L 1394 3744 
Q 1394 4375 1656 4619 
Q 1919 4863 2631 4863 
L 3384 4863 
L 3384 4159 
L 2669 4159 
Q 2463 4159 2389 4084 
Q 2316 4009 2309 3806 
z
" transform="scale(0.015625)"/>
      <path id="DejaVuSansMono-Bold-53" d="M 1594 2047 
Q 897 2313 650 2605 
Q 403 2897 403 3391 
Q 403 4025 809 4387 
Q 1216 4750 1925 4750 
Q 2247 4750 2569 4676 
Q 2891 4603 3206 4459 
L 3206 3559 
Q 2909 3769 2603 3878 
Q 2297 3988 1997 3988 
Q 1663 3988 1484 3853 
Q 1306 3719 1306 3469 
Q 1306 3275 1436 3148 
Q 1566 3022 1978 2869 
L 2375 2719 
Q 2938 2513 3203 2172 
Q 3469 1831 3469 1313 
Q 3469 606 3051 257 
Q 2634 -91 1791 -91 
Q 1444 -91 1095 -8 
Q 747 75 422 238 
L 422 1191 
Q 791 928 1136 800 
Q 1481 672 1819 672 
Q 2159 672 2346 826 
Q 2534 981 2534 1259 
Q 2534 1469 2409 1626 
Q 2284 1784 2047 1875 
L 1594 2047 
z
" transform="scale(0.015625)"/>
      <path id="DejaVuSansMono-Bold-75" d="M 500 1222 
L 500 3500 
L 1416 3500 
L 1416 1363 
Q 1416 984 1522 821 
Q 1628 659 1875 659 
Q 2122 659 2261 878 
Q 2400 1097 2400 1491 
L 2400 3500 
L 3316 3500 
L 3316 0 
L 2400 0 
L 2400 519 
Q 2303 228 2070 68 
Q 1838 -91 1509 -91 
Q 1009 -91 754 240 
Q 500 572 500 1222 
z
" transform="scale(0.015625)"/>
      <path id="DejaVuSansMono-Bold-70" d="M 1381 494 
L 1381 -1331 
L 469 -1331 
L 469 3500 
L 1381 3500 
L 1381 2975 
Q 1525 3278 1759 3431 
Q 1994 3584 2309 3584 
Q 2909 3584 3240 3103 
Q 3572 2622 3572 1747 
Q 3572 859 3236 384 
Q 2900 -91 2278 -91 
Q 1997 -91 1773 54 
Q 1550 200 1381 494 
z
M 2656 1753 
Q 2656 2259 2487 2546 
Q 2319 2834 2022 2834 
Q 1725 2834 1553 2546 
Q 1381 2259 1381 1753 
Q 1381 1247 1553 959 
Q 1725 672 2022 672 
Q 2319 672 2487 959 
Q 2656 1247 2656 1753 
z
" transform="scale(0.015625)"/>
     </defs>
     <use xlink:href="#DejaVuSansMono-Bold-4b"/>
     <use xlink:href="#DejaVuSansMono-Bold-69" transform="translate(60.205078 0)"/>
     <use xlink:href="#DejaVuSansMono-Bold-63" transform="translate(120.410156 0)"/>
     <use xlink:href="#DejaVuSansMono-Bold-6b" transform="translate(180.615234 0)"/>
     <use xlink:href="#DejaVuSansMono-Bold-2d" transform="translate(240.820312 0)"/>
     <use xlink:href="#DejaVuSansMono-Bold-6f" transform="translate(301.025391 0)"/>
     <use xlink:href="#DejaVuSansMono-Bold-66" transform="translate(361.230469 0)"/>
     <use xlink:href="#DejaVuSansMono-Bold-66" transform="translate(421.435547 0)"/>
     <use xlink:href="#DejaVuSansMono-Bold-20" transform="translate(481.640625 0)"/>
     <use xlink:href="#DejaVuSansMono-Bold-26" transform="translate(541.845703 0)"/>
     <use xlink:href="#DejaVuSansMono-Bold-20" transform="translate(602.050781 0)"/>
     <use xlink:href="#DejaVuSansMono-Bold-50" transform="translate(662.255859 0)"/>
     <use xlink:href="#DejaVuSansMono-Bold-72" transform="translate(722.460938 0)"/>
     <use xlink:href="#DejaVuSansMono-Bold-6f" transform="translate(782.666016 0)"/>
     <use xlink:href="#DejaVuSansMono-Bold-6a" transform="translate(842.871094 0)"/>
     <use xlink:href="#DejaVuSansMono-Bold-65" transform="translate(903.076172 0)"/>
     <use xlink:href="#DejaVuSansMono-Bold-63" transform="translate(963.28125 0)"/>
     <use xlink:href="#DejaVuSansMono-Bold-74" transform="translate(1023.486328 0)"/>
     <use xlink:href="#DejaVuSansMono-Bold-20" transform="translate(1083.691406 0)"/>
     <use xlink:href="#DejaVuSansMono-Bold-53" transform="translate(1143.896484 0)"/>
     <use xlink:href="#DejaVuSansMono-Bold-65" transform="translate(1204.101562 0)"/>
     <use xlink:href="#DejaVuSansMono-Bold-74" transform="translate(1264.306641 0)"/>
     <use xlink:href="#DejaVuSansMono-Bold-75" transform="translate(1324.511719 0)"/>
     <use xlink:href="#DejaVuSansMono-Bold-70" transform="translate(1384.716797 0)"/>
    </g>
   </g>
   <g id="text_4">
    <g id="patch_32">
     <path d="M 1074.6 313.367791 
L 1334.6775 313.367791 
Q 1342.6775 313.367791 1342.6775 305.367791 
L 1342.6775 289.047791 
Q 1342.6775 281.047791 1334.6775 281.047791 
L 1074.6 281.047791 
Q 1066.6 281.047791 1066.6 289.047791 
L 1066.6 305.367791 
Q 1066.6 313.367791 1074.6 313.367791 
z
" style="fill: #ffffff; stroke: #000000; stroke-linejoin: miter"/>
    </g>
    <!-- Process &amp; Workflow Analysis -->
    <g transform="translate(1074.6 302.040291) scale(0.16 -0.16)">
     <defs>
      <path id="DejaVuSansMono-Bold-57" d="M 0 4666 
L 806 4666 
L 1141 1241 
L 1544 3456 
L 2309 3456 
L 2778 1241 
L 3041 4666 
L 3853 4666 
L 3316 0 
L 2456 0 
L 1925 2450 
L 1428 0 
L 575 0 
L 0 4666 
z
" transform="scale(0.015625)"/>
     </defs>
     <use xlink:href="#DejaVuSansMono-Bold-50"/>
     <use xlink:href="#DejaVuSansMono-Bold-72" transform="translate(60.205078 0)"/>
     <use xlink:href="#DejaVuSansMono-Bold-6f" transform="translate(120.410156 0)"/>
     <use xlink:href="#DejaVuSansMono-Bold-63" transform="translate(180.615234 0)"/>
     <use xlink:href="#DejaVuSansMono-Bold-65" transform="translate(240.820312 0)"/>
     <use xlink:href="#DejaVuSansMono-Bold-73" transform="translate(301.025391 0)"/>
     <use xlink:href="#DejaVuSansMono-Bold-73" transform="translate(361.230469 0)"/>
     <use xlink:href="#DejaVuSansMono-Bold-20" transform="translate(421.435547 0)"/>
     <use xlink:href="#DejaVuSansMono-Bold-26" transform="translate(481.640625 0)"/>
     <use xlink:href="#DejaVuSansMono-Bold-20" transform="translate(541.845703 0)"/>
     <use xlink:href="#DejaVuSansMono-Bold-57" transform="translate(602.050781 0)"/>
     <use xlink:href="#DejaVuSansMono-Bold-6f" transform="translate(662.255859 0)"/>
     <use xlink:href="#DejaVuSansMono-Bold-72" transform="translate(722.460938 0)"/>
     <use xlink:href="#DejaVuSansMono-Bold-6b" transform="translate(782.666016 0)"/>
     <use xlink:href="#DejaVuSansMono-Bold-66" transform="translate(842.871094 0)"/>
     <use xlink:href="#DejaVuSansMono-Bold-6c" transform="translate(903.076172 0)"/>
     <use xlink:href="#DejaVuSansMono-Bold-6f" transform="translate(963.28125 0)"/>
     <use xlink:href="#DejaVuSansMono-Bold-77" transform="translate(1023.486328 0)"/>
     <use xlink:href="#DejaVuSansMono-Bold-20" transform="translate(1083.691406 0)"/>
     <use xlink:href="#DejaVuSansMono-Bold-41" transform="translate(1143.896484 0)"/>
     <use xlink:href="#DejaVuSansMono-Bold-6e" transform="translate(1204.101562 0)"/>
     <use xlink:href="#DejaVuSansMono-Bold-61" transform="translate(1264.306641 0)"/>
     <use xlink:href="#DejaVuSansMono-Bold-6c" transform="translate(1324.511719 0)"/>
     <use xlink:href="#DejaVuSansMono-Bold-79" transform="translate(1384.716797 0)"/>
     <use xlink:href="#DejaVuSansMono-Bold-73" transform="translate(1444.921875 0)"/>
     <use xlink:href="#DejaVuSansMono-Bold-69" transform="translate(1505.126953 0)"/>
     <use xlink:href="#DejaVuSansMono-Bold-73" transform="translate(1565.332031 0)"/>
    </g>
   </g>
   <g id="text_5">
    <g id="patch_33">
     <path d="M 1074.6 375.55451 
L 1296.1475 375.55451 
Q 1304.1475 375.55451 1304.1475 367.55451 
L 1304.1475 351.21951 
Q 1304.1475 343.21951 1296.1475 343.21951 
L 1074.6 343.21951 
Q 1066.6 343.21951 1066.6 351.21951 
L 1066.6 367.55451 
Q 1066.6 375.55451 1074.6 375.55451 
z
" style="fill: #ffffff; stroke: #000000; stroke-linejoin: miter"/>
    </g>
    <!-- Requirements Definition -->
    <g transform="translate(1074.6 364.22701) scale(0.16 -0.16)">
     <defs>
      <path id="DejaVuSansMono-Bold-52" d="M 2522 2203 
Q 2659 2175 2761 2073 
Q 2863 1972 3009 1678 
L 3853 0 
L 2841 0 
L 2278 1178 
Q 2253 1228 2213 1316 
Q 1966 1844 1631 1844 
L 1338 1844 
L 1338 0 
L 416 0 
L 416 4666 
L 1747 4666 
Q 2647 4666 3039 4347 
Q 3431 4028 3431 3309 
Q 3431 2828 3197 2543 
Q 2963 2259 2522 2203 
z
M 1338 3891 
L 1338 2619 
L 1772 2619 
Q 2150 2619 2314 2767 
Q 2478 2916 2478 3256 
Q 2478 3597 2315 3744 
Q 2153 3891 1772 3891 
L 1338 3891 
z
" transform="scale(0.015625)"/>
      <path id="DejaVuSansMono-Bold-71" d="M 1197 1753 
Q 1197 1247 1365 959 
Q 1534 672 1831 672 
Q 2128 672 2300 959 
Q 2472 1247 2472 1753 
Q 2472 2259 2300 2546 
Q 2128 2834 1831 2834 
Q 1534 2834 1365 2546 
Q 1197 2259 1197 1753 
z
M 2472 494 
Q 2303 200 2079 54 
Q 1856 -91 1575 -91 
Q 953 -91 617 384 
Q 281 859 281 1747 
Q 281 2622 612 3103 
Q 944 3584 1544 3584 
Q 1859 3584 2092 3431 
Q 2325 3278 2472 2975 
L 2472 3500 
L 3384 3500 
L 3384 -1331 
L 2472 -1331 
L 2472 494 
z
" transform="scale(0.015625)"/>
      <path id="DejaVuSansMono-Bold-6d" d="M 2156 3150 
Q 2259 3372 2418 3478 
Q 2578 3584 2809 3584 
Q 3263 3584 3436 3271 
Q 3609 2959 3609 1972 
L 3609 0 
L 2859 0 
L 2859 2247 
Q 2859 2638 2800 2769 
Q 2741 2900 2584 2900 
Q 2428 2900 2365 2765 
Q 2303 2631 2303 2247 
L 2303 0 
L 1563 0 
L 1563 2247 
Q 1563 2631 1500 2765 
Q 1438 2900 1281 2900 
Q 1125 2900 1065 2769 
Q 1006 2638 1006 2247 
L 1006 0 
L 256 0 
L 256 3500 
L 922 3500 
L 922 3138 
Q 1000 3344 1172 3464 
Q 1344 3584 1556 3584 
Q 1769 3584 1944 3457 
Q 2119 3331 2156 3150 
z
" transform="scale(0.015625)"/>
      <path id="DejaVuSansMono-Bold-44" d="M 1350 3834 
L 1350 831 
L 1600 831 
Q 2144 831 2375 1173 
Q 2606 1516 2606 2338 
Q 2606 3153 2375 3493 
Q 2144 3834 1600 3834 
L 1350 3834 
z
M 428 4666 
L 1416 4666 
Q 2559 4666 3062 4120 
Q 3566 3575 3566 2338 
Q 3566 1097 3062 548 
Q 2559 0 1416 0 
L 428 0 
L 428 4666 
z
" transform="scale(0.015625)"/>
     </defs>
     <use xlink:href="#DejaVuSansMono-Bold-52"/>
     <use xlink:href="#DejaVuSansMono-Bold-65" transform="translate(60.205078 0)"/>
     <use xlink:href="#DejaVuSansMono-Bold-71" transform="translate(120.410156 0)"/>
     <use xlink:href="#DejaVuSansMono-Bold-75" transform="translate(180.615234 0)"/>
     <use xlink:href="#DejaVuSansMono-Bold-69" transform="translate(240.820312 0)"/>
     <use xlink:href="#DejaVuSansMono-Bold-72" transform="translate(301.025391 0)"/>
     <use xlink:href="#DejaVuSansMono-Bold-65" transform="translate(361.230469 0)"/>
     <use xlink:href="#DejaVuSansMono-Bold-6d" transform="translate(421.435547 0)"/>
     <use xlink:href="#DejaVuSansMono-Bold-65" transform="translate(481.640625 0)"/>
     <use xlink:href="#DejaVuSansMono-Bold-6e" transform="translate(541.845703 0)"/>
     <use xlink:href="#DejaVuSansMono-Bold-74" transform="translate(602.050781 0)"/>
     <use xlink:href="#DejaVuSansMono-Bold-73" transform="translate(662.255859 0)"/>
     <use xlink:href="#DejaVuSansMono-Bold-20" transform="translate(722.460938 0)"/>
     <use xlink:href="#DejaVuSansMono-Bold-44" transform="translate(782.666016 0)"/>
     <use xlink:href="#DejaVuSansMono-Bold-65" transform="translate(842.871094 0)"/>
     <use xlink:href="#DejaVuSansMono-Bold-66" transform="translate(903.076172 0)"/>
     <use xlink:href="#DejaVuSansMono-Bold-69" transform="translate(963.28125 0)"/>
     <use xlink:href="#DejaVuSansMono-Bold-6e" transform="translate(1023.486328 0)"/>
     <use xlink:href="#DejaVuSansMono-Bold-69" transform="translate(1083.691406 0)"/>
     <use xlink:href="#DejaVuSansMono-Bold-74" transform="translate(1143.896484 0)"/>
     <use xlink:href="#DejaVuSansMono-Bold-69" transform="translate(1204.101562 0)"/>
     <use xlink:href="#DejaVuSansMono-Bold-6f" transform="translate(1264.306641 0)"/>
     <use xlink:href="#DejaVuSansMono-Bold-6e" transform="translate(1324.511719 0)"/>
    </g>
   </g>
   <g id="text_6">
    <g id="patch_34">
     <path d="M 1074.6 437.72623 
L 1267.25 437.72623 
Q 1275.25 437.72623 1275.25 429.72623 
L 1275.25 413.40623 
Q 1275.25 405.40623 1267.25 405.40623 
L 1074.6 405.40623 
Q 1066.6 405.40623 1066.6 413.40623 
L 1066.6 429.72623 
Q 1066.6 437.72623 1074.6 437.72623 
z
" style="fill: #ffffff; stroke: #000000; stroke-linejoin: miter"/>
    </g>
    <!-- Risk &amp; Cost Analysis -->
    <g transform="translate(1074.6 426.39873) scale(0.16 -0.16)">
     <defs>
      <path id="DejaVuSansMono-Bold-43" d="M 3378 134 
Q 3159 22 2918 -34 
Q 2678 -91 2413 -91 
Q 1469 -91 972 531 
Q 475 1153 475 2328 
Q 475 3506 972 4128 
Q 1469 4750 2413 4750 
Q 2678 4750 2922 4694 
Q 3166 4638 3378 4525 
L 3378 3500 
Q 3141 3719 2917 3820 
Q 2694 3922 2456 3922 
Q 1950 3922 1692 3520 
Q 1434 3119 1434 2328 
Q 1434 1541 1692 1139 
Q 1950 738 2456 738 
Q 2694 738 2917 839 
Q 3141 941 3378 1159 
L 3378 134 
z
" transform="scale(0.015625)"/>
     </defs>
     <use xlink:href="#DejaVuSansMono-Bold-52"/>
     <use xlink:href="#DejaVuSansMono-Bold-69" transform="translate(60.205078 0)"/>
     <use xlink:href="#DejaVuSansMono-Bold-73" transform="translate(120.410156 0)"/>
     <use xlink:href="#DejaVuSansMono-Bold-6b" transform="translate(180.615234 0)"/>
     <use xlink:href="#DejaVuSansMono-Bold-20" transform="translate(240.820312 0)"/>
     <use xlink:href="#DejaVuSansMono-Bold-26" transform="translate(301.025391 0)"/>
     <use xlink:href="#DejaVuSansMono-Bold-20" transform="translate(361.230469 0)"/>
     <use xlink:href="#DejaVuSansMono-Bold-43" transform="translate(421.435547 0)"/>
     <use xlink:href="#DejaVuSansMono-Bold-6f" transform="translate(481.640625 0)"/>
     <use xlink:href="#DejaVuSansMono-Bold-73" transform="translate(541.845703 0)"/>
     <use xlink:href="#DejaVuSansMono-Bold-74" transform="translate(602.050781 0)"/>
     <use xlink:href="#DejaVuSansMono-Bold-20" transform="translate(662.255859 0)"/>
     <use xlink:href="#DejaVuSansMono-Bold-41" transform="translate(722.460938 0)"/>
     <use xlink:href="#DejaVuSansMono-Bold-6e" transform="translate(782.666016 0)"/>
     <use xlink:href="#DejaVuSansMono-Bold-61" transform="translate(842.871094 0)"/>
     <use xlink:href="#DejaVuSansMono-Bold-6c" transform="translate(903.076172 0)"/>
     <use xlink:href="#DejaVuSansMono-Bold-79" transform="translate(963.28125 0)"/>
     <use xlink:href="#DejaVuSansMono-Bold-73" transform="translate(1023.486328 0)"/>
     <use xlink:href="#DejaVuSansMono-Bold-69" transform="translate(1083.691406 0)"/>
     <use xlink:href="#DejaVuSansMono-Bold-73" transform="translate(1143.896484 0)"/>
    </g>
   </g>
   <g id="text_7">
    <g id="patch_35">
     <path d="M 701.781113 624.263889 
L 981.123613 624.263889 
Q 989.123613 624.263889 989.123613 616.263889 
L 989.123613 599.943889 
Q 989.123613 591.943889 981.123613 591.943889 
L 701.781113 591.943889 
Q 693.781113 591.943889 693.781113 599.943889 
L 693.781113 616.263889 
Q 693.781113 624.263889 701.781113 624.263889 
z
" style="fill: #ffffff; stroke: #000000; stroke-linejoin: miter"/>
    </g>
    <!-- Design, Planning &amp; Simulation -->
    <g transform="translate(701.781113 612.936389) scale(0.16 -0.16)">
     <defs>
      <path id="DejaVuSansMono-Bold-67" d="M 2509 1806 
Q 2509 2275 2331 2558 
Q 2153 2841 1863 2841 
Q 1575 2841 1398 2559 
Q 1222 2278 1222 1806 
Q 1222 1331 1398 1050 
Q 1575 769 1863 769 
Q 2153 769 2331 1051 
Q 2509 1334 2509 1806 
z
M 3425 263 
Q 3425 -578 3045 -951 
Q 2666 -1325 1813 -1325 
Q 1525 -1325 1244 -1283 
Q 963 -1241 672 -1153 
L 672 -313 
Q 931 -456 1200 -525 
Q 1469 -594 1753 -594 
Q 2141 -594 2325 -411 
Q 2509 -228 2509 159 
L 2509 538 
Q 2375 288 2153 166 
Q 1931 44 1613 44 
Q 1013 44 659 512 
Q 306 981 306 1784 
Q 306 2616 659 3103 
Q 1013 3591 1606 3591 
Q 1906 3591 2140 3450 
Q 2375 3309 2509 3053 
L 2509 3500 
L 3425 3500 
L 3425 263 
z
" transform="scale(0.015625)"/>
      <path id="DejaVuSansMono-Bold-2c" d="M 1441 1147 
L 2419 1147 
L 2419 300 
L 1806 -897 
L 1131 -897 
L 1441 300 
L 1441 1147 
z
" transform="scale(0.015625)"/>
     </defs>
     <use xlink:href="#DejaVuSansMono-Bold-44"/>
     <use xlink:href="#DejaVuSansMono-Bold-65" transform="translate(60.205078 0)"/>
     <use xlink:href="#DejaVuSansMono-Bold-73" transform="translate(120.410156 0)"/>
     <use xlink:href="#DejaVuSansMono-Bold-69" transform="translate(180.615234 0)"/>
     <use xlink:href="#DejaVuSansMono-Bold-67" transform="translate(240.820312 0)"/>
     <use xlink:href="#DejaVuSansMono-Bold-6e" transform="translate(301.025391 0)"/>
     <use xlink:href="#DejaVuSansMono-Bold-2c" transform="translate(361.230469 0)"/>
     <use xlink:href="#DejaVuSansMono-Bold-20" transform="translate(421.435547 0)"/>
     <use xlink:href="#DejaVuSansMono-Bold-50" transform="translate(481.640625 0)"/>
     <use xlink:href="#DejaVuSansMono-Bold-6c" transform="translate(541.845703 0)"/>
     <use xlink:href="#DejaVuSansMono-Bold-61" transform="translate(602.050781 0)"/>
     <use xlink:href="#DejaVuSansMono-Bold-6e" transform="translate(662.255859 0)"/>
     <use xlink:href="#DejaVuSansMono-Bold-6e" transform="translate(722.460938 0)"/>
     <use xlink:href="#DejaVuSansMono-Bold-69" transform="translate(782.666016 0)"/>
     <use xlink:href="#DejaVuSansMono-Bold-6e" transform="translate(842.871094 0)"/>
     <use xlink:href="#DejaVuSansMono-Bold-67" transform="translate(903.076172 0)"/>
     <use xlink:href="#DejaVuSansMono-Bold-20" transform="translate(963.28125 0)"/>
     <use xlink:href="#DejaVuSansMono-Bold-26" transform="translate(1023.486328 0)"/>
     <use xlink:href="#DejaVuSansMono-Bold-20" transform="translate(1083.691406 0)"/>
     <use xlink:href="#DejaVuSansMono-Bold-53" transform="translate(1143.896484 0)"/>
     <use xlink:href="#DejaVuSansMono-Bold-69" transform="translate(1204.101562 0)"/>
     <use xlink:href="#DejaVuSansMono-Bold-6d" transform="translate(1264.306641 0)"/>
     <use xlink:href="#DejaVuSansMono-Bold-75" transform="translate(1324.511719 0)"/>
     <use xlink:href="#DejaVuSansMono-Bold-6c" transform="translate(1384.716797 0)"/>
     <use xlink:href="#DejaVuSansMono-Bold-61" transform="translate(1444.921875 0)"/>
     <use xlink:href="#DejaVuSansMono-Bold-74" transform="translate(1505.126953 0)"/>
     <use xlink:href="#DejaVuSansMono-Bold-69" transform="translate(1565.332031 0)"/>
     <use xlink:href="#DejaVuSansMono-Bold-6f" transform="translate(1625.537109 0)"/>
     <use xlink:href="#DejaVuSansMono-Bold-6e" transform="translate(1685.742188 0)"/>
    </g>
   </g>
   <g id="text_8">
    <g id="patch_36">
     <path d="M 1074.6 499.905449 
L 1325.045 499.905449 
Q 1333.045 499.905449 1333.045 491.905449 
L 1333.045 475.585449 
Q 1333.045 467.585449 1325.045 467.585449 
L 1074.6 467.585449 
Q 1066.6 467.585449 1066.6 475.585449 
L 1066.6 491.905449 
Q 1066.6 499.905449 1074.6 499.905449 
z
" style="fill: #ffffff; stroke: #000000; stroke-linejoin: miter"/>
    </g>
    <!-- System Architecture Design -->
    <g transform="translate(1074.6 488.577949) scale(0.16 -0.16)">
     <defs>
      <path id="DejaVuSansMono-Bold-68" d="M 3347 2272 
L 3347 0 
L 2438 0 
L 2438 2131 
Q 2438 2509 2330 2671 
Q 2222 2834 1978 2834 
Q 1728 2834 1587 2614 
Q 1447 2394 1447 2003 
L 1447 0 
L 538 0 
L 538 4863 
L 1447 4863 
L 1447 2975 
Q 1544 3266 1778 3425 
Q 2013 3584 2344 3584 
Q 2841 3584 3094 3254 
Q 3347 2925 3347 2272 
z
" transform="scale(0.015625)"/>
     </defs>
     <use xlink:href="#DejaVuSansMono-Bold-53"/>
     <use xlink:href="#DejaVuSansMono-Bold-79" transform="translate(60.205078 0)"/>
     <use xlink:href="#DejaVuSansMono-Bold-73" transform="translate(120.410156 0)"/>
     <use xlink:href="#DejaVuSansMono-Bold-74" transform="translate(180.615234 0)"/>
     <use xlink:href="#DejaVuSansMono-Bold-65" transform="translate(240.820312 0)"/>
     <use xlink:href="#DejaVuSansMono-Bold-6d" transform="translate(301.025391 0)"/>
     <use xlink:href="#DejaVuSansMono-Bold-20" transform="translate(361.230469 0)"/>
     <use xlink:href="#DejaVuSansMono-Bold-41" transform="translate(421.435547 0)"/>
     <use xlink:href="#DejaVuSansMono-Bold-72" transform="translate(481.640625 0)"/>
     <use xlink:href="#DejaVuSansMono-Bold-63" transform="translate(541.845703 0)"/>
     <use xlink:href="#DejaVuSansMono-Bold-68" transform="translate(602.050781 0)"/>
     <use xlink:href="#DejaVuSansMono-Bold-69" transform="translate(662.255859 0)"/>
     <use xlink:href="#DejaVuSansMono-Bold-74" transform="translate(722.460938 0)"/>
     <use xlink:href="#DejaVuSansMono-Bold-65" transform="translate(782.666016 0)"/>
     <use xlink:href="#DejaVuSansMono-Bold-63" transform="translate(842.871094 0)"/>
     <use xlink:href="#DejaVuSansMono-Bold-74" transform="translate(903.076172 0)"/>
     <use xlink:href="#DejaVuSansMono-Bold-75" transform="translate(963.28125 0)"/>
     <use xlink:href="#DejaVuSansMono-Bold-72" transform="translate(1023.486328 0)"/>
     <use xlink:href="#DejaVuSansMono-Bold-65" transform="translate(1083.691406 0)"/>
     <use xlink:href="#DejaVuSansMono-Bold-20" transform="translate(1143.896484 0)"/>
     <use xlink:href="#DejaVuSansMono-Bold-44" transform="translate(1204.101562 0)"/>
     <use xlink:href="#DejaVuSansMono-Bold-65" transform="translate(1264.306641 0)"/>
     <use xlink:href="#DejaVuSansMono-Bold-73" transform="translate(1324.511719 0)"/>
     <use xlink:href="#DejaVuSansMono-Bold-69" transform="translate(1384.716797 0)"/>
     <use xlink:href="#DejaVuSansMono-Bold-67" transform="translate(1444.921875 0)"/>
     <use xlink:href="#DejaVuSansMono-Bold-6e" transform="translate(1505.126953 0)"/>
    </g>
   </g>
   <g id="text_9">
    <g id="patch_37">
     <path d="M 1074.6 562.084669 
L 1315.4125 562.084669 
Q 1323.4125 562.084669 1323.4125 554.084669 
L 1323.4125 537.764669 
Q 1323.4125 529.764669 1315.4125 529.764669 
L 1074.6 529.764669 
Q 1066.6 529.764669 1066.6 537.764669 
L 1066.6 554.084669 
Q 1066.6 562.084669 1074.6 562.084669 
z
" style="fill: #ffffff; stroke: #000000; stroke-linejoin: miter"/>
    </g>
    <!-- Simulation &amp; Digital Twin -->
    <g transform="translate(1074.6 550.757169) scale(0.16 -0.16)">
     <defs>
      <path id="DejaVuSansMono-Bold-54" d="M 2388 0 
L 1466 0 
L 1466 3859 
L 281 3859 
L 281 4666 
L 3572 4666 
L 3572 3859 
L 2388 3859 
L 2388 0 
z
" transform="scale(0.015625)"/>
     </defs>
     <use xlink:href="#DejaVuSansMono-Bold-53"/>
     <use xlink:href="#DejaVuSansMono-Bold-69" transform="translate(60.205078 0)"/>
     <use xlink:href="#DejaVuSansMono-Bold-6d" transform="translate(120.410156 0)"/>
     <use xlink:href="#DejaVuSansMono-Bold-75" transform="translate(180.615234 0)"/>
     <use xlink:href="#DejaVuSansMono-Bold-6c" transform="translate(240.820312 0)"/>
     <use xlink:href="#DejaVuSansMono-Bold-61" transform="translate(301.025391 0)"/>
     <use xlink:href="#DejaVuSansMono-Bold-74" transform="translate(361.230469 0)"/>
     <use xlink:href="#DejaVuSansMono-Bold-69" transform="translate(421.435547 0)"/>
     <use xlink:href="#DejaVuSansMono-Bold-6f" transform="translate(481.640625 0)"/>
     <use xlink:href="#DejaVuSansMono-Bold-6e" transform="translate(541.845703 0)"/>
     <use xlink:href="#DejaVuSansMono-Bold-20" transform="translate(602.050781 0)"/>
     <use xlink:href="#DejaVuSansMono-Bold-26" transform="translate(662.255859 0)"/>
     <use xlink:href="#DejaVuSansMono-Bold-20" transform="translate(722.460938 0)"/>
     <use xlink:href="#DejaVuSansMono-Bold-44" transform="translate(782.666016 0)"/>
     <use xlink:href="#DejaVuSansMono-Bold-69" transform="translate(842.871094 0)"/>
     <use xlink:href="#DejaVuSansMono-Bold-67" transform="translate(903.076172 0)"/>
     <use xlink:href="#DejaVuSansMono-Bold-69" transform="translate(963.28125 0)"/>
     <use xlink:href="#DejaVuSansMono-Bold-74" transform="translate(1023.486328 0)"/>
     <use xlink:href="#DejaVuSansMono-Bold-61" transform="translate(1083.691406 0)"/>
     <use xlink:href="#DejaVuSansMono-Bold-6c" transform="translate(1143.896484 0)"/>
     <use xlink:href="#DejaVuSansMono-Bold-20" transform="translate(1204.101562 0)"/>
     <use xlink:href="#DejaVuSansMono-Bold-54" transform="translate(1264.306641 0)"/>
     <use xlink:href="#DejaVuSansMono-Bold-77" transform="translate(1324.511719 0)"/>
     <use xlink:href="#DejaVuSansMono-Bold-69" transform="translate(1384.716797 0)"/>
     <use xlink:href="#DejaVuSansMono-Bold-6e" transform="translate(1444.921875 0)"/>
    </g>
   </g>
   <g id="text_10">
    <g id="patch_38">
     <path d="M 1074.6 624.263889 
L 1276.8825 624.263889 
Q 1284.8825 624.263889 1284.8825 616.263889 
L 1284.8825 599.943889 
Q 1284.8825 591.943889 1276.8825 591.943889 
L 1074.6 591.943889 
Q 1066.6 591.943889 1066.6 599.943889 
L 1066.6 616.263889 
Q 1066.6 624.263889 1074.6 624.263889 
z
" style="fill: #ffffff; stroke: #000000; stroke-linejoin: miter"/>
    </g>
    <!-- Planning &amp; Scheduling -->
    <g transform="translate(1074.6 612.936389) scale(0.16 -0.16)">
     <defs>
      <path id="DejaVuSansMono-Bold-64" d="M 2472 3003 
L 2472 4863 
L 3384 4863 
L 3384 0 
L 2472 0 
L 2472 519 
Q 2325 216 2092 62 
Q 1859 -91 1544 -91 
Q 944 -91 612 390 
Q 281 872 281 1747 
Q 281 2634 617 3109 
Q 953 3584 1575 3584 
Q 1856 3584 2079 3439 
Q 2303 3294 2472 3003 
z
M 1197 1741 
Q 1197 1234 1365 946 
Q 1534 659 1831 659 
Q 2128 659 2300 946 
Q 2472 1234 2472 1741 
Q 2472 2247 2300 2534 
Q 2128 2822 1831 2822 
Q 1534 2822 1365 2534 
Q 1197 2247 1197 1741 
z
" transform="scale(0.015625)"/>
     </defs>
     <use xlink:href="#DejaVuSansMono-Bold-50"/>
     <use xlink:href="#DejaVuSansMono-Bold-6c" transform="translate(60.205078 0)"/>
     <use xlink:href="#DejaVuSansMono-Bold-61" transform="translate(120.410156 0)"/>
     <use xlink:href="#DejaVuSansMono-Bold-6e" transform="translate(180.615234 0)"/>
     <use xlink:href="#DejaVuSansMono-Bold-6e" transform="translate(240.820312 0)"/>
     <use xlink:href="#DejaVuSansMono-Bold-69" transform="translate(301.025391 0)"/>
     <use xlink:href="#DejaVuSansMono-Bold-6e" transform="translate(361.230469 0)"/>
     <use xlink:href="#DejaVuSansMono-Bold-67" transform="translate(421.435547 0)"/>
     <use xlink:href="#DejaVuSansMono-Bold-20" transform="translate(481.640625 0)"/>
     <use xlink:href="#DejaVuSansMono-Bold-26" transform="translate(541.845703 0)"/>
     <use xlink:href="#DejaVuSansMono-Bold-20" transform="translate(602.050781 0)"/>
     <use xlink:href="#DejaVuSansMono-Bold-53" transform="translate(662.255859 0)"/>
     <use xlink:href="#DejaVuSansMono-Bold-63" transform="translate(722.460938 0)"/>
     <use xlink:href="#DejaVuSansMono-Bold-68" transform="translate(782.666016 0)"/>
     <use xlink:href="#DejaVuSansMono-Bold-65" transform="translate(842.871094 0)"/>
     <use xlink:href="#DejaVuSansMono-Bold-64" transform="translate(903.076172 0)"/>
     <use xlink:href="#DejaVuSansMono-Bold-75" transform="translate(963.28125 0)"/>
     <use xlink:href="#DejaVuSansMono-Bold-6c" transform="translate(1023.486328 0)"/>
     <use xlink:href="#DejaVuSansMono-Bold-69" transform="translate(1083.691406 0)"/>
     <use xlink:href="#DejaVuSansMono-Bold-6e" transform="translate(1143.896484 0)"/>
     <use xlink:href="#DejaVuSansMono-Bold-67" transform="translate(1204.101562 0)"/>
    </g>
   </g>
   <g id="text_11">
    <g id="patch_39">
     <path d="M 1074.6 686.443108 
L 1199.8225 686.443108 
Q 1207.8225 686.443108 1207.8225 678.443108 
L 1207.8225 662.123108 
Q 1207.8225 654.123108 1199.8225 654.123108 
L 1074.6 654.123108 
Q 1066.6 654.123108 1066.6 662.123108 
L 1066.6 678.443108 
Q 1066.6 686.443108 1074.6 686.443108 
z
" style="fill: #ffffff; stroke: #000000; stroke-linejoin: miter"/>
    </g>
    <!-- Design Review -->
    <g transform="translate(1074.6 675.115608) scale(0.16 -0.16)">
     <defs>
      <path id="DejaVuSansMono-Bold-76" d="M 3603 3500 
L 2491 0 
L 1363 0 
L 250 3500 
L 1178 3500 
L 1925 769 
L 2675 3500 
L 3603 3500 
z
" transform="scale(0.015625)"/>
     </defs>
     <use xlink:href="#DejaVuSansMono-Bold-44"/>
     <use xlink:href="#DejaVuSansMono-Bold-65" transform="translate(60.205078 0)"/>
     <use xlink:href="#DejaVuSansMono-Bold-73" transform="translate(120.410156 0)"/>
     <use xlink:href="#DejaVuSansMono-Bold-69" transform="translate(180.615234 0)"/>
     <use xlink:href="#DejaVuSansMono-Bold-67" transform="translate(240.820312 0)"/>
     <use xlink:href="#DejaVuSansMono-Bold-6e" transform="translate(301.025391 0)"/>
     <use xlink:href="#DejaVuSansMono-Bold-20" transform="translate(361.230469 0)"/>
     <use xlink:href="#DejaVuSansMono-Bold-52" transform="translate(421.435547 0)"/>
     <use xlink:href="#DejaVuSansMono-Bold-65" transform="translate(481.640625 0)"/>
     <use xlink:href="#DejaVuSansMono-Bold-76" transform="translate(541.845703 0)"/>
     <use xlink:href="#DejaVuSansMono-Bold-69" transform="translate(602.050781 0)"/>
     <use xlink:href="#DejaVuSansMono-Bold-65" transform="translate(662.255859 0)"/>
     <use xlink:href="#DejaVuSansMono-Bold-77" transform="translate(722.460938 0)"/>
    </g>
   </g>
   <g id="text_12">
    <g id="patch_40">
     <path d="M 701.781113 810.809047 
L 1000.388613 810.809047 
Q 1008.388613 810.809047 1008.388613 802.809047 
L 1008.388613 786.474047 
Q 1008.388613 778.474047 1000.388613 778.474047 
L 701.781113 778.474047 
Q 693.781113 778.474047 693.781113 786.474047 
L 693.781113 802.809047 
Q 693.781113 810.809047 701.781113 810.809047 
z
" style="fill: #ffffff; stroke: #000000; stroke-linejoin: miter"/>
    </g>
    <!-- Prototype Development &amp; Testing -->
    <g transform="translate(701.781113 799.481547) scale(0.16 -0.16)">
     <use xlink:href="#DejaVuSansMono-Bold-50"/>
     <use xlink:href="#DejaVuSansMono-Bold-72" transform="translate(60.205078 0)"/>
     <use xlink:href="#DejaVuSansMono-Bold-6f" transform="translate(120.410156 0)"/>
     <use xlink:href="#DejaVuSansMono-Bold-74" transform="translate(180.615234 0)"/>
     <use xlink:href="#DejaVuSansMono-Bold-6f" transform="translate(240.820312 0)"/>
     <use xlink:href="#DejaVuSansMono-Bold-74" transform="translate(301.025391 0)"/>
     <use xlink:href="#DejaVuSansMono-Bold-79" transform="translate(361.230469 0)"/>
     <use xlink:href="#DejaVuSansMono-Bold-70" transform="translate(421.435547 0)"/>
     <use xlink:href="#DejaVuSansMono-Bold-65" transform="translate(481.640625 0)"/>
     <use xlink:href="#DejaVuSansMono-Bold-20" transform="translate(541.845703 0)"/>
     <use xlink:href="#DejaVuSansMono-Bold-44" transform="translate(602.050781 0)"/>
     <use xlink:href="#DejaVuSansMono-Bold-65" transform="translate(662.255859 0)"/>
     <use xlink:href="#DejaVuSansMono-Bold-76" transform="translate(722.460938 0)"/>
     <use xlink:href="#DejaVuSansMono-Bold-65" transform="translate(782.666016 0)"/>
     <use xlink:href="#DejaVuSansMono-Bold-6c" transform="translate(842.871094 0)"/>
     <use xlink:href="#DejaVuSansMono-Bold-6f" transform="translate(903.076172 0)"/>
     <use xlink:href="#DejaVuSansMono-Bold-70" transform="translate(963.28125 0)"/>
     <use xlink:href="#DejaVuSansMono-Bold-6d" transform="translate(1023.486328 0)"/>
     <use xlink:href="#DejaVuSansMono-Bold-65" transform="translate(1083.691406 0)"/>
     <use xlink:href="#DejaVuSansMono-Bold-6e" transform="translate(1143.896484 0)"/>
     <use xlink:href="#DejaVuSansMono-Bold-74" transform="translate(1204.101562 0)"/>
     <use xlink:href="#DejaVuSansMono-Bold-20" transform="translate(1264.306641 0)"/>
     <use xlink:href="#DejaVuSansMono-Bold-26" transform="translate(1324.511719 0)"/>
     <use xlink:href="#DejaVuSansMono-Bold-20" transform="translate(1384.716797 0)"/>
     <use xlink:href="#DejaVuSansMono-Bold-54" transform="translate(1444.921875 0)"/>
     <use xlink:href="#DejaVuSansMono-Bold-65" transform="translate(1505.126953 0)"/>
     <use xlink:href="#DejaVuSansMono-Bold-73" transform="translate(1565.332031 0)"/>
     <use xlink:href="#DejaVuSansMono-Bold-74" transform="translate(1625.537109 0)"/>
     <use xlink:href="#DejaVuSansMono-Bold-69" transform="translate(1685.742188 0)"/>
     <use xlink:href="#DejaVuSansMono-Bold-6e" transform="translate(1745.947266 0)"/>
     <use xlink:href="#DejaVuSansMono-Bold-67" transform="translate(1806.152344 0)"/>
    </g>
   </g>
   <g id="text_13">
    <g id="patch_41">
     <path d="M 1074.6 748.629828 
L 1219.0875 748.629828 
Q 1227.0875 748.629828 1227.0875 740.629828 
L 1227.0875 724.294828 
Q 1227.0875 716.294828 1219.0875 716.294828 
L 1074.6 716.294828 
Q 1066.6 716.294828 1066.6 724.294828 
L 1066.6 740.629828 
Q 1066.6 748.629828 1074.6 748.629828 
z
" style="fill: #ffffff; stroke: #000000; stroke-linejoin: miter"/>
    </g>
    <!-- Prototype Build -->
    <g transform="translate(1074.6 737.302328) scale(0.16 -0.16)">
     <defs>
      <path id="DejaVuSansMono-Bold-42" d="M 1281 2119 
L 1281 738 
L 1894 738 
Q 2334 738 2511 888 
Q 2688 1038 2688 1409 
Q 2688 1788 2503 1953 
Q 2319 2119 1894 2119 
L 1281 2119 
z
M 1281 3938 
L 1281 2853 
L 1894 2853 
Q 2244 2853 2392 2978 
Q 2541 3103 2541 3391 
Q 2541 3678 2389 3808 
Q 2238 3938 1894 3938 
L 1281 3938 
z
M 391 4672 
L 1894 4672 
Q 2672 4672 3064 4376 
Q 3456 4081 3456 3494 
Q 3456 3044 3225 2791 
Q 2994 2538 2547 2497 
Q 3081 2444 3351 2137 
Q 3622 1831 3622 1281 
Q 3622 606 3215 303 
Q 2809 0 1894 0 
L 391 0 
L 391 4672 
z
" transform="scale(0.015625)"/>
     </defs>
     <use xlink:href="#DejaVuSansMono-Bold-50"/>
     <use xlink:href="#DejaVuSansMono-Bold-72" transform="translate(60.205078 0)"/>
     <use xlink:href="#DejaVuSansMono-Bold-6f" transform="translate(120.410156 0)"/>
     <use xlink:href="#DejaVuSansMono-Bold-74" transform="translate(180.615234 0)"/>
     <use xlink:href="#DejaVuSansMono-Bold-6f" transform="translate(240.820312 0)"/>
     <use xlink:href="#DejaVuSansMono-Bold-74" transform="translate(301.025391 0)"/>
     <use xlink:href="#DejaVuSansMono-Bold-79" transform="translate(361.230469 0)"/>
     <use xlink:href="#DejaVuSansMono-Bold-70" transform="translate(421.435547 0)"/>
     <use xlink:href="#DejaVuSansMono-Bold-65" transform="translate(481.640625 0)"/>
     <use xlink:href="#DejaVuSansMono-Bold-20" transform="translate(541.845703 0)"/>
     <use xlink:href="#DejaVuSansMono-Bold-42" transform="translate(602.050781 0)"/>
     <use xlink:href="#DejaVuSansMono-Bold-75" transform="translate(662.255859 0)"/>
     <use xlink:href="#DejaVuSansMono-Bold-69" transform="translate(722.460938 0)"/>
     <use xlink:href="#DejaVuSansMono-Bold-6c" transform="translate(782.666016 0)"/>
     <use xlink:href="#DejaVuSansMono-Bold-64" transform="translate(842.871094 0)"/>
    </g>
   </g>
   <g id="text_14">
    <g id="patch_42">
     <path d="M 1074.6 810.801547 
L 1267.25 810.801547 
Q 1275.25 810.801547 1275.25 802.801547 
L 1275.25 786.481547 
Q 1275.25 778.481547 1267.25 778.481547 
L 1074.6 778.481547 
Q 1066.6 778.481547 1066.6 786.481547 
L 1066.6 802.801547 
Q 1066.6 810.801547 1074.6 810.801547 
z
" style="fill: #ffffff; stroke: #000000; stroke-linejoin: miter"/>
    </g>
    <!-- Testing &amp; Validation -->
    <g transform="translate(1074.6 799.474047) scale(0.16 -0.16)">
     <defs>
      <path id="DejaVuSansMono-Bold-56" d="M 1925 769 
L 2747 4666 
L 3675 4666 
L 2566 0 
L 1288 0 
L 178 4666 
L 1106 4666 
L 1925 769 
z
" transform="scale(0.015625)"/>
     </defs>
     <use xlink:href="#DejaVuSansMono-Bold-54"/>
     <use xlink:href="#DejaVuSansMono-Bold-65" transform="translate(60.205078 0)"/>
     <use xlink:href="#DejaVuSansMono-Bold-73" transform="translate(120.410156 0)"/>
     <use xlink:href="#DejaVuSansMono-Bold-74" transform="translate(180.615234 0)"/>
     <use xlink:href="#DejaVuSansMono-Bold-69" transform="translate(240.820312 0)"/>
     <use xlink:href="#DejaVuSansMono-Bold-6e" transform="translate(301.025391 0)"/>
     <use xlink:href="#DejaVuSansMono-Bold-67" transform="translate(361.230469 0)"/>
     <use xlink:href="#DejaVuSansMono-Bold-20" transform="translate(421.435547 0)"/>
     <use xlink:href="#DejaVuSansMono-Bold-26" transform="translate(481.640625 0)"/>
     <use xlink:href="#DejaVuSansMono-Bold-20" transform="translate(541.845703 0)"/>
     <use xlink:href="#DejaVuSansMono-Bold-56" transform="translate(602.050781 0)"/>
     <use xlink:href="#DejaVuSansMono-Bold-61" transform="translate(662.255859 0)"/>
     <use xlink:href="#DejaVuSansMono-Bold-6c" transform="translate(722.460938 0)"/>
     <use xlink:href="#DejaVuSansMono-Bold-69" transform="translate(782.666016 0)"/>
     <use xlink:href="#DejaVuSansMono-Bold-64" transform="translate(842.871094 0)"/>
     <use xlink:href="#DejaVuSansMono-Bold-61" transform="translate(903.076172 0)"/>
     <use xlink:href="#DejaVuSansMono-Bold-74" transform="translate(963.28125 0)"/>
     <use xlink:href="#DejaVuSansMono-Bold-69" transform="translate(1023.486328 0)"/>
     <use xlink:href="#DejaVuSansMono-Bold-6f" transform="translate(1083.691406 0)"/>
     <use xlink:href="#DejaVuSansMono-Bold-6e" transform="translate(1143.896484 0)"/>
    </g>
   </g>
   <g id="text_15">
    <g id="patch_43">
     <path d="M 1074.6 872.988267 
L 1238.3525 872.988267 
Q 1246.3525 872.988267 1246.3525 864.988267 
L 1246.3525 848.653267 
Q 1246.3525 840.653267 1238.3525 840.653267 
L 1074.6 840.653267 
Q 1066.6 840.653267 1066.6 848.653267 
L 1066.6 864.988267 
Q 1066.6 872.988267 1074.6 872.988267 
z
" style="fill: #ffffff; stroke: #000000; stroke-linejoin: miter"/>
    </g>
    <!-- Operator Training -->
    <g transform="translate(1074.6 861.660767) scale(0.16 -0.16)">
     <defs>
      <path id="DejaVuSansMono-Bold-4f" d="M 1925 3922 
Q 1572 3922 1409 3545 
Q 1247 3169 1247 2328 
Q 1247 1491 1409 1114 
Q 1572 738 1925 738 
Q 2281 738 2443 1114 
Q 2606 1491 2606 2328 
Q 2606 3169 2443 3545 
Q 2281 3922 1925 3922 
z
M 288 2328 
Q 288 3525 702 4137 
Q 1116 4750 1925 4750 
Q 2738 4750 3152 4137 
Q 3566 3525 3566 2328 
Q 3566 1134 3152 521 
Q 2738 -91 1925 -91 
Q 1116 -91 702 521 
Q 288 1134 288 2328 
z
" transform="scale(0.015625)"/>
     </defs>
     <use xlink:href="#DejaVuSansMono-Bold-4f"/>
     <use xlink:href="#DejaVuSansMono-Bold-70" transform="translate(60.205078 0)"/>
     <use xlink:href="#DejaVuSansMono-Bold-65" transform="translate(120.410156 0)"/>
     <use xlink:href="#DejaVuSansMono-Bold-72" transform="translate(180.615234 0)"/>
     <use xlink:href="#DejaVuSansMono-Bold-61" transform="translate(240.820312 0)"/>
     <use xlink:href="#DejaVuSansMono-Bold-74" transform="translate(301.025391 0)"/>
     <use xlink:href="#DejaVuSansMono-Bold-6f" transform="translate(361.230469 0)"/>
     <use xlink:href="#DejaVuSansMono-Bold-72" transform="translate(421.435547 0)"/>
     <use xlink:href="#DejaVuSansMono-Bold-20" transform="translate(481.640625 0)"/>
     <use xlink:href="#DejaVuSansMono-Bold-54" transform="translate(541.845703 0)"/>
     <use xlink:href="#DejaVuSansMono-Bold-72" transform="translate(602.050781 0)"/>
     <use xlink:href="#DejaVuSansMono-Bold-61" transform="translate(662.255859 0)"/>
     <use xlink:href="#DejaVuSansMono-Bold-69" transform="translate(722.460938 0)"/>
     <use xlink:href="#DejaVuSansMono-Bold-6e" transform="translate(782.666016 0)"/>
     <use xlink:href="#DejaVuSansMono-Bold-69" transform="translate(842.871094 0)"/>
     <use xlink:href="#DejaVuSansMono-Bold-6e" transform="translate(903.076172 0)"/>
     <use xlink:href="#DejaVuSansMono-Bold-67" transform="translate(963.28125 0)"/>
    </g>
   </g>
   <g id="text_16">
    <g id="patch_44">
     <path d="M 701.781113 966.257096 
L 942.593613 966.257096 
Q 950.593613 966.257096 950.593613 958.257096 
L 950.593613 941.922096 
Q 950.593613 933.922096 942.593613 933.922096 
L 701.781113 933.922096 
Q 693.781113 933.922096 693.781113 941.922096 
L 693.781113 958.257096 
Q 693.781113 966.257096 701.781113 966.257096 
z
" style="fill: #ffffff; stroke: #000000; stroke-linejoin: miter"/>
    </g>
    <!-- Pilot Line Implementation -->
    <g transform="translate(701.781113 954.929596) scale(0.16 -0.16)">
     <defs>
      <path id="DejaVuSansMono-Bold-4c" d="M 703 0 
L 703 4666 
L 1625 4666 
L 1625 813 
L 3597 813 
L 3597 0 
L 703 0 
z
" transform="scale(0.015625)"/>
     </defs>
     <use xlink:href="#DejaVuSansMono-Bold-50"/>
     <use xlink:href="#DejaVuSansMono-Bold-69" transform="translate(60.205078 0)"/>
     <use xlink:href="#DejaVuSansMono-Bold-6c" transform="translate(120.410156 0)"/>
     <use xlink:href="#DejaVuSansMono-Bold-6f" transform="translate(180.615234 0)"/>
     <use xlink:href="#DejaVuSansMono-Bold-74" transform="translate(240.820312 0)"/>
     <use xlink:href="#DejaVuSansMono-Bold-20" transform="translate(301.025391 0)"/>
     <use xlink:href="#DejaVuSansMono-Bold-4c" transform="translate(361.230469 0)"/>
     <use xlink:href="#DejaVuSansMono-Bold-69" transform="translate(421.435547 0)"/>
     <use xlink:href="#DejaVuSansMono-Bold-6e" transform="translate(481.640625 0)"/>
     <use xlink:href="#DejaVuSansMono-Bold-65" transform="translate(541.845703 0)"/>
     <use xlink:href="#DejaVuSansMono-Bold-20" transform="translate(602.050781 0)"/>
     <use xlink:href="#DejaVuSansMono-Bold-49" transform="translate(662.255859 0)"/>
     <use xlink:href="#DejaVuSansMono-Bold-6d" transform="translate(722.460938 0)"/>
     <use xlink:href="#DejaVuSansMono-Bold-70" transform="translate(782.666016 0)"/>
     <use xlink:href="#DejaVuSansMono-Bold-6c" transform="translate(842.871094 0)"/>
     <use xlink:href="#DejaVuSansMono-Bold-65" transform="translate(903.076172 0)"/>
     <use xlink:href="#DejaVuSansMono-Bold-6d" transform="translate(963.28125 0)"/>
     <use xlink:href="#DejaVuSansMono-Bold-65" transform="translate(1023.486328 0)"/>
     <use xlink:href="#DejaVuSansMono-Bold-6e" transform="translate(1083.691406 0)"/>
     <use xlink:href="#DejaVuSansMono-Bold-74" transform="translate(1143.896484 0)"/>
     <use xlink:href="#DejaVuSansMono-Bold-61" transform="translate(1204.101562 0)"/>
     <use xlink:href="#DejaVuSansMono-Bold-74" transform="translate(1264.306641 0)"/>
     <use xlink:href="#DejaVuSansMono-Bold-69" transform="translate(1324.511719 0)"/>
     <use xlink:href="#DejaVuSansMono-Bold-6f" transform="translate(1384.716797 0)"/>
     <use xlink:href="#DejaVuSansMono-Bold-6e" transform="translate(1444.921875 0)"/>
    </g>
   </g>
   <g id="text_17">
    <g id="patch_45">
     <path d="M 1074.6 935.167486 
L 1296.1475 935.167486 
Q 1304.1475 935.167486 1304.1475 927.167486 
L 1304.1475 910.832486 
Q 1304.1475 902.832486 1296.1475 902.832486 
L 1074.6 902.832486 
Q 1066.6 902.832486 1066.6 910.832486 
L 1066.6 927.167486 
Q 1066.6 935.167486 1074.6 935.167486 
z
" style="fill: #ffffff; stroke: #000000; stroke-linejoin: miter"/>
    </g>
    <!-- Integration Preparation -->
    <g transform="translate(1074.6 923.839986) scale(0.16 -0.16)">
     <use xlink:href="#DejaVuSansMono-Bold-49"/>
     <use xlink:href="#DejaVuSansMono-Bold-6e" transform="translate(60.205078 0)"/>
     <use xlink:href="#DejaVuSansMono-Bold-74" transform="translate(120.410156 0)"/>
     <use xlink:href="#DejaVuSansMono-Bold-65" transform="translate(180.615234 0)"/>
     <use xlink:href="#DejaVuSansMono-Bold-67" transform="translate(240.820312 0)"/>
     <use xlink:href="#DejaVuSansMono-Bold-72" transform="translate(301.025391 0)"/>
     <use xlink:href="#DejaVuSansMono-Bold-61" transform="translate(361.230469 0)"/>
     <use xlink:href="#DejaVuSansMono-Bold-74" transform="translate(421.435547 0)"/>
     <use xlink:href="#DejaVuSansMono-Bold-69" transform="translate(481.640625 0)"/>
     <use xlink:href="#DejaVuSansMono-Bold-6f" transform="translate(541.845703 0)"/>
     <use xlink:href="#DejaVuSansMono-Bold-6e" transform="translate(602.050781 0)"/>
     <use xlink:href="#DejaVuSansMono-Bold-20" transform="translate(662.255859 0)"/>
     <use xlink:href="#DejaVuSansMono-Bold-50" transform="translate(722.460938 0)"/>
     <use xlink:href="#DejaVuSansMono-Bold-72" transform="translate(782.666016 0)"/>
     <use xlink:href="#DejaVuSansMono-Bold-65" transform="translate(842.871094 0)"/>
     <use xlink:href="#DejaVuSansMono-Bold-70" transform="translate(903.076172 0)"/>
     <use xlink:href="#DejaVuSansMono-Bold-61" transform="translate(963.28125 0)"/>
     <use xlink:href="#DejaVuSansMono-Bold-72" transform="translate(1023.486328 0)"/>
     <use xlink:href="#DejaVuSansMono-Bold-61" transform="translate(1083.691406 0)"/>
     <use xlink:href="#DejaVuSansMono-Bold-74" transform="translate(1143.896484 0)"/>
     <use xlink:href="#DejaVuSansMono-Bold-69" transform="translate(1204.101562 0)"/>
     <use xlink:href="#DejaVuSansMono-Bold-6f" transform="translate(1264.306641 0)"/>
     <use xlink:href="#DejaVuSansMono-Bold-6e" transform="translate(1324.511719 0)"/>
    </g>
   </g>
   <g id="text_18">
    <g id="patch_46">
     <path d="M 1074.6 997.339206 
L 1247.985 997.339206 
Q 1255.985 997.339206 1255.985 989.339206 
L 1255.985 973.019206 
Q 1255.985 965.019206 1247.985 965.019206 
L 1074.6 965.019206 
Q 1066.6 965.019206 1066.6 973.019206 
L 1066.6 989.339206 
Q 1066.6 997.339206 1074.6 997.339206 
z
" style="fill: #ffffff; stroke: #000000; stroke-linejoin: miter"/>
    </g>
    <!-- System Integration -->
    <g transform="translate(1074.6 986.011706) scale(0.16 -0.16)">
     <use xlink:href="#DejaVuSansMono-Bold-53"/>
     <use xlink:href="#DejaVuSansMono-Bold-79" transform="translate(60.205078 0)"/>
     <use xlink:href="#DejaVuSansMono-Bold-73" transform="translate(120.410156 0)"/>
     <use xlink:href="#DejaVuSansMono-Bold-74" transform="translate(180.615234 0)"/>
     <use xlink:href="#DejaVuSansMono-Bold-65" transform="translate(240.820312 0)"/>
     <use xlink:href="#DejaVuSansMono-Bold-6d" transform="translate(301.025391 0)"/>
     <use xlink:href="#DejaVuSansMono-Bold-20" transform="translate(361.230469 0)"/>
     <use xlink:href="#DejaVuSansMono-Bold-49" transform="translate(421.435547 0)"/>
     <use xlink:href="#DejaVuSansMono-Bold-6e" transform="translate(481.640625 0)"/>
     <use xlink:href="#DejaVuSansMono-Bold-74" transform="translate(541.845703 0)"/>
     <use xlink:href="#DejaVuSansMono-Bold-65" transform="translate(602.050781 0)"/>
     <use xlink:href="#DejaVuSansMono-Bold-67" transform="translate(662.255859 0)"/>
     <use xlink:href="#DejaVuSansMono-Bold-72" transform="translate(722.460938 0)"/>
     <use xlink:href="#DejaVuSansMono-Bold-61" transform="translate(782.666016 0)"/>
     <use xlink:href="#DejaVuSansMono-Bold-74" transform="translate(842.871094 0)"/>
     <use xlink:href="#DejaVuSansMono-Bold-69" transform="translate(903.076172 0)"/>
     <use xlink:href="#DejaVuSansMono-Bold-6f" transform="translate(963.28125 0)"/>
     <use xlink:href="#DejaVuSansMono-Bold-6e" transform="translate(1023.486328 0)"/>
    </g>
   </g>
   <g id="text_19">
    <g id="patch_47">
     <path d="M 1074.6 1059.518425 
L 1325.045 1059.518425 
Q 1333.045 1059.518425 1333.045 1051.518425 
L 1333.045 1035.198425 
Q 1333.045 1027.198425 1325.045 1027.198425 
L 1074.6 1027.198425 
Q 1066.6 1027.198425 1066.6 1035.198425 
L 1066.6 1051.518425 
Q 1066.6 1059.518425 1074.6 1059.518425 
z
" style="fill: #ffffff; stroke: #000000; stroke-linejoin: miter"/>
    </g>
    <!-- Commissioning &amp; Validation -->
    <g transform="translate(1074.6 1048.190925) scale(0.16 -0.16)">
     <use xlink:href="#DejaVuSansMono-Bold-43"/>
     <use xlink:href="#DejaVuSansMono-Bold-6f" transform="translate(60.205078 0)"/>
     <use xlink:href="#DejaVuSansMono-Bold-6d" transform="translate(120.410156 0)"/>
     <use xlink:href="#DejaVuSansMono-Bold-6d" transform="translate(180.615234 0)"/>
     <use xlink:href="#DejaVuSansMono-Bold-69" transform="translate(240.820312 0)"/>
     <use xlink:href="#DejaVuSansMono-Bold-73" transform="translate(301.025391 0)"/>
     <use xlink:href="#DejaVuSansMono-Bold-73" transform="translate(361.230469 0)"/>
     <use xlink:href="#DejaVuSansMono-Bold-69" transform="translate(421.435547 0)"/>
     <use xlink:href="#DejaVuSansMono-Bold-6f" transform="translate(481.640625 0)"/>
     <use xlink:href="#DejaVuSansMono-Bold-6e" transform="translate(541.845703 0)"/>
     <use xlink:href="#DejaVuSansMono-Bold-69" transform="translate(602.050781 0)"/>
     <use xlink:href="#DejaVuSansMono-Bold-6e" transform="translate(662.255859 0)"/>
     <use xlink:href="#DejaVuSansMono-Bold-67" transform="translate(722.460938 0)"/>
     <use xlink:href="#DejaVuSansMono-Bold-20" transform="translate(782.666016 0)"/>
     <use xlink:href="#DejaVuSansMono-Bold-26" transform="translate(842.871094 0)"/>
     <use xlink:href="#DejaVuSansMono-Bold-20" transform="translate(903.076172 0)"/>
     <use xlink:href="#DejaVuSansMono-Bold-56" transform="translate(963.28125 0)"/>
     <use xlink:href="#DejaVuSansMono-Bold-61" transform="translate(1023.486328 0)"/>
     <use xlink:href="#DejaVuSansMono-Bold-6c" transform="translate(1083.691406 0)"/>
     <use xlink:href="#DejaVuSansMono-Bold-69" transform="translate(1143.896484 0)"/>
     <use xlink:href="#DejaVuSansMono-Bold-64" transform="translate(1204.101562 0)"/>
     <use xlink:href="#DejaVuSansMono-Bold-61" transform="translate(1264.306641 0)"/>
     <use xlink:href="#DejaVuSansMono-Bold-74" transform="translate(1324.511719 0)"/>
     <use xlink:href="#DejaVuSansMono-Bold-69" transform="translate(1384.716797 0)"/>
     <use xlink:href="#DejaVuSansMono-Bold-6f" transform="translate(1444.921875 0)"/>
     <use xlink:href="#DejaVuSansMono-Bold-6e" transform="translate(1505.126953 0)"/>
    </g>
   </g>
   <g id="text_20">
    <g id="patch_48">
     <path d="M 701.781113 1152.794754 
L 913.696113 1152.794754 
Q 921.696113 1152.794754 921.696113 1144.794754 
L 921.696113 1128.459754 
Q 921.696113 1120.459754 913.696113 1120.459754 
L 701.781113 1120.459754 
Q 693.781113 1120.459754 693.781113 1128.459754 
L 693.781113 1144.794754 
Q 693.781113 1152.794754 701.781113 1152.794754 
z
" style="fill: #ffffff; stroke: #000000; stroke-linejoin: miter"/>
    </g>
    <!-- Evaluation &amp; Reporting -->
    <g transform="translate(701.781113 1141.467254) scale(0.16 -0.16)">
     <defs>
      <path id="DejaVuSansMono-Bold-45" d="M 3431 0 
L 525 0 
L 525 4666 
L 3431 4666 
L 3431 3853 
L 1447 3853 
L 1447 2847 
L 3244 2847 
L 3244 2034 
L 1447 2034 
L 1447 813 
L 3431 813 
L 3431 0 
z
" transform="scale(0.015625)"/>
     </defs>
     <use xlink:href="#DejaVuSansMono-Bold-45"/>
     <use xlink:href="#DejaVuSansMono-Bold-76" transform="translate(60.205078 0)"/>
     <use xlink:href="#DejaVuSansMono-Bold-61" transform="translate(120.410156 0)"/>
     <use xlink:href="#DejaVuSansMono-Bold-6c" transform="translate(180.615234 0)"/>
     <use xlink:href="#DejaVuSansMono-Bold-75" transform="translate(240.820312 0)"/>
     <use xlink:href="#DejaVuSansMono-Bold-61" transform="translate(301.025391 0)"/>
     <use xlink:href="#DejaVuSansMono-Bold-74" transform="translate(361.230469 0)"/>
     <use xlink:href="#DejaVuSansMono-Bold-69" transform="translate(421.435547 0)"/>
     <use xlink:href="#DejaVuSansMono-Bold-6f" transform="translate(481.640625 0)"/>
     <use xlink:href="#DejaVuSansMono-Bold-6e" transform="translate(541.845703 0)"/>
     <use xlink:href="#DejaVuSansMono-Bold-20" transform="translate(602.050781 0)"/>
     <use xlink:href="#DejaVuSansMono-Bold-26" transform="translate(662.255859 0)"/>
     <use xlink:href="#DejaVuSansMono-Bold-20" transform="translate(722.460938 0)"/>
     <use xlink:href="#DejaVuSansMono-Bold-52" transform="translate(782.666016 0)"/>
     <use xlink:href="#DejaVuSansMono-Bold-65" transform="translate(842.871094 0)"/>
     <use xlink:href="#DejaVuSansMono-Bold-70" transform="translate(903.076172 0)"/>
     <use xlink:href="#DejaVuSansMono-Bold-6f" transform="translate(963.28125 0)"/>
     <use xlink:href="#DejaVuSansMono-Bold-72" transform="translate(1023.486328 0)"/>
     <use xlink:href="#DejaVuSansMono-Bold-74" transform="translate(1083.691406 0)"/>
     <use xlink:href="#DejaVuSansMono-Bold-69" transform="translate(1143.896484 0)"/>
     <use xlink:href="#DejaVuSansMono-Bold-6e" transform="translate(1204.101562 0)"/>
     <use xlink:href="#DejaVuSansMono-Bold-67" transform="translate(1264.306641 0)"/>
    </g>
   </g>
   <g id="text_21">
    <g id="patch_49">
     <path d="M 1074.6 1121.280145 
L 1286.515 1121.280145 
Q 1294.515 1121.280145 1294.515 1113.280145 
L 1294.515 1097.795145 
Q 1294.515 1089.795145 1286.515 1089.795145 
L 1074.6 1089.795145 
Q 1066.6 1089.795145 1066.6 1097.795145 
L 1066.6 1113.280145 
Q 1066.6 1121.280145 1074.6 1121.280145 
z
" style="fill: #ffffff; stroke: #000000; stroke-linejoin: miter"/>
    </g>
    <!-- Performance Evaluation -->
    <g transform="translate(1074.6 1109.952645) scale(0.16 -0.16)">
     <use xlink:href="#DejaVuSansMono-Bold-50"/>
     <use xlink:href="#DejaVuSansMono-Bold-65" transform="translate(60.205078 0)"/>
     <use xlink:href="#DejaVuSansMono-Bold-72" transform="translate(120.410156 0)"/>
     <use xlink:href="#DejaVuSansMono-Bold-66" transform="translate(180.615234 0)"/>
     <use xlink:href="#DejaVuSansMono-Bold-6f" transform="translate(240.820312 0)"/>
     <use xlink:href="#DejaVuSansMono-Bold-72" transform="translate(301.025391 0)"/>
     <use xlink:href="#DejaVuSansMono-Bold-6d" transform="translate(361.230469 0)"/>
     <use xlink:href="#DejaVuSansMono-Bold-61" transform="translate(421.435547 0)"/>
     <use xlink:href="#DejaVuSansMono-Bold-6e" transform="translate(481.640625 0)"/>
     <use xlink:href="#DejaVuSansMono-Bold-63" transform="translate(541.845703 0)"/>
     <use xlink:href="#DejaVuSansMono-Bold-65" transform="translate(602.050781 0)"/>
     <use xlink:href="#DejaVuSansMono-Bold-20" transform="translate(662.255859 0)"/>
     <use xlink:href="#DejaVuSansMono-Bold-45" transform="translate(722.460938 0)"/>
     <use xlink:href="#DejaVuSansMono-Bold-76" transform="translate(782.666016 0)"/>
     <use xlink:href="#DejaVuSansMono-Bold-61" transform="translate(842.871094 0)"/>
     <use xlink:href="#DejaVuSansMono-Bold-6c" transform="translate(903.076172 0)"/>
     <use xlink:href="#DejaVuSansMono-Bold-75" transform="translate(963.28125 0)"/>
     <use xlink:href="#DejaVuSansMono-Bold-61" transform="translate(1023.486328 0)"/>
     <use xlink:href="#DejaVuSansMono-Bold-74" transform="translate(1083.691406 0)"/>
     <use xlink:href="#DejaVuSansMono-Bold-69" transform="translate(1143.896484 0)"/>
     <use xlink:href="#DejaVuSansMono-Bold-6f" transform="translate(1204.101562 0)"/>
     <use xlink:href="#DejaVuSansMono-Bold-6e" transform="translate(1264.306641 0)"/>
    </g>
   </g>
   <g id="text_22">
    <g id="patch_50">
     <path d="M 1074.6 1183.876864 
L 1325.045 1183.876864 
Q 1333.045 1183.876864 1333.045 1175.876864 
L 1333.045 1159.556864 
Q 1333.045 1151.556864 1325.045 1151.556864 
L 1074.6 1151.556864 
Q 1066.6 1151.556864 1066.6 1159.556864 
L 1066.6 1175.876864 
Q 1066.6 1183.876864 1074.6 1183.876864 
z
" style="fill: #ffffff; stroke: #000000; stroke-linejoin: miter"/>
    </g>
    <!-- ROI &amp; Feasibility Analysis -->
    <g transform="translate(1074.6 1172.549364) scale(0.16 -0.16)">
     <defs>
      <path id="DejaVuSansMono-Bold-46" d="M 3475 3853 
L 1491 3853 
L 1491 2847 
L 3297 2847 
L 3297 2034 
L 1491 2034 
L 1491 0 
L 569 0 
L 569 4666 
L 3475 4666 
L 3475 3853 
z
" transform="scale(0.015625)"/>
     </defs>
     <use xlink:href="#DejaVuSansMono-Bold-52"/>
     <use xlink:href="#DejaVuSansMono-Bold-4f" transform="translate(60.205078 0)"/>
     <use xlink:href="#DejaVuSansMono-Bold-49" transform="translate(120.410156 0)"/>
     <use xlink:href="#DejaVuSansMono-Bold-20" transform="translate(180.615234 0)"/>
     <use xlink:href="#DejaVuSansMono-Bold-26" transform="translate(240.820312 0)"/>
     <use xlink:href="#DejaVuSansMono-Bold-20" transform="translate(301.025391 0)"/>
     <use xlink:href="#DejaVuSansMono-Bold-46" transform="translate(361.230469 0)"/>
     <use xlink:href="#DejaVuSansMono-Bold-65" transform="translate(421.435547 0)"/>
     <use xlink:href="#DejaVuSansMono-Bold-61" transform="translate(481.640625 0)"/>
     <use xlink:href="#DejaVuSansMono-Bold-73" transform="translate(541.845703 0)"/>
     <use xlink:href="#DejaVuSansMono-Bold-69" transform="translate(602.050781 0)"/>
     <use xlink:href="#DejaVuSansMono-Bold-62" transform="translate(662.255859 0)"/>
     <use xlink:href="#DejaVuSansMono-Bold-69" transform="translate(722.460938 0)"/>
     <use xlink:href="#DejaVuSansMono-Bold-6c" transform="translate(782.666016 0)"/>
     <use xlink:href="#DejaVuSansMono-Bold-69" transform="translate(842.871094 0)"/>
     <use xlink:href="#DejaVuSansMono-Bold-74" transform="translate(903.076172 0)"/>
     <use xlink:href="#DejaVuSansMono-Bold-79" transform="translate(963.28125 0)"/>
     <use xlink:href="#DejaVuSansMono-Bold-20" transform="translate(1023.486328 0)"/>
     <use xlink:href="#DejaVuSansMono-Bold-41" transform="translate(1083.691406 0)"/>
     <use xlink:href="#DejaVuSansMono-Bold-6e" transform="translate(1143.896484 0)"/>
     <use xlink:href="#DejaVuSansMono-Bold-61" transform="translate(1204.101562 0)"/>
     <use xlink:href="#DejaVuSansMono-Bold-6c" transform="translate(1264.306641 0)"/>
     <use xlink:href="#DejaVuSansMono-Bold-79" transform="translate(1324.511719 0)"/>
     <use xlink:href="#DejaVuSansMono-Bold-73" transform="translate(1384.716797 0)"/>
     <use xlink:href="#DejaVuSansMono-Bold-69" transform="translate(1444.921875 0)"/>
     <use xlink:href="#DejaVuSansMono-Bold-73" transform="translate(1505.126953 0)"/>
    </g>
   </g>
   <g id="text_23">
    <g id="patch_51">
     <path d="M 1074.6 1246.063584 
L 1315.4125 1246.063584 
Q 1323.4125 1246.063584 1323.4125 1238.063584 
L 1323.4125 1221.728584 
Q 1323.4125 1213.728584 1315.4125 1213.728584 
L 1074.6 1213.728584 
Q 1066.6 1213.728584 1066.6 1221.728584 
L 1066.6 1238.063584 
Q 1066.6 1246.063584 1074.6 1246.063584 
z
" style="fill: #ffffff; stroke: #000000; stroke-linejoin: miter"/>
    </g>
    <!-- Final Reporting &amp; Closure -->
    <g transform="translate(1074.6 1234.736084) scale(0.16 -0.16)">
     <use xlink:href="#DejaVuSansMono-Bold-46"/>
     <use xlink:href="#DejaVuSansMono-Bold-69" transform="translate(60.205078 0)"/>
     <use xlink:href="#DejaVuSansMono-Bold-6e" transform="translate(120.410156 0)"/>
     <use xlink:href="#DejaVuSansMono-Bold-61" transform="translate(180.615234 0)"/>
     <use xlink:href="#DejaVuSansMono-Bold-6c" transform="translate(240.820312 0)"/>
     <use xlink:href="#DejaVuSansMono-Bold-20" transform="translate(301.025391 0)"/>
     <use xlink:href="#DejaVuSansMono-Bold-52" transform="translate(361.230469 0)"/>
     <use xlink:href="#DejaVuSansMono-Bold-65" transform="translate(421.435547 0)"/>
     <use xlink:href="#DejaVuSansMono-Bold-70" transform="translate(481.640625 0)"/>
     <use xlink:href="#DejaVuSansMono-Bold-6f" transform="translate(541.845703 0)"/>
     <use xlink:href="#DejaVuSansMono-Bold-72" transform="translate(602.050781 0)"/>
     <use xlink:href="#DejaVuSansMono-Bold-74" transform="translate(662.255859 0)"/>
     <use xlink:href="#DejaVuSansMono-Bold-69" transform="translate(722.460938 0)"/>
     <use xlink:href="#DejaVuSansMono-Bold-6e" transform="translate(782.666016 0)"/>
     <use xlink:href="#DejaVuSansMono-Bold-67" transform="translate(842.871094 0)"/>
     <use xlink:href="#DejaVuSansMono-Bold-20" transform="translate(903.076172 0)"/>
     <use xlink:href="#DejaVuSansMono-Bold-26" transform="translate(963.28125 0)"/>
     <use xlink:href="#DejaVuSansMono-Bold-20" transform="translate(1023.486328 0)"/>
     <use xlink:href="#DejaVuSansMono-Bold-43" transform="translate(1083.691406 0)"/>
     <use xlink:href="#DejaVuSansMono-Bold-6c" transform="translate(1143.896484 0)"/>
     <use xlink:href="#DejaVuSansMono-Bold-6f" transform="translate(1204.101562 0)"/>
     <use xlink:href="#DejaVuSansMono-Bold-73" transform="translate(1264.306641 0)"/>
     <use xlink:href="#DejaVuSansMono-Bold-75" transform="translate(1324.511719 0)"/>
     <use xlink:href="#DejaVuSansMono-Bold-72" transform="translate(1384.716797 0)"/>
     <use xlink:href="#DejaVuSansMono-Bold-65" transform="translate(1444.921875 0)"/>
    </g>
   </g>
  </g>
  <g id="text_24">
   <!-- Work Breakdown Structure - Stuurloos naar de toekomst v1 -->
   <g transform="translate(450.29 84.1575) scale(0.16 -0.16)">
    <defs>
     <path id="DejaVuSansMono-Bold-31" d="M 588 813 
L 1619 813 
L 1619 3841 
L 659 3603 
L 659 4434 
L 1625 4666 
L 2516 4666 
L 2516 813 
L 3547 813 
L 3547 0 
L 588 0 
L 588 813 
z
" transform="scale(0.015625)"/>
    </defs>
    <use xlink:href="#DejaVuSansMono-Bold-57"/>
    <use xlink:href="#DejaVuSansMono-Bold-6f" transform="translate(60.205078 0)"/>
    <use xlink:href="#DejaVuSansMono-Bold-72" transform="translate(120.410156 0)"/>
    <use xlink:href="#DejaVuSansMono-Bold-6b" transform="translate(180.615234 0)"/>
    <use xlink:href="#DejaVuSansMono-Bold-20" transform="translate(240.820312 0)"/>
    <use xlink:href="#DejaVuSansMono-Bold-42" transform="translate(301.025391 0)"/>
    <use xlink:href="#DejaVuSansMono-Bold-72" transform="translate(361.230469 0)"/>
    <use xlink:href="#DejaVuSansMono-Bold-65" transform="translate(421.435547 0)"/>
    <use xlink:href="#DejaVuSansMono-Bold-61" transform="translate(481.640625 0)"/>
    <use xlink:href="#DejaVuSansMono-Bold-6b" transform="translate(541.845703 0)"/>
    <use xlink:href="#DejaVuSansMono-Bold-64" transform="translate(602.050781 0)"/>
    <use xlink:href="#DejaVuSansMono-Bold-6f" transform="translate(662.255859 0)"/>
    <use xlink:href="#DejaVuSansMono-Bold-77" transform="translate(722.460938 0)"/>
    <use xlink:href="#DejaVuSansMono-Bold-6e" transform="translate(782.666016 0)"/>
    <use xlink:href="#DejaVuSansMono-Bold-20" transform="translate(842.871094 0)"/>
    <use xlink:href="#DejaVuSansMono-Bold-53" transform="translate(903.076172 0)"/>
    <use xlink:href="#DejaVuSansMono-Bold-74" transform="translate(963.28125 0)"/>
    <use xlink:href="#DejaVuSansMono-Bold-72" transform="translate(1023.486328 0)"/>
    <use xlink:href="#DejaVuSansMono-Bold-75" transform="translate(1083.691406 0)"/>
    <use xlink:href="#DejaVuSansMono-Bold-63" transform="translate(1143.896484 0)"/>
    <use xlink:href="#DejaVuSansMono-Bold-74" transform="translate(1204.101562 0)"/>
    <use xlink:href="#DejaVuSansMono-Bold-75" transform="translate(1264.306641 0)"/>
    <use xlink:href="#DejaVuSansMono-Bold-72" transform="translate(1324.511719 0)"/>
    <use xlink:href="#DejaVuSansMono-Bold-65" transform="translate(1384.716797 0)"/>
    <use xlink:href="#DejaVuSansMono-Bold-20" transform="translate(1444.921875 0)"/>
    <use xlink:href="#DejaVuSansMono-Bold-2d" transform="translate(1505.126953 0)"/>
    <use xlink:href="#DejaVuSansMono-Bold-20" transform="translate(1565.332031 0)"/>
    <use xlink:href="#DejaVuSansMono-Bold-53" transform="translate(1625.537109 0)"/>
    <use xlink:href="#DejaVuSansMono-Bold-74" transform="translate(1685.742188 0)"/>
    <use xlink:href="#DejaVuSansMono-Bold-75" transform="translate(1745.947266 0)"/>
    <use xlink:href="#DejaVuSansMono-Bold-75" transform="translate(1806.152344 0)"/>
    <use xlink:href="#DejaVuSansMono-Bold-72" transform="translate(1866.357422 0)"/>
    <use xlink:href="#DejaVuSansMono-Bold-6c" transform="translate(1926.5625 0)"/>
    <use xlink:href="#DejaVuSansMono-Bold-6f" transform="translate(1986.767578 0)"/>
    <use xlink:href="#DejaVuSansMono-Bold-6f" transform="translate(2046.972656 0)"/>
    <use xlink:href="#DejaVuSansMono-Bold-73" transform="translate(2107.177734 0)"/>
    <use xlink:href="#DejaVuSansMono-Bold-20" transform="translate(2167.382812 0)"/>
    <use xlink:href="#DejaVuSansMono-Bold-6e" transform="translate(2227.587891 0)"/>
    <use xlink:href="#DejaVuSansMono-Bold-61" transform="translate(2287.792969 0)"/>
    <use xlink:href="#DejaVuSansMono-Bold-61" transform="translate(2347.998047 0)"/>
    <use xlink:href="#DejaVuSansMono-Bold-72" transform="translate(2408.203125 0)"/>
    <use xlink:href="#DejaVuSansMono-Bold-20" transform="translate(2468.408203 0)"/>
    <use xlink:href="#DejaVuSansMono-Bold-64" transform="translate(2528.613281 0)"/>
    <use xlink:href="#DejaVuSansMono-Bold-65" transform="translate(2588.818359 0)"/>
    <use xlink:href="#DejaVuSansMono-Bold-20" transform="translate(2649.023438 0)"/>
    <use xlink:href="#DejaVuSansMono-Bold-74" transform="translate(2709.228516 0)"/>
    <use xlink:href="#DejaVuSansMono-Bold-6f" transform="translate(2769.433594 0)"/>
    <use xlink:href="#DejaVuSansMono-Bold-65" transform="translate(2829.638672 0)"/>
    <use xlink:href="#DejaVuSansMono-Bold-6b" transform="translate(2889.84375 0)"/>
    <use xlink:href="#DejaVuSansMono-Bold-6f" transform="translate(2950.048828 0)"/>
    <use xlink:href="#DejaVuSansMono-Bold-6d" transform="translate(3010.253906 0)"/>
    <use xlink:href="#DejaVuSansMono-Bold-73" transform="translate(3070.458984 0)"/>
    <use xlink:href="#DejaVuSansMono-Bold-74" transform="translate(3130.664062 0)"/>
    <use xlink:href="#DejaVuSansMono-Bold-20" transform="translate(3190.869141 0)"/>
    <use xlink:href="#DejaVuSansMono-Bold-76" transform="translate(3251.074219 0)"/>
    <use xlink:href="#DejaVuSansMono-Bold-31" transform="translate(3311.279297 0)"/>
   </g>
  </g>
 </g>
 <defs>
  <clipPath id="p2f73e77eb3">
   <rect x="10.8" y="36" width="1418.4" height="1393.2"/>
  </clipPath>
 </defs>
</svg>
