<?xml version="1.0" encoding="utf-8" standalone="no"?>
<!DOCTYPE svg PUBLIC "-//W3C//DTD SVG 1.1//EN"
  "http://www.w3.org/Graphics/SVG/1.1/DTD/svg11.dtd">
<svg xmlns:xlink="http://www.w3.org/1999/xlink" width="1440pt" height="1440pt" viewBox="0 0 1440 1440" xmlns="http://www.w3.org/2000/svg" version="1.1">
 <metadata>
  <rdf:RDF xmlns:dc="http://purl.org/dc/elements/1.1/" xmlns:cc="http://creativecommons.org/ns#" xmlns:rdf="http://www.w3.org/1999/02/22-rdf-syntax-ns#">
   <cc:Work>
    <dc:type rdf:resource="http://purl.org/dc/dcmitype/StillImage"/>
    <dc:date>2025-12-04T10:15:51.100391</dc:date>
    <dc:format>image/svg+xml</dc:format>
    <dc:creator>
     <cc:Agent>
      <dc:title>Matplotlib v3.10.7, https://matplotlib.org/</dc:title>
     </cc:Agent>
    </dc:creator>
   </cc:Work>
  </rdf:RDF>
 </metadata>
 <defs>
  <style type="text/css">*{stroke-linejoin: round; stroke-linecap: butt}</style>
 </defs>
 <g id="figure_1">
  <g id="patch_1">
   <path d="M 0 1440 
L 1440 1440 
L 1440 0 
L 0 0 
z
" style="fill: #d3d3d3"/>
  </g>
  <g id="axes_1">
   <g id="patch_2">
    <path d="M 10.8 1429.2 
L 1429.2 1429.2 
L 1429.2 31.68 
L 10.8 31.68 
z
" style="fill: #ffffff"/>
   </g>
   <g id="patch_3">
    <path d="M 10.8 797.442998 
L 1429.2 797.442998 
L 1429.2 786.881625 
L 10.8 786.881625 
z
" clip-path="url(#p4286732534)" style="fill: #e6e6e6; opacity: 0.2"/>
   </g>
   <g id="patch_4">
    <path d="M 10.8 427.16424 
L 1429.2 427.16424 
L 1429.2 231.325714 
L 10.8 231.325714 
z
" clip-path="url(#p4286732534)" style="fill: #1f77b4; opacity: 0.2"/>
   </g>
   <g id="patch_5">
    <path d="M 10.8 674.053485 
L 1429.2 674.053485 
L 1429.2 478.214959 
L 10.8 478.214959 
z
" clip-path="url(#p4286732534)" style="fill: #aec7e8; opacity: 0.2"/>
   </g>
   <g id="patch_6">
    <path d="M 10.8 859.220418 
L 1429.2 859.220418 
L 1429.2 725.104204 
L 10.8 725.104204 
z
" clip-path="url(#p4286732534)" style="fill: #ff7f0e; opacity: 0.2"/>
   </g>
   <g id="patch_7">
    <path d="M 10.8 1044.387352 
L 1429.2 1044.387352 
L 1429.2 910.271138 
L 10.8 910.271138 
z
" clip-path="url(#p4286732534)" style="fill: #ffbb78; opacity: 0.2"/>
   </g>
   <g id="patch_8">
    <path d="M 10.8 1229.554286 
L 1429.2 1229.554286 
L 1429.2 1095.493181 
L 10.8 1095.493181 
z
" clip-path="url(#p4286732534)" style="fill: #2ca02c; opacity: 0.2"/>
   </g>
   <g id="patch_9">
    <path d="M 341.332156 790.622927 
Q 519.905953 576.13148 697.049055 363.358494 
" clip-path="url(#p4286732534)" style="fill: none; stroke: #000000; stroke-width: 2; stroke-linecap: round"/>
    <path d="M 688.856364 366.947339 
L 697.049055 363.358494 
L 695.004517 372.065954 
z
" clip-path="url(#p4286732534)" style="stroke: #000000; stroke-width: 2; stroke-linecap: round"/>
   </g>
   <g id="patch_10">
    <path d="M 341.826137 791.248287 
Q 519.902591 699.5794 695.990931 608.93394 
" clip-path="url(#p4286732534)" style="fill: none; stroke: #000000; stroke-width: 2; stroke-linecap: round"/>
    <path d="M 687.047276 609.039016 
L 695.990931 608.93394 
L 690.708799 616.151909 
z
" clip-path="url(#p4286732534)" style="stroke: #000000; stroke-width: 2; stroke-linecap: round"/>
   </g>
   <g id="patch_11">
    <path d="M 342.051173 792.162311 
Q 519.903775 792.162311 695.52031 792.162311 
" clip-path="url(#p4286732534)" style="fill: none; stroke: #000000; stroke-width: 2; stroke-linecap: round"/>
    <path d="M 687.52031 788.162311 
L 695.52031 792.162311 
L 687.52031 796.162311 
z
" clip-path="url(#p4286732534)" style="stroke: #000000; stroke-width: 2; stroke-linecap: round"/>
   </g>
   <g id="patch_12">
    <path d="M 341.886512 792.949898 
Q 519.902895 869.314868 695.864309 944.798303 
" clip-path="url(#p4286732534)" style="fill: none; stroke: #000000; stroke-width: 2; stroke-linecap: round"/>
    <path d="M 690.089166 937.968388 
L 695.864309 944.798303 
L 686.935292 945.320468 
z
" clip-path="url(#p4286732534)" style="stroke: #000000; stroke-width: 2; stroke-linecap: round"/>
   </g>
   <g id="patch_13">
    <path d="M 341.507793 793.537586 
Q 519.903889 961.898873 696.673769 1128.725421 
" clip-path="url(#p4286732534)" style="fill: none; stroke: #000000; stroke-width: 2; stroke-linecap: round"/>
    <path d="M 693.601073 1120.325508 
L 696.673769 1128.725421 
L 688.110221 1126.14363 
z
" clip-path="url(#p4286732534)" style="stroke: #000000; stroke-width: 2; stroke-linecap: round"/>
   </g>
   <g id="patch_14">
    <path d="M 837.409807 359.294294 
Q 974.79118 298.383023 1110.128397 238.378077 
" clip-path="url(#p4286732534)" style="fill: none; stroke: #000000; stroke-width: 2; stroke-linecap: round"/>
    <path d="M 1101.193718 237.963945 
L 1110.128397 238.378077 
L 1104.436284 245.277341 
z
" clip-path="url(#p4286732534)" style="stroke: #000000; stroke-width: 2; stroke-linecap: round"/>
   </g>
   <g id="patch_15">
    <path d="M 837.528762 359.673843 
Q 974.787771 329.245334 1109.863713 299.300782 
" clip-path="url(#p4286732534)" style="fill: none; stroke: #000000; stroke-width: 2; stroke-linecap: round"/>
    <path d="M 1101.187603 297.127049 
L 1109.863713 299.300782 
L 1102.919061 304.93743 
z
" clip-path="url(#p4286732534)" style="stroke: #000000; stroke-width: 2; stroke-linecap: round"/>
   </g>
   <g id="patch_16">
    <path d="M 837.579742 360.106133 
Q 974.788135 360.106133 1109.760459 360.106133 
" clip-path="url(#p4286732534)" style="fill: none; stroke: #000000; stroke-width: 2; stroke-linecap: round"/>
    <path d="M 1101.760459 356.106133 
L 1109.760459 360.106133 
L 1101.760459 364.106133 
z
" clip-path="url(#p4286732534)" style="stroke: #000000; stroke-width: 2; stroke-linecap: round"/>
   </g>
   <g id="patch_17">
    <path d="M 837.528762 360.538422 
Q 974.787771 390.966932 1109.863713 420.911484 
" clip-path="url(#p4286732534)" style="fill: none; stroke: #000000; stroke-width: 2; stroke-linecap: round"/>
    <path d="M 1102.919061 415.274835 
L 1109.863713 420.911484 
L 1101.187603 423.085216 
z
" clip-path="url(#p4286732534)" style="stroke: #000000; stroke-width: 2; stroke-linecap: round"/>
   </g>
   <g id="patch_18">
    <path d="M 837.409807 606.183539 
Q 974.79118 545.272268 1110.128397 485.267322 
" clip-path="url(#p4286732534)" style="fill: none; stroke: #000000; stroke-width: 2; stroke-linecap: round"/>
    <path d="M 1101.193718 484.85319 
L 1110.128397 485.267322 
L 1104.436284 492.166586 
z
" clip-path="url(#p4286732534)" style="stroke: #000000; stroke-width: 2; stroke-linecap: round"/>
   </g>
   <g id="patch_19">
    <path d="M 837.528762 606.563088 
Q 974.787771 576.134579 1109.863713 546.190027 
" clip-path="url(#p4286732534)" style="fill: none; stroke: #000000; stroke-width: 2; stroke-linecap: round"/>
    <path d="M 1101.187603 544.016294 
L 1109.863713 546.190027 
L 1102.919061 551.826675 
z
" clip-path="url(#p4286732534)" style="stroke: #000000; stroke-width: 2; stroke-linecap: round"/>
   </g>
   <g id="patch_20">
    <path d="M 837.579742 606.995378 
Q 974.788135 606.995378 1109.760459 606.995378 
" clip-path="url(#p4286732534)" style="fill: none; stroke: #000000; stroke-width: 2; stroke-linecap: round"/>
    <path d="M 1101.760459 602.995378 
L 1109.760459 606.995378 
L 1101.760459 610.995378 
z
" clip-path="url(#p4286732534)" style="stroke: #000000; stroke-width: 2; stroke-linecap: round"/>
   </g>
   <g id="patch_21">
    <path d="M 837.528762 607.427667 
Q 974.787771 637.856177 1109.863713 667.800729 
" clip-path="url(#p4286732534)" style="fill: none; stroke: #000000; stroke-width: 2; stroke-linecap: round"/>
    <path d="M 1102.919061 662.16408 
L 1109.863713 667.800729 
L 1101.187603 669.974461 
z
" clip-path="url(#p4286732534)" style="stroke: #000000; stroke-width: 2; stroke-linecap: round"/>
   </g>
   <g id="patch_22">
    <path d="M 846.895876 791.714953 
Q 979.471812 761.301404 1109.868292 731.387833 
" clip-path="url(#p4286732534)" style="fill: none; stroke: #000000; stroke-width: 2; stroke-linecap: round"/>
    <path d="M 1101.176451 729.277879 
L 1109.868292 731.387833 
L 1102.965224 737.075333 
z
" clip-path="url(#p4286732534)" style="stroke: #000000; stroke-width: 2; stroke-linecap: round"/>
   </g>
   <g id="patch_23">
    <path d="M 846.945142 792.162311 
Q 979.472175 792.162311 1109.76314 792.162311 
" clip-path="url(#p4286732534)" style="fill: none; stroke: #000000; stroke-width: 2; stroke-linecap: round"/>
    <path d="M 1101.76314 788.162311 
L 1109.76314 792.162311 
L 1101.76314 796.162311 
z
" clip-path="url(#p4286732534)" style="stroke: #000000; stroke-width: 2; stroke-linecap: round"/>
   </g>
   <g id="patch_24">
    <path d="M 846.895876 792.60967 
Q 979.471812 823.023218 1109.868292 852.936789 
" clip-path="url(#p4286732534)" style="fill: none; stroke: #000000; stroke-width: 2; stroke-linecap: round"/>
    <path d="M 1102.965224 847.249289 
L 1109.868292 852.936789 
L 1101.176451 855.046743 
z
" clip-path="url(#p4286732534)" style="stroke: #000000; stroke-width: 2; stroke-linecap: round"/>
   </g>
   <g id="patch_25">
    <path d="M 818.835222 946.261363 
Q 965.424511 931.037287 1109.789693 916.044196 
" clip-path="url(#p4286732534)" style="fill: none; stroke: #000000; stroke-width: 2; stroke-linecap: round"/>
    <path d="M 1101.419292 912.891993 
L 1109.789693 916.044196 
L 1102.24569 920.849195 
z
" clip-path="url(#p4286732534)" style="stroke: #000000; stroke-width: 2; stroke-linecap: round"/>
   </g>
   <g id="patch_26">
    <path d="M 818.835222 946.674816 
Q 965.424511 961.898892 1109.789693 976.891982 
" clip-path="url(#p4286732534)" style="fill: none; stroke: #000000; stroke-width: 2; stroke-linecap: round"/>
    <path d="M 1102.24569 972.086983 
L 1109.789693 976.891982 
L 1101.419292 980.044186 
z
" clip-path="url(#p4286732534)" style="stroke: #000000; stroke-width: 2; stroke-linecap: round"/>
   </g>
   <g id="patch_27">
    <path d="M 818.753606 947.062841 
Q 965.423974 992.760329 1109.959493 1037.792672 
" clip-path="url(#p4286732534)" style="fill: none; stroke: #000000; stroke-width: 2; stroke-linecap: round"/>
    <path d="M 1103.511474 1031.594038 
L 1109.959493 1037.792672 
L 1101.131775 1039.231906 
z
" clip-path="url(#p4286732534)" style="stroke: #000000; stroke-width: 2; stroke-linecap: round"/>
   </g>
   <g id="patch_28">
    <path d="M 804.78382 1131.437714 
Q 958.398715 1116.204282 1109.788457 1101.191511 
" clip-path="url(#p4286732534)" style="fill: none; stroke: #000000; stroke-width: 2; stroke-linecap: round"/>
    <path d="M 1101.432776 1098.000494 
L 1109.788457 1101.191511 
L 1102.222234 1105.961446 
z
" clip-path="url(#p4286732534)" style="stroke: #000000; stroke-width: 2; stroke-linecap: round"/>
   </g>
   <g id="patch_29">
    <path d="M 804.78382 1131.832332 
Q 958.398715 1147.065764 1109.788457 1162.078535 
" clip-path="url(#p4286732534)" style="fill: none; stroke: #000000; stroke-width: 2; stroke-linecap: round"/>
    <path d="M 1102.222234 1157.308601 
L 1109.788457 1162.078535 
L 1101.432776 1165.269552 
z
" clip-path="url(#p4286732534)" style="stroke: #000000; stroke-width: 2; stroke-linecap: round"/>
   </g>
   <g id="patch_30">
    <path d="M 804.707842 1132.204346 
Q 958.393518 1177.925699 1109.93596 1223.009442 
" clip-path="url(#p4286732534)" style="fill: none; stroke: #000000; stroke-width: 2; stroke-linecap: round"/>
    <path d="M 1103.408684 1216.894324 
L 1109.93596 1223.009442 
L 1101.1275 1224.562192 
z
" clip-path="url(#p4286732534)" style="stroke: #000000; stroke-width: 2; stroke-linecap: round"/>
   </g>
   <g id="matplotlib.axis_1">
    <g id="xtick_1"/>
    <g id="xtick_2"/>
    <g id="xtick_3"/>
    <g id="xtick_4"/>
    <g id="xtick_5"/>
    <g id="xtick_6"/>
    <g id="xtick_7"/>
   </g>
   <g id="matplotlib.axis_2">
    <g id="ytick_1"/>
    <g id="ytick_2"/>
    <g id="ytick_3"/>
    <g id="ytick_4"/>
    <g id="ytick_5"/>
    <g id="ytick_6"/>
   </g>
   <g id="PathCollection_1"/>
   <g id="patch_31">
    <path d="M 10.8 1429.2 
L 10.8 31.68 
" style="fill: none; stroke: #000000; stroke-width: 0.8; stroke-linejoin: miter; stroke-linecap: square"/>
   </g>
   <g id="patch_32">
    <path d="M 1429.2 1429.2 
L 1429.2 31.68 
" style="fill: none; stroke: #000000; stroke-width: 0.8; stroke-linejoin: miter; stroke-linecap: square"/>
   </g>
   <g id="patch_33">
    <path d="M 10.8 1429.2 
L 1429.2 1429.2 
" style="fill: none; stroke: #000000; stroke-width: 0.8; stroke-linejoin: miter; stroke-linecap: square"/>
   </g>
   <g id="patch_34">
    <path d="M 10.8 31.68 
L 1429.2 31.68 
" style="fill: none; stroke: #000000; stroke-width: 0.8; stroke-linejoin: miter; stroke-linecap: square"/>
   </g>
   <g id="text_1">
    <g id="patch_35">
     <path d="M 326 802.001374 
L 344.060938 802.001374 
Q 349.060938 802.001374 349.060938 797.001374 
L 349.060938 787.323249 
Q 349.060938 782.323249 344.060938 782.323249 
L 326 782.323249 
Q 321 782.323249 321 787.323249 
L 321 797.001374 
Q 321 802.001374 326 802.001374 
z
" style="fill: #ffffff; stroke: #000000; stroke-linejoin: miter"/>
    </g>
    <!-- wbs -->
    <g transform="translate(326 794.921686) scale(0.1 -0.1)">
     <defs>
      <path id="DejaVuSansMono-Bold-77" d="M 0 3500 
L 763 3500 
L 1178 819 
L 1556 2584 
L 2297 2584 
L 2669 819 
L 3091 3500 
L 3853 3500 
L 3219 0 
L 2350 0 
L 1925 1819 
L 1503 0 
L 634 0 
L 0 3500 
z
" transform="scale(0.015625)"/>
      <path id="DejaVuSansMono-Bold-62" d="M 2656 1741 
Q 2656 2247 2487 2534 
Q 2319 2822 2022 2822 
Q 1725 2822 1553 2534 
Q 1381 2247 1381 1741 
Q 1381 1234 1553 946 
Q 1725 659 2022 659 
Q 2319 659 2487 946 
Q 2656 1234 2656 1741 
z
M 1381 3003 
Q 1550 3294 1773 3439 
Q 1997 3584 2278 3584 
Q 2900 3584 3236 3109 
Q 3572 2634 3572 1747 
Q 3572 872 3240 390 
Q 2909 -91 2309 -91 
Q 1994 -91 1759 62 
Q 1525 216 1381 519 
L 1381 0 
L 469 0 
L 469 4863 
L 1381 4863 
L 1381 3003 
z
" transform="scale(0.015625)"/>
      <path id="DejaVuSansMono-Bold-73" d="M 3097 3391 
L 3097 2591 
Q 2844 2753 2570 2836 
Q 2297 2919 2022 2919 
Q 1716 2919 1559 2830 
Q 1403 2741 1403 2566 
Q 1403 2316 2072 2159 
L 2106 2150 
L 2369 2088 
Q 2869 1969 3101 1705 
Q 3334 1441 3334 991 
Q 3334 450 2979 179 
Q 2625 -91 1913 -91 
Q 1597 -91 1265 -36 
Q 934 19 594 128 
L 594 928 
Q 897 756 1211 665 
Q 1525 575 1819 575 
Q 2141 575 2306 669 
Q 2472 763 2472 941 
Q 2472 1116 2355 1209 
Q 2238 1303 1797 1409 
L 1544 1466 
Q 1019 1584 778 1837 
Q 538 2091 538 2516 
Q 538 3022 903 3303 
Q 1269 3584 1931 3584 
Q 2228 3584 2523 3536 
Q 2819 3488 3097 3391 
z
" transform="scale(0.015625)"/>
     </defs>
     <use xlink:href="#DejaVuSansMono-Bold-77"/>
     <use xlink:href="#DejaVuSansMono-Bold-62" transform="translate(60.205078 0)"/>
     <use xlink:href="#DejaVuSansMono-Bold-73" transform="translate(120.410156 0)"/>
    </g>
   </g>
   <g id="text_2">
    <g id="patch_36">
     <path d="M 699.756792 370.206133 
L 874.345854 370.206133 
Q 879.345854 370.206133 879.345854 365.206133 
L 879.345854 355.006133 
Q 879.345854 350.006133 874.345854 350.006133 
L 699.756792 350.006133 
Q 694.756792 350.006133 694.756792 355.006133 
L 694.756792 365.206133 
Q 694.756792 370.206133 699.756792 370.206133 
z
" style="fill: #ffffff; stroke: #000000; stroke-linejoin: miter"/>
    </g>
    <!-- Project Initiation &amp; Analysis -->
    <g transform="translate(699.756792 363.126445) scale(0.1 -0.1)">
     <defs>
      <path id="DejaVuSansMono-Bold-50" d="M 1428 3891 
L 1428 2522 
L 1806 2522 
Q 2259 2522 2442 2675 
Q 2625 2828 2625 3206 
Q 2625 3584 2442 3737 
Q 2259 3891 1806 3891 
L 1428 3891 
z
M 506 4666 
L 1772 4666 
Q 2738 4666 3161 4322 
Q 3584 3978 3584 3206 
Q 3584 2434 3161 2090 
Q 2738 1747 1772 1747 
L 1428 1747 
L 1428 0 
L 506 0 
L 506 4666 
z
" transform="scale(0.015625)"/>
      <path id="DejaVuSansMono-Bold-72" d="M 3597 2534 
Q 3447 2672 3245 2740 
Q 3044 2809 2803 2809 
Q 2513 2809 2295 2707 
Q 2078 2606 1959 2413 
Q 1884 2294 1854 2125 
Q 1825 1956 1825 1613 
L 1825 0 
L 909 0 
L 909 3500 
L 1825 3500 
L 1825 2956 
Q 1959 3256 2237 3420 
Q 2516 3584 2888 3584 
Q 3075 3584 3254 3539 
Q 3434 3494 3597 3406 
L 3597 2534 
z
" transform="scale(0.015625)"/>
      <path id="DejaVuSansMono-Bold-6f" d="M 1925 2841 
Q 1597 2841 1409 2552 
Q 1222 2263 1222 1747 
Q 1222 1231 1409 942 
Q 1597 653 1925 653 
Q 2256 653 2443 942 
Q 2631 1231 2631 1747 
Q 2631 2263 2443 2552 
Q 2256 2841 1925 2841 
z
M 306 1747 
Q 306 2594 745 3089 
Q 1184 3584 1925 3584 
Q 2669 3584 3108 3089 
Q 3547 2594 3547 1747 
Q 3547 900 3108 404 
Q 2669 -91 1925 -91 
Q 1184 -91 745 404 
Q 306 900 306 1747 
z
" transform="scale(0.015625)"/>
      <path id="DejaVuSansMono-Bold-6a" d="M 2656 134 
Q 2656 -653 2373 -989 
Q 2091 -1325 1434 -1325 
L 447 -1325 
L 447 -622 
L 1178 -622 
Q 1484 -622 1612 -450 
Q 1741 -278 1741 134 
L 1741 2797 
L 813 2797 
L 813 3500 
L 2656 3500 
L 2656 134 
z
M 2656 4134 
L 1741 4134 
L 1741 5203 
L 2656 5203 
L 2656 4134 
z
" transform="scale(0.015625)"/>
      <path id="DejaVuSansMono-Bold-65" d="M 3444 172 
Q 3125 41 2794 -25 
Q 2463 -91 2094 -91 
Q 1216 -91 752 379 
Q 288 850 288 1734 
Q 288 2591 734 3087 
Q 1181 3584 1953 3584 
Q 2731 3584 3161 3123 
Q 3591 2663 3591 1825 
L 3591 1453 
L 1219 1453 
Q 1222 1041 1462 837 
Q 1703 634 2181 634 
Q 2497 634 2803 725 
Q 3109 816 3444 1013 
L 3444 172 
z
M 2669 2141 
Q 2663 2503 2483 2689 
Q 2303 2875 1953 2875 
Q 1638 2875 1450 2683 
Q 1263 2491 1228 2138 
L 2669 2141 
z
" transform="scale(0.015625)"/>
      <path id="DejaVuSansMono-Bold-63" d="M 3316 178 
Q 3084 44 2818 -23 
Q 2553 -91 2247 -91 
Q 1438 -91 981 396 
Q 525 884 525 1747 
Q 525 2613 984 3102 
Q 1444 3591 2253 3591 
Q 2534 3591 2795 3525 
Q 3056 3459 3316 3322 
L 3316 2484 
Q 3116 2656 2877 2748 
Q 2638 2841 2381 2841 
Q 1934 2841 1693 2556 
Q 1453 2272 1453 1747 
Q 1453 1222 1693 940 
Q 1934 659 2381 659 
Q 2647 659 2878 748 
Q 3109 838 3316 1019 
L 3316 178 
z
" transform="scale(0.015625)"/>
      <path id="DejaVuSansMono-Bold-74" d="M 2156 4494 
L 2156 3500 
L 3353 3500 
L 3353 2797 
L 2156 2797 
L 2156 1141 
Q 2156 906 2270 804 
Q 2384 703 2650 703 
L 3353 703 
L 3353 0 
L 2584 0 
Q 1797 0 1519 251 
Q 1241 503 1241 1184 
L 1241 2797 
L 347 2797 
L 347 3500 
L 1241 3500 
L 1241 4494 
L 2156 4494 
z
" transform="scale(0.015625)"/>
      <path id="DejaVuSansMono-Bold-20" transform="scale(0.015625)"/>
      <path id="DejaVuSansMono-Bold-49" d="M 538 3853 
L 538 4666 
L 3316 4666 
L 3316 3853 
L 2388 3853 
L 2388 813 
L 3316 813 
L 3316 0 
L 538 0 
L 538 813 
L 1466 813 
L 1466 3853 
L 538 3853 
z
" transform="scale(0.015625)"/>
      <path id="DejaVuSansMono-Bold-6e" d="M 3347 2272 
L 3347 0 
L 2438 0 
L 2438 2131 
Q 2438 2513 2330 2677 
Q 2222 2841 1978 2841 
Q 1731 2841 1589 2619 
Q 1447 2397 1447 2003 
L 1447 0 
L 538 0 
L 538 3500 
L 1447 3500 
L 1447 2975 
Q 1544 3266 1778 3425 
Q 2013 3584 2344 3584 
Q 2841 3584 3094 3254 
Q 3347 2925 3347 2272 
z
" transform="scale(0.015625)"/>
      <path id="DejaVuSansMono-Bold-69" d="M 691 3500 
L 2503 3500 
L 2503 703 
L 3641 703 
L 3641 0 
L 447 0 
L 447 703 
L 1588 703 
L 1588 2797 
L 691 2797 
L 691 3500 
z
M 1588 5203 
L 2503 5203 
L 2503 4134 
L 1588 4134 
L 1588 5203 
z
" transform="scale(0.015625)"/>
      <path id="DejaVuSansMono-Bold-61" d="M 2188 1644 
Q 1675 1644 1472 1512 
Q 1269 1381 1269 1063 
Q 1269 825 1409 684 
Q 1550 544 1791 544 
Q 2153 544 2353 817 
Q 2553 1091 2553 1581 
L 2553 1644 
L 2188 1644 
z
M 3463 1997 
L 3463 0 
L 2553 0 
L 2553 391 
Q 2388 159 2128 34 
Q 1869 -91 1556 -91 
Q 959 -91 626 225 
Q 294 541 294 1106 
Q 294 1719 691 2011 
Q 1088 2303 1919 2303 
L 2553 2303 
L 2553 2456 
Q 2553 2678 2392 2792 
Q 2231 2906 1919 2906 
Q 1591 2906 1283 2823 
Q 975 2741 641 2559 
L 641 3341 
Q 944 3466 1256 3525 
Q 1569 3584 1919 3584 
Q 2772 3584 3117 3237 
Q 3463 2891 3463 1997 
z
" transform="scale(0.015625)"/>
      <path id="DejaVuSansMono-Bold-26" d="M 2719 225 
Q 2484 69 2220 -11 
Q 1956 -91 1684 -91 
Q 984 -91 550 318 
Q 116 728 116 1381 
Q 116 1834 336 2206 
Q 556 2578 991 2853 
Q 834 3097 759 3305 
Q 684 3513 684 3700 
Q 684 4206 1025 4478 
Q 1366 4750 2009 4750 
Q 2238 4750 2456 4715 
Q 2675 4681 2888 4616 
L 2888 3816 
Q 2688 3928 2483 3986 
Q 2278 4044 2075 4044 
Q 1825 4044 1697 3956 
Q 1569 3869 1569 3700 
Q 1569 3588 1664 3391 
Q 1759 3194 1972 2875 
L 2950 1375 
Q 3016 1494 3050 1647 
Q 3084 1800 3084 1978 
Q 3084 2072 3078 2161 
Q 3072 2250 3059 2328 
L 3794 2328 
L 3794 2169 
Q 3794 1716 3687 1377 
Q 3581 1038 3353 769 
L 3859 0 
L 2869 0 
L 2719 225 
z
M 1375 2284 
Q 1169 2150 1064 1964 
Q 959 1778 959 1550 
Q 959 1169 1204 908 
Q 1450 647 1806 647 
Q 1894 647 1986 667 
Q 2078 688 2166 725 
Q 2172 728 2191 738 
Q 2281 781 2338 819 
L 1375 2284 
z
" transform="scale(0.015625)"/>
      <path id="DejaVuSansMono-Bold-41" d="M 1925 3822 
L 1491 1913 
L 2363 1913 
L 1925 3822 
z
M 1363 4666 
L 2491 4666 
L 3750 0 
L 2828 0 
L 2541 1153 
L 1306 1153 
L 1025 0 
L 103 0 
L 1363 4666 
z
" transform="scale(0.015625)"/>
      <path id="DejaVuSansMono-Bold-6c" d="M 1209 1459 
L 1209 4159 
L 281 4159 
L 281 4863 
L 2125 4863 
L 2125 1459 
Q 2125 1047 2253 875 
Q 2381 703 2688 703 
L 3419 703 
L 3419 0 
L 2431 0 
Q 1778 0 1493 337 
Q 1209 675 1209 1459 
z
" transform="scale(0.015625)"/>
      <path id="DejaVuSansMono-Bold-79" d="M 2222 -378 
Q 2038 -872 1780 -1098 
Q 1522 -1325 1153 -1325 
L 397 -1325 
L 397 -628 
L 769 -628 
Q 1050 -628 1181 -533 
Q 1313 -438 1447 -91 
L 1516 97 
L 184 3500 
L 1147 3500 
L 1947 1228 
L 2713 3500 
L 3675 3500 
L 2222 -378 
z
" transform="scale(0.015625)"/>
     </defs>
     <use xlink:href="#DejaVuSansMono-Bold-50"/>
     <use xlink:href="#DejaVuSansMono-Bold-72" transform="translate(60.205078 0)"/>
     <use xlink:href="#DejaVuSansMono-Bold-6f" transform="translate(120.410156 0)"/>
     <use xlink:href="#DejaVuSansMono-Bold-6a" transform="translate(180.615234 0)"/>
     <use xlink:href="#DejaVuSansMono-Bold-65" transform="translate(240.820312 0)"/>
     <use xlink:href="#DejaVuSansMono-Bold-63" transform="translate(301.025391 0)"/>
     <use xlink:href="#DejaVuSansMono-Bold-74" transform="translate(361.230469 0)"/>
     <use xlink:href="#DejaVuSansMono-Bold-20" transform="translate(421.435547 0)"/>
     <use xlink:href="#DejaVuSansMono-Bold-49" transform="translate(481.640625 0)"/>
     <use xlink:href="#DejaVuSansMono-Bold-6e" transform="translate(541.845703 0)"/>
     <use xlink:href="#DejaVuSansMono-Bold-69" transform="translate(602.050781 0)"/>
     <use xlink:href="#DejaVuSansMono-Bold-74" transform="translate(662.255859 0)"/>
     <use xlink:href="#DejaVuSansMono-Bold-69" transform="translate(722.460938 0)"/>
     <use xlink:href="#DejaVuSansMono-Bold-61" transform="translate(782.666016 0)"/>
     <use xlink:href="#DejaVuSansMono-Bold-74" transform="translate(842.871094 0)"/>
     <use xlink:href="#DejaVuSansMono-Bold-69" transform="translate(903.076172 0)"/>
     <use xlink:href="#DejaVuSansMono-Bold-6f" transform="translate(963.28125 0)"/>
     <use xlink:href="#DejaVuSansMono-Bold-6e" transform="translate(1023.486328 0)"/>
     <use xlink:href="#DejaVuSansMono-Bold-20" transform="translate(1083.691406 0)"/>
     <use xlink:href="#DejaVuSansMono-Bold-26" transform="translate(1143.896484 0)"/>
     <use xlink:href="#DejaVuSansMono-Bold-20" transform="translate(1204.101562 0)"/>
     <use xlink:href="#DejaVuSansMono-Bold-41" transform="translate(1264.306641 0)"/>
     <use xlink:href="#DejaVuSansMono-Bold-6e" transform="translate(1324.511719 0)"/>
     <use xlink:href="#DejaVuSansMono-Bold-61" transform="translate(1384.716797 0)"/>
     <use xlink:href="#DejaVuSansMono-Bold-6c" transform="translate(1444.921875 0)"/>
     <use xlink:href="#DejaVuSansMono-Bold-79" transform="translate(1505.126953 0)"/>
     <use xlink:href="#DejaVuSansMono-Bold-73" transform="translate(1565.332031 0)"/>
     <use xlink:href="#DejaVuSansMono-Bold-69" transform="translate(1625.537109 0)"/>
     <use xlink:href="#DejaVuSansMono-Bold-73" transform="translate(1685.742188 0)"/>
    </g>
   </g>
   <g id="text_3">
    <g id="patch_37">
     <path d="M 1114 246.766198 
L 1258.4875 246.766198 
Q 1263.4875 246.766198 1263.4875 241.766198 
L 1263.4875 231.556823 
Q 1263.4875 226.556823 1258.4875 226.556823 
L 1114 226.556823 
Q 1109 226.556823 1109 231.556823 
L 1109 241.766198 
Q 1109 246.766198 1114 246.766198 
z
" style="fill: #ffffff; stroke: #000000; stroke-linejoin: miter"/>
    </g>
    <!-- Kick-off &amp; Project Setup -->
    <g transform="translate(1114 239.68651) scale(0.1 -0.1)">
     <defs>
      <path id="DejaVuSansMono-Bold-4b" d="M 366 4666 
L 1288 4666 
L 1288 2822 
L 2731 4666 
L 3775 4666 
L 2303 2828 
L 3828 0 
L 2803 0 
L 1697 2100 
L 1288 1581 
L 1288 0 
L 366 0 
L 366 4666 
z
" transform="scale(0.015625)"/>
      <path id="DejaVuSansMono-Bold-6b" d="M 544 4863 
L 1459 4863 
L 1459 2309 
L 2559 3500 
L 3669 3500 
L 2344 2194 
L 3744 0 
L 2731 0 
L 1772 1638 
L 1459 1338 
L 1459 0 
L 544 0 
L 544 4863 
z
" transform="scale(0.015625)"/>
      <path id="DejaVuSansMono-Bold-2d" d="M 941 2297 
L 2913 2297 
L 2913 1388 
L 941 1388 
L 941 2297 
z
" transform="scale(0.015625)"/>
      <path id="DejaVuSansMono-Bold-66" d="M 2309 3806 
L 2309 3500 
L 3384 3500 
L 3384 2797 
L 2309 2797 
L 2309 0 
L 1394 0 
L 1394 2797 
L 544 2797 
L 544 3500 
L 1394 3500 
L 1394 3744 
Q 1394 4375 1656 4619 
Q 1919 4863 2631 4863 
L 3384 4863 
L 3384 4159 
L 2669 4159 
Q 2463 4159 2389 4084 
Q 2316 4009 2309 3806 
z
" transform="scale(0.015625)"/>
      <path id="DejaVuSansMono-Bold-53" d="M 1594 2047 
Q 897 2313 650 2605 
Q 403 2897 403 3391 
Q 403 4025 809 4387 
Q 1216 4750 1925 4750 
Q 2247 4750 2569 4676 
Q 2891 4603 3206 4459 
L 3206 3559 
Q 2909 3769 2603 3878 
Q 2297 3988 1997 3988 
Q 1663 3988 1484 3853 
Q 1306 3719 1306 3469 
Q 1306 3275 1436 3148 
Q 1566 3022 1978 2869 
L 2375 2719 
Q 2938 2513 3203 2172 
Q 3469 1831 3469 1313 
Q 3469 606 3051 257 
Q 2634 -91 1791 -91 
Q 1444 -91 1095 -8 
Q 747 75 422 238 
L 422 1191 
Q 791 928 1136 800 
Q 1481 672 1819 672 
Q 2159 672 2346 826 
Q 2534 981 2534 1259 
Q 2534 1469 2409 1626 
Q 2284 1784 2047 1875 
L 1594 2047 
z
" transform="scale(0.015625)"/>
      <path id="DejaVuSansMono-Bold-75" d="M 500 1222 
L 500 3500 
L 1416 3500 
L 1416 1363 
Q 1416 984 1522 821 
Q 1628 659 1875 659 
Q 2122 659 2261 878 
Q 2400 1097 2400 1491 
L 2400 3500 
L 3316 3500 
L 3316 0 
L 2400 0 
L 2400 519 
Q 2303 228 2070 68 
Q 1838 -91 1509 -91 
Q 1009 -91 754 240 
Q 500 572 500 1222 
z
" transform="scale(0.015625)"/>
      <path id="DejaVuSansMono-Bold-70" d="M 1381 494 
L 1381 -1331 
L 469 -1331 
L 469 3500 
L 1381 3500 
L 1381 2975 
Q 1525 3278 1759 3431 
Q 1994 3584 2309 3584 
Q 2909 3584 3240 3103 
Q 3572 2622 3572 1747 
Q 3572 859 3236 384 
Q 2900 -91 2278 -91 
Q 1997 -91 1773 54 
Q 1550 200 1381 494 
z
M 2656 1753 
Q 2656 2259 2487 2546 
Q 2319 2834 2022 2834 
Q 1725 2834 1553 2546 
Q 1381 2259 1381 1753 
Q 1381 1247 1553 959 
Q 1725 672 2022 672 
Q 2319 672 2487 959 
Q 2656 1247 2656 1753 
z
" transform="scale(0.015625)"/>
     </defs>
     <use xlink:href="#DejaVuSansMono-Bold-4b"/>
     <use xlink:href="#DejaVuSansMono-Bold-69" transform="translate(60.205078 0)"/>
     <use xlink:href="#DejaVuSansMono-Bold-63" transform="translate(120.410156 0)"/>
     <use xlink:href="#DejaVuSansMono-Bold-6b" transform="translate(180.615234 0)"/>
     <use xlink:href="#DejaVuSansMono-Bold-2d" transform="translate(240.820312 0)"/>
     <use xlink:href="#DejaVuSansMono-Bold-6f" transform="translate(301.025391 0)"/>
     <use xlink:href="#DejaVuSansMono-Bold-66" transform="translate(361.230469 0)"/>
     <use xlink:href="#DejaVuSansMono-Bold-66" transform="translate(421.435547 0)"/>
     <use xlink:href="#DejaVuSansMono-Bold-20" transform="translate(481.640625 0)"/>
     <use xlink:href="#DejaVuSansMono-Bold-26" transform="translate(541.845703 0)"/>
     <use xlink:href="#DejaVuSansMono-Bold-20" transform="translate(602.050781 0)"/>
     <use xlink:href="#DejaVuSansMono-Bold-50" transform="translate(662.255859 0)"/>
     <use xlink:href="#DejaVuSansMono-Bold-72" transform="translate(722.460938 0)"/>
     <use xlink:href="#DejaVuSansMono-Bold-6f" transform="translate(782.666016 0)"/>
     <use xlink:href="#DejaVuSansMono-Bold-6a" transform="translate(842.871094 0)"/>
     <use xlink:href="#DejaVuSansMono-Bold-65" transform="translate(903.076172 0)"/>
     <use xlink:href="#DejaVuSansMono-Bold-63" transform="translate(963.28125 0)"/>
     <use xlink:href="#DejaVuSansMono-Bold-74" transform="translate(1023.486328 0)"/>
     <use xlink:href="#DejaVuSansMono-Bold-20" transform="translate(1083.691406 0)"/>
     <use xlink:href="#DejaVuSansMono-Bold-53" transform="translate(1143.896484 0)"/>
     <use xlink:href="#DejaVuSansMono-Bold-65" transform="translate(1204.101562 0)"/>
     <use xlink:href="#DejaVuSansMono-Bold-74" transform="translate(1264.306641 0)"/>
     <use xlink:href="#DejaVuSansMono-Bold-75" transform="translate(1324.511719 0)"/>
     <use xlink:href="#DejaVuSansMono-Bold-70" transform="translate(1384.716797 0)"/>
    </g>
   </g>
   <g id="text_4">
    <g id="patch_38">
     <path d="M 1114 308.483821 
L 1276.548438 308.483821 
Q 1281.548438 308.483821 1281.548438 303.483821 
L 1281.548438 293.283821 
Q 1281.548438 288.283821 1276.548438 288.283821 
L 1114 288.283821 
Q 1109 288.283821 1109 293.283821 
L 1109 303.483821 
Q 1109 308.483821 1114 308.483821 
z
" style="fill: #ffffff; stroke: #000000; stroke-linejoin: miter"/>
    </g>
    <!-- Process &amp; Workflow Analysis -->
    <g transform="translate(1114 301.404134) scale(0.1 -0.1)">
     <defs>
      <path id="DejaVuSansMono-Bold-57" d="M 0 4666 
L 806 4666 
L 1141 1241 
L 1544 3456 
L 2309 3456 
L 2778 1241 
L 3041 4666 
L 3853 4666 
L 3316 0 
L 2456 0 
L 1925 2450 
L 1428 0 
L 575 0 
L 0 4666 
z
" transform="scale(0.015625)"/>
     </defs>
     <use xlink:href="#DejaVuSansMono-Bold-50"/>
     <use xlink:href="#DejaVuSansMono-Bold-72" transform="translate(60.205078 0)"/>
     <use xlink:href="#DejaVuSansMono-Bold-6f" transform="translate(120.410156 0)"/>
     <use xlink:href="#DejaVuSansMono-Bold-63" transform="translate(180.615234 0)"/>
     <use xlink:href="#DejaVuSansMono-Bold-65" transform="translate(240.820312 0)"/>
     <use xlink:href="#DejaVuSansMono-Bold-73" transform="translate(301.025391 0)"/>
     <use xlink:href="#DejaVuSansMono-Bold-73" transform="translate(361.230469 0)"/>
     <use xlink:href="#DejaVuSansMono-Bold-20" transform="translate(421.435547 0)"/>
     <use xlink:href="#DejaVuSansMono-Bold-26" transform="translate(481.640625 0)"/>
     <use xlink:href="#DejaVuSansMono-Bold-20" transform="translate(541.845703 0)"/>
     <use xlink:href="#DejaVuSansMono-Bold-57" transform="translate(602.050781 0)"/>
     <use xlink:href="#DejaVuSansMono-Bold-6f" transform="translate(662.255859 0)"/>
     <use xlink:href="#DejaVuSansMono-Bold-72" transform="translate(722.460938 0)"/>
     <use xlink:href="#DejaVuSansMono-Bold-6b" transform="translate(782.666016 0)"/>
     <use xlink:href="#DejaVuSansMono-Bold-66" transform="translate(842.871094 0)"/>
     <use xlink:href="#DejaVuSansMono-Bold-6c" transform="translate(903.076172 0)"/>
     <use xlink:href="#DejaVuSansMono-Bold-6f" transform="translate(963.28125 0)"/>
     <use xlink:href="#DejaVuSansMono-Bold-77" transform="translate(1023.486328 0)"/>
     <use xlink:href="#DejaVuSansMono-Bold-20" transform="translate(1083.691406 0)"/>
     <use xlink:href="#DejaVuSansMono-Bold-41" transform="translate(1143.896484 0)"/>
     <use xlink:href="#DejaVuSansMono-Bold-6e" transform="translate(1204.101562 0)"/>
     <use xlink:href="#DejaVuSansMono-Bold-61" transform="translate(1264.306641 0)"/>
     <use xlink:href="#DejaVuSansMono-Bold-6c" transform="translate(1324.511719 0)"/>
     <use xlink:href="#DejaVuSansMono-Bold-79" transform="translate(1384.716797 0)"/>
     <use xlink:href="#DejaVuSansMono-Bold-73" transform="translate(1444.921875 0)"/>
     <use xlink:href="#DejaVuSansMono-Bold-69" transform="translate(1505.126953 0)"/>
     <use xlink:href="#DejaVuSansMono-Bold-73" transform="translate(1565.332031 0)"/>
    </g>
   </g>
   <g id="text_5">
    <g id="patch_39">
     <path d="M 1114 370.21082 
L 1252.467187 370.21082 
Q 1257.467187 370.21082 1257.467187 365.21082 
L 1257.467187 355.001445 
Q 1257.467187 350.001445 1252.467187 350.001445 
L 1114 350.001445 
Q 1109 350.001445 1109 355.001445 
L 1109 365.21082 
Q 1109 370.21082 1114 370.21082 
z
" style="fill: #ffffff; stroke: #000000; stroke-linejoin: miter"/>
    </g>
    <!-- Requirements Definition -->
    <g transform="translate(1114 363.131133) scale(0.1 -0.1)">
     <defs>
      <path id="DejaVuSansMono-Bold-52" d="M 2522 2203 
Q 2659 2175 2761 2073 
Q 2863 1972 3009 1678 
L 3853 0 
L 2841 0 
L 2278 1178 
Q 2253 1228 2213 1316 
Q 1966 1844 1631 1844 
L 1338 1844 
L 1338 0 
L 416 0 
L 416 4666 
L 1747 4666 
Q 2647 4666 3039 4347 
Q 3431 4028 3431 3309 
Q 3431 2828 3197 2543 
Q 2963 2259 2522 2203 
z
M 1338 3891 
L 1338 2619 
L 1772 2619 
Q 2150 2619 2314 2767 
Q 2478 2916 2478 3256 
Q 2478 3597 2315 3744 
Q 2153 3891 1772 3891 
L 1338 3891 
z
" transform="scale(0.015625)"/>
      <path id="DejaVuSansMono-Bold-71" d="M 1197 1753 
Q 1197 1247 1365 959 
Q 1534 672 1831 672 
Q 2128 672 2300 959 
Q 2472 1247 2472 1753 
Q 2472 2259 2300 2546 
Q 2128 2834 1831 2834 
Q 1534 2834 1365 2546 
Q 1197 2259 1197 1753 
z
M 2472 494 
Q 2303 200 2079 54 
Q 1856 -91 1575 -91 
Q 953 -91 617 384 
Q 281 859 281 1747 
Q 281 2622 612 3103 
Q 944 3584 1544 3584 
Q 1859 3584 2092 3431 
Q 2325 3278 2472 2975 
L 2472 3500 
L 3384 3500 
L 3384 -1331 
L 2472 -1331 
L 2472 494 
z
" transform="scale(0.015625)"/>
      <path id="DejaVuSansMono-Bold-6d" d="M 2156 3150 
Q 2259 3372 2418 3478 
Q 2578 3584 2809 3584 
Q 3263 3584 3436 3271 
Q 3609 2959 3609 1972 
L 3609 0 
L 2859 0 
L 2859 2247 
Q 2859 2638 2800 2769 
Q 2741 2900 2584 2900 
Q 2428 2900 2365 2765 
Q 2303 2631 2303 2247 
L 2303 0 
L 1563 0 
L 1563 2247 
Q 1563 2631 1500 2765 
Q 1438 2900 1281 2900 
Q 1125 2900 1065 2769 
Q 1006 2638 1006 2247 
L 1006 0 
L 256 0 
L 256 3500 
L 922 3500 
L 922 3138 
Q 1000 3344 1172 3464 
Q 1344 3584 1556 3584 
Q 1769 3584 1944 3457 
Q 2119 3331 2156 3150 
z
" transform="scale(0.015625)"/>
      <path id="DejaVuSansMono-Bold-44" d="M 1350 3834 
L 1350 831 
L 1600 831 
Q 2144 831 2375 1173 
Q 2606 1516 2606 2338 
Q 2606 3153 2375 3493 
Q 2144 3834 1600 3834 
L 1350 3834 
z
M 428 4666 
L 1416 4666 
Q 2559 4666 3062 4120 
Q 3566 3575 3566 2338 
Q 3566 1097 3062 548 
Q 2559 0 1416 0 
L 428 0 
L 428 4666 
z
" transform="scale(0.015625)"/>
     </defs>
     <use xlink:href="#DejaVuSansMono-Bold-52"/>
     <use xlink:href="#DejaVuSansMono-Bold-65" transform="translate(60.205078 0)"/>
     <use xlink:href="#DejaVuSansMono-Bold-71" transform="translate(120.410156 0)"/>
     <use xlink:href="#DejaVuSansMono-Bold-75" transform="translate(180.615234 0)"/>
     <use xlink:href="#DejaVuSansMono-Bold-69" transform="translate(240.820312 0)"/>
     <use xlink:href="#DejaVuSansMono-Bold-72" transform="translate(301.025391 0)"/>
     <use xlink:href="#DejaVuSansMono-Bold-65" transform="translate(361.230469 0)"/>
     <use xlink:href="#DejaVuSansMono-Bold-6d" transform="translate(421.435547 0)"/>
     <use xlink:href="#DejaVuSansMono-Bold-65" transform="translate(481.640625 0)"/>
     <use xlink:href="#DejaVuSansMono-Bold-6e" transform="translate(541.845703 0)"/>
     <use xlink:href="#DejaVuSansMono-Bold-74" transform="translate(602.050781 0)"/>
     <use xlink:href="#DejaVuSansMono-Bold-73" transform="translate(662.255859 0)"/>
     <use xlink:href="#DejaVuSansMono-Bold-20" transform="translate(722.460938 0)"/>
     <use xlink:href="#DejaVuSansMono-Bold-44" transform="translate(782.666016 0)"/>
     <use xlink:href="#DejaVuSansMono-Bold-65" transform="translate(842.871094 0)"/>
     <use xlink:href="#DejaVuSansMono-Bold-66" transform="translate(903.076172 0)"/>
     <use xlink:href="#DejaVuSansMono-Bold-69" transform="translate(963.28125 0)"/>
     <use xlink:href="#DejaVuSansMono-Bold-6e" transform="translate(1023.486328 0)"/>
     <use xlink:href="#DejaVuSansMono-Bold-69" transform="translate(1083.691406 0)"/>
     <use xlink:href="#DejaVuSansMono-Bold-74" transform="translate(1143.896484 0)"/>
     <use xlink:href="#DejaVuSansMono-Bold-69" transform="translate(1204.101562 0)"/>
     <use xlink:href="#DejaVuSansMono-Bold-6f" transform="translate(1264.306641 0)"/>
     <use xlink:href="#DejaVuSansMono-Bold-6e" transform="translate(1324.511719 0)"/>
    </g>
   </g>
   <g id="text_6">
    <g id="patch_40">
     <path d="M 1114 431.928444 
L 1234.40625 431.928444 
Q 1239.40625 431.928444 1239.40625 426.928444 
L 1239.40625 416.728444 
Q 1239.40625 411.728444 1234.40625 411.728444 
L 1114 411.728444 
Q 1109 411.728444 1109 416.728444 
L 1109 426.928444 
Q 1109 431.928444 1114 431.928444 
z
" style="fill: #ffffff; stroke: #000000; stroke-linejoin: miter"/>
    </g>
    <!-- Risk &amp; Cost Analysis -->
    <g transform="translate(1114 424.848756) scale(0.1 -0.1)">
     <defs>
      <path id="DejaVuSansMono-Bold-43" d="M 3378 134 
Q 3159 22 2918 -34 
Q 2678 -91 2413 -91 
Q 1469 -91 972 531 
Q 475 1153 475 2328 
Q 475 3506 972 4128 
Q 1469 4750 2413 4750 
Q 2678 4750 2922 4694 
Q 3166 4638 3378 4525 
L 3378 3500 
Q 3141 3719 2917 3820 
Q 2694 3922 2456 3922 
Q 1950 3922 1692 3520 
Q 1434 3119 1434 2328 
Q 1434 1541 1692 1139 
Q 1950 738 2456 738 
Q 2694 738 2917 839 
Q 3141 941 3378 1159 
L 3378 134 
z
" transform="scale(0.015625)"/>
     </defs>
     <use xlink:href="#DejaVuSansMono-Bold-52"/>
     <use xlink:href="#DejaVuSansMono-Bold-69" transform="translate(60.205078 0)"/>
     <use xlink:href="#DejaVuSansMono-Bold-73" transform="translate(120.410156 0)"/>
     <use xlink:href="#DejaVuSansMono-Bold-6b" transform="translate(180.615234 0)"/>
     <use xlink:href="#DejaVuSansMono-Bold-20" transform="translate(240.820312 0)"/>
     <use xlink:href="#DejaVuSansMono-Bold-26" transform="translate(301.025391 0)"/>
     <use xlink:href="#DejaVuSansMono-Bold-20" transform="translate(361.230469 0)"/>
     <use xlink:href="#DejaVuSansMono-Bold-43" transform="translate(421.435547 0)"/>
     <use xlink:href="#DejaVuSansMono-Bold-6f" transform="translate(481.640625 0)"/>
     <use xlink:href="#DejaVuSansMono-Bold-73" transform="translate(541.845703 0)"/>
     <use xlink:href="#DejaVuSansMono-Bold-74" transform="translate(602.050781 0)"/>
     <use xlink:href="#DejaVuSansMono-Bold-20" transform="translate(662.255859 0)"/>
     <use xlink:href="#DejaVuSansMono-Bold-41" transform="translate(722.460938 0)"/>
     <use xlink:href="#DejaVuSansMono-Bold-6e" transform="translate(782.666016 0)"/>
     <use xlink:href="#DejaVuSansMono-Bold-61" transform="translate(842.871094 0)"/>
     <use xlink:href="#DejaVuSansMono-Bold-6c" transform="translate(903.076172 0)"/>
     <use xlink:href="#DejaVuSansMono-Bold-79" transform="translate(963.28125 0)"/>
     <use xlink:href="#DejaVuSansMono-Bold-73" transform="translate(1023.486328 0)"/>
     <use xlink:href="#DejaVuSansMono-Bold-69" transform="translate(1083.691406 0)"/>
     <use xlink:href="#DejaVuSansMono-Bold-73" transform="translate(1143.896484 0)"/>
    </g>
   </g>
   <g id="text_7">
    <g id="patch_41">
     <path d="M 699.756792 617.095378 
L 874.345854 617.095378 
Q 879.345854 617.095378 879.345854 612.095378 
L 879.345854 601.895378 
Q 879.345854 596.895378 874.345854 596.895378 
L 699.756792 596.895378 
Q 694.756792 596.895378 694.756792 601.895378 
L 694.756792 612.095378 
Q 694.756792 617.095378 699.756792 617.095378 
z
" style="fill: #ffffff; stroke: #000000; stroke-linejoin: miter"/>
    </g>
    <!-- Design, Planning &amp; Simulation -->
    <g transform="translate(699.756792 610.01569) scale(0.1 -0.1)">
     <defs>
      <path id="DejaVuSansMono-Bold-67" d="M 2509 1806 
Q 2509 2275 2331 2558 
Q 2153 2841 1863 2841 
Q 1575 2841 1398 2559 
Q 1222 2278 1222 1806 
Q 1222 1331 1398 1050 
Q 1575 769 1863 769 
Q 2153 769 2331 1051 
Q 2509 1334 2509 1806 
z
M 3425 263 
Q 3425 -578 3045 -951 
Q 2666 -1325 1813 -1325 
Q 1525 -1325 1244 -1283 
Q 963 -1241 672 -1153 
L 672 -313 
Q 931 -456 1200 -525 
Q 1469 -594 1753 -594 
Q 2141 -594 2325 -411 
Q 2509 -228 2509 159 
L 2509 538 
Q 2375 288 2153 166 
Q 1931 44 1613 44 
Q 1013 44 659 512 
Q 306 981 306 1784 
Q 306 2616 659 3103 
Q 1013 3591 1606 3591 
Q 1906 3591 2140 3450 
Q 2375 3309 2509 3053 
L 2509 3500 
L 3425 3500 
L 3425 263 
z
" transform="scale(0.015625)"/>
      <path id="DejaVuSansMono-Bold-2c" d="M 1441 1147 
L 2419 1147 
L 2419 300 
L 1806 -897 
L 1131 -897 
L 1441 300 
L 1441 1147 
z
" transform="scale(0.015625)"/>
     </defs>
     <use xlink:href="#DejaVuSansMono-Bold-44"/>
     <use xlink:href="#DejaVuSansMono-Bold-65" transform="translate(60.205078 0)"/>
     <use xlink:href="#DejaVuSansMono-Bold-73" transform="translate(120.410156 0)"/>
     <use xlink:href="#DejaVuSansMono-Bold-69" transform="translate(180.615234 0)"/>
     <use xlink:href="#DejaVuSansMono-Bold-67" transform="translate(240.820312 0)"/>
     <use xlink:href="#DejaVuSansMono-Bold-6e" transform="translate(301.025391 0)"/>
     <use xlink:href="#DejaVuSansMono-Bold-2c" transform="translate(361.230469 0)"/>
     <use xlink:href="#DejaVuSansMono-Bold-20" transform="translate(421.435547 0)"/>
     <use xlink:href="#DejaVuSansMono-Bold-50" transform="translate(481.640625 0)"/>
     <use xlink:href="#DejaVuSansMono-Bold-6c" transform="translate(541.845703 0)"/>
     <use xlink:href="#DejaVuSansMono-Bold-61" transform="translate(602.050781 0)"/>
     <use xlink:href="#DejaVuSansMono-Bold-6e" transform="translate(662.255859 0)"/>
     <use xlink:href="#DejaVuSansMono-Bold-6e" transform="translate(722.460938 0)"/>
     <use xlink:href="#DejaVuSansMono-Bold-69" transform="translate(782.666016 0)"/>
     <use xlink:href="#DejaVuSansMono-Bold-6e" transform="translate(842.871094 0)"/>
     <use xlink:href="#DejaVuSansMono-Bold-67" transform="translate(903.076172 0)"/>
     <use xlink:href="#DejaVuSansMono-Bold-20" transform="translate(963.28125 0)"/>
     <use xlink:href="#DejaVuSansMono-Bold-26" transform="translate(1023.486328 0)"/>
     <use xlink:href="#DejaVuSansMono-Bold-20" transform="translate(1083.691406 0)"/>
     <use xlink:href="#DejaVuSansMono-Bold-53" transform="translate(1143.896484 0)"/>
     <use xlink:href="#DejaVuSansMono-Bold-69" transform="translate(1204.101562 0)"/>
     <use xlink:href="#DejaVuSansMono-Bold-6d" transform="translate(1264.306641 0)"/>
     <use xlink:href="#DejaVuSansMono-Bold-75" transform="translate(1324.511719 0)"/>
     <use xlink:href="#DejaVuSansMono-Bold-6c" transform="translate(1384.716797 0)"/>
     <use xlink:href="#DejaVuSansMono-Bold-61" transform="translate(1444.921875 0)"/>
     <use xlink:href="#DejaVuSansMono-Bold-74" transform="translate(1505.126953 0)"/>
     <use xlink:href="#DejaVuSansMono-Bold-69" transform="translate(1565.332031 0)"/>
     <use xlink:href="#DejaVuSansMono-Bold-6f" transform="translate(1625.537109 0)"/>
     <use xlink:href="#DejaVuSansMono-Bold-6e" transform="translate(1685.742188 0)"/>
    </g>
   </g>
   <g id="text_8">
    <g id="patch_42">
     <path d="M 1114 493.650755 
L 1270.528125 493.650755 
Q 1275.528125 493.650755 1275.528125 488.650755 
L 1275.528125 478.450755 
Q 1275.528125 473.450755 1270.528125 473.450755 
L 1114 473.450755 
Q 1109 473.450755 1109 478.450755 
L 1109 488.650755 
Q 1109 493.650755 1114 493.650755 
z
" style="fill: #ffffff; stroke: #000000; stroke-linejoin: miter"/>
    </g>
    <!-- System Architecture Design -->
    <g transform="translate(1114 486.571068) scale(0.1 -0.1)">
     <defs>
      <path id="DejaVuSansMono-Bold-68" d="M 3347 2272 
L 3347 0 
L 2438 0 
L 2438 2131 
Q 2438 2509 2330 2671 
Q 2222 2834 1978 2834 
Q 1728 2834 1587 2614 
Q 1447 2394 1447 2003 
L 1447 0 
L 538 0 
L 538 4863 
L 1447 4863 
L 1447 2975 
Q 1544 3266 1778 3425 
Q 2013 3584 2344 3584 
Q 2841 3584 3094 3254 
Q 3347 2925 3347 2272 
z
" transform="scale(0.015625)"/>
     </defs>
     <use xlink:href="#DejaVuSansMono-Bold-53"/>
     <use xlink:href="#DejaVuSansMono-Bold-79" transform="translate(60.205078 0)"/>
     <use xlink:href="#DejaVuSansMono-Bold-73" transform="translate(120.410156 0)"/>
     <use xlink:href="#DejaVuSansMono-Bold-74" transform="translate(180.615234 0)"/>
     <use xlink:href="#DejaVuSansMono-Bold-65" transform="translate(240.820312 0)"/>
     <use xlink:href="#DejaVuSansMono-Bold-6d" transform="translate(301.025391 0)"/>
     <use xlink:href="#DejaVuSansMono-Bold-20" transform="translate(361.230469 0)"/>
     <use xlink:href="#DejaVuSansMono-Bold-41" transform="translate(421.435547 0)"/>
     <use xlink:href="#DejaVuSansMono-Bold-72" transform="translate(481.640625 0)"/>
     <use xlink:href="#DejaVuSansMono-Bold-63" transform="translate(541.845703 0)"/>
     <use xlink:href="#DejaVuSansMono-Bold-68" transform="translate(602.050781 0)"/>
     <use xlink:href="#DejaVuSansMono-Bold-69" transform="translate(662.255859 0)"/>
     <use xlink:href="#DejaVuSansMono-Bold-74" transform="translate(722.460938 0)"/>
     <use xlink:href="#DejaVuSansMono-Bold-65" transform="translate(782.666016 0)"/>
     <use xlink:href="#DejaVuSansMono-Bold-63" transform="translate(842.871094 0)"/>
     <use xlink:href="#DejaVuSansMono-Bold-74" transform="translate(903.076172 0)"/>
     <use xlink:href="#DejaVuSansMono-Bold-75" transform="translate(963.28125 0)"/>
     <use xlink:href="#DejaVuSansMono-Bold-72" transform="translate(1023.486328 0)"/>
     <use xlink:href="#DejaVuSansMono-Bold-65" transform="translate(1083.691406 0)"/>
     <use xlink:href="#DejaVuSansMono-Bold-20" transform="translate(1143.896484 0)"/>
     <use xlink:href="#DejaVuSansMono-Bold-44" transform="translate(1204.101562 0)"/>
     <use xlink:href="#DejaVuSansMono-Bold-65" transform="translate(1264.306641 0)"/>
     <use xlink:href="#DejaVuSansMono-Bold-73" transform="translate(1324.511719 0)"/>
     <use xlink:href="#DejaVuSansMono-Bold-69" transform="translate(1384.716797 0)"/>
     <use xlink:href="#DejaVuSansMono-Bold-67" transform="translate(1444.921875 0)"/>
     <use xlink:href="#DejaVuSansMono-Bold-6e" transform="translate(1505.126953 0)"/>
    </g>
   </g>
   <g id="text_9">
    <g id="patch_43">
     <path d="M 1114 555.373066 
L 1264.507812 555.373066 
Q 1269.507812 555.373066 1269.507812 550.373066 
L 1269.507812 540.173066 
Q 1269.507812 535.173066 1264.507812 535.173066 
L 1114 535.173066 
Q 1109 535.173066 1109 540.173066 
L 1109 550.373066 
Q 1109 555.373066 1114 555.373066 
z
" style="fill: #ffffff; stroke: #000000; stroke-linejoin: miter"/>
    </g>
    <!-- Simulation &amp; Digital Twin -->
    <g transform="translate(1114 548.293379) scale(0.1 -0.1)">
     <defs>
      <path id="DejaVuSansMono-Bold-54" d="M 2388 0 
L 1466 0 
L 1466 3859 
L 281 3859 
L 281 4666 
L 3572 4666 
L 3572 3859 
L 2388 3859 
L 2388 0 
z
" transform="scale(0.015625)"/>
     </defs>
     <use xlink:href="#DejaVuSansMono-Bold-53"/>
     <use xlink:href="#DejaVuSansMono-Bold-69" transform="translate(60.205078 0)"/>
     <use xlink:href="#DejaVuSansMono-Bold-6d" transform="translate(120.410156 0)"/>
     <use xlink:href="#DejaVuSansMono-Bold-75" transform="translate(180.615234 0)"/>
     <use xlink:href="#DejaVuSansMono-Bold-6c" transform="translate(240.820312 0)"/>
     <use xlink:href="#DejaVuSansMono-Bold-61" transform="translate(301.025391 0)"/>
     <use xlink:href="#DejaVuSansMono-Bold-74" transform="translate(361.230469 0)"/>
     <use xlink:href="#DejaVuSansMono-Bold-69" transform="translate(421.435547 0)"/>
     <use xlink:href="#DejaVuSansMono-Bold-6f" transform="translate(481.640625 0)"/>
     <use xlink:href="#DejaVuSansMono-Bold-6e" transform="translate(541.845703 0)"/>
     <use xlink:href="#DejaVuSansMono-Bold-20" transform="translate(602.050781 0)"/>
     <use xlink:href="#DejaVuSansMono-Bold-26" transform="translate(662.255859 0)"/>
     <use xlink:href="#DejaVuSansMono-Bold-20" transform="translate(722.460938 0)"/>
     <use xlink:href="#DejaVuSansMono-Bold-44" transform="translate(782.666016 0)"/>
     <use xlink:href="#DejaVuSansMono-Bold-69" transform="translate(842.871094 0)"/>
     <use xlink:href="#DejaVuSansMono-Bold-67" transform="translate(903.076172 0)"/>
     <use xlink:href="#DejaVuSansMono-Bold-69" transform="translate(963.28125 0)"/>
     <use xlink:href="#DejaVuSansMono-Bold-74" transform="translate(1023.486328 0)"/>
     <use xlink:href="#DejaVuSansMono-Bold-61" transform="translate(1083.691406 0)"/>
     <use xlink:href="#DejaVuSansMono-Bold-6c" transform="translate(1143.896484 0)"/>
     <use xlink:href="#DejaVuSansMono-Bold-20" transform="translate(1204.101562 0)"/>
     <use xlink:href="#DejaVuSansMono-Bold-54" transform="translate(1264.306641 0)"/>
     <use xlink:href="#DejaVuSansMono-Bold-77" transform="translate(1324.511719 0)"/>
     <use xlink:href="#DejaVuSansMono-Bold-69" transform="translate(1384.716797 0)"/>
     <use xlink:href="#DejaVuSansMono-Bold-6e" transform="translate(1444.921875 0)"/>
    </g>
   </g>
   <g id="text_10">
    <g id="patch_44">
     <path d="M 1114 617.095378 
L 1240.426563 617.095378 
Q 1245.426563 617.095378 1245.426563 612.095378 
L 1245.426563 601.895378 
Q 1245.426563 596.895378 1240.426563 596.895378 
L 1114 596.895378 
Q 1109 596.895378 1109 601.895378 
L 1109 612.095378 
Q 1109 617.095378 1114 617.095378 
z
" style="fill: #ffffff; stroke: #000000; stroke-linejoin: miter"/>
    </g>
    <!-- Planning &amp; Scheduling -->
    <g transform="translate(1114 610.01569) scale(0.1 -0.1)">
     <defs>
      <path id="DejaVuSansMono-Bold-64" d="M 2472 3003 
L 2472 4863 
L 3384 4863 
L 3384 0 
L 2472 0 
L 2472 519 
Q 2325 216 2092 62 
Q 1859 -91 1544 -91 
Q 944 -91 612 390 
Q 281 872 281 1747 
Q 281 2634 617 3109 
Q 953 3584 1575 3584 
Q 1856 3584 2079 3439 
Q 2303 3294 2472 3003 
z
M 1197 1741 
Q 1197 1234 1365 946 
Q 1534 659 1831 659 
Q 2128 659 2300 946 
Q 2472 1234 2472 1741 
Q 2472 2247 2300 2534 
Q 2128 2822 1831 2822 
Q 1534 2822 1365 2534 
Q 1197 2247 1197 1741 
z
" transform="scale(0.015625)"/>
     </defs>
     <use xlink:href="#DejaVuSansMono-Bold-50"/>
     <use xlink:href="#DejaVuSansMono-Bold-6c" transform="translate(60.205078 0)"/>
     <use xlink:href="#DejaVuSansMono-Bold-61" transform="translate(120.410156 0)"/>
     <use xlink:href="#DejaVuSansMono-Bold-6e" transform="translate(180.615234 0)"/>
     <use xlink:href="#DejaVuSansMono-Bold-6e" transform="translate(240.820312 0)"/>
     <use xlink:href="#DejaVuSansMono-Bold-69" transform="translate(301.025391 0)"/>
     <use xlink:href="#DejaVuSansMono-Bold-6e" transform="translate(361.230469 0)"/>
     <use xlink:href="#DejaVuSansMono-Bold-67" transform="translate(421.435547 0)"/>
     <use xlink:href="#DejaVuSansMono-Bold-20" transform="translate(481.640625 0)"/>
     <use xlink:href="#DejaVuSansMono-Bold-26" transform="translate(541.845703 0)"/>
     <use xlink:href="#DejaVuSansMono-Bold-20" transform="translate(602.050781 0)"/>
     <use xlink:href="#DejaVuSansMono-Bold-53" transform="translate(662.255859 0)"/>
     <use xlink:href="#DejaVuSansMono-Bold-63" transform="translate(722.460938 0)"/>
     <use xlink:href="#DejaVuSansMono-Bold-68" transform="translate(782.666016 0)"/>
     <use xlink:href="#DejaVuSansMono-Bold-65" transform="translate(842.871094 0)"/>
     <use xlink:href="#DejaVuSansMono-Bold-64" transform="translate(903.076172 0)"/>
     <use xlink:href="#DejaVuSansMono-Bold-75" transform="translate(963.28125 0)"/>
     <use xlink:href="#DejaVuSansMono-Bold-6c" transform="translate(1023.486328 0)"/>
     <use xlink:href="#DejaVuSansMono-Bold-69" transform="translate(1083.691406 0)"/>
     <use xlink:href="#DejaVuSansMono-Bold-6e" transform="translate(1143.896484 0)"/>
     <use xlink:href="#DejaVuSansMono-Bold-67" transform="translate(1204.101562 0)"/>
    </g>
   </g>
   <g id="text_11">
    <g id="patch_45">
     <path d="M 1114 678.817689 
L 1192.264062 678.817689 
Q 1197.264062 678.817689 1197.264062 673.817689 
L 1197.264062 663.617689 
Q 1197.264062 658.617689 1192.264062 658.617689 
L 1114 658.617689 
Q 1109 658.617689 1109 663.617689 
L 1109 673.817689 
Q 1109 678.817689 1114 678.817689 
z
" style="fill: #ffffff; stroke: #000000; stroke-linejoin: miter"/>
    </g>
    <!-- Design Review -->
    <g transform="translate(1114 671.738001) scale(0.1 -0.1)">
     <defs>
      <path id="DejaVuSansMono-Bold-76" d="M 3603 3500 
L 2491 0 
L 1363 0 
L 250 3500 
L 1178 3500 
L 1925 769 
L 2675 3500 
L 3603 3500 
z
" transform="scale(0.015625)"/>
     </defs>
     <use xlink:href="#DejaVuSansMono-Bold-44"/>
     <use xlink:href="#DejaVuSansMono-Bold-65" transform="translate(60.205078 0)"/>
     <use xlink:href="#DejaVuSansMono-Bold-73" transform="translate(120.410156 0)"/>
     <use xlink:href="#DejaVuSansMono-Bold-69" transform="translate(180.615234 0)"/>
     <use xlink:href="#DejaVuSansMono-Bold-67" transform="translate(240.820312 0)"/>
     <use xlink:href="#DejaVuSansMono-Bold-6e" transform="translate(301.025391 0)"/>
     <use xlink:href="#DejaVuSansMono-Bold-20" transform="translate(361.230469 0)"/>
     <use xlink:href="#DejaVuSansMono-Bold-52" transform="translate(421.435547 0)"/>
     <use xlink:href="#DejaVuSansMono-Bold-65" transform="translate(481.640625 0)"/>
     <use xlink:href="#DejaVuSansMono-Bold-76" transform="translate(541.845703 0)"/>
     <use xlink:href="#DejaVuSansMono-Bold-69" transform="translate(602.050781 0)"/>
     <use xlink:href="#DejaVuSansMono-Bold-65" transform="translate(662.255859 0)"/>
     <use xlink:href="#DejaVuSansMono-Bold-77" transform="translate(722.460938 0)"/>
    </g>
   </g>
   <g id="text_12">
    <g id="patch_46">
     <path d="M 699.756792 802.266999 
L 886.386479 802.266999 
Q 891.386479 802.266999 891.386479 797.266999 
L 891.386479 787.057624 
Q 891.386479 782.057624 886.386479 782.057624 
L 699.756792 782.057624 
Q 694.756792 782.057624 694.756792 787.057624 
L 694.756792 797.266999 
Q 694.756792 802.266999 699.756792 802.266999 
z
" style="fill: #ffffff; stroke: #000000; stroke-linejoin: miter"/>
    </g>
    <!-- Prototype Development &amp; Testing -->
    <g transform="translate(699.756792 795.187311) scale(0.1 -0.1)">
     <use xlink:href="#DejaVuSansMono-Bold-50"/>
     <use xlink:href="#DejaVuSansMono-Bold-72" transform="translate(60.205078 0)"/>
     <use xlink:href="#DejaVuSansMono-Bold-6f" transform="translate(120.410156 0)"/>
     <use xlink:href="#DejaVuSansMono-Bold-74" transform="translate(180.615234 0)"/>
     <use xlink:href="#DejaVuSansMono-Bold-6f" transform="translate(240.820312 0)"/>
     <use xlink:href="#DejaVuSansMono-Bold-74" transform="translate(301.025391 0)"/>
     <use xlink:href="#DejaVuSansMono-Bold-79" transform="translate(361.230469 0)"/>
     <use xlink:href="#DejaVuSansMono-Bold-70" transform="translate(421.435547 0)"/>
     <use xlink:href="#DejaVuSansMono-Bold-65" transform="translate(481.640625 0)"/>
     <use xlink:href="#DejaVuSansMono-Bold-20" transform="translate(541.845703 0)"/>
     <use xlink:href="#DejaVuSansMono-Bold-44" transform="translate(602.050781 0)"/>
     <use xlink:href="#DejaVuSansMono-Bold-65" transform="translate(662.255859 0)"/>
     <use xlink:href="#DejaVuSansMono-Bold-76" transform="translate(722.460938 0)"/>
     <use xlink:href="#DejaVuSansMono-Bold-65" transform="translate(782.666016 0)"/>
     <use xlink:href="#DejaVuSansMono-Bold-6c" transform="translate(842.871094 0)"/>
     <use xlink:href="#DejaVuSansMono-Bold-6f" transform="translate(903.076172 0)"/>
     <use xlink:href="#DejaVuSansMono-Bold-70" transform="translate(963.28125 0)"/>
     <use xlink:href="#DejaVuSansMono-Bold-6d" transform="translate(1023.486328 0)"/>
     <use xlink:href="#DejaVuSansMono-Bold-65" transform="translate(1083.691406 0)"/>
     <use xlink:href="#DejaVuSansMono-Bold-6e" transform="translate(1143.896484 0)"/>
     <use xlink:href="#DejaVuSansMono-Bold-74" transform="translate(1204.101562 0)"/>
     <use xlink:href="#DejaVuSansMono-Bold-20" transform="translate(1264.306641 0)"/>
     <use xlink:href="#DejaVuSansMono-Bold-26" transform="translate(1324.511719 0)"/>
     <use xlink:href="#DejaVuSansMono-Bold-20" transform="translate(1384.716797 0)"/>
     <use xlink:href="#DejaVuSansMono-Bold-54" transform="translate(1444.921875 0)"/>
     <use xlink:href="#DejaVuSansMono-Bold-65" transform="translate(1505.126953 0)"/>
     <use xlink:href="#DejaVuSansMono-Bold-73" transform="translate(1565.332031 0)"/>
     <use xlink:href="#DejaVuSansMono-Bold-74" transform="translate(1625.537109 0)"/>
     <use xlink:href="#DejaVuSansMono-Bold-69" transform="translate(1685.742188 0)"/>
     <use xlink:href="#DejaVuSansMono-Bold-6e" transform="translate(1745.947266 0)"/>
     <use xlink:href="#DejaVuSansMono-Bold-67" transform="translate(1806.152344 0)"/>
    </g>
   </g>
   <g id="text_13">
    <g id="patch_47">
     <path d="M 1114 740.544688 
L 1204.304688 740.544688 
Q 1209.304688 740.544688 1209.304688 735.544688 
L 1209.304688 725.335312 
Q 1209.304688 720.335312 1204.304688 720.335312 
L 1114 720.335312 
Q 1109 720.335312 1109 725.335312 
L 1109 735.544688 
Q 1109 740.544688 1114 740.544688 
z
" style="fill: #ffffff; stroke: #000000; stroke-linejoin: miter"/>
    </g>
    <!-- Prototype Build -->
    <g transform="translate(1114 733.465) scale(0.1 -0.1)">
     <defs>
      <path id="DejaVuSansMono-Bold-42" d="M 1281 2119 
L 1281 738 
L 1894 738 
Q 2334 738 2511 888 
Q 2688 1038 2688 1409 
Q 2688 1788 2503 1953 
Q 2319 2119 1894 2119 
L 1281 2119 
z
M 1281 3938 
L 1281 2853 
L 1894 2853 
Q 2244 2853 2392 2978 
Q 2541 3103 2541 3391 
Q 2541 3678 2389 3808 
Q 2238 3938 1894 3938 
L 1281 3938 
z
M 391 4672 
L 1894 4672 
Q 2672 4672 3064 4376 
Q 3456 4081 3456 3494 
Q 3456 3044 3225 2791 
Q 2994 2538 2547 2497 
Q 3081 2444 3351 2137 
Q 3622 1831 3622 1281 
Q 3622 606 3215 303 
Q 2809 0 1894 0 
L 391 0 
L 391 4672 
z
" transform="scale(0.015625)"/>
     </defs>
     <use xlink:href="#DejaVuSansMono-Bold-50"/>
     <use xlink:href="#DejaVuSansMono-Bold-72" transform="translate(60.205078 0)"/>
     <use xlink:href="#DejaVuSansMono-Bold-6f" transform="translate(120.410156 0)"/>
     <use xlink:href="#DejaVuSansMono-Bold-74" transform="translate(180.615234 0)"/>
     <use xlink:href="#DejaVuSansMono-Bold-6f" transform="translate(240.820312 0)"/>
     <use xlink:href="#DejaVuSansMono-Bold-74" transform="translate(301.025391 0)"/>
     <use xlink:href="#DejaVuSansMono-Bold-79" transform="translate(361.230469 0)"/>
     <use xlink:href="#DejaVuSansMono-Bold-70" transform="translate(421.435547 0)"/>
     <use xlink:href="#DejaVuSansMono-Bold-65" transform="translate(481.640625 0)"/>
     <use xlink:href="#DejaVuSansMono-Bold-20" transform="translate(541.845703 0)"/>
     <use xlink:href="#DejaVuSansMono-Bold-42" transform="translate(602.050781 0)"/>
     <use xlink:href="#DejaVuSansMono-Bold-75" transform="translate(662.255859 0)"/>
     <use xlink:href="#DejaVuSansMono-Bold-69" transform="translate(722.460938 0)"/>
     <use xlink:href="#DejaVuSansMono-Bold-6c" transform="translate(782.666016 0)"/>
     <use xlink:href="#DejaVuSansMono-Bold-64" transform="translate(842.871094 0)"/>
    </g>
   </g>
   <g id="text_14">
    <g id="patch_48">
     <path d="M 1114 802.262311 
L 1234.40625 802.262311 
Q 1239.40625 802.262311 1239.40625 797.262311 
L 1239.40625 787.062311 
Q 1239.40625 782.062311 1234.40625 782.062311 
L 1114 782.062311 
Q 1109 782.062311 1109 787.062311 
L 1109 797.262311 
Q 1109 802.262311 1114 802.262311 
z
" style="fill: #ffffff; stroke: #000000; stroke-linejoin: miter"/>
    </g>
    <!-- Testing &amp; Validation -->
    <g transform="translate(1114 795.182624) scale(0.1 -0.1)">
     <defs>
      <path id="DejaVuSansMono-Bold-56" d="M 1925 769 
L 2747 4666 
L 3675 4666 
L 2566 0 
L 1288 0 
L 178 4666 
L 1106 4666 
L 1925 769 
z
" transform="scale(0.015625)"/>
     </defs>
     <use xlink:href="#DejaVuSansMono-Bold-54"/>
     <use xlink:href="#DejaVuSansMono-Bold-65" transform="translate(60.205078 0)"/>
     <use xlink:href="#DejaVuSansMono-Bold-73" transform="translate(120.410156 0)"/>
     <use xlink:href="#DejaVuSansMono-Bold-74" transform="translate(180.615234 0)"/>
     <use xlink:href="#DejaVuSansMono-Bold-69" transform="translate(240.820312 0)"/>
     <use xlink:href="#DejaVuSansMono-Bold-6e" transform="translate(301.025391 0)"/>
     <use xlink:href="#DejaVuSansMono-Bold-67" transform="translate(361.230469 0)"/>
     <use xlink:href="#DejaVuSansMono-Bold-20" transform="translate(421.435547 0)"/>
     <use xlink:href="#DejaVuSansMono-Bold-26" transform="translate(481.640625 0)"/>
     <use xlink:href="#DejaVuSansMono-Bold-20" transform="translate(541.845703 0)"/>
     <use xlink:href="#DejaVuSansMono-Bold-56" transform="translate(602.050781 0)"/>
     <use xlink:href="#DejaVuSansMono-Bold-61" transform="translate(662.255859 0)"/>
     <use xlink:href="#DejaVuSansMono-Bold-6c" transform="translate(722.460938 0)"/>
     <use xlink:href="#DejaVuSansMono-Bold-69" transform="translate(782.666016 0)"/>
     <use xlink:href="#DejaVuSansMono-Bold-64" transform="translate(842.871094 0)"/>
     <use xlink:href="#DejaVuSansMono-Bold-61" transform="translate(903.076172 0)"/>
     <use xlink:href="#DejaVuSansMono-Bold-74" transform="translate(963.28125 0)"/>
     <use xlink:href="#DejaVuSansMono-Bold-69" transform="translate(1023.486328 0)"/>
     <use xlink:href="#DejaVuSansMono-Bold-6f" transform="translate(1083.691406 0)"/>
     <use xlink:href="#DejaVuSansMono-Bold-6e" transform="translate(1143.896484 0)"/>
    </g>
   </g>
   <g id="text_15">
    <g id="patch_49">
     <path d="M 1114 863.98931 
L 1216.345313 863.98931 
Q 1221.345313 863.98931 1221.345313 858.98931 
L 1221.345313 848.779935 
Q 1221.345313 843.779935 1216.345313 843.779935 
L 1114 843.779935 
Q 1109 843.779935 1109 848.779935 
L 1109 858.98931 
Q 1109 863.98931 1114 863.98931 
z
" style="fill: #ffffff; stroke: #000000; stroke-linejoin: miter"/>
    </g>
    <!-- Operator Training -->
    <g transform="translate(1114 856.909622) scale(0.1 -0.1)">
     <defs>
      <path id="DejaVuSansMono-Bold-4f" d="M 1925 3922 
Q 1572 3922 1409 3545 
Q 1247 3169 1247 2328 
Q 1247 1491 1409 1114 
Q 1572 738 1925 738 
Q 2281 738 2443 1114 
Q 2606 1491 2606 2328 
Q 2606 3169 2443 3545 
Q 2281 3922 1925 3922 
z
M 288 2328 
Q 288 3525 702 4137 
Q 1116 4750 1925 4750 
Q 2738 4750 3152 4137 
Q 3566 3525 3566 2328 
Q 3566 1134 3152 521 
Q 2738 -91 1925 -91 
Q 1116 -91 702 521 
Q 288 1134 288 2328 
z
" transform="scale(0.015625)"/>
     </defs>
     <use xlink:href="#DejaVuSansMono-Bold-4f"/>
     <use xlink:href="#DejaVuSansMono-Bold-70" transform="translate(60.205078 0)"/>
     <use xlink:href="#DejaVuSansMono-Bold-65" transform="translate(120.410156 0)"/>
     <use xlink:href="#DejaVuSansMono-Bold-72" transform="translate(180.615234 0)"/>
     <use xlink:href="#DejaVuSansMono-Bold-61" transform="translate(240.820312 0)"/>
     <use xlink:href="#DejaVuSansMono-Bold-74" transform="translate(301.025391 0)"/>
     <use xlink:href="#DejaVuSansMono-Bold-6f" transform="translate(361.230469 0)"/>
     <use xlink:href="#DejaVuSansMono-Bold-72" transform="translate(421.435547 0)"/>
     <use xlink:href="#DejaVuSansMono-Bold-20" transform="translate(481.640625 0)"/>
     <use xlink:href="#DejaVuSansMono-Bold-54" transform="translate(541.845703 0)"/>
     <use xlink:href="#DejaVuSansMono-Bold-72" transform="translate(602.050781 0)"/>
     <use xlink:href="#DejaVuSansMono-Bold-61" transform="translate(662.255859 0)"/>
     <use xlink:href="#DejaVuSansMono-Bold-69" transform="translate(722.460938 0)"/>
     <use xlink:href="#DejaVuSansMono-Bold-6e" transform="translate(782.666016 0)"/>
     <use xlink:href="#DejaVuSansMono-Bold-69" transform="translate(842.871094 0)"/>
     <use xlink:href="#DejaVuSansMono-Bold-6e" transform="translate(903.076172 0)"/>
     <use xlink:href="#DejaVuSansMono-Bold-67" transform="translate(963.28125 0)"/>
    </g>
   </g>
   <g id="text_16">
    <g id="patch_50">
     <path d="M 699.756792 956.572777 
L 850.264604 956.572777 
Q 855.264604 956.572777 855.264604 951.572777 
L 855.264604 941.363402 
Q 855.264604 936.363402 850.264604 936.363402 
L 699.756792 936.363402 
Q 694.756792 936.363402 694.756792 941.363402 
L 694.756792 951.572777 
Q 694.756792 956.572777 699.756792 956.572777 
z
" style="fill: #ffffff; stroke: #000000; stroke-linejoin: miter"/>
    </g>
    <!-- Pilot Line Implementation -->
    <g transform="translate(699.756792 949.493089) scale(0.1 -0.1)">
     <defs>
      <path id="DejaVuSansMono-Bold-4c" d="M 703 0 
L 703 4666 
L 1625 4666 
L 1625 813 
L 3597 813 
L 3597 0 
L 703 0 
z
" transform="scale(0.015625)"/>
     </defs>
     <use xlink:href="#DejaVuSansMono-Bold-50"/>
     <use xlink:href="#DejaVuSansMono-Bold-69" transform="translate(60.205078 0)"/>
     <use xlink:href="#DejaVuSansMono-Bold-6c" transform="translate(120.410156 0)"/>
     <use xlink:href="#DejaVuSansMono-Bold-6f" transform="translate(180.615234 0)"/>
     <use xlink:href="#DejaVuSansMono-Bold-74" transform="translate(240.820312 0)"/>
     <use xlink:href="#DejaVuSansMono-Bold-20" transform="translate(301.025391 0)"/>
     <use xlink:href="#DejaVuSansMono-Bold-4c" transform="translate(361.230469 0)"/>
     <use xlink:href="#DejaVuSansMono-Bold-69" transform="translate(421.435547 0)"/>
     <use xlink:href="#DejaVuSansMono-Bold-6e" transform="translate(481.640625 0)"/>
     <use xlink:href="#DejaVuSansMono-Bold-65" transform="translate(541.845703 0)"/>
     <use xlink:href="#DejaVuSansMono-Bold-20" transform="translate(602.050781 0)"/>
     <use xlink:href="#DejaVuSansMono-Bold-49" transform="translate(662.255859 0)"/>
     <use xlink:href="#DejaVuSansMono-Bold-6d" transform="translate(722.460938 0)"/>
     <use xlink:href="#DejaVuSansMono-Bold-70" transform="translate(782.666016 0)"/>
     <use xlink:href="#DejaVuSansMono-Bold-6c" transform="translate(842.871094 0)"/>
     <use xlink:href="#DejaVuSansMono-Bold-65" transform="translate(903.076172 0)"/>
     <use xlink:href="#DejaVuSansMono-Bold-6d" transform="translate(963.28125 0)"/>
     <use xlink:href="#DejaVuSansMono-Bold-65" transform="translate(1023.486328 0)"/>
     <use xlink:href="#DejaVuSansMono-Bold-6e" transform="translate(1083.691406 0)"/>
     <use xlink:href="#DejaVuSansMono-Bold-74" transform="translate(1143.896484 0)"/>
     <use xlink:href="#DejaVuSansMono-Bold-61" transform="translate(1204.101562 0)"/>
     <use xlink:href="#DejaVuSansMono-Bold-74" transform="translate(1264.306641 0)"/>
     <use xlink:href="#DejaVuSansMono-Bold-69" transform="translate(1324.511719 0)"/>
     <use xlink:href="#DejaVuSansMono-Bold-6f" transform="translate(1384.716797 0)"/>
     <use xlink:href="#DejaVuSansMono-Bold-6e" transform="translate(1444.921875 0)"/>
    </g>
   </g>
   <g id="text_17">
    <g id="patch_51">
     <path d="M 1114 925.711621 
L 1252.467187 925.711621 
Q 1257.467187 925.711621 1257.467187 920.711621 
L 1257.467187 910.502246 
Q 1257.467187 905.502246 1252.467187 905.502246 
L 1114 905.502246 
Q 1109 905.502246 1109 910.502246 
L 1109 920.711621 
Q 1109 925.711621 1114 925.711621 
z
" style="fill: #ffffff; stroke: #000000; stroke-linejoin: miter"/>
    </g>
    <!-- Integration Preparation -->
    <g transform="translate(1114 918.631934) scale(0.1 -0.1)">
     <use xlink:href="#DejaVuSansMono-Bold-49"/>
     <use xlink:href="#DejaVuSansMono-Bold-6e" transform="translate(60.205078 0)"/>
     <use xlink:href="#DejaVuSansMono-Bold-74" transform="translate(120.410156 0)"/>
     <use xlink:href="#DejaVuSansMono-Bold-65" transform="translate(180.615234 0)"/>
     <use xlink:href="#DejaVuSansMono-Bold-67" transform="translate(240.820312 0)"/>
     <use xlink:href="#DejaVuSansMono-Bold-72" transform="translate(301.025391 0)"/>
     <use xlink:href="#DejaVuSansMono-Bold-61" transform="translate(361.230469 0)"/>
     <use xlink:href="#DejaVuSansMono-Bold-74" transform="translate(421.435547 0)"/>
     <use xlink:href="#DejaVuSansMono-Bold-69" transform="translate(481.640625 0)"/>
     <use xlink:href="#DejaVuSansMono-Bold-6f" transform="translate(541.845703 0)"/>
     <use xlink:href="#DejaVuSansMono-Bold-6e" transform="translate(602.050781 0)"/>
     <use xlink:href="#DejaVuSansMono-Bold-20" transform="translate(662.255859 0)"/>
     <use xlink:href="#DejaVuSansMono-Bold-50" transform="translate(722.460938 0)"/>
     <use xlink:href="#DejaVuSansMono-Bold-72" transform="translate(782.666016 0)"/>
     <use xlink:href="#DejaVuSansMono-Bold-65" transform="translate(842.871094 0)"/>
     <use xlink:href="#DejaVuSansMono-Bold-70" transform="translate(903.076172 0)"/>
     <use xlink:href="#DejaVuSansMono-Bold-61" transform="translate(963.28125 0)"/>
     <use xlink:href="#DejaVuSansMono-Bold-72" transform="translate(1023.486328 0)"/>
     <use xlink:href="#DejaVuSansMono-Bold-61" transform="translate(1083.691406 0)"/>
     <use xlink:href="#DejaVuSansMono-Bold-74" transform="translate(1143.896484 0)"/>
     <use xlink:href="#DejaVuSansMono-Bold-69" transform="translate(1204.101562 0)"/>
     <use xlink:href="#DejaVuSansMono-Bold-6f" transform="translate(1264.306641 0)"/>
     <use xlink:href="#DejaVuSansMono-Bold-6e" transform="translate(1324.511719 0)"/>
    </g>
   </g>
   <g id="text_18">
    <g id="patch_52">
     <path d="M 1114 987.429245 
L 1222.365625 987.429245 
Q 1227.365625 987.429245 1227.365625 982.429245 
L 1227.365625 972.229245 
Q 1227.365625 967.229245 1222.365625 967.229245 
L 1114 967.229245 
Q 1109 967.229245 1109 972.229245 
L 1109 982.429245 
Q 1109 987.429245 1114 987.429245 
z
" style="fill: #ffffff; stroke: #000000; stroke-linejoin: miter"/>
    </g>
    <!-- System Integration -->
    <g transform="translate(1114 980.349557) scale(0.1 -0.1)">
     <use xlink:href="#DejaVuSansMono-Bold-53"/>
     <use xlink:href="#DejaVuSansMono-Bold-79" transform="translate(60.205078 0)"/>
     <use xlink:href="#DejaVuSansMono-Bold-73" transform="translate(120.410156 0)"/>
     <use xlink:href="#DejaVuSansMono-Bold-74" transform="translate(180.615234 0)"/>
     <use xlink:href="#DejaVuSansMono-Bold-65" transform="translate(240.820312 0)"/>
     <use xlink:href="#DejaVuSansMono-Bold-6d" transform="translate(301.025391 0)"/>
     <use xlink:href="#DejaVuSansMono-Bold-20" transform="translate(361.230469 0)"/>
     <use xlink:href="#DejaVuSansMono-Bold-49" transform="translate(421.435547 0)"/>
     <use xlink:href="#DejaVuSansMono-Bold-6e" transform="translate(481.640625 0)"/>
     <use xlink:href="#DejaVuSansMono-Bold-74" transform="translate(541.845703 0)"/>
     <use xlink:href="#DejaVuSansMono-Bold-65" transform="translate(602.050781 0)"/>
     <use xlink:href="#DejaVuSansMono-Bold-67" transform="translate(662.255859 0)"/>
     <use xlink:href="#DejaVuSansMono-Bold-72" transform="translate(722.460938 0)"/>
     <use xlink:href="#DejaVuSansMono-Bold-61" transform="translate(782.666016 0)"/>
     <use xlink:href="#DejaVuSansMono-Bold-74" transform="translate(842.871094 0)"/>
     <use xlink:href="#DejaVuSansMono-Bold-69" transform="translate(903.076172 0)"/>
     <use xlink:href="#DejaVuSansMono-Bold-6f" transform="translate(963.28125 0)"/>
     <use xlink:href="#DejaVuSansMono-Bold-6e" transform="translate(1023.486328 0)"/>
    </g>
   </g>
   <g id="text_19">
    <g id="patch_53">
     <path d="M 1114 1049.151556 
L 1270.528125 1049.151556 
Q 1275.528125 1049.151556 1275.528125 1044.151556 
L 1275.528125 1033.951556 
Q 1275.528125 1028.951556 1270.528125 1028.951556 
L 1114 1028.951556 
Q 1109 1028.951556 1109 1033.951556 
L 1109 1044.151556 
Q 1109 1049.151556 1114 1049.151556 
z
" style="fill: #ffffff; stroke: #000000; stroke-linejoin: miter"/>
    </g>
    <!-- Commissioning &amp; Validation -->
    <g transform="translate(1114 1042.071869) scale(0.1 -0.1)">
     <use xlink:href="#DejaVuSansMono-Bold-43"/>
     <use xlink:href="#DejaVuSansMono-Bold-6f" transform="translate(60.205078 0)"/>
     <use xlink:href="#DejaVuSansMono-Bold-6d" transform="translate(120.410156 0)"/>
     <use xlink:href="#DejaVuSansMono-Bold-6d" transform="translate(180.615234 0)"/>
     <use xlink:href="#DejaVuSansMono-Bold-69" transform="translate(240.820312 0)"/>
     <use xlink:href="#DejaVuSansMono-Bold-73" transform="translate(301.025391 0)"/>
     <use xlink:href="#DejaVuSansMono-Bold-73" transform="translate(361.230469 0)"/>
     <use xlink:href="#DejaVuSansMono-Bold-69" transform="translate(421.435547 0)"/>
     <use xlink:href="#DejaVuSansMono-Bold-6f" transform="translate(481.640625 0)"/>
     <use xlink:href="#DejaVuSansMono-Bold-6e" transform="translate(541.845703 0)"/>
     <use xlink:href="#DejaVuSansMono-Bold-69" transform="translate(602.050781 0)"/>
     <use xlink:href="#DejaVuSansMono-Bold-6e" transform="translate(662.255859 0)"/>
     <use xlink:href="#DejaVuSansMono-Bold-67" transform="translate(722.460938 0)"/>
     <use xlink:href="#DejaVuSansMono-Bold-20" transform="translate(782.666016 0)"/>
     <use xlink:href="#DejaVuSansMono-Bold-26" transform="translate(842.871094 0)"/>
     <use xlink:href="#DejaVuSansMono-Bold-20" transform="translate(903.076172 0)"/>
     <use xlink:href="#DejaVuSansMono-Bold-56" transform="translate(963.28125 0)"/>
     <use xlink:href="#DejaVuSansMono-Bold-61" transform="translate(1023.486328 0)"/>
     <use xlink:href="#DejaVuSansMono-Bold-6c" transform="translate(1083.691406 0)"/>
     <use xlink:href="#DejaVuSansMono-Bold-69" transform="translate(1143.896484 0)"/>
     <use xlink:href="#DejaVuSansMono-Bold-64" transform="translate(1204.101562 0)"/>
     <use xlink:href="#DejaVuSansMono-Bold-61" transform="translate(1264.306641 0)"/>
     <use xlink:href="#DejaVuSansMono-Bold-74" transform="translate(1324.511719 0)"/>
     <use xlink:href="#DejaVuSansMono-Bold-69" transform="translate(1384.716797 0)"/>
     <use xlink:href="#DejaVuSansMono-Bold-6f" transform="translate(1444.921875 0)"/>
     <use xlink:href="#DejaVuSansMono-Bold-6e" transform="translate(1505.126953 0)"/>
    </g>
   </g>
   <g id="text_20">
    <g id="patch_54">
     <path d="M 699.756792 1141.739711 
L 832.203667 1141.739711 
Q 837.203667 1141.739711 837.203667 1136.739711 
L 837.203667 1126.530336 
Q 837.203667 1121.530336 832.203667 1121.530336 
L 699.756792 1121.530336 
Q 694.756792 1121.530336 694.756792 1126.530336 
L 694.756792 1136.739711 
Q 694.756792 1141.739711 699.756792 1141.739711 
z
" style="fill: #ffffff; stroke: #000000; stroke-linejoin: miter"/>
    </g>
    <!-- Evaluation &amp; Reporting -->
    <g transform="translate(699.756792 1134.660023) scale(0.1 -0.1)">
     <defs>
      <path id="DejaVuSansMono-Bold-45" d="M 3431 0 
L 525 0 
L 525 4666 
L 3431 4666 
L 3431 3853 
L 1447 3853 
L 1447 2847 
L 3244 2847 
L 3244 2034 
L 1447 2034 
L 1447 813 
L 3431 813 
L 3431 0 
z
" transform="scale(0.015625)"/>
     </defs>
     <use xlink:href="#DejaVuSansMono-Bold-45"/>
     <use xlink:href="#DejaVuSansMono-Bold-76" transform="translate(60.205078 0)"/>
     <use xlink:href="#DejaVuSansMono-Bold-61" transform="translate(120.410156 0)"/>
     <use xlink:href="#DejaVuSansMono-Bold-6c" transform="translate(180.615234 0)"/>
     <use xlink:href="#DejaVuSansMono-Bold-75" transform="translate(240.820312 0)"/>
     <use xlink:href="#DejaVuSansMono-Bold-61" transform="translate(301.025391 0)"/>
     <use xlink:href="#DejaVuSansMono-Bold-74" transform="translate(361.230469 0)"/>
     <use xlink:href="#DejaVuSansMono-Bold-69" transform="translate(421.435547 0)"/>
     <use xlink:href="#DejaVuSansMono-Bold-6f" transform="translate(481.640625 0)"/>
     <use xlink:href="#DejaVuSansMono-Bold-6e" transform="translate(541.845703 0)"/>
     <use xlink:href="#DejaVuSansMono-Bold-20" transform="translate(602.050781 0)"/>
     <use xlink:href="#DejaVuSansMono-Bold-26" transform="translate(662.255859 0)"/>
     <use xlink:href="#DejaVuSansMono-Bold-20" transform="translate(722.460938 0)"/>
     <use xlink:href="#DejaVuSansMono-Bold-52" transform="translate(782.666016 0)"/>
     <use xlink:href="#DejaVuSansMono-Bold-65" transform="translate(842.871094 0)"/>
     <use xlink:href="#DejaVuSansMono-Bold-70" transform="translate(903.076172 0)"/>
     <use xlink:href="#DejaVuSansMono-Bold-6f" transform="translate(963.28125 0)"/>
     <use xlink:href="#DejaVuSansMono-Bold-72" transform="translate(1023.486328 0)"/>
     <use xlink:href="#DejaVuSansMono-Bold-74" transform="translate(1083.691406 0)"/>
     <use xlink:href="#DejaVuSansMono-Bold-69" transform="translate(1143.896484 0)"/>
     <use xlink:href="#DejaVuSansMono-Bold-6e" transform="translate(1204.101562 0)"/>
     <use xlink:href="#DejaVuSansMono-Bold-67" transform="translate(1264.306641 0)"/>
    </g>
   </g>
   <g id="text_21">
    <g id="patch_55">
     <path d="M 1114 1110.61293 
L 1246.446875 1110.61293 
Q 1251.446875 1110.61293 1251.446875 1105.61293 
L 1251.446875 1095.934805 
Q 1251.446875 1090.934805 1246.446875 1090.934805 
L 1114 1090.934805 
Q 1109 1090.934805 1109 1095.934805 
L 1109 1105.61293 
Q 1109 1110.61293 1114 1110.61293 
z
" style="fill: #ffffff; stroke: #000000; stroke-linejoin: miter"/>
    </g>
    <!-- Performance Evaluation -->
    <g transform="translate(1114 1103.533242) scale(0.1 -0.1)">
     <use xlink:href="#DejaVuSansMono-Bold-50"/>
     <use xlink:href="#DejaVuSansMono-Bold-65" transform="translate(60.205078 0)"/>
     <use xlink:href="#DejaVuSansMono-Bold-72" transform="translate(120.410156 0)"/>
     <use xlink:href="#DejaVuSansMono-Bold-66" transform="translate(180.615234 0)"/>
     <use xlink:href="#DejaVuSansMono-Bold-6f" transform="translate(240.820312 0)"/>
     <use xlink:href="#DejaVuSansMono-Bold-72" transform="translate(301.025391 0)"/>
     <use xlink:href="#DejaVuSansMono-Bold-6d" transform="translate(361.230469 0)"/>
     <use xlink:href="#DejaVuSansMono-Bold-61" transform="translate(421.435547 0)"/>
     <use xlink:href="#DejaVuSansMono-Bold-6e" transform="translate(481.640625 0)"/>
     <use xlink:href="#DejaVuSansMono-Bold-63" transform="translate(541.845703 0)"/>
     <use xlink:href="#DejaVuSansMono-Bold-65" transform="translate(602.050781 0)"/>
     <use xlink:href="#DejaVuSansMono-Bold-20" transform="translate(662.255859 0)"/>
     <use xlink:href="#DejaVuSansMono-Bold-45" transform="translate(722.460938 0)"/>
     <use xlink:href="#DejaVuSansMono-Bold-76" transform="translate(782.666016 0)"/>
     <use xlink:href="#DejaVuSansMono-Bold-61" transform="translate(842.871094 0)"/>
     <use xlink:href="#DejaVuSansMono-Bold-6c" transform="translate(903.076172 0)"/>
     <use xlink:href="#DejaVuSansMono-Bold-75" transform="translate(963.28125 0)"/>
     <use xlink:href="#DejaVuSansMono-Bold-61" transform="translate(1023.486328 0)"/>
     <use xlink:href="#DejaVuSansMono-Bold-74" transform="translate(1083.691406 0)"/>
     <use xlink:href="#DejaVuSansMono-Bold-69" transform="translate(1143.896484 0)"/>
     <use xlink:href="#DejaVuSansMono-Bold-6f" transform="translate(1204.101562 0)"/>
     <use xlink:href="#DejaVuSansMono-Bold-6e" transform="translate(1264.306641 0)"/>
    </g>
   </g>
   <g id="text_22">
    <g id="patch_56">
     <path d="M 1114 1172.596179 
L 1270.528125 1172.596179 
Q 1275.528125 1172.596179 1275.528125 1167.596179 
L 1275.528125 1157.396179 
Q 1275.528125 1152.396179 1270.528125 1152.396179 
L 1114 1152.396179 
Q 1109 1152.396179 1109 1157.396179 
L 1109 1167.596179 
Q 1109 1172.596179 1114 1172.596179 
z
" style="fill: #ffffff; stroke: #000000; stroke-linejoin: miter"/>
    </g>
    <!-- ROI &amp; Feasibility Analysis -->
    <g transform="translate(1114 1165.516491) scale(0.1 -0.1)">
     <defs>
      <path id="DejaVuSansMono-Bold-46" d="M 3475 3853 
L 1491 3853 
L 1491 2847 
L 3297 2847 
L 3297 2034 
L 1491 2034 
L 1491 0 
L 569 0 
L 569 4666 
L 3475 4666 
L 3475 3853 
z
" transform="scale(0.015625)"/>
     </defs>
     <use xlink:href="#DejaVuSansMono-Bold-52"/>
     <use xlink:href="#DejaVuSansMono-Bold-4f" transform="translate(60.205078 0)"/>
     <use xlink:href="#DejaVuSansMono-Bold-49" transform="translate(120.410156 0)"/>
     <use xlink:href="#DejaVuSansMono-Bold-20" transform="translate(180.615234 0)"/>
     <use xlink:href="#DejaVuSansMono-Bold-26" transform="translate(240.820312 0)"/>
     <use xlink:href="#DejaVuSansMono-Bold-20" transform="translate(301.025391 0)"/>
     <use xlink:href="#DejaVuSansMono-Bold-46" transform="translate(361.230469 0)"/>
     <use xlink:href="#DejaVuSansMono-Bold-65" transform="translate(421.435547 0)"/>
     <use xlink:href="#DejaVuSansMono-Bold-61" transform="translate(481.640625 0)"/>
     <use xlink:href="#DejaVuSansMono-Bold-73" transform="translate(541.845703 0)"/>
     <use xlink:href="#DejaVuSansMono-Bold-69" transform="translate(602.050781 0)"/>
     <use xlink:href="#DejaVuSansMono-Bold-62" transform="translate(662.255859 0)"/>
     <use xlink:href="#DejaVuSansMono-Bold-69" transform="translate(722.460938 0)"/>
     <use xlink:href="#DejaVuSansMono-Bold-6c" transform="translate(782.666016 0)"/>
     <use xlink:href="#DejaVuSansMono-Bold-69" transform="translate(842.871094 0)"/>
     <use xlink:href="#DejaVuSansMono-Bold-74" transform="translate(903.076172 0)"/>
     <use xlink:href="#DejaVuSansMono-Bold-79" transform="translate(963.28125 0)"/>
     <use xlink:href="#DejaVuSansMono-Bold-20" transform="translate(1023.486328 0)"/>
     <use xlink:href="#DejaVuSansMono-Bold-41" transform="translate(1083.691406 0)"/>
     <use xlink:href="#DejaVuSansMono-Bold-6e" transform="translate(1143.896484 0)"/>
     <use xlink:href="#DejaVuSansMono-Bold-61" transform="translate(1204.101562 0)"/>
     <use xlink:href="#DejaVuSansMono-Bold-6c" transform="translate(1264.306641 0)"/>
     <use xlink:href="#DejaVuSansMono-Bold-79" transform="translate(1324.511719 0)"/>
     <use xlink:href="#DejaVuSansMono-Bold-73" transform="translate(1384.716797 0)"/>
     <use xlink:href="#DejaVuSansMono-Bold-69" transform="translate(1444.921875 0)"/>
     <use xlink:href="#DejaVuSansMono-Bold-73" transform="translate(1505.126953 0)"/>
    </g>
   </g>
   <g id="text_23">
    <g id="patch_57">
     <path d="M 1114 1234.323177 
L 1264.507812 1234.323177 
Q 1269.507812 1234.323177 1269.507812 1229.323177 
L 1269.507812 1219.113802 
Q 1269.507812 1214.113802 1264.507812 1214.113802 
L 1114 1214.113802 
Q 1109 1214.113802 1109 1219.113802 
L 1109 1229.323177 
Q 1109 1234.323177 1114 1234.323177 
z
" style="fill: #ffffff; stroke: #000000; stroke-linejoin: miter"/>
    </g>
    <!-- Final Reporting &amp; Closure -->
    <g transform="translate(1114 1227.24349) scale(0.1 -0.1)">
     <use xlink:href="#DejaVuSansMono-Bold-46"/>
     <use xlink:href="#DejaVuSansMono-Bold-69" transform="translate(60.205078 0)"/>
     <use xlink:href="#DejaVuSansMono-Bold-6e" transform="translate(120.410156 0)"/>
     <use xlink:href="#DejaVuSansMono-Bold-61" transform="translate(180.615234 0)"/>
     <use xlink:href="#DejaVuSansMono-Bold-6c" transform="translate(240.820312 0)"/>
     <use xlink:href="#DejaVuSansMono-Bold-20" transform="translate(301.025391 0)"/>
     <use xlink:href="#DejaVuSansMono-Bold-52" transform="translate(361.230469 0)"/>
     <use xlink:href="#DejaVuSansMono-Bold-65" transform="translate(421.435547 0)"/>
     <use xlink:href="#DejaVuSansMono-Bold-70" transform="translate(481.640625 0)"/>
     <use xlink:href="#DejaVuSansMono-Bold-6f" transform="translate(541.845703 0)"/>
     <use xlink:href="#DejaVuSansMono-Bold-72" transform="translate(602.050781 0)"/>
     <use xlink:href="#DejaVuSansMono-Bold-74" transform="translate(662.255859 0)"/>
     <use xlink:href="#DejaVuSansMono-Bold-69" transform="translate(722.460938 0)"/>
     <use xlink:href="#DejaVuSansMono-Bold-6e" transform="translate(782.666016 0)"/>
     <use xlink:href="#DejaVuSansMono-Bold-67" transform="translate(842.871094 0)"/>
     <use xlink:href="#DejaVuSansMono-Bold-20" transform="translate(903.076172 0)"/>
     <use xlink:href="#DejaVuSansMono-Bold-26" transform="translate(963.28125 0)"/>
     <use xlink:href="#DejaVuSansMono-Bold-20" transform="translate(1023.486328 0)"/>
     <use xlink:href="#DejaVuSansMono-Bold-43" transform="translate(1083.691406 0)"/>
     <use xlink:href="#DejaVuSansMono-Bold-6c" transform="translate(1143.896484 0)"/>
     <use xlink:href="#DejaVuSansMono-Bold-6f" transform="translate(1204.101562 0)"/>
     <use xlink:href="#DejaVuSansMono-Bold-73" transform="translate(1264.306641 0)"/>
     <use xlink:href="#DejaVuSansMono-Bold-75" transform="translate(1324.511719 0)"/>
     <use xlink:href="#DejaVuSansMono-Bold-72" transform="translate(1384.716797 0)"/>
     <use xlink:href="#DejaVuSansMono-Bold-65" transform="translate(1444.921875 0)"/>
    </g>
   </g>
  </g>
  <g id="text_24">
   <!-- Work Breakdown Structure - Stuurloos naar de toekomst v2.0 -->
   <g transform="translate(545.410938 79.598438) scale(0.1 -0.1)">
    <defs>
     <path id="DejaVuSansMono-Bold-32" d="M 1356 813 
L 3322 813 
L 3322 0 
L 359 0 
L 359 788 
L 859 1319 
Q 1750 2266 1941 2484 
Q 2175 2753 2278 2961 
Q 2381 3169 2381 3372 
Q 2381 3684 2192 3854 
Q 2003 4025 1656 4025 
Q 1409 4025 1101 3926 
Q 794 3828 459 3641 
L 459 4500 
Q 794 4622 1114 4686 
Q 1434 4750 1728 4750 
Q 2469 4750 2892 4404 
Q 3316 4059 3316 3463 
Q 3316 3188 3223 2947 
Q 3131 2706 2906 2413 
Q 2741 2200 1997 1456 
Q 1594 1053 1356 813 
z
" transform="scale(0.015625)"/>
     <path id="DejaVuSansMono-Bold-2e" d="M 1403 1147 
L 2444 1147 
L 2444 0 
L 1403 0 
L 1403 1147 
z
" transform="scale(0.015625)"/>
     <path id="DejaVuSansMono-Bold-30" d="M 1538 2328 
Q 1538 2494 1650 2606 
Q 1763 2719 1925 2719 
Q 2091 2719 2203 2606 
Q 2316 2494 2316 2328 
Q 2316 2166 2203 2053 
Q 2091 1941 1925 1941 
Q 1763 1941 1650 2052 
Q 1538 2163 1538 2328 
z
M 1925 3969 
Q 1606 3969 1459 3578 
Q 1313 3188 1313 2328 
Q 1313 1472 1459 1081 
Q 1606 691 1925 691 
Q 2247 691 2394 1081 
Q 2541 1472 2541 2328 
Q 2541 3188 2394 3578 
Q 2247 3969 1925 3969 
z
M 384 2328 
Q 384 3541 768 4145 
Q 1153 4750 1925 4750 
Q 2700 4750 3084 4147 
Q 3469 3544 3469 2328 
Q 3469 1116 3084 512 
Q 2700 -91 1925 -91 
Q 1153 -91 768 514 
Q 384 1119 384 2328 
z
" transform="scale(0.015625)"/>
    </defs>
    <use xlink:href="#DejaVuSansMono-Bold-57"/>
    <use xlink:href="#DejaVuSansMono-Bold-6f" transform="translate(60.205078 0)"/>
    <use xlink:href="#DejaVuSansMono-Bold-72" transform="translate(120.410156 0)"/>
    <use xlink:href="#DejaVuSansMono-Bold-6b" transform="translate(180.615234 0)"/>
    <use xlink:href="#DejaVuSansMono-Bold-20" transform="translate(240.820312 0)"/>
    <use xlink:href="#DejaVuSansMono-Bold-42" transform="translate(301.025391 0)"/>
    <use xlink:href="#DejaVuSansMono-Bold-72" transform="translate(361.230469 0)"/>
    <use xlink:href="#DejaVuSansMono-Bold-65" transform="translate(421.435547 0)"/>
    <use xlink:href="#DejaVuSansMono-Bold-61" transform="translate(481.640625 0)"/>
    <use xlink:href="#DejaVuSansMono-Bold-6b" transform="translate(541.845703 0)"/>
    <use xlink:href="#DejaVuSansMono-Bold-64" transform="translate(602.050781 0)"/>
    <use xlink:href="#DejaVuSansMono-Bold-6f" transform="translate(662.255859 0)"/>
    <use xlink:href="#DejaVuSansMono-Bold-77" transform="translate(722.460938 0)"/>
    <use xlink:href="#DejaVuSansMono-Bold-6e" transform="translate(782.666016 0)"/>
    <use xlink:href="#DejaVuSansMono-Bold-20" transform="translate(842.871094 0)"/>
    <use xlink:href="#DejaVuSansMono-Bold-53" transform="translate(903.076172 0)"/>
    <use xlink:href="#DejaVuSansMono-Bold-74" transform="translate(963.28125 0)"/>
    <use xlink:href="#DejaVuSansMono-Bold-72" transform="translate(1023.486328 0)"/>
    <use xlink:href="#DejaVuSansMono-Bold-75" transform="translate(1083.691406 0)"/>
    <use xlink:href="#DejaVuSansMono-Bold-63" transform="translate(1143.896484 0)"/>
    <use xlink:href="#DejaVuSansMono-Bold-74" transform="translate(1204.101562 0)"/>
    <use xlink:href="#DejaVuSansMono-Bold-75" transform="translate(1264.306641 0)"/>
    <use xlink:href="#DejaVuSansMono-Bold-72" transform="translate(1324.511719 0)"/>
    <use xlink:href="#DejaVuSansMono-Bold-65" transform="translate(1384.716797 0)"/>
    <use xlink:href="#DejaVuSansMono-Bold-20" transform="translate(1444.921875 0)"/>
    <use xlink:href="#DejaVuSansMono-Bold-2d" transform="translate(1505.126953 0)"/>
    <use xlink:href="#DejaVuSansMono-Bold-20" transform="translate(1565.332031 0)"/>
    <use xlink:href="#DejaVuSansMono-Bold-53" transform="translate(1625.537109 0)"/>
    <use xlink:href="#DejaVuSansMono-Bold-74" transform="translate(1685.742188 0)"/>
    <use xlink:href="#DejaVuSansMono-Bold-75" transform="translate(1745.947266 0)"/>
    <use xlink:href="#DejaVuSansMono-Bold-75" transform="translate(1806.152344 0)"/>
    <use xlink:href="#DejaVuSansMono-Bold-72" transform="translate(1866.357422 0)"/>
    <use xlink:href="#DejaVuSansMono-Bold-6c" transform="translate(1926.5625 0)"/>
    <use xlink:href="#DejaVuSansMono-Bold-6f" transform="translate(1986.767578 0)"/>
    <use xlink:href="#DejaVuSansMono-Bold-6f" transform="translate(2046.972656 0)"/>
    <use xlink:href="#DejaVuSansMono-Bold-73" transform="translate(2107.177734 0)"/>
    <use xlink:href="#DejaVuSansMono-Bold-20" transform="translate(2167.382812 0)"/>
    <use xlink:href="#DejaVuSansMono-Bold-6e" transform="translate(2227.587891 0)"/>
    <use xlink:href="#DejaVuSansMono-Bold-61" transform="translate(2287.792969 0)"/>
    <use xlink:href="#DejaVuSansMono-Bold-61" transform="translate(2347.998047 0)"/>
    <use xlink:href="#DejaVuSansMono-Bold-72" transform="translate(2408.203125 0)"/>
    <use xlink:href="#DejaVuSansMono-Bold-20" transform="translate(2468.408203 0)"/>
    <use xlink:href="#DejaVuSansMono-Bold-64" transform="translate(2528.613281 0)"/>
    <use xlink:href="#DejaVuSansMono-Bold-65" transform="translate(2588.818359 0)"/>
    <use xlink:href="#DejaVuSansMono-Bold-20" transform="translate(2649.023438 0)"/>
    <use xlink:href="#DejaVuSansMono-Bold-74" transform="translate(2709.228516 0)"/>
    <use xlink:href="#DejaVuSansMono-Bold-6f" transform="translate(2769.433594 0)"/>
    <use xlink:href="#DejaVuSansMono-Bold-65" transform="translate(2829.638672 0)"/>
    <use xlink:href="#DejaVuSansMono-Bold-6b" transform="translate(2889.84375 0)"/>
    <use xlink:href="#DejaVuSansMono-Bold-6f" transform="translate(2950.048828 0)"/>
    <use xlink:href="#DejaVuSansMono-Bold-6d" transform="translate(3010.253906 0)"/>
    <use xlink:href="#DejaVuSansMono-Bold-73" transform="translate(3070.458984 0)"/>
    <use xlink:href="#DejaVuSansMono-Bold-74" transform="translate(3130.664062 0)"/>
    <use xlink:href="#DejaVuSansMono-Bold-20" transform="translate(3190.869141 0)"/>
    <use xlink:href="#DejaVuSansMono-Bold-76" transform="translate(3251.074219 0)"/>
    <use xlink:href="#DejaVuSansMono-Bold-32" transform="translate(3311.279297 0)"/>
    <use xlink:href="#DejaVuSansMono-Bold-2e" transform="translate(3371.484375 0)"/>
    <use xlink:href="#DejaVuSansMono-Bold-30" transform="translate(3431.689453 0)"/>
   </g>
  </g>
 </g>
 <defs>
  <clipPath id="p4286732534">
   <rect x="10.8" y="31.68" width="1418.4" height="1397.52"/>
  </clipPath>
 </defs>
</svg>
