<?xml version="1.0" encoding="utf-8" standalone="no"?>
<!DOCTYPE svg PUBLIC "-//W3C//DTD SVG 1.1//EN"
  "http://www.w3.org/Graphics/SVG/1.1/DTD/svg11.dtd">
<svg xmlns:xlink="http://www.w3.org/1999/xlink" width="460.8pt" height="345.6pt" viewBox="0 0 460.8 345.6" xmlns="http://www.w3.org/2000/svg" version="1.1">
 <metadata>
  <rdf:RDF xmlns:dc="http://purl.org/dc/elements/1.1/" xmlns:cc="http://creativecommons.org/ns#" xmlns:rdf="http://www.w3.org/1999/02/22-rdf-syntax-ns#">
   <cc:Work>
    <dc:type rdf:resource="http://purl.org/dc/dcmitype/StillImage"/>
    <dc:date>2025-12-04T10:08:40.685982</dc:date>
    <dc:format>image/svg+xml</dc:format>
    <dc:creator>
     <cc:Agent>
      <dc:title>Matplotlib v3.10.7, https://matplotlib.org/</dc:title>
     </cc:Agent>
    </dc:creator>
   </cc:Work>
  </rdf:RDF>
 </metadata>
 <defs>
  <style type="text/css">*{stroke-linejoin: round; stroke-linecap: butt}</style>
 </defs>
 <g id="figure_1">
  <g id="patch_1">
   <path d="M 0 345.6 
L 460.8 345.6 
L 460.8 0 
L 0 0 
z
" style="fill: #ffffff"/>
  </g>
  <g id="axes_1">
   <g id="patch_2">
    <path d="M 240.01 303.64 
L 439.597961 303.64 
L 439.597961 24.8325 
L 240.01 24.8325 
z
" style="fill: #ffffff"/>
   </g>
   <g id="patch_3">
    <path d="M 240.01 290.966932 
L 274.846298 290.966932 
L 274.846298 273.783111 
L 240.01 273.783111 
z
" clip-path="url(#p9c99984e99)" style="fill: #87ceeb; stroke: #000000; stroke-linejoin: miter"/>
   </g>
   <g id="patch_4">
    <path d="M 240.01 269.487155 
L 260.85577 269.487155 
L 260.85577 252.303334 
L 240.01 252.303334 
z
" clip-path="url(#p9c99984e99)" style="fill: #87ceeb; stroke: #000000; stroke-linejoin: miter"/>
   </g>
   <g id="patch_5">
    <path d="M 240.01 248.007379 
L 251.065663 248.007379 
L 251.065663 230.823557 
L 240.01 230.823557 
z
" clip-path="url(#p9c99984e99)" style="fill: #87ceeb; stroke: #000000; stroke-linejoin: miter"/>
   </g>
   <g id="patch_6">
    <path d="M 240.01 226.527602 
L 274.846298 226.527602 
L 274.846298 209.343781 
L 240.01 209.343781 
z
" clip-path="url(#p9c99984e99)" style="fill: #87ceeb; stroke: #000000; stroke-linejoin: miter"/>
   </g>
   <g id="patch_7">
    <path d="M 240.01 205.047826 
L 260.85577 205.047826 
L 260.85577 187.864004 
L 240.01 187.864004 
z
" clip-path="url(#p9c99984e99)" style="fill: #87ceeb; stroke: #000000; stroke-linejoin: miter"/>
   </g>
   <g id="patch_8">
    <path d="M 240.01 290.966932 
L 274.846298 290.966932 
L 274.846298 273.783111 
L 240.01 273.783111 
z
" clip-path="url(#p9c99984e99)" style="fill: #87ceeb; stroke: #000000; stroke-linejoin: miter"/>
   </g>
   <g id="patch_9">
    <path d="M 240.01 269.487155 
L 260.85577 269.487155 
L 260.85577 252.303334 
L 240.01 252.303334 
z
" clip-path="url(#p9c99984e99)" style="fill: #87ceeb; stroke: #000000; stroke-linejoin: miter"/>
   </g>
   <g id="patch_10">
    <path d="M 240.01 248.007379 
L 262.125223 248.007379 
L 262.125223 230.823557 
L 240.01 230.823557 
z
" clip-path="url(#p9c99984e99)" style="fill: #87ceeb; stroke: #000000; stroke-linejoin: miter"/>
   </g>
   <g id="patch_11">
    <path d="M 240.01 226.527602 
L 274.846298 226.527602 
L 274.846298 209.343781 
L 240.01 209.343781 
z
" clip-path="url(#p9c99984e99)" style="fill: #87ceeb; stroke: #000000; stroke-linejoin: miter"/>
   </g>
   <g id="patch_12">
    <path d="M 240.01 205.047826 
L 260.85577 205.047826 
L 260.85577 187.864004 
L 240.01 187.864004 
z
" clip-path="url(#p9c99984e99)" style="fill: #87ceeb; stroke: #000000; stroke-linejoin: miter"/>
   </g>
   <g id="patch_13">
    <path d="M 240.01 290.966932 
L 274.846298 290.966932 
L 274.846298 273.783111 
L 240.01 273.783111 
z
" clip-path="url(#p9c99984e99)" style="fill: #87ceeb; stroke: #000000; stroke-linejoin: miter"/>
   </g>
   <g id="patch_14">
    <path d="M 240.01 269.487155 
L 264.871362 269.487155 
L 264.871362 252.303334 
L 240.01 252.303334 
z
" clip-path="url(#p9c99984e99)" style="fill: #87ceeb; stroke: #000000; stroke-linejoin: miter"/>
   </g>
   <g id="patch_15">
    <path d="M 240.01 248.007379 
L 281.480914 248.007379 
L 281.480914 230.823557 
L 240.01 230.823557 
z
" clip-path="url(#p9c99984e99)" style="fill: #87ceeb; stroke: #000000; stroke-linejoin: miter"/>
   </g>
   <g id="patch_16">
    <path d="M 240.01 226.527602 
L 274.846298 226.527602 
L 274.846298 209.343781 
L 240.01 209.343781 
z
" clip-path="url(#p9c99984e99)" style="fill: #87ceeb; stroke: #000000; stroke-linejoin: miter"/>
   </g>
   <g id="patch_17">
    <path d="M 240.01 183.568049 
L 264.871362 183.568049 
L 264.871362 166.384228 
L 240.01 166.384228 
z
" clip-path="url(#p9c99984e99)" style="fill: #87ceeb; stroke: #000000; stroke-linejoin: miter"/>
   </g>
   <g id="patch_18">
    <path d="M 240.01 162.088272 
L 382.398179 162.088272 
L 382.398179 144.904451 
L 240.01 144.904451 
z
" clip-path="url(#p9c99984e99)" style="fill: #87ceeb; stroke: #000000; stroke-linejoin: miter"/>
   </g>
   <g id="patch_19">
    <path d="M 240.01 140.608496 
L 396.636997 140.608496 
L 396.636997 123.424674 
L 240.01 123.424674 
z
" clip-path="url(#p9c99984e99)" style="fill: #87ceeb; stroke: #000000; stroke-linejoin: miter"/>
   </g>
   <g id="patch_20">
    <path d="M 240.01 119.128719 
L 393.457739 119.128719 
L 393.457739 101.944898 
L 240.01 101.944898 
z
" clip-path="url(#p9c99984e99)" style="fill: #87ceeb; stroke: #000000; stroke-linejoin: miter"/>
   </g>
   <g id="patch_21">
    <path d="M 240.01 97.648943 
L 408.802464 97.648943 
L 408.802464 80.465121 
L 240.01 80.465121 
z
" clip-path="url(#p9c99984e99)" style="fill: #87ceeb; stroke: #000000; stroke-linejoin: miter"/>
   </g>
   <g id="patch_22">
    <path d="M 240.01 76.169166 
L 412.813429 76.169166 
L 412.813429 58.985345 
L 240.01 58.985345 
z
" clip-path="url(#p9c99984e99)" style="fill: #87ceeb; stroke: #000000; stroke-linejoin: miter"/>
   </g>
   <g id="patch_23">
    <path d="M 240.01 54.689389 
L 430.093772 54.689389 
L 430.093772 37.505568 
L 240.01 37.505568 
z
" clip-path="url(#p9c99984e99)" style="fill: #87ceeb; stroke: #000000; stroke-linejoin: miter"/>
   </g>
   <g id="matplotlib.axis_1">
    <g id="xtick_1">
     <g id="line2d_1">
      <defs>
       <path id="m12c5ba8e3f" d="M 0 0 
L 0 3.5 
" style="stroke: #000000; stroke-width: 0.8"/>
      </defs>
      <g>
       <use xlink:href="#m12c5ba8e3f" x="240.01" y="303.64" style="stroke: #000000; stroke-width: 0.8"/>
      </g>
     </g>
     <g id="text_1">
      <!-- 0 -->
      <g transform="translate(236.82875 318.238437) scale(0.1 -0.1)">
       <defs>
        <path id="DejaVuSans-30" d="M 2034 4250 
Q 1547 4250 1301 3770 
Q 1056 3291 1056 2328 
Q 1056 1369 1301 889 
Q 1547 409 2034 409 
Q 2525 409 2770 889 
Q 3016 1369 3016 2328 
Q 3016 3291 2770 3770 
Q 2525 4250 2034 4250 
z
M 2034 4750 
Q 2819 4750 3233 4129 
Q 3647 3509 3647 2328 
Q 3647 1150 3233 529 
Q 2819 -91 2034 -91 
Q 1250 -91 836 529 
Q 422 1150 422 2328 
Q 422 3509 836 4129 
Q 1250 4750 2034 4750 
z
" transform="scale(0.015625)"/>
       </defs>
       <use xlink:href="#DejaVuSans-30"/>
      </g>
     </g>
    </g>
    <g id="xtick_2">
     <g id="line2d_2">
      <g>
       <use xlink:href="#m12c5ba8e3f" x="288.713363" y="303.64" style="stroke: #000000; stroke-width: 0.8"/>
      </g>
     </g>
     <g id="text_2">
      <!-- 200000 -->
      <g transform="translate(269.625863 318.238437) scale(0.1 -0.1)">
       <defs>
        <path id="DejaVuSans-32" d="M 1228 531 
L 3431 531 
L 3431 0 
L 469 0 
L 469 531 
Q 828 903 1448 1529 
Q 2069 2156 2228 2338 
Q 2531 2678 2651 2914 
Q 2772 3150 2772 3378 
Q 2772 3750 2511 3984 
Q 2250 4219 1831 4219 
Q 1534 4219 1204 4116 
Q 875 4013 500 3803 
L 500 4441 
Q 881 4594 1212 4672 
Q 1544 4750 1819 4750 
Q 2544 4750 2975 4387 
Q 3406 4025 3406 3419 
Q 3406 3131 3298 2873 
Q 3191 2616 2906 2266 
Q 2828 2175 2409 1742 
Q 1991 1309 1228 531 
z
" transform="scale(0.015625)"/>
       </defs>
       <use xlink:href="#DejaVuSans-32"/>
       <use xlink:href="#DejaVuSans-30" transform="translate(63.623047 0)"/>
       <use xlink:href="#DejaVuSans-30" transform="translate(127.246094 0)"/>
       <use xlink:href="#DejaVuSans-30" transform="translate(190.869141 0)"/>
       <use xlink:href="#DejaVuSans-30" transform="translate(254.492188 0)"/>
       <use xlink:href="#DejaVuSans-30" transform="translate(318.115234 0)"/>
      </g>
     </g>
    </g>
    <g id="xtick_3">
     <g id="line2d_3">
      <g>
       <use xlink:href="#m12c5ba8e3f" x="337.416727" y="303.64" style="stroke: #000000; stroke-width: 0.8"/>
      </g>
     </g>
     <g id="text_3">
      <!-- 400000 -->
      <g transform="translate(318.329227 318.238437) scale(0.1 -0.1)">
       <defs>
        <path id="DejaVuSans-34" d="M 2419 4116 
L 825 1625 
L 2419 1625 
L 2419 4116 
z
M 2253 4666 
L 3047 4666 
L 3047 1625 
L 3713 1625 
L 3713 1100 
L 3047 1100 
L 3047 0 
L 2419 0 
L 2419 1100 
L 313 1100 
L 313 1709 
L 2253 4666 
z
" transform="scale(0.015625)"/>
       </defs>
       <use xlink:href="#DejaVuSans-34"/>
       <use xlink:href="#DejaVuSans-30" transform="translate(63.623047 0)"/>
       <use xlink:href="#DejaVuSans-30" transform="translate(127.246094 0)"/>
       <use xlink:href="#DejaVuSans-30" transform="translate(190.869141 0)"/>
       <use xlink:href="#DejaVuSans-30" transform="translate(254.492188 0)"/>
       <use xlink:href="#DejaVuSans-30" transform="translate(318.115234 0)"/>
      </g>
     </g>
    </g>
    <g id="xtick_4">
     <g id="line2d_4">
      <g>
       <use xlink:href="#m12c5ba8e3f" x="386.12009" y="303.64" style="stroke: #000000; stroke-width: 0.8"/>
      </g>
     </g>
     <g id="text_4">
      <!-- 600000 -->
      <g transform="translate(367.03259 318.238437) scale(0.1 -0.1)">
       <defs>
        <path id="DejaVuSans-36" d="M 2113 2584 
Q 1688 2584 1439 2293 
Q 1191 2003 1191 1497 
Q 1191 994 1439 701 
Q 1688 409 2113 409 
Q 2538 409 2786 701 
Q 3034 994 3034 1497 
Q 3034 2003 2786 2293 
Q 2538 2584 2113 2584 
z
M 3366 4563 
L 3366 3988 
Q 3128 4100 2886 4159 
Q 2644 4219 2406 4219 
Q 1781 4219 1451 3797 
Q 1122 3375 1075 2522 
Q 1259 2794 1537 2939 
Q 1816 3084 2150 3084 
Q 2853 3084 3261 2657 
Q 3669 2231 3669 1497 
Q 3669 778 3244 343 
Q 2819 -91 2113 -91 
Q 1303 -91 875 529 
Q 447 1150 447 2328 
Q 447 3434 972 4092 
Q 1497 4750 2381 4750 
Q 2619 4750 2861 4703 
Q 3103 4656 3366 4563 
z
" transform="scale(0.015625)"/>
       </defs>
       <use xlink:href="#DejaVuSans-36"/>
       <use xlink:href="#DejaVuSans-30" transform="translate(63.623047 0)"/>
       <use xlink:href="#DejaVuSans-30" transform="translate(127.246094 0)"/>
       <use xlink:href="#DejaVuSans-30" transform="translate(190.869141 0)"/>
       <use xlink:href="#DejaVuSans-30" transform="translate(254.492188 0)"/>
       <use xlink:href="#DejaVuSans-30" transform="translate(318.115234 0)"/>
      </g>
     </g>
    </g>
    <g id="xtick_5">
     <g id="line2d_5">
      <g>
       <use xlink:href="#m12c5ba8e3f" x="434.823453" y="303.64" style="stroke: #000000; stroke-width: 0.8"/>
      </g>
     </g>
     <g id="text_5">
      <!-- 800000 -->
      <g transform="translate(415.735953 318.238437) scale(0.1 -0.1)">
       <defs>
        <path id="DejaVuSans-38" d="M 2034 2216 
Q 1584 2216 1326 1975 
Q 1069 1734 1069 1313 
Q 1069 891 1326 650 
Q 1584 409 2034 409 
Q 2484 409 2743 651 
Q 3003 894 3003 1313 
Q 3003 1734 2745 1975 
Q 2488 2216 2034 2216 
z
M 1403 2484 
Q 997 2584 770 2862 
Q 544 3141 544 3541 
Q 544 4100 942 4425 
Q 1341 4750 2034 4750 
Q 2731 4750 3128 4425 
Q 3525 4100 3525 3541 
Q 3525 3141 3298 2862 
Q 3072 2584 2669 2484 
Q 3125 2378 3379 2068 
Q 3634 1759 3634 1313 
Q 3634 634 3220 271 
Q 2806 -91 2034 -91 
Q 1263 -91 848 271 
Q 434 634 434 1313 
Q 434 1759 690 2068 
Q 947 2378 1403 2484 
z
M 1172 3481 
Q 1172 3119 1398 2916 
Q 1625 2713 2034 2713 
Q 2441 2713 2670 2916 
Q 2900 3119 2900 3481 
Q 2900 3844 2670 4047 
Q 2441 4250 2034 4250 
Q 1625 4250 1398 4047 
Q 1172 3844 1172 3481 
z
" transform="scale(0.015625)"/>
       </defs>
       <use xlink:href="#DejaVuSans-38"/>
       <use xlink:href="#DejaVuSans-30" transform="translate(63.623047 0)"/>
       <use xlink:href="#DejaVuSans-30" transform="translate(127.246094 0)"/>
       <use xlink:href="#DejaVuSans-30" transform="translate(190.869141 0)"/>
       <use xlink:href="#DejaVuSans-30" transform="translate(254.492188 0)"/>
       <use xlink:href="#DejaVuSans-30" transform="translate(318.115234 0)"/>
      </g>
     </g>
    </g>
    <g id="text_6">
     <!-- Unit Cost (EUR) -->
     <g style="fill: #6c6c6c" transform="translate(294.651637 331.916562) scale(0.1 -0.1)">
      <defs>
       <path id="DejaVuSansMono-Bold-55" d="M 331 1722 
L 331 4666 
L 1253 4666 
L 1253 1491 
Q 1253 1141 1431 942 
Q 1609 744 1925 744 
Q 2241 744 2419 942 
Q 2597 1141 2597 1491 
L 2597 4666 
L 3519 4666 
L 3519 1722 
Q 3519 772 3141 340 
Q 2763 -91 1925 -91 
Q 1091 -91 711 340 
Q 331 772 331 1722 
z
" transform="scale(0.015625)"/>
       <path id="DejaVuSansMono-Bold-6e" d="M 3347 2272 
L 3347 0 
L 2438 0 
L 2438 2131 
Q 2438 2513 2330 2677 
Q 2222 2841 1978 2841 
Q 1731 2841 1589 2619 
Q 1447 2397 1447 2003 
L 1447 0 
L 538 0 
L 538 3500 
L 1447 3500 
L 1447 2975 
Q 1544 3266 1778 3425 
Q 2013 3584 2344 3584 
Q 2841 3584 3094 3254 
Q 3347 2925 3347 2272 
z
" transform="scale(0.015625)"/>
       <path id="DejaVuSansMono-Bold-69" d="M 691 3500 
L 2503 3500 
L 2503 703 
L 3641 703 
L 3641 0 
L 447 0 
L 447 703 
L 1588 703 
L 1588 2797 
L 691 2797 
L 691 3500 
z
M 1588 5203 
L 2503 5203 
L 2503 4134 
L 1588 4134 
L 1588 5203 
z
" transform="scale(0.015625)"/>
       <path id="DejaVuSansMono-Bold-74" d="M 2156 4494 
L 2156 3500 
L 3353 3500 
L 3353 2797 
L 2156 2797 
L 2156 1141 
Q 2156 906 2270 804 
Q 2384 703 2650 703 
L 3353 703 
L 3353 0 
L 2584 0 
Q 1797 0 1519 251 
Q 1241 503 1241 1184 
L 1241 2797 
L 347 2797 
L 347 3500 
L 1241 3500 
L 1241 4494 
L 2156 4494 
z
" transform="scale(0.015625)"/>
       <path id="DejaVuSansMono-Bold-20" transform="scale(0.015625)"/>
       <path id="DejaVuSansMono-Bold-43" d="M 3378 134 
Q 3159 22 2918 -34 
Q 2678 -91 2413 -91 
Q 1469 -91 972 531 
Q 475 1153 475 2328 
Q 475 3506 972 4128 
Q 1469 4750 2413 4750 
Q 2678 4750 2922 4694 
Q 3166 4638 3378 4525 
L 3378 3500 
Q 3141 3719 2917 3820 
Q 2694 3922 2456 3922 
Q 1950 3922 1692 3520 
Q 1434 3119 1434 2328 
Q 1434 1541 1692 1139 
Q 1950 738 2456 738 
Q 2694 738 2917 839 
Q 3141 941 3378 1159 
L 3378 134 
z
" transform="scale(0.015625)"/>
       <path id="DejaVuSansMono-Bold-6f" d="M 1925 2841 
Q 1597 2841 1409 2552 
Q 1222 2263 1222 1747 
Q 1222 1231 1409 942 
Q 1597 653 1925 653 
Q 2256 653 2443 942 
Q 2631 1231 2631 1747 
Q 2631 2263 2443 2552 
Q 2256 2841 1925 2841 
z
M 306 1747 
Q 306 2594 745 3089 
Q 1184 3584 1925 3584 
Q 2669 3584 3108 3089 
Q 3547 2594 3547 1747 
Q 3547 900 3108 404 
Q 2669 -91 1925 -91 
Q 1184 -91 745 404 
Q 306 900 306 1747 
z
" transform="scale(0.015625)"/>
       <path id="DejaVuSansMono-Bold-73" d="M 3097 3391 
L 3097 2591 
Q 2844 2753 2570 2836 
Q 2297 2919 2022 2919 
Q 1716 2919 1559 2830 
Q 1403 2741 1403 2566 
Q 1403 2316 2072 2159 
L 2106 2150 
L 2369 2088 
Q 2869 1969 3101 1705 
Q 3334 1441 3334 991 
Q 3334 450 2979 179 
Q 2625 -91 1913 -91 
Q 1597 -91 1265 -36 
Q 934 19 594 128 
L 594 928 
Q 897 756 1211 665 
Q 1525 575 1819 575 
Q 2141 575 2306 669 
Q 2472 763 2472 941 
Q 2472 1116 2355 1209 
Q 2238 1303 1797 1409 
L 1544 1466 
Q 1019 1584 778 1837 
Q 538 2091 538 2516 
Q 538 3022 903 3303 
Q 1269 3584 1931 3584 
Q 2228 3584 2523 3536 
Q 2819 3488 3097 3391 
z
" transform="scale(0.015625)"/>
       <path id="DejaVuSansMono-Bold-28" d="M 2888 4856 
Q 2475 4109 2275 3409 
Q 2075 2709 2075 2009 
Q 2075 1316 2275 611 
Q 2475 -94 2888 -844 
L 2175 -844 
Q 1678 -122 1437 579 
Q 1197 1281 1197 2009 
Q 1197 2734 1439 3439 
Q 1681 4144 2175 4856 
L 2888 4856 
z
" transform="scale(0.015625)"/>
       <path id="DejaVuSansMono-Bold-45" d="M 3431 0 
L 525 0 
L 525 4666 
L 3431 4666 
L 3431 3853 
L 1447 3853 
L 1447 2847 
L 3244 2847 
L 3244 2034 
L 1447 2034 
L 1447 813 
L 3431 813 
L 3431 0 
z
" transform="scale(0.015625)"/>
       <path id="DejaVuSansMono-Bold-52" d="M 2522 2203 
Q 2659 2175 2761 2073 
Q 2863 1972 3009 1678 
L 3853 0 
L 2841 0 
L 2278 1178 
Q 2253 1228 2213 1316 
Q 1966 1844 1631 1844 
L 1338 1844 
L 1338 0 
L 416 0 
L 416 4666 
L 1747 4666 
Q 2647 4666 3039 4347 
Q 3431 4028 3431 3309 
Q 3431 2828 3197 2543 
Q 2963 2259 2522 2203 
z
M 1338 3891 
L 1338 2619 
L 1772 2619 
Q 2150 2619 2314 2767 
Q 2478 2916 2478 3256 
Q 2478 3597 2315 3744 
Q 2153 3891 1772 3891 
L 1338 3891 
z
" transform="scale(0.015625)"/>
       <path id="DejaVuSansMono-Bold-29" d="M 966 4856 
L 1678 4856 
Q 2172 4144 2414 3439 
Q 2656 2734 2656 2009 
Q 2656 1281 2415 579 
Q 2175 -122 1678 -844 
L 966 -844 
Q 1378 -94 1578 611 
Q 1778 1316 1778 2009 
Q 1778 2709 1578 3409 
Q 1378 4109 966 4856 
z
" transform="scale(0.015625)"/>
      </defs>
      <use xlink:href="#DejaVuSansMono-Bold-55"/>
      <use xlink:href="#DejaVuSansMono-Bold-6e" transform="translate(60.205078 0)"/>
      <use xlink:href="#DejaVuSansMono-Bold-69" transform="translate(120.410156 0)"/>
      <use xlink:href="#DejaVuSansMono-Bold-74" transform="translate(180.615234 0)"/>
      <use xlink:href="#DejaVuSansMono-Bold-20" transform="translate(240.820312 0)"/>
      <use xlink:href="#DejaVuSansMono-Bold-43" transform="translate(301.025391 0)"/>
      <use xlink:href="#DejaVuSansMono-Bold-6f" transform="translate(361.230469 0)"/>
      <use xlink:href="#DejaVuSansMono-Bold-73" transform="translate(421.435547 0)"/>
      <use xlink:href="#DejaVuSansMono-Bold-74" transform="translate(481.640625 0)"/>
      <use xlink:href="#DejaVuSansMono-Bold-20" transform="translate(541.845703 0)"/>
      <use xlink:href="#DejaVuSansMono-Bold-28" transform="translate(602.050781 0)"/>
      <use xlink:href="#DejaVuSansMono-Bold-45" transform="translate(662.255859 0)"/>
      <use xlink:href="#DejaVuSansMono-Bold-55" transform="translate(722.460938 0)"/>
      <use xlink:href="#DejaVuSansMono-Bold-52" transform="translate(782.666016 0)"/>
      <use xlink:href="#DejaVuSansMono-Bold-29" transform="translate(842.871094 0)"/>
     </g>
    </g>
   </g>
   <g id="matplotlib.axis_2">
    <g id="ytick_1">
     <g id="line2d_6">
      <defs>
       <path id="mcdf9928fc1" d="M 0 0 
L -3.5 0 
" style="stroke: #000000; stroke-width: 0.8"/>
      </defs>
      <g>
       <use xlink:href="#mcdf9928fc1" x="240.01" y="282.375021" style="stroke: #000000; stroke-width: 0.8"/>
      </g>
     </g>
     <g id="text_7">
      <!-- Import_MiR1200 -->
      <g transform="translate(151.01625 286.17424) scale(0.1 -0.1)">
       <defs>
        <path id="DejaVuSans-49" d="M 628 4666 
L 1259 4666 
L 1259 0 
L 628 0 
L 628 4666 
z
" transform="scale(0.015625)"/>
        <path id="DejaVuSans-6d" d="M 3328 2828 
Q 3544 3216 3844 3400 
Q 4144 3584 4550 3584 
Q 5097 3584 5394 3201 
Q 5691 2819 5691 2113 
L 5691 0 
L 5113 0 
L 5113 2094 
Q 5113 2597 4934 2840 
Q 4756 3084 4391 3084 
Q 3944 3084 3684 2787 
Q 3425 2491 3425 1978 
L 3425 0 
L 2847 0 
L 2847 2094 
Q 2847 2600 2669 2842 
Q 2491 3084 2119 3084 
Q 1678 3084 1418 2786 
Q 1159 2488 1159 1978 
L 1159 0 
L 581 0 
L 581 3500 
L 1159 3500 
L 1159 2956 
Q 1356 3278 1631 3431 
Q 1906 3584 2284 3584 
Q 2666 3584 2933 3390 
Q 3200 3197 3328 2828 
z
" transform="scale(0.015625)"/>
        <path id="DejaVuSans-70" d="M 1159 525 
L 1159 -1331 
L 581 -1331 
L 581 3500 
L 1159 3500 
L 1159 2969 
Q 1341 3281 1617 3432 
Q 1894 3584 2278 3584 
Q 2916 3584 3314 3078 
Q 3713 2572 3713 1747 
Q 3713 922 3314 415 
Q 2916 -91 2278 -91 
Q 1894 -91 1617 61 
Q 1341 213 1159 525 
z
M 3116 1747 
Q 3116 2381 2855 2742 
Q 2594 3103 2138 3103 
Q 1681 3103 1420 2742 
Q 1159 2381 1159 1747 
Q 1159 1113 1420 752 
Q 1681 391 2138 391 
Q 2594 391 2855 752 
Q 3116 1113 3116 1747 
z
" transform="scale(0.015625)"/>
        <path id="DejaVuSans-6f" d="M 1959 3097 
Q 1497 3097 1228 2736 
Q 959 2375 959 1747 
Q 959 1119 1226 758 
Q 1494 397 1959 397 
Q 2419 397 2687 759 
Q 2956 1122 2956 1747 
Q 2956 2369 2687 2733 
Q 2419 3097 1959 3097 
z
M 1959 3584 
Q 2709 3584 3137 3096 
Q 3566 2609 3566 1747 
Q 3566 888 3137 398 
Q 2709 -91 1959 -91 
Q 1206 -91 779 398 
Q 353 888 353 1747 
Q 353 2609 779 3096 
Q 1206 3584 1959 3584 
z
" transform="scale(0.015625)"/>
        <path id="DejaVuSans-72" d="M 2631 2963 
Q 2534 3019 2420 3045 
Q 2306 3072 2169 3072 
Q 1681 3072 1420 2755 
Q 1159 2438 1159 1844 
L 1159 0 
L 581 0 
L 581 3500 
L 1159 3500 
L 1159 2956 
Q 1341 3275 1631 3429 
Q 1922 3584 2338 3584 
Q 2397 3584 2469 3576 
Q 2541 3569 2628 3553 
L 2631 2963 
z
" transform="scale(0.015625)"/>
        <path id="DejaVuSans-74" d="M 1172 4494 
L 1172 3500 
L 2356 3500 
L 2356 3053 
L 1172 3053 
L 1172 1153 
Q 1172 725 1289 603 
Q 1406 481 1766 481 
L 2356 481 
L 2356 0 
L 1766 0 
Q 1100 0 847 248 
Q 594 497 594 1153 
L 594 3053 
L 172 3053 
L 172 3500 
L 594 3500 
L 594 4494 
L 1172 4494 
z
" transform="scale(0.015625)"/>
        <path id="DejaVuSans-5f" d="M 3263 -1063 
L 3263 -1509 
L -63 -1509 
L -63 -1063 
L 3263 -1063 
z
" transform="scale(0.015625)"/>
        <path id="DejaVuSans-4d" d="M 628 4666 
L 1569 4666 
L 2759 1491 
L 3956 4666 
L 4897 4666 
L 4897 0 
L 4281 0 
L 4281 4097 
L 3078 897 
L 2444 897 
L 1241 4097 
L 1241 0 
L 628 0 
L 628 4666 
z
" transform="scale(0.015625)"/>
        <path id="DejaVuSans-69" d="M 603 3500 
L 1178 3500 
L 1178 0 
L 603 0 
L 603 3500 
z
M 603 4863 
L 1178 4863 
L 1178 4134 
L 603 4134 
L 603 4863 
z
" transform="scale(0.015625)"/>
        <path id="DejaVuSans-52" d="M 2841 2188 
Q 3044 2119 3236 1894 
Q 3428 1669 3622 1275 
L 4263 0 
L 3584 0 
L 2988 1197 
Q 2756 1666 2539 1819 
Q 2322 1972 1947 1972 
L 1259 1972 
L 1259 0 
L 628 0 
L 628 4666 
L 2053 4666 
Q 2853 4666 3247 4331 
Q 3641 3997 3641 3322 
Q 3641 2881 3436 2590 
Q 3231 2300 2841 2188 
z
M 1259 4147 
L 1259 2491 
L 2053 2491 
Q 2509 2491 2742 2702 
Q 2975 2913 2975 3322 
Q 2975 3731 2742 3939 
Q 2509 4147 2053 4147 
L 1259 4147 
z
" transform="scale(0.015625)"/>
        <path id="DejaVuSans-31" d="M 794 531 
L 1825 531 
L 1825 4091 
L 703 3866 
L 703 4441 
L 1819 4666 
L 2450 4666 
L 2450 531 
L 3481 531 
L 3481 0 
L 794 0 
L 794 531 
z
" transform="scale(0.015625)"/>
       </defs>
       <use xlink:href="#DejaVuSans-49"/>
       <use xlink:href="#DejaVuSans-6d" transform="translate(29.492188 0)"/>
       <use xlink:href="#DejaVuSans-70" transform="translate(126.904297 0)"/>
       <use xlink:href="#DejaVuSans-6f" transform="translate(190.380859 0)"/>
       <use xlink:href="#DejaVuSans-72" transform="translate(251.5625 0)"/>
       <use xlink:href="#DejaVuSans-74" transform="translate(292.675781 0)"/>
       <use xlink:href="#DejaVuSans-5f" transform="translate(331.884766 0)"/>
       <use xlink:href="#DejaVuSans-4d" transform="translate(381.884766 0)"/>
       <use xlink:href="#DejaVuSans-69" transform="translate(468.164062 0)"/>
       <use xlink:href="#DejaVuSans-52" transform="translate(495.947266 0)"/>
       <use xlink:href="#DejaVuSans-31" transform="translate(565.429688 0)"/>
       <use xlink:href="#DejaVuSans-32" transform="translate(629.052734 0)"/>
       <use xlink:href="#DejaVuSans-30" transform="translate(692.675781 0)"/>
       <use xlink:href="#DejaVuSans-30" transform="translate(756.298828 0)"/>
      </g>
     </g>
    </g>
    <g id="ytick_2">
     <g id="line2d_7">
      <g>
       <use xlink:href="#mcdf9928fc1" x="240.01" y="260.895245" style="stroke: #000000; stroke-width: 0.8"/>
      </g>
     </g>
     <g id="text_8">
      <!-- Import_MiR600 -->
      <g transform="translate(157.37875 264.694463) scale(0.1 -0.1)">
       <use xlink:href="#DejaVuSans-49"/>
       <use xlink:href="#DejaVuSans-6d" transform="translate(29.492188 0)"/>
       <use xlink:href="#DejaVuSans-70" transform="translate(126.904297 0)"/>
       <use xlink:href="#DejaVuSans-6f" transform="translate(190.380859 0)"/>
       <use xlink:href="#DejaVuSans-72" transform="translate(251.5625 0)"/>
       <use xlink:href="#DejaVuSans-74" transform="translate(292.675781 0)"/>
       <use xlink:href="#DejaVuSans-5f" transform="translate(331.884766 0)"/>
       <use xlink:href="#DejaVuSans-4d" transform="translate(381.884766 0)"/>
       <use xlink:href="#DejaVuSans-69" transform="translate(468.164062 0)"/>
       <use xlink:href="#DejaVuSans-52" transform="translate(495.947266 0)"/>
       <use xlink:href="#DejaVuSans-36" transform="translate(565.429688 0)"/>
       <use xlink:href="#DejaVuSans-30" transform="translate(629.052734 0)"/>
       <use xlink:href="#DejaVuSans-30" transform="translate(692.675781 0)"/>
      </g>
     </g>
    </g>
    <g id="ytick_3">
     <g id="line2d_8">
      <g>
       <use xlink:href="#mcdf9928fc1" x="240.01" y="239.415468" style="stroke: #000000; stroke-width: 0.8"/>
      </g>
     </g>
     <g id="text_9">
      <!-- Production_Line_Average_Unit_Cost -->
      <g transform="translate(55.319375 243.214687) scale(0.1 -0.1)">
       <defs>
        <path id="DejaVuSans-50" d="M 1259 4147 
L 1259 2394 
L 2053 2394 
Q 2494 2394 2734 2622 
Q 2975 2850 2975 3272 
Q 2975 3691 2734 3919 
Q 2494 4147 2053 4147 
L 1259 4147 
z
M 628 4666 
L 2053 4666 
Q 2838 4666 3239 4311 
Q 3641 3956 3641 3272 
Q 3641 2581 3239 2228 
Q 2838 1875 2053 1875 
L 1259 1875 
L 1259 0 
L 628 0 
L 628 4666 
z
" transform="scale(0.015625)"/>
        <path id="DejaVuSans-64" d="M 2906 2969 
L 2906 4863 
L 3481 4863 
L 3481 0 
L 2906 0 
L 2906 525 
Q 2725 213 2448 61 
Q 2172 -91 1784 -91 
Q 1150 -91 751 415 
Q 353 922 353 1747 
Q 353 2572 751 3078 
Q 1150 3584 1784 3584 
Q 2172 3584 2448 3432 
Q 2725 3281 2906 2969 
z
M 947 1747 
Q 947 1113 1208 752 
Q 1469 391 1925 391 
Q 2381 391 2643 752 
Q 2906 1113 2906 1747 
Q 2906 2381 2643 2742 
Q 2381 3103 1925 3103 
Q 1469 3103 1208 2742 
Q 947 2381 947 1747 
z
" transform="scale(0.015625)"/>
        <path id="DejaVuSans-75" d="M 544 1381 
L 544 3500 
L 1119 3500 
L 1119 1403 
Q 1119 906 1312 657 
Q 1506 409 1894 409 
Q 2359 409 2629 706 
Q 2900 1003 2900 1516 
L 2900 3500 
L 3475 3500 
L 3475 0 
L 2900 0 
L 2900 538 
Q 2691 219 2414 64 
Q 2138 -91 1772 -91 
Q 1169 -91 856 284 
Q 544 659 544 1381 
z
M 1991 3584 
L 1991 3584 
z
" transform="scale(0.015625)"/>
        <path id="DejaVuSans-63" d="M 3122 3366 
L 3122 2828 
Q 2878 2963 2633 3030 
Q 2388 3097 2138 3097 
Q 1578 3097 1268 2742 
Q 959 2388 959 1747 
Q 959 1106 1268 751 
Q 1578 397 2138 397 
Q 2388 397 2633 464 
Q 2878 531 3122 666 
L 3122 134 
Q 2881 22 2623 -34 
Q 2366 -91 2075 -91 
Q 1284 -91 818 406 
Q 353 903 353 1747 
Q 353 2603 823 3093 
Q 1294 3584 2113 3584 
Q 2378 3584 2631 3529 
Q 2884 3475 3122 3366 
z
" transform="scale(0.015625)"/>
        <path id="DejaVuSans-6e" d="M 3513 2113 
L 3513 0 
L 2938 0 
L 2938 2094 
Q 2938 2591 2744 2837 
Q 2550 3084 2163 3084 
Q 1697 3084 1428 2787 
Q 1159 2491 1159 1978 
L 1159 0 
L 581 0 
L 581 3500 
L 1159 3500 
L 1159 2956 
Q 1366 3272 1645 3428 
Q 1925 3584 2291 3584 
Q 2894 3584 3203 3211 
Q 3513 2838 3513 2113 
z
" transform="scale(0.015625)"/>
        <path id="DejaVuSans-4c" d="M 628 4666 
L 1259 4666 
L 1259 531 
L 3531 531 
L 3531 0 
L 628 0 
L 628 4666 
z
" transform="scale(0.015625)"/>
        <path id="DejaVuSans-65" d="M 3597 1894 
L 3597 1613 
L 953 1613 
Q 991 1019 1311 708 
Q 1631 397 2203 397 
Q 2534 397 2845 478 
Q 3156 559 3463 722 
L 3463 178 
Q 3153 47 2828 -22 
Q 2503 -91 2169 -91 
Q 1331 -91 842 396 
Q 353 884 353 1716 
Q 353 2575 817 3079 
Q 1281 3584 2069 3584 
Q 2775 3584 3186 3129 
Q 3597 2675 3597 1894 
z
M 3022 2063 
Q 3016 2534 2758 2815 
Q 2500 3097 2075 3097 
Q 1594 3097 1305 2825 
Q 1016 2553 972 2059 
L 3022 2063 
z
" transform="scale(0.015625)"/>
        <path id="DejaVuSans-41" d="M 2188 4044 
L 1331 1722 
L 3047 1722 
L 2188 4044 
z
M 1831 4666 
L 2547 4666 
L 4325 0 
L 3669 0 
L 3244 1197 
L 1141 1197 
L 716 0 
L 50 0 
L 1831 4666 
z
" transform="scale(0.015625)"/>
        <path id="DejaVuSans-76" d="M 191 3500 
L 800 3500 
L 1894 563 
L 2988 3500 
L 3597 3500 
L 2284 0 
L 1503 0 
L 191 3500 
z
" transform="scale(0.015625)"/>
        <path id="DejaVuSans-61" d="M 2194 1759 
Q 1497 1759 1228 1600 
Q 959 1441 959 1056 
Q 959 750 1161 570 
Q 1363 391 1709 391 
Q 2188 391 2477 730 
Q 2766 1069 2766 1631 
L 2766 1759 
L 2194 1759 
z
M 3341 1997 
L 3341 0 
L 2766 0 
L 2766 531 
Q 2569 213 2275 61 
Q 1981 -91 1556 -91 
Q 1019 -91 701 211 
Q 384 513 384 1019 
Q 384 1609 779 1909 
Q 1175 2209 1959 2209 
L 2766 2209 
L 2766 2266 
Q 2766 2663 2505 2880 
Q 2244 3097 1772 3097 
Q 1472 3097 1187 3025 
Q 903 2953 641 2809 
L 641 3341 
Q 956 3463 1253 3523 
Q 1550 3584 1831 3584 
Q 2591 3584 2966 3190 
Q 3341 2797 3341 1997 
z
" transform="scale(0.015625)"/>
        <path id="DejaVuSans-67" d="M 2906 1791 
Q 2906 2416 2648 2759 
Q 2391 3103 1925 3103 
Q 1463 3103 1205 2759 
Q 947 2416 947 1791 
Q 947 1169 1205 825 
Q 1463 481 1925 481 
Q 2391 481 2648 825 
Q 2906 1169 2906 1791 
z
M 3481 434 
Q 3481 -459 3084 -895 
Q 2688 -1331 1869 -1331 
Q 1566 -1331 1297 -1286 
Q 1028 -1241 775 -1147 
L 775 -588 
Q 1028 -725 1275 -790 
Q 1522 -856 1778 -856 
Q 2344 -856 2625 -561 
Q 2906 -266 2906 331 
L 2906 616 
Q 2728 306 2450 153 
Q 2172 0 1784 0 
Q 1141 0 747 490 
Q 353 981 353 1791 
Q 353 2603 747 3093 
Q 1141 3584 1784 3584 
Q 2172 3584 2450 3431 
Q 2728 3278 2906 2969 
L 2906 3500 
L 3481 3500 
L 3481 434 
z
" transform="scale(0.015625)"/>
        <path id="DejaVuSans-55" d="M 556 4666 
L 1191 4666 
L 1191 1831 
Q 1191 1081 1462 751 
Q 1734 422 2344 422 
Q 2950 422 3222 751 
Q 3494 1081 3494 1831 
L 3494 4666 
L 4128 4666 
L 4128 1753 
Q 4128 841 3676 375 
Q 3225 -91 2344 -91 
Q 1459 -91 1007 375 
Q 556 841 556 1753 
L 556 4666 
z
" transform="scale(0.015625)"/>
        <path id="DejaVuSans-43" d="M 4122 4306 
L 4122 3641 
Q 3803 3938 3442 4084 
Q 3081 4231 2675 4231 
Q 1875 4231 1450 3742 
Q 1025 3253 1025 2328 
Q 1025 1406 1450 917 
Q 1875 428 2675 428 
Q 3081 428 3442 575 
Q 3803 722 4122 1019 
L 4122 359 
Q 3791 134 3420 21 
Q 3050 -91 2638 -91 
Q 1578 -91 968 557 
Q 359 1206 359 2328 
Q 359 3453 968 4101 
Q 1578 4750 2638 4750 
Q 3056 4750 3426 4639 
Q 3797 4528 4122 4306 
z
" transform="scale(0.015625)"/>
        <path id="DejaVuSans-73" d="M 2834 3397 
L 2834 2853 
Q 2591 2978 2328 3040 
Q 2066 3103 1784 3103 
Q 1356 3103 1142 2972 
Q 928 2841 928 2578 
Q 928 2378 1081 2264 
Q 1234 2150 1697 2047 
L 1894 2003 
Q 2506 1872 2764 1633 
Q 3022 1394 3022 966 
Q 3022 478 2636 193 
Q 2250 -91 1575 -91 
Q 1294 -91 989 -36 
Q 684 19 347 128 
L 347 722 
Q 666 556 975 473 
Q 1284 391 1588 391 
Q 1994 391 2212 530 
Q 2431 669 2431 922 
Q 2431 1156 2273 1281 
Q 2116 1406 1581 1522 
L 1381 1569 
Q 847 1681 609 1914 
Q 372 2147 372 2553 
Q 372 3047 722 3315 
Q 1072 3584 1716 3584 
Q 2034 3584 2315 3537 
Q 2597 3491 2834 3397 
z
" transform="scale(0.015625)"/>
       </defs>
       <use xlink:href="#DejaVuSans-50"/>
       <use xlink:href="#DejaVuSans-72" transform="translate(58.552734 0)"/>
       <use xlink:href="#DejaVuSans-6f" transform="translate(97.416016 0)"/>
       <use xlink:href="#DejaVuSans-64" transform="translate(158.597656 0)"/>
       <use xlink:href="#DejaVuSans-75" transform="translate(222.074219 0)"/>
       <use xlink:href="#DejaVuSans-63" transform="translate(285.453125 0)"/>
       <use xlink:href="#DejaVuSans-74" transform="translate(340.433594 0)"/>
       <use xlink:href="#DejaVuSans-69" transform="translate(379.642578 0)"/>
       <use xlink:href="#DejaVuSans-6f" transform="translate(407.425781 0)"/>
       <use xlink:href="#DejaVuSans-6e" transform="translate(468.607422 0)"/>
       <use xlink:href="#DejaVuSans-5f" transform="translate(531.986328 0)"/>
       <use xlink:href="#DejaVuSans-4c" transform="translate(581.986328 0)"/>
       <use xlink:href="#DejaVuSans-69" transform="translate(637.699219 0)"/>
       <use xlink:href="#DejaVuSans-6e" transform="translate(665.482422 0)"/>
       <use xlink:href="#DejaVuSans-65" transform="translate(728.861328 0)"/>
       <use xlink:href="#DejaVuSans-5f" transform="translate(790.384766 0)"/>
       <use xlink:href="#DejaVuSans-41" transform="translate(840.384766 0)"/>
       <use xlink:href="#DejaVuSans-76" transform="translate(902.917969 0)"/>
       <use xlink:href="#DejaVuSans-65" transform="translate(962.097656 0)"/>
       <use xlink:href="#DejaVuSans-72" transform="translate(1023.621094 0)"/>
       <use xlink:href="#DejaVuSans-61" transform="translate(1064.734375 0)"/>
       <use xlink:href="#DejaVuSans-67" transform="translate(1126.013672 0)"/>
       <use xlink:href="#DejaVuSans-65" transform="translate(1189.490234 0)"/>
       <use xlink:href="#DejaVuSans-5f" transform="translate(1251.013672 0)"/>
       <use xlink:href="#DejaVuSans-55" transform="translate(1301.013672 0)"/>
       <use xlink:href="#DejaVuSans-6e" transform="translate(1374.207031 0)"/>
       <use xlink:href="#DejaVuSans-69" transform="translate(1437.585938 0)"/>
       <use xlink:href="#DejaVuSans-74" transform="translate(1465.369141 0)"/>
       <use xlink:href="#DejaVuSans-5f" transform="translate(1504.578125 0)"/>
       <use xlink:href="#DejaVuSans-43" transform="translate(1554.578125 0)"/>
       <use xlink:href="#DejaVuSans-6f" transform="translate(1624.402344 0)"/>
       <use xlink:href="#DejaVuSans-73" transform="translate(1685.583984 0)"/>
       <use xlink:href="#DejaVuSans-74" transform="translate(1737.683594 0)"/>
      </g>
     </g>
    </g>
    <g id="ytick_4">
     <g id="line2d_9">
      <g>
       <use xlink:href="#mcdf9928fc1" x="240.01" y="217.935691" style="stroke: #000000; stroke-width: 0.8"/>
      </g>
     </g>
     <g id="text_10">
      <!-- Export_MiR1200 -->
      <g transform="translate(151.469375 221.73491) scale(0.1 -0.1)">
       <defs>
        <path id="DejaVuSans-45" d="M 628 4666 
L 3578 4666 
L 3578 4134 
L 1259 4134 
L 1259 2753 
L 3481 2753 
L 3481 2222 
L 1259 2222 
L 1259 531 
L 3634 531 
L 3634 0 
L 628 0 
L 628 4666 
z
" transform="scale(0.015625)"/>
        <path id="DejaVuSans-78" d="M 3513 3500 
L 2247 1797 
L 3578 0 
L 2900 0 
L 1881 1375 
L 863 0 
L 184 0 
L 1544 1831 
L 300 3500 
L 978 3500 
L 1906 2253 
L 2834 3500 
L 3513 3500 
z
" transform="scale(0.015625)"/>
       </defs>
       <use xlink:href="#DejaVuSans-45"/>
       <use xlink:href="#DejaVuSans-78" transform="translate(63.183594 0)"/>
       <use xlink:href="#DejaVuSans-70" transform="translate(122.363281 0)"/>
       <use xlink:href="#DejaVuSans-6f" transform="translate(185.839844 0)"/>
       <use xlink:href="#DejaVuSans-72" transform="translate(247.021484 0)"/>
       <use xlink:href="#DejaVuSans-74" transform="translate(288.134766 0)"/>
       <use xlink:href="#DejaVuSans-5f" transform="translate(327.34375 0)"/>
       <use xlink:href="#DejaVuSans-4d" transform="translate(377.34375 0)"/>
       <use xlink:href="#DejaVuSans-69" transform="translate(463.623047 0)"/>
       <use xlink:href="#DejaVuSans-52" transform="translate(491.40625 0)"/>
       <use xlink:href="#DejaVuSans-31" transform="translate(560.888672 0)"/>
       <use xlink:href="#DejaVuSans-32" transform="translate(624.511719 0)"/>
       <use xlink:href="#DejaVuSans-30" transform="translate(688.134766 0)"/>
       <use xlink:href="#DejaVuSans-30" transform="translate(751.757812 0)"/>
      </g>
     </g>
    </g>
    <g id="ytick_5">
     <g id="line2d_10">
      <g>
       <use xlink:href="#mcdf9928fc1" x="240.01" y="196.455915" style="stroke: #000000; stroke-width: 0.8"/>
      </g>
     </g>
     <g id="text_11">
      <!-- Export_MiR600 -->
      <g transform="translate(157.831875 200.255134) scale(0.1 -0.1)">
       <use xlink:href="#DejaVuSans-45"/>
       <use xlink:href="#DejaVuSans-78" transform="translate(63.183594 0)"/>
       <use xlink:href="#DejaVuSans-70" transform="translate(122.363281 0)"/>
       <use xlink:href="#DejaVuSans-6f" transform="translate(185.839844 0)"/>
       <use xlink:href="#DejaVuSans-72" transform="translate(247.021484 0)"/>
       <use xlink:href="#DejaVuSans-74" transform="translate(288.134766 0)"/>
       <use xlink:href="#DejaVuSans-5f" transform="translate(327.34375 0)"/>
       <use xlink:href="#DejaVuSans-4d" transform="translate(377.34375 0)"/>
       <use xlink:href="#DejaVuSans-69" transform="translate(463.623047 0)"/>
       <use xlink:href="#DejaVuSans-52" transform="translate(491.40625 0)"/>
       <use xlink:href="#DejaVuSans-36" transform="translate(560.888672 0)"/>
       <use xlink:href="#DejaVuSans-30" transform="translate(624.511719 0)"/>
       <use xlink:href="#DejaVuSans-30" transform="translate(688.134766 0)"/>
      </g>
     </g>
    </g>
    <g id="ytick_6">
     <g id="line2d_11">
      <g>
       <use xlink:href="#mcdf9928fc1" x="240.01" y="174.976138" style="stroke: #000000; stroke-width: 0.8"/>
      </g>
     </g>
     <g id="text_12">
      <!-- Export_MiR1350 -->
      <g transform="translate(151.469375 178.775357) scale(0.1 -0.1)">
       <defs>
        <path id="DejaVuSans-33" d="M 2597 2516 
Q 3050 2419 3304 2112 
Q 3559 1806 3559 1356 
Q 3559 666 3084 287 
Q 2609 -91 1734 -91 
Q 1441 -91 1130 -33 
Q 819 25 488 141 
L 488 750 
Q 750 597 1062 519 
Q 1375 441 1716 441 
Q 2309 441 2620 675 
Q 2931 909 2931 1356 
Q 2931 1769 2642 2001 
Q 2353 2234 1838 2234 
L 1294 2234 
L 1294 2753 
L 1863 2753 
Q 2328 2753 2575 2939 
Q 2822 3125 2822 3475 
Q 2822 3834 2567 4026 
Q 2313 4219 1838 4219 
Q 1578 4219 1281 4162 
Q 984 4106 628 3988 
L 628 4550 
Q 988 4650 1302 4700 
Q 1616 4750 1894 4750 
Q 2613 4750 3031 4423 
Q 3450 4097 3450 3541 
Q 3450 3153 3228 2886 
Q 3006 2619 2597 2516 
z
" transform="scale(0.015625)"/>
        <path id="DejaVuSans-35" d="M 691 4666 
L 3169 4666 
L 3169 4134 
L 1269 4134 
L 1269 2991 
Q 1406 3038 1543 3061 
Q 1681 3084 1819 3084 
Q 2600 3084 3056 2656 
Q 3513 2228 3513 1497 
Q 3513 744 3044 326 
Q 2575 -91 1722 -91 
Q 1428 -91 1123 -41 
Q 819 9 494 109 
L 494 744 
Q 775 591 1075 516 
Q 1375 441 1709 441 
Q 2250 441 2565 725 
Q 2881 1009 2881 1497 
Q 2881 1984 2565 2268 
Q 2250 2553 1709 2553 
Q 1456 2553 1204 2497 
Q 953 2441 691 2322 
L 691 4666 
z
" transform="scale(0.015625)"/>
       </defs>
       <use xlink:href="#DejaVuSans-45"/>
       <use xlink:href="#DejaVuSans-78" transform="translate(63.183594 0)"/>
       <use xlink:href="#DejaVuSans-70" transform="translate(122.363281 0)"/>
       <use xlink:href="#DejaVuSans-6f" transform="translate(185.839844 0)"/>
       <use xlink:href="#DejaVuSans-72" transform="translate(247.021484 0)"/>
       <use xlink:href="#DejaVuSans-74" transform="translate(288.134766 0)"/>
       <use xlink:href="#DejaVuSans-5f" transform="translate(327.34375 0)"/>
       <use xlink:href="#DejaVuSans-4d" transform="translate(377.34375 0)"/>
       <use xlink:href="#DejaVuSans-69" transform="translate(463.623047 0)"/>
       <use xlink:href="#DejaVuSans-52" transform="translate(491.40625 0)"/>
       <use xlink:href="#DejaVuSans-31" transform="translate(560.888672 0)"/>
       <use xlink:href="#DejaVuSans-33" transform="translate(624.511719 0)"/>
       <use xlink:href="#DejaVuSans-35" transform="translate(688.134766 0)"/>
       <use xlink:href="#DejaVuSans-30" transform="translate(751.757812 0)"/>
      </g>
     </g>
    </g>
    <g id="ytick_7">
     <g id="line2d_12">
      <g>
       <use xlink:href="#mcdf9928fc1" x="240.01" y="153.496362" style="stroke: #000000; stroke-width: 0.8"/>
      </g>
     </g>
     <g id="text_13">
      <!-- Total_Light_Products_(Base) -->
      <g transform="translate(94.3725 157.29558) scale(0.1 -0.1)">
       <defs>
        <path id="DejaVuSans-54" d="M -19 4666 
L 3928 4666 
L 3928 4134 
L 2272 4134 
L 2272 0 
L 1638 0 
L 1638 4134 
L -19 4134 
L -19 4666 
z
" transform="scale(0.015625)"/>
        <path id="DejaVuSans-6c" d="M 603 4863 
L 1178 4863 
L 1178 0 
L 603 0 
L 603 4863 
z
" transform="scale(0.015625)"/>
        <path id="DejaVuSans-68" d="M 3513 2113 
L 3513 0 
L 2938 0 
L 2938 2094 
Q 2938 2591 2744 2837 
Q 2550 3084 2163 3084 
Q 1697 3084 1428 2787 
Q 1159 2491 1159 1978 
L 1159 0 
L 581 0 
L 581 4863 
L 1159 4863 
L 1159 2956 
Q 1366 3272 1645 3428 
Q 1925 3584 2291 3584 
Q 2894 3584 3203 3211 
Q 3513 2838 3513 2113 
z
" transform="scale(0.015625)"/>
        <path id="DejaVuSans-28" d="M 1984 4856 
Q 1566 4138 1362 3434 
Q 1159 2731 1159 2009 
Q 1159 1288 1364 580 
Q 1569 -128 1984 -844 
L 1484 -844 
Q 1016 -109 783 600 
Q 550 1309 550 2009 
Q 550 2706 781 3412 
Q 1013 4119 1484 4856 
L 1984 4856 
z
" transform="scale(0.015625)"/>
        <path id="DejaVuSans-42" d="M 1259 2228 
L 1259 519 
L 2272 519 
Q 2781 519 3026 730 
Q 3272 941 3272 1375 
Q 3272 1813 3026 2020 
Q 2781 2228 2272 2228 
L 1259 2228 
z
M 1259 4147 
L 1259 2741 
L 2194 2741 
Q 2656 2741 2882 2914 
Q 3109 3088 3109 3444 
Q 3109 3797 2882 3972 
Q 2656 4147 2194 4147 
L 1259 4147 
z
M 628 4666 
L 2241 4666 
Q 2963 4666 3353 4366 
Q 3744 4066 3744 3513 
Q 3744 3084 3544 2831 
Q 3344 2578 2956 2516 
Q 3422 2416 3680 2098 
Q 3938 1781 3938 1306 
Q 3938 681 3513 340 
Q 3088 0 2303 0 
L 628 0 
L 628 4666 
z
" transform="scale(0.015625)"/>
        <path id="DejaVuSans-29" d="M 513 4856 
L 1013 4856 
Q 1481 4119 1714 3412 
Q 1947 2706 1947 2009 
Q 1947 1309 1714 600 
Q 1481 -109 1013 -844 
L 513 -844 
Q 928 -128 1133 580 
Q 1338 1288 1338 2009 
Q 1338 2731 1133 3434 
Q 928 4138 513 4856 
z
" transform="scale(0.015625)"/>
       </defs>
       <use xlink:href="#DejaVuSans-54"/>
       <use xlink:href="#DejaVuSans-6f" transform="translate(44.083984 0)"/>
       <use xlink:href="#DejaVuSans-74" transform="translate(105.265625 0)"/>
       <use xlink:href="#DejaVuSans-61" transform="translate(144.474609 0)"/>
       <use xlink:href="#DejaVuSans-6c" transform="translate(205.753906 0)"/>
       <use xlink:href="#DejaVuSans-5f" transform="translate(233.537109 0)"/>
       <use xlink:href="#DejaVuSans-4c" transform="translate(283.537109 0)"/>
       <use xlink:href="#DejaVuSans-69" transform="translate(339.25 0)"/>
       <use xlink:href="#DejaVuSans-67" transform="translate(367.033203 0)"/>
       <use xlink:href="#DejaVuSans-68" transform="translate(430.509766 0)"/>
       <use xlink:href="#DejaVuSans-74" transform="translate(493.888672 0)"/>
       <use xlink:href="#DejaVuSans-5f" transform="translate(533.097656 0)"/>
       <use xlink:href="#DejaVuSans-50" transform="translate(583.097656 0)"/>
       <use xlink:href="#DejaVuSans-72" transform="translate(641.650391 0)"/>
       <use xlink:href="#DejaVuSans-6f" transform="translate(680.513672 0)"/>
       <use xlink:href="#DejaVuSans-64" transform="translate(741.695312 0)"/>
       <use xlink:href="#DejaVuSans-75" transform="translate(805.171875 0)"/>
       <use xlink:href="#DejaVuSans-63" transform="translate(868.550781 0)"/>
       <use xlink:href="#DejaVuSans-74" transform="translate(923.53125 0)"/>
       <use xlink:href="#DejaVuSans-73" transform="translate(962.740234 0)"/>
       <use xlink:href="#DejaVuSans-5f" transform="translate(1014.839844 0)"/>
       <use xlink:href="#DejaVuSans-28" transform="translate(1064.839844 0)"/>
       <use xlink:href="#DejaVuSans-42" transform="translate(1103.853516 0)"/>
       <use xlink:href="#DejaVuSans-61" transform="translate(1172.457031 0)"/>
       <use xlink:href="#DejaVuSans-73" transform="translate(1233.736328 0)"/>
       <use xlink:href="#DejaVuSans-65" transform="translate(1285.835938 0)"/>
       <use xlink:href="#DejaVuSans-29" transform="translate(1347.359375 0)"/>
      </g>
     </g>
    </g>
    <g id="ytick_8">
     <g id="line2d_13">
      <g>
       <use xlink:href="#mcdf9928fc1" x="240.01" y="132.016585" style="stroke: #000000; stroke-width: 0.8"/>
      </g>
     </g>
     <g id="text_14">
      <!-- Total_Light_Products_(+10%_Unforeseen) -->
      <g transform="translate(25.930313 135.815804) scale(0.1 -0.1)">
       <defs>
        <path id="DejaVuSans-2b" d="M 2944 4013 
L 2944 2272 
L 4684 2272 
L 4684 1741 
L 2944 1741 
L 2944 0 
L 2419 0 
L 2419 1741 
L 678 1741 
L 678 2272 
L 2419 2272 
L 2419 4013 
L 2944 4013 
z
" transform="scale(0.015625)"/>
        <path id="DejaVuSans-25" d="M 4653 2053 
Q 4381 2053 4226 1822 
Q 4072 1591 4072 1178 
Q 4072 772 4226 539 
Q 4381 306 4653 306 
Q 4919 306 5073 539 
Q 5228 772 5228 1178 
Q 5228 1588 5073 1820 
Q 4919 2053 4653 2053 
z
M 4653 2450 
Q 5147 2450 5437 2106 
Q 5728 1763 5728 1178 
Q 5728 594 5436 251 
Q 5144 -91 4653 -91 
Q 4153 -91 3862 251 
Q 3572 594 3572 1178 
Q 3572 1766 3864 2108 
Q 4156 2450 4653 2450 
z
M 1428 4353 
Q 1159 4353 1004 4120 
Q 850 3888 850 3481 
Q 850 3069 1003 2837 
Q 1156 2606 1428 2606 
Q 1700 2606 1854 2837 
Q 2009 3069 2009 3481 
Q 2009 3884 1853 4118 
Q 1697 4353 1428 4353 
z
M 4250 4750 
L 4750 4750 
L 1831 -91 
L 1331 -91 
L 4250 4750 
z
M 1428 4750 
Q 1922 4750 2215 4408 
Q 2509 4066 2509 3481 
Q 2509 2891 2217 2550 
Q 1925 2209 1428 2209 
Q 931 2209 642 2551 
Q 353 2894 353 3481 
Q 353 4063 643 4406 
Q 934 4750 1428 4750 
z
" transform="scale(0.015625)"/>
        <path id="DejaVuSans-66" d="M 2375 4863 
L 2375 4384 
L 1825 4384 
Q 1516 4384 1395 4259 
Q 1275 4134 1275 3809 
L 1275 3500 
L 2222 3500 
L 2222 3053 
L 1275 3053 
L 1275 0 
L 697 0 
L 697 3053 
L 147 3053 
L 147 3500 
L 697 3500 
L 697 3744 
Q 697 4328 969 4595 
Q 1241 4863 1831 4863 
L 2375 4863 
z
" transform="scale(0.015625)"/>
       </defs>
       <use xlink:href="#DejaVuSans-54"/>
       <use xlink:href="#DejaVuSans-6f" transform="translate(44.083984 0)"/>
       <use xlink:href="#DejaVuSans-74" transform="translate(105.265625 0)"/>
       <use xlink:href="#DejaVuSans-61" transform="translate(144.474609 0)"/>
       <use xlink:href="#DejaVuSans-6c" transform="translate(205.753906 0)"/>
       <use xlink:href="#DejaVuSans-5f" transform="translate(233.537109 0)"/>
       <use xlink:href="#DejaVuSans-4c" transform="translate(283.537109 0)"/>
       <use xlink:href="#DejaVuSans-69" transform="translate(339.25 0)"/>
       <use xlink:href="#DejaVuSans-67" transform="translate(367.033203 0)"/>
       <use xlink:href="#DejaVuSans-68" transform="translate(430.509766 0)"/>
       <use xlink:href="#DejaVuSans-74" transform="translate(493.888672 0)"/>
       <use xlink:href="#DejaVuSans-5f" transform="translate(533.097656 0)"/>
       <use xlink:href="#DejaVuSans-50" transform="translate(583.097656 0)"/>
       <use xlink:href="#DejaVuSans-72" transform="translate(641.650391 0)"/>
       <use xlink:href="#DejaVuSans-6f" transform="translate(680.513672 0)"/>
       <use xlink:href="#DejaVuSans-64" transform="translate(741.695312 0)"/>
       <use xlink:href="#DejaVuSans-75" transform="translate(805.171875 0)"/>
       <use xlink:href="#DejaVuSans-63" transform="translate(868.550781 0)"/>
       <use xlink:href="#DejaVuSans-74" transform="translate(923.53125 0)"/>
       <use xlink:href="#DejaVuSans-73" transform="translate(962.740234 0)"/>
       <use xlink:href="#DejaVuSans-5f" transform="translate(1014.839844 0)"/>
       <use xlink:href="#DejaVuSans-28" transform="translate(1064.839844 0)"/>
       <use xlink:href="#DejaVuSans-2b" transform="translate(1103.853516 0)"/>
       <use xlink:href="#DejaVuSans-31" transform="translate(1187.642578 0)"/>
       <use xlink:href="#DejaVuSans-30" transform="translate(1251.265625 0)"/>
       <use xlink:href="#DejaVuSans-25" transform="translate(1314.888672 0)"/>
       <use xlink:href="#DejaVuSans-5f" transform="translate(1409.908203 0)"/>
       <use xlink:href="#DejaVuSans-55" transform="translate(1459.908203 0)"/>
       <use xlink:href="#DejaVuSans-6e" transform="translate(1533.101562 0)"/>
       <use xlink:href="#DejaVuSans-66" transform="translate(1596.480469 0)"/>
       <use xlink:href="#DejaVuSans-6f" transform="translate(1631.685547 0)"/>
       <use xlink:href="#DejaVuSans-72" transform="translate(1692.867188 0)"/>
       <use xlink:href="#DejaVuSans-65" transform="translate(1731.730469 0)"/>
       <use xlink:href="#DejaVuSans-73" transform="translate(1793.253906 0)"/>
       <use xlink:href="#DejaVuSans-65" transform="translate(1845.353516 0)"/>
       <use xlink:href="#DejaVuSans-65" transform="translate(1906.876953 0)"/>
       <use xlink:href="#DejaVuSans-6e" transform="translate(1968.400391 0)"/>
       <use xlink:href="#DejaVuSans-29" transform="translate(2031.779297 0)"/>
      </g>
     </g>
    </g>
    <g id="ytick_9">
     <g id="line2d_14">
      <g>
       <use xlink:href="#mcdf9928fc1" x="240.01" y="110.536809" style="stroke: #000000; stroke-width: 0.8"/>
      </g>
     </g>
     <g id="text_15">
      <!-- Total_Medium_Products_(Base) -->
      <g transform="translate(79.342813 114.336027) scale(0.1 -0.1)">
       <use xlink:href="#DejaVuSans-54"/>
       <use xlink:href="#DejaVuSans-6f" transform="translate(44.083984 0)"/>
       <use xlink:href="#DejaVuSans-74" transform="translate(105.265625 0)"/>
       <use xlink:href="#DejaVuSans-61" transform="translate(144.474609 0)"/>
       <use xlink:href="#DejaVuSans-6c" transform="translate(205.753906 0)"/>
       <use xlink:href="#DejaVuSans-5f" transform="translate(233.537109 0)"/>
       <use xlink:href="#DejaVuSans-4d" transform="translate(283.537109 0)"/>
       <use xlink:href="#DejaVuSans-65" transform="translate(369.816406 0)"/>
       <use xlink:href="#DejaVuSans-64" transform="translate(431.339844 0)"/>
       <use xlink:href="#DejaVuSans-69" transform="translate(494.816406 0)"/>
       <use xlink:href="#DejaVuSans-75" transform="translate(522.599609 0)"/>
       <use xlink:href="#DejaVuSans-6d" transform="translate(585.978516 0)"/>
       <use xlink:href="#DejaVuSans-5f" transform="translate(683.390625 0)"/>
       <use xlink:href="#DejaVuSans-50" transform="translate(733.390625 0)"/>
       <use xlink:href="#DejaVuSans-72" transform="translate(791.943359 0)"/>
       <use xlink:href="#DejaVuSans-6f" transform="translate(830.806641 0)"/>
       <use xlink:href="#DejaVuSans-64" transform="translate(891.988281 0)"/>
       <use xlink:href="#DejaVuSans-75" transform="translate(955.464844 0)"/>
       <use xlink:href="#DejaVuSans-63" transform="translate(1018.84375 0)"/>
       <use xlink:href="#DejaVuSans-74" transform="translate(1073.824219 0)"/>
       <use xlink:href="#DejaVuSans-73" transform="translate(1113.033203 0)"/>
       <use xlink:href="#DejaVuSans-5f" transform="translate(1165.132812 0)"/>
       <use xlink:href="#DejaVuSans-28" transform="translate(1215.132812 0)"/>
       <use xlink:href="#DejaVuSans-42" transform="translate(1254.146484 0)"/>
       <use xlink:href="#DejaVuSans-61" transform="translate(1322.75 0)"/>
       <use xlink:href="#DejaVuSans-73" transform="translate(1384.029297 0)"/>
       <use xlink:href="#DejaVuSans-65" transform="translate(1436.128906 0)"/>
       <use xlink:href="#DejaVuSans-29" transform="translate(1497.652344 0)"/>
      </g>
     </g>
    </g>
    <g id="ytick_10">
     <g id="line2d_15">
      <g>
       <use xlink:href="#mcdf9928fc1" x="240.01" y="89.057032" style="stroke: #000000; stroke-width: 0.8"/>
      </g>
     </g>
     <g id="text_16">
      <!-- Total_Medium_Products_(+10%_Unforeseen) -->
      <g transform="translate(10.900625 92.856251) scale(0.1 -0.1)">
       <use xlink:href="#DejaVuSans-54"/>
       <use xlink:href="#DejaVuSans-6f" transform="translate(44.083984 0)"/>
       <use xlink:href="#DejaVuSans-74" transform="translate(105.265625 0)"/>
       <use xlink:href="#DejaVuSans-61" transform="translate(144.474609 0)"/>
       <use xlink:href="#DejaVuSans-6c" transform="translate(205.753906 0)"/>
       <use xlink:href="#DejaVuSans-5f" transform="translate(233.537109 0)"/>
       <use xlink:href="#DejaVuSans-4d" transform="translate(283.537109 0)"/>
       <use xlink:href="#DejaVuSans-65" transform="translate(369.816406 0)"/>
       <use xlink:href="#DejaVuSans-64" transform="translate(431.339844 0)"/>
       <use xlink:href="#DejaVuSans-69" transform="translate(494.816406 0)"/>
       <use xlink:href="#DejaVuSans-75" transform="translate(522.599609 0)"/>
       <use xlink:href="#DejaVuSans-6d" transform="translate(585.978516 0)"/>
       <use xlink:href="#DejaVuSans-5f" transform="translate(683.390625 0)"/>
       <use xlink:href="#DejaVuSans-50" transform="translate(733.390625 0)"/>
       <use xlink:href="#DejaVuSans-72" transform="translate(791.943359 0)"/>
       <use xlink:href="#DejaVuSans-6f" transform="translate(830.806641 0)"/>
       <use xlink:href="#DejaVuSans-64" transform="translate(891.988281 0)"/>
       <use xlink:href="#DejaVuSans-75" transform="translate(955.464844 0)"/>
       <use xlink:href="#DejaVuSans-63" transform="translate(1018.84375 0)"/>
       <use xlink:href="#DejaVuSans-74" transform="translate(1073.824219 0)"/>
       <use xlink:href="#DejaVuSans-73" transform="translate(1113.033203 0)"/>
       <use xlink:href="#DejaVuSans-5f" transform="translate(1165.132812 0)"/>
       <use xlink:href="#DejaVuSans-28" transform="translate(1215.132812 0)"/>
       <use xlink:href="#DejaVuSans-2b" transform="translate(1254.146484 0)"/>
       <use xlink:href="#DejaVuSans-31" transform="translate(1337.935547 0)"/>
       <use xlink:href="#DejaVuSans-30" transform="translate(1401.558594 0)"/>
       <use xlink:href="#DejaVuSans-25" transform="translate(1465.181641 0)"/>
       <use xlink:href="#DejaVuSans-5f" transform="translate(1560.201172 0)"/>
       <use xlink:href="#DejaVuSans-55" transform="translate(1610.201172 0)"/>
       <use xlink:href="#DejaVuSans-6e" transform="translate(1683.394531 0)"/>
       <use xlink:href="#DejaVuSans-66" transform="translate(1746.773438 0)"/>
       <use xlink:href="#DejaVuSans-6f" transform="translate(1781.978516 0)"/>
       <use xlink:href="#DejaVuSans-72" transform="translate(1843.160156 0)"/>
       <use xlink:href="#DejaVuSans-65" transform="translate(1882.023438 0)"/>
       <use xlink:href="#DejaVuSans-73" transform="translate(1943.546875 0)"/>
       <use xlink:href="#DejaVuSans-65" transform="translate(1995.646484 0)"/>
       <use xlink:href="#DejaVuSans-65" transform="translate(2057.169922 0)"/>
       <use xlink:href="#DejaVuSans-6e" transform="translate(2118.693359 0)"/>
       <use xlink:href="#DejaVuSans-29" transform="translate(2182.072266 0)"/>
      </g>
     </g>
    </g>
    <g id="ytick_11">
     <g id="line2d_16">
      <g>
       <use xlink:href="#mcdf9928fc1" x="240.01" y="67.577255" style="stroke: #000000; stroke-width: 0.8"/>
      </g>
     </g>
     <g id="text_17">
      <!-- Total_Heavy_Products_(Base) -->
      <g transform="translate(87.689688 71.376474) scale(0.1 -0.1)">
       <defs>
        <path id="DejaVuSans-48" d="M 628 4666 
L 1259 4666 
L 1259 2753 
L 3553 2753 
L 3553 4666 
L 4184 4666 
L 4184 0 
L 3553 0 
L 3553 2222 
L 1259 2222 
L 1259 0 
L 628 0 
L 628 4666 
z
" transform="scale(0.015625)"/>
        <path id="DejaVuSans-79" d="M 2059 -325 
Q 1816 -950 1584 -1140 
Q 1353 -1331 966 -1331 
L 506 -1331 
L 506 -850 
L 844 -850 
Q 1081 -850 1212 -737 
Q 1344 -625 1503 -206 
L 1606 56 
L 191 3500 
L 800 3500 
L 1894 763 
L 2988 3500 
L 3597 3500 
L 2059 -325 
z
" transform="scale(0.015625)"/>
       </defs>
       <use xlink:href="#DejaVuSans-54"/>
       <use xlink:href="#DejaVuSans-6f" transform="translate(44.083984 0)"/>
       <use xlink:href="#DejaVuSans-74" transform="translate(105.265625 0)"/>
       <use xlink:href="#DejaVuSans-61" transform="translate(144.474609 0)"/>
       <use xlink:href="#DejaVuSans-6c" transform="translate(205.753906 0)"/>
       <use xlink:href="#DejaVuSans-5f" transform="translate(233.537109 0)"/>
       <use xlink:href="#DejaVuSans-48" transform="translate(283.537109 0)"/>
       <use xlink:href="#DejaVuSans-65" transform="translate(358.732422 0)"/>
       <use xlink:href="#DejaVuSans-61" transform="translate(420.255859 0)"/>
       <use xlink:href="#DejaVuSans-76" transform="translate(481.535156 0)"/>
       <use xlink:href="#DejaVuSans-79" transform="translate(540.714844 0)"/>
       <use xlink:href="#DejaVuSans-5f" transform="translate(599.894531 0)"/>
       <use xlink:href="#DejaVuSans-50" transform="translate(649.894531 0)"/>
       <use xlink:href="#DejaVuSans-72" transform="translate(708.447266 0)"/>
       <use xlink:href="#DejaVuSans-6f" transform="translate(747.310547 0)"/>
       <use xlink:href="#DejaVuSans-64" transform="translate(808.492188 0)"/>
       <use xlink:href="#DejaVuSans-75" transform="translate(871.96875 0)"/>
       <use xlink:href="#DejaVuSans-63" transform="translate(935.347656 0)"/>
       <use xlink:href="#DejaVuSans-74" transform="translate(990.328125 0)"/>
       <use xlink:href="#DejaVuSans-73" transform="translate(1029.537109 0)"/>
       <use xlink:href="#DejaVuSans-5f" transform="translate(1081.636719 0)"/>
       <use xlink:href="#DejaVuSans-28" transform="translate(1131.636719 0)"/>
       <use xlink:href="#DejaVuSans-42" transform="translate(1170.650391 0)"/>
       <use xlink:href="#DejaVuSans-61" transform="translate(1239.253906 0)"/>
       <use xlink:href="#DejaVuSans-73" transform="translate(1300.533203 0)"/>
       <use xlink:href="#DejaVuSans-65" transform="translate(1352.632812 0)"/>
       <use xlink:href="#DejaVuSans-29" transform="translate(1414.15625 0)"/>
      </g>
     </g>
    </g>
    <g id="ytick_12">
     <g id="line2d_17">
      <g>
       <use xlink:href="#mcdf9928fc1" x="240.01" y="46.097479" style="stroke: #000000; stroke-width: 0.8"/>
      </g>
     </g>
     <g id="text_18">
      <!-- Total_Heavy_Products_(+10%_Unforeseen) -->
      <g transform="translate(19.2475 49.896698) scale(0.1 -0.1)">
       <use xlink:href="#DejaVuSans-54"/>
       <use xlink:href="#DejaVuSans-6f" transform="translate(44.083984 0)"/>
       <use xlink:href="#DejaVuSans-74" transform="translate(105.265625 0)"/>
       <use xlink:href="#DejaVuSans-61" transform="translate(144.474609 0)"/>
       <use xlink:href="#DejaVuSans-6c" transform="translate(205.753906 0)"/>
       <use xlink:href="#DejaVuSans-5f" transform="translate(233.537109 0)"/>
       <use xlink:href="#DejaVuSans-48" transform="translate(283.537109 0)"/>
       <use xlink:href="#DejaVuSans-65" transform="translate(358.732422 0)"/>
       <use xlink:href="#DejaVuSans-61" transform="translate(420.255859 0)"/>
       <use xlink:href="#DejaVuSans-76" transform="translate(481.535156 0)"/>
       <use xlink:href="#DejaVuSans-79" transform="translate(540.714844 0)"/>
       <use xlink:href="#DejaVuSans-5f" transform="translate(599.894531 0)"/>
       <use xlink:href="#DejaVuSans-50" transform="translate(649.894531 0)"/>
       <use xlink:href="#DejaVuSans-72" transform="translate(708.447266 0)"/>
       <use xlink:href="#DejaVuSans-6f" transform="translate(747.310547 0)"/>
       <use xlink:href="#DejaVuSans-64" transform="translate(808.492188 0)"/>
       <use xlink:href="#DejaVuSans-75" transform="translate(871.96875 0)"/>
       <use xlink:href="#DejaVuSans-63" transform="translate(935.347656 0)"/>
       <use xlink:href="#DejaVuSans-74" transform="translate(990.328125 0)"/>
       <use xlink:href="#DejaVuSans-73" transform="translate(1029.537109 0)"/>
       <use xlink:href="#DejaVuSans-5f" transform="translate(1081.636719 0)"/>
       <use xlink:href="#DejaVuSans-28" transform="translate(1131.636719 0)"/>
       <use xlink:href="#DejaVuSans-2b" transform="translate(1170.650391 0)"/>
       <use xlink:href="#DejaVuSans-31" transform="translate(1254.439453 0)"/>
       <use xlink:href="#DejaVuSans-30" transform="translate(1318.0625 0)"/>
       <use xlink:href="#DejaVuSans-25" transform="translate(1381.685547 0)"/>
       <use xlink:href="#DejaVuSans-5f" transform="translate(1476.705078 0)"/>
       <use xlink:href="#DejaVuSans-55" transform="translate(1526.705078 0)"/>
       <use xlink:href="#DejaVuSans-6e" transform="translate(1599.898438 0)"/>
       <use xlink:href="#DejaVuSans-66" transform="translate(1663.277344 0)"/>
       <use xlink:href="#DejaVuSans-6f" transform="translate(1698.482422 0)"/>
       <use xlink:href="#DejaVuSans-72" transform="translate(1759.664062 0)"/>
       <use xlink:href="#DejaVuSans-65" transform="translate(1798.527344 0)"/>
       <use xlink:href="#DejaVuSans-73" transform="translate(1860.050781 0)"/>
       <use xlink:href="#DejaVuSans-65" transform="translate(1912.150391 0)"/>
       <use xlink:href="#DejaVuSans-65" transform="translate(1973.673828 0)"/>
       <use xlink:href="#DejaVuSans-6e" transform="translate(2035.197266 0)"/>
       <use xlink:href="#DejaVuSans-29" transform="translate(2098.576172 0)"/>
      </g>
     </g>
    </g>
   </g>
   <g id="patch_24">
    <path d="M 240.01 303.64 
L 240.01 24.8325 
" style="fill: none; stroke: #000000; stroke-width: 0.8; stroke-linejoin: miter; stroke-linecap: square"/>
   </g>
   <g id="patch_25">
    <path d="M 439.597961 303.64 
L 439.597961 24.8325 
" style="fill: none; stroke: #000000; stroke-width: 0.8; stroke-linejoin: miter; stroke-linecap: square"/>
   </g>
   <g id="patch_26">
    <path d="M 240.01 303.64 
L 439.597961 303.64 
" style="fill: none; stroke: #000000; stroke-width: 0.8; stroke-linejoin: miter; stroke-linecap: square"/>
   </g>
   <g id="patch_27">
    <path d="M 240.01 24.8325 
L 439.597961 24.8325 
" style="fill: none; stroke: #000000; stroke-width: 0.8; stroke-linejoin: miter; stroke-linecap: square"/>
   </g>
   <g id="text_19">
    <!-- Robot Transport Unit Costs -->
    <g style="fill: #6c6c6c" transform="translate(261.539918 18.8325) scale(0.1 -0.1)">
     <defs>
      <path id="DejaVuSansMono-Bold-62" d="M 2656 1741 
Q 2656 2247 2487 2534 
Q 2319 2822 2022 2822 
Q 1725 2822 1553 2534 
Q 1381 2247 1381 1741 
Q 1381 1234 1553 946 
Q 1725 659 2022 659 
Q 2319 659 2487 946 
Q 2656 1234 2656 1741 
z
M 1381 3003 
Q 1550 3294 1773 3439 
Q 1997 3584 2278 3584 
Q 2900 3584 3236 3109 
Q 3572 2634 3572 1747 
Q 3572 872 3240 390 
Q 2909 -91 2309 -91 
Q 1994 -91 1759 62 
Q 1525 216 1381 519 
L 1381 0 
L 469 0 
L 469 4863 
L 1381 4863 
L 1381 3003 
z
" transform="scale(0.015625)"/>
      <path id="DejaVuSansMono-Bold-54" d="M 2388 0 
L 1466 0 
L 1466 3859 
L 281 3859 
L 281 4666 
L 3572 4666 
L 3572 3859 
L 2388 3859 
L 2388 0 
z
" transform="scale(0.015625)"/>
      <path id="DejaVuSansMono-Bold-72" d="M 3597 2534 
Q 3447 2672 3245 2740 
Q 3044 2809 2803 2809 
Q 2513 2809 2295 2707 
Q 2078 2606 1959 2413 
Q 1884 2294 1854 2125 
Q 1825 1956 1825 1613 
L 1825 0 
L 909 0 
L 909 3500 
L 1825 3500 
L 1825 2956 
Q 1959 3256 2237 3420 
Q 2516 3584 2888 3584 
Q 3075 3584 3254 3539 
Q 3434 3494 3597 3406 
L 3597 2534 
z
" transform="scale(0.015625)"/>
      <path id="DejaVuSansMono-Bold-61" d="M 2188 1644 
Q 1675 1644 1472 1512 
Q 1269 1381 1269 1063 
Q 1269 825 1409 684 
Q 1550 544 1791 544 
Q 2153 544 2353 817 
Q 2553 1091 2553 1581 
L 2553 1644 
L 2188 1644 
z
M 3463 1997 
L 3463 0 
L 2553 0 
L 2553 391 
Q 2388 159 2128 34 
Q 1869 -91 1556 -91 
Q 959 -91 626 225 
Q 294 541 294 1106 
Q 294 1719 691 2011 
Q 1088 2303 1919 2303 
L 2553 2303 
L 2553 2456 
Q 2553 2678 2392 2792 
Q 2231 2906 1919 2906 
Q 1591 2906 1283 2823 
Q 975 2741 641 2559 
L 641 3341 
Q 944 3466 1256 3525 
Q 1569 3584 1919 3584 
Q 2772 3584 3117 3237 
Q 3463 2891 3463 1997 
z
" transform="scale(0.015625)"/>
      <path id="DejaVuSansMono-Bold-70" d="M 1381 494 
L 1381 -1331 
L 469 -1331 
L 469 3500 
L 1381 3500 
L 1381 2975 
Q 1525 3278 1759 3431 
Q 1994 3584 2309 3584 
Q 2909 3584 3240 3103 
Q 3572 2622 3572 1747 
Q 3572 859 3236 384 
Q 2900 -91 2278 -91 
Q 1997 -91 1773 54 
Q 1550 200 1381 494 
z
M 2656 1753 
Q 2656 2259 2487 2546 
Q 2319 2834 2022 2834 
Q 1725 2834 1553 2546 
Q 1381 2259 1381 1753 
Q 1381 1247 1553 959 
Q 1725 672 2022 672 
Q 2319 672 2487 959 
Q 2656 1247 2656 1753 
z
" transform="scale(0.015625)"/>
     </defs>
     <use xlink:href="#DejaVuSansMono-Bold-52"/>
     <use xlink:href="#DejaVuSansMono-Bold-6f" transform="translate(60.205078 0)"/>
     <use xlink:href="#DejaVuSansMono-Bold-62" transform="translate(120.410156 0)"/>
     <use xlink:href="#DejaVuSansMono-Bold-6f" transform="translate(180.615234 0)"/>
     <use xlink:href="#DejaVuSansMono-Bold-74" transform="translate(240.820312 0)"/>
     <use xlink:href="#DejaVuSansMono-Bold-20" transform="translate(301.025391 0)"/>
     <use xlink:href="#DejaVuSansMono-Bold-54" transform="translate(361.230469 0)"/>
     <use xlink:href="#DejaVuSansMono-Bold-72" transform="translate(421.435547 0)"/>
     <use xlink:href="#DejaVuSansMono-Bold-61" transform="translate(481.640625 0)"/>
     <use xlink:href="#DejaVuSansMono-Bold-6e" transform="translate(541.845703 0)"/>
     <use xlink:href="#DejaVuSansMono-Bold-73" transform="translate(602.050781 0)"/>
     <use xlink:href="#DejaVuSansMono-Bold-70" transform="translate(662.255859 0)"/>
     <use xlink:href="#DejaVuSansMono-Bold-6f" transform="translate(722.460938 0)"/>
     <use xlink:href="#DejaVuSansMono-Bold-72" transform="translate(782.666016 0)"/>
     <use xlink:href="#DejaVuSansMono-Bold-74" transform="translate(842.871094 0)"/>
     <use xlink:href="#DejaVuSansMono-Bold-20" transform="translate(903.076172 0)"/>
     <use xlink:href="#DejaVuSansMono-Bold-55" transform="translate(963.28125 0)"/>
     <use xlink:href="#DejaVuSansMono-Bold-6e" transform="translate(1023.486328 0)"/>
     <use xlink:href="#DejaVuSansMono-Bold-69" transform="translate(1083.691406 0)"/>
     <use xlink:href="#DejaVuSansMono-Bold-74" transform="translate(1143.896484 0)"/>
     <use xlink:href="#DejaVuSansMono-Bold-20" transform="translate(1204.101562 0)"/>
     <use xlink:href="#DejaVuSansMono-Bold-43" transform="translate(1264.306641 0)"/>
     <use xlink:href="#DejaVuSansMono-Bold-6f" transform="translate(1324.511719 0)"/>
     <use xlink:href="#DejaVuSansMono-Bold-73" transform="translate(1384.716797 0)"/>
     <use xlink:href="#DejaVuSansMono-Bold-74" transform="translate(1444.921875 0)"/>
     <use xlink:href="#DejaVuSansMono-Bold-73" transform="translate(1505.126953 0)"/>
    </g>
   </g>
  </g>
 </g>
 <defs>
  <clipPath id="p9c99984e99">
   <rect x="240.01" y="24.8325" width="199.587961" height="278.8075"/>
  </clipPath>
 </defs>
</svg>
